<svg width="25" height="24" viewBox="0 0 25 24" fill="none" xmlns="http://www.w3.org/2000/svg">
<g id="material-symbols:apartment-rounded">
<path id="Vector" d="M5.75 21C5.2 21 4.729 20.804 4.337 20.412C3.945 20.02 3.74934 19.5493 3.75 19V9C3.75 8.45 3.946 7.979 4.338 7.587C4.73 7.195 5.20067 6.99934 5.75 7H7.75V5C7.75 4.45 7.946 3.979 8.338 3.587C8.73 3.195 9.20067 2.99934 9.75 3H15.75C16.3 3 16.771 3.196 17.163 3.588C17.555 3.98 17.7507 4.45067 17.75 5V11H19.75C20.3 11 20.771 11.196 21.163 11.588C21.555 11.98 21.7507 12.4507 21.75 13V19C21.75 19.55 21.554 20.021 21.162 20.413C20.77 20.805 20.2993 21.0007 19.75 21H13.75V17H11.75V21H5.75ZM5.75 19H7.75V17H5.75V19ZM5.75 15H7.75V13H5.75V15ZM5.75 11H7.75V9H5.75V11ZM9.75 15H11.75V13H9.75V15ZM9.75 11H11.75V9H9.75V11ZM9.75 7H11.75V5H9.75V7ZM13.75 15H15.75V13H13.75V15ZM13.75 11H15.75V9H13.75V11ZM13.75 7H15.75V5H13.75V7ZM17.75 19H19.75V17H17.75V19ZM17.75 15H19.75V13H17.75V15Z" fill="#E7EEF8"/>
</g>
</svg>
