<svg width="20" height="16" viewBox="0 0 20 16" fill="none" xmlns="http://www.w3.org/2000/svg">
<path id="Vector" d="M17.8125 6.91289C17.3791 6.72263 16.9108 6.62459 16.4375 6.625H4.0625C3.5892 6.62454 3.12097 6.72243 2.6875 6.91246C2.07485 7.18038 1.55353 7.62098 1.18724 8.1804C0.82096 8.73982 0.625585 9.39383 0.625 10.0625V14.875C0.625 15.0573 0.697433 15.2322 0.826364 15.3611C0.955295 15.4901 1.13016 15.5625 1.3125 15.5625C1.49484 15.5625 1.6697 15.4901 1.79864 15.3611C1.92757 15.2322 2 15.0573 2 14.875V14.5312C2.00111 14.4404 2.03769 14.3536 2.10191 14.2894C2.16614 14.2252 2.25293 14.1886 2.34375 14.1875H18.1562C18.2471 14.1886 18.3339 14.2252 18.3981 14.2894C18.4623 14.3536 18.4989 14.4404 18.5 14.5312V14.875C18.5 15.0573 18.5724 15.2322 18.7014 15.3611C18.8303 15.4901 19.0052 15.5625 19.1875 15.5625C19.3698 15.5625 19.5447 15.4901 19.6736 15.3611C19.8026 15.2322 19.875 15.0573 19.875 14.875V10.0625C19.8743 9.39391 19.6789 8.73998 19.3126 8.18065C18.9464 7.62131 18.4251 7.18078 17.8125 6.91289ZM15.4062 0.4375H5.09375C4.45557 0.4375 3.84353 0.691015 3.39227 1.14227C2.94102 1.59353 2.6875 2.20557 2.6875 2.84375V5.9375C2.68752 5.96413 2.69373 5.9904 2.70564 6.01422C2.71755 6.03805 2.73483 6.05878 2.75612 6.07478C2.77741 6.09078 2.80213 6.10161 2.82833 6.10642C2.85453 6.11123 2.88148 6.10989 2.90707 6.1025C3.28238 5.99273 3.67146 5.93717 4.0625 5.9375H4.24426C4.28668 5.93777 4.32771 5.92234 4.35944 5.89418C4.39117 5.86602 4.41136 5.82712 4.41613 5.78496C4.45363 5.44903 4.61356 5.13868 4.86537 4.91318C5.11718 4.68768 5.44323 4.56284 5.78125 4.5625H8.1875C8.52574 4.56253 8.85211 4.68722 9.10419 4.91275C9.35627 5.13828 9.51638 5.44881 9.55391 5.78496C9.55868 5.82712 9.57887 5.86602 9.6106 5.89418C9.64233 5.92234 9.68336 5.93777 9.72578 5.9375H10.7768C10.8192 5.93777 10.8602 5.92234 10.892 5.89418C10.9237 5.86602 10.9439 5.82712 10.9487 5.78496C10.9861 5.44925 11.1459 5.13908 11.3974 4.91361C11.649 4.68814 11.9747 4.56316 12.3125 4.5625H14.7188C15.057 4.56253 15.3834 4.68722 15.6354 4.91275C15.8875 5.13828 16.0476 5.44881 16.0852 5.78496C16.0899 5.82712 16.1101 5.86602 16.1419 5.89418C16.1736 5.92234 16.2146 5.93777 16.257 5.9375H16.4375C16.8286 5.93731 17.2176 5.99302 17.5929 6.10293C17.6186 6.11033 17.6455 6.11167 17.6718 6.10683C17.698 6.102 17.7227 6.09113 17.7441 6.07508C17.7654 6.05903 17.7826 6.03824 17.7945 6.01437C17.8064 5.99049 17.8125 5.96417 17.8125 5.9375V2.84375C17.8125 2.20557 17.559 1.59353 17.1077 1.14227C16.6565 0.691015 16.0444 0.4375 15.4062 0.4375Z" fill="#1151B4"/>
</svg>
