<svg width="21" height="20" viewBox="0 0 21 20" fill="none" xmlns="http://www.w3.org/2000/svg">
<g id="ion:home" clip-path="url(#clip0_1527_3244)">
<path id="Vector" d="M10.9672 3.95631C10.909 3.90068 10.8317 3.86963 10.7512 3.86963C10.6707 3.86963 10.5933 3.90068 10.5352 3.95631L3.34375 10.8262C3.31321 10.8554 3.28891 10.8906 3.27233 10.9294C3.25574 10.9683 3.24722 11.0101 3.24727 11.0524L3.24609 17.5001C3.24609 17.8316 3.37779 18.1495 3.61221 18.3839C3.84663 18.6184 4.16457 18.7501 4.49609 18.7501H8.25C8.41576 18.7501 8.57473 18.6842 8.69194 18.567C8.80915 18.4498 8.875 18.2908 8.875 18.1251V12.8126C8.875 12.7297 8.90792 12.6502 8.96653 12.5916C9.02513 12.533 9.10462 12.5001 9.1875 12.5001H12.3125C12.3954 12.5001 12.4749 12.533 12.5335 12.5916C12.5921 12.6502 12.625 12.7297 12.625 12.8126V18.1251C12.625 18.2908 12.6908 18.4498 12.8081 18.567C12.9253 18.6842 13.0842 18.7501 13.25 18.7501H17.0023C17.3339 18.7501 17.6518 18.6184 17.8862 18.3839C18.1206 18.1495 18.2523 17.8316 18.2523 17.5001V11.0524C18.2524 11.0101 18.2439 10.9683 18.2273 10.9294C18.2107 10.8906 18.1864 10.8554 18.1559 10.8262L10.9672 3.95631Z" fill="#1151B4"/>
<path id="Vector_2" d="M19.9262 9.53711L17.0043 6.7418V2.5C17.0043 2.33424 16.9384 2.17527 16.8212 2.05806C16.704 1.94085 16.5451 1.875 16.3793 1.875H14.5043C14.3385 1.875 14.1796 1.94085 14.0624 2.05806C13.9451 2.17527 13.8793 2.33424 13.8793 2.5V3.75L11.6168 1.58672C11.4051 1.37266 11.0902 1.25 10.75 1.25C10.4109 1.25 10.0969 1.37266 9.88516 1.58711L1.57656 9.53633C1.33359 9.7707 1.30312 10.1562 1.52422 10.4102C1.57974 10.4742 1.64772 10.5264 1.72402 10.5633C1.80033 10.6003 1.88336 10.6214 1.96806 10.6253C2.05277 10.6291 2.13737 10.6157 2.21674 10.5859C2.2961 10.556 2.36855 10.5103 2.42969 10.4516L10.5352 2.70625C10.5933 2.65062 10.6707 2.61957 10.7512 2.61957C10.8317 2.61957 10.909 2.65062 10.9672 2.70625L19.0734 10.4516C19.1928 10.5661 19.3528 10.6286 19.5182 10.6253C19.6836 10.6221 19.841 10.5534 19.9559 10.4344C20.1957 10.1859 20.1758 9.77578 19.9262 9.53711Z" fill="#1151B4"/>
</g>
<defs>
<clipPath id="clip0_1527_3244">
<rect width="20" height="20" fill="white" transform="translate(0.75)"/>
</clipPath>
</defs>
</svg>
