<svg width="25" height="24" viewBox="0 0 25 24" fill="none" xmlns="http://www.w3.org/2000/svg">
<g id="fluent:conference-room-24-filled">
<path id="Vector" d="M10.848 2.00994L19.848 4.00994C19.9613 4.03259 20.0633 4.09378 20.1366 4.18311C20.2098 4.27244 20.2499 4.3844 20.25 4.49994V19.4999C20.2499 19.6155 20.2098 19.7274 20.1366 19.8168C20.0633 19.9061 19.9613 19.9673 19.848 19.9899L10.848 21.9899C10.7755 22.0044 10.7007 22.0027 10.6289 21.9848C10.5572 21.9669 10.4903 21.9333 10.4331 21.8864C10.3759 21.8395 10.3298 21.7806 10.2982 21.7137C10.2665 21.6469 10.25 21.5739 10.25 21.4999V2.49994C10.25 2.426 10.2665 2.35298 10.2982 2.28616C10.3298 2.21933 10.3759 2.16036 10.4331 2.1135C10.4903 2.06663 10.5572 2.03303 10.6289 2.01513C10.7007 1.99722 10.7755 1.99545 10.848 2.00994ZM9.25 3.99994V19.9999H5C4.81876 19.9999 4.64366 19.9343 4.50707 19.8152C4.37048 19.6961 4.28165 19.5315 4.257 19.3519L4.25 19.2499V4.74994C4.25001 4.5687 4.31564 4.3936 4.43477 4.25701C4.55389 4.12042 4.71845 4.03159 4.898 4.00694L5 3.99994H9.25ZM13.25 10.9999C12.9848 10.9999 12.7304 11.1053 12.5429 11.2928C12.3554 11.4804 12.25 11.7347 12.25 11.9999C12.25 12.2652 12.3554 12.5195 12.5429 12.707C12.7304 12.8946 12.9848 12.9999 13.25 12.9999C13.5152 12.9999 13.7696 12.8946 13.9571 12.707C14.1446 12.5195 14.25 12.2652 14.25 11.9999C14.25 11.7347 14.1446 11.4804 13.9571 11.2928C13.7696 11.1053 13.5152 10.9999 13.25 10.9999Z" fill="#1151B4"/>
</g>
</svg>
