<svg width="25" height="24" viewBox="0 0 25 24" fill="none" xmlns="http://www.w3.org/2000/svg">
<g id="fluent:payment-32-regular">
<path id="Vector" d="M2 7.125C2 6.22989 2.35558 5.37145 2.98851 4.73851C3.62145 4.10558 4.47989 3.75 5.375 3.75H19.625C20.5201 3.75 21.3785 4.10558 22.0115 4.73851C22.6444 5.37145 23 6.22989 23 7.125V16.875C23 17.7701 22.6444 18.6285 22.0115 19.2615C21.3785 19.8944 20.5201 20.25 19.625 20.25H5.375C4.47989 20.25 3.62145 19.8944 2.98851 19.2615C2.35558 18.6285 2 17.7701 2 16.875V7.125ZM5.375 5.25C4.87772 5.25 4.40081 5.44754 4.04917 5.79917C3.69754 6.15081 3.5 6.62772 3.5 7.125V8.25H21.5V7.125C21.5 6.62772 21.3025 6.15081 20.9508 5.79917C20.5992 5.44754 20.1223 5.25 19.625 5.25H5.375ZM3.5 16.875C3.5 17.3723 3.69754 17.8492 4.04917 18.2008C4.40081 18.5525 4.87772 18.75 5.375 18.75H19.625C20.1223 18.75 20.5992 18.5525 20.9508 18.2008C21.3025 17.8492 21.5 17.3723 21.5 16.875V9.75H3.5V16.875ZM16.25 14.25H18.5C18.6989 14.25 18.8897 14.329 19.0303 14.4697C19.171 14.6103 19.25 14.8011 19.25 15C19.25 15.1989 19.171 15.3897 19.0303 15.5303C18.8897 15.671 18.6989 15.75 18.5 15.75H16.25C16.0511 15.75 15.8603 15.671 15.7197 15.5303C15.579 15.3897 15.5 15.1989 15.5 15C15.5 14.8011 15.579 14.6103 15.7197 14.4697C15.8603 14.329 16.0511 14.25 16.25 14.25Z" fill="#101828"/>
</g>
</svg>
