<svg width="57" height="56" viewBox="0 0 57 56" fill="none" xmlns="http://www.w3.org/2000/svg">
<rect x="4.5" y="4" width="48" height="48" rx="24" fill="#FCEEEE"/>
<path d="M23.5 37C22.95 37 22.4792 36.8042 22.0875 36.4125C21.6958 36.0208 21.5 35.55 21.5 35V22C21.2167 22 20.9792 21.9042 20.7875 21.7125C20.5958 21.5208 20.5 21.2833 20.5 21C20.5 20.7167 20.5958 20.4792 20.7875 20.2875C20.9792 20.0958 21.2167 20 21.5 20H25.5C25.5 19.7167 25.5958 19.4792 25.7875 19.2875C25.9792 19.0958 26.2167 19 26.5 19H30.5C30.7833 19 31.0208 19.0958 31.2125 19.2875C31.4042 19.4792 31.5 19.7167 31.5 20H35.5C35.7833 20 36.0208 20.0958 36.2125 20.2875C36.4042 20.4792 36.5 20.7167 36.5 21C36.5 21.2833 36.4042 21.5208 36.2125 21.7125C36.0208 21.9042 35.7833 22 35.5 22V35C35.5 35.55 35.3042 36.0208 34.9125 36.4125C34.5208 36.8042 34.05 37 33.5 37H23.5ZM23.5 22V35H33.5V22H23.5ZM25.5 32C25.5 32.2833 25.5958 32.5208 25.7875 32.7125C25.9792 32.9042 26.2167 33 26.5 33C26.7833 33 27.0208 32.9042 27.2125 32.7125C27.4042 32.5208 27.5 32.2833 27.5 32V25C27.5 24.7167 27.4042 24.4792 27.2125 24.2875C27.0208 24.0958 26.7833 24 26.5 24C26.2167 24 25.9792 24.0958 25.7875 24.2875C25.5958 24.4792 25.5 24.7167 25.5 25V32ZM29.5 32C29.5 32.2833 29.5958 32.5208 29.7875 32.7125C29.9792 32.9042 30.2167 33 30.5 33C30.7833 33 31.0208 32.9042 31.2125 32.7125C31.4042 32.5208 31.5 32.2833 31.5 32V25C31.5 24.7167 31.4042 24.4792 31.2125 24.2875C31.0208 24.0958 30.7833 24 30.5 24C30.2167 24 29.9792 24.0958 29.7875 24.2875C29.5958 24.4792 29.5 24.7167 29.5 25V32Z" fill="#B3261E"/>
<rect x="4.5" y="4" width="48" height="48" rx="24" stroke="#FFFBF9" stroke-width="8"/>
</svg>
