<svg width="25" height="24" viewBox="0 0 25 24" fill="none" xmlns="http://www.w3.org/2000/svg">
<g id="iconamoon:invoice">
<path id="Vector" d="M15.5 7H9.5M15.5 11H9.5M15.5 15H11.5M5.5 3H19.5V21L18.468 20.116C18.1055 19.8053 17.6439 19.6346 17.1665 19.6346C16.6891 19.6346 16.2275 19.8053 15.865 20.116L14.833 21L13.802 20.116C13.4395 19.8051 12.9776 19.6342 12.5 19.6342C12.0224 19.6342 11.5605 19.8051 11.198 20.116L10.167 21L9.135 20.116C8.77253 19.8053 8.31088 19.6346 7.8335 19.6346C7.35611 19.6346 6.89447 19.8053 6.532 20.116L5.5 21V3Z" stroke="#101828" stroke-width="2" stroke-linecap="round" stroke-linejoin="round"/>
</g>
</svg>
