<svg width="19" height="19" viewBox="0 0 19 19" fill="none" xmlns="http://www.w3.org/2000/svg">
    <path d="M13.3156 2.72151V1.55151C13.3156 1.24401 13.0606 0.989014 12.7531 0.989014C12.4456 0.989014 12.1906 1.24401 12.1906 1.55151V2.67651H7.3156V1.55151C7.3156 1.24401 7.0606 0.989014 6.7531 0.989014C6.4456 0.989014 6.1906 1.24401 6.1906 1.55151V2.72151C4.1656 2.90901 3.1831 4.11651 3.0331 5.90901C3.0181 6.12651 3.1981 6.30651 3.4081 6.30651H16.0981C16.3156 6.30651 16.4956 6.11901 16.4731 5.90901C16.3231 4.11651 15.3406 2.90901 13.3156 2.72151Z" fill="#1151B4"/>
    <path d="M15.7529 7.4314H3.75293C3.34043 7.4314 3.00293 7.7689 3.00293 8.1814V12.8014C3.00293 15.0514 4.12793 16.5514 6.75293 16.5514H12.7529C15.3779 16.5514 16.5029 15.0514 16.5029 12.8014V8.1814C16.5029 7.7689 16.1654 7.4314 15.7529 7.4314ZM7.66043 13.7089C7.62293 13.7389 7.58543 13.7764 7.54793 13.7989C7.50293 13.8289 7.45793 13.8514 7.41293 13.8664C7.36793 13.8889 7.32293 13.9039 7.27793 13.9114C7.22543 13.9189 7.18043 13.9264 7.12793 13.9264C7.03043 13.9264 6.93293 13.9039 6.84293 13.8664C6.74543 13.8289 6.67043 13.7764 6.59543 13.7089C6.46043 13.5664 6.37793 13.3714 6.37793 13.1764C6.37793 12.9814 6.46043 12.7864 6.59543 12.6439C6.67043 12.5764 6.74543 12.5239 6.84293 12.4864C6.97793 12.4264 7.12793 12.4114 7.27793 12.4414C7.32293 12.4489 7.36793 12.4639 7.41293 12.4864C7.45793 12.5014 7.50293 12.5239 7.54793 12.5539C7.58543 12.5839 7.62293 12.6139 7.66043 12.6439C7.79543 12.7864 7.87793 12.9814 7.87793 13.1764C7.87793 13.3714 7.79543 13.5664 7.66043 13.7089ZM7.66043 11.0839C7.51793 11.2189 7.32293 11.3014 7.12793 11.3014C6.93293 11.3014 6.73793 11.2189 6.59543 11.0839C6.46043 10.9414 6.37793 10.7464 6.37793 10.5514C6.37793 10.3564 6.46043 10.1614 6.59543 10.0189C6.80543 9.8089 7.13543 9.7414 7.41293 9.8614C7.51043 9.8989 7.59293 9.9514 7.66043 10.0189C7.79543 10.1614 7.87793 10.3564 7.87793 10.5514C7.87793 10.7464 7.79543 10.9414 7.66043 11.0839ZM10.2854 13.7089C10.1429 13.8439 9.94793 13.9264 9.75293 13.9264C9.55793 13.9264 9.36293 13.8439 9.22043 13.7089C9.08543 13.5664 9.00293 13.3714 9.00293 13.1764C9.00293 12.9814 9.08543 12.7864 9.22043 12.6439C9.49793 12.3664 10.0079 12.3664 10.2854 12.6439C10.4204 12.7864 10.5029 12.9814 10.5029 13.1764C10.5029 13.3714 10.4204 13.5664 10.2854 13.7089ZM10.2854 11.0839C10.2479 11.1139 10.2104 11.1439 10.1729 11.1739C10.1279 11.2039 10.0829 11.2264 10.0379 11.2414C9.99293 11.2639 9.94793 11.2789 9.90293 11.2864C9.85043 11.2939 9.80543 11.3014 9.75293 11.3014C9.55793 11.3014 9.36293 11.2189 9.22043 11.0839C9.08543 10.9414 9.00293 10.7464 9.00293 10.5514C9.00293 10.3564 9.08543 10.1614 9.22043 10.0189C9.28793 9.9514 9.37043 9.8989 9.46793 9.8614C9.74543 9.7414 10.0754 9.8089 10.2854 10.0189C10.4204 10.1614 10.5029 10.3564 10.5029 10.5514C10.5029 10.7464 10.4204 10.9414 10.2854 11.0839ZM12.9104 13.7089C12.7679 13.8439 12.5729 13.9264 12.3779 13.9264C12.1829 13.9264 11.9879 13.8439 11.8454 13.7089C11.7104 13.5664 11.6279 13.3714 11.6279 13.1764C11.6279 12.9814 11.7104 12.7864 11.8454 12.6439C12.1229 12.3664 12.6329 12.3664 12.9104 12.6439C13.0454 12.7864 13.1279 12.9814 13.1279 13.1764C13.1279 13.3714 13.0454 13.5664 12.9104 13.7089ZM12.9104 11.0839C12.8729 11.1139 12.8354 11.1439 12.7979 11.1739C12.7529 11.2039 12.7079 11.2264 12.6629 11.2414C12.6179 11.2639 12.5729 11.2789 12.5279 11.2864C12.4754 11.2939 12.4229 11.3014 12.3779 11.3014C12.1829 11.3014 11.9879 11.2189 11.8454 11.0839C11.7104 10.9414 11.6279 10.7464 11.6279 10.5514C11.6279 10.3564 11.7104 10.1614 11.8454 10.0189C11.9204 9.9514 11.9954 9.8989 12.0929 9.8614C12.2279 9.8014 12.3779 9.7864 12.5279 9.8164C12.5729 9.8239 12.6179 9.8389 12.6629 9.8614C12.7079 9.8764 12.7529 9.8989 12.7979 9.9289C12.8354 9.9589 12.8729 9.9889 12.9104 10.0189C13.0454 10.1614 13.1279 10.3564 13.1279 10.5514C13.1279 10.7464 13.0454 10.9414 12.9104 11.0839Z" fill="#1151B4"/>
</svg>
