<svg width="18" height="19" viewBox="0 0 18 19" fill="none" xmlns="http://www.w3.org/2000/svg">
    <path d="M6 1.82007V4.07007" stroke="#1151B4" stroke-width="1.2" stroke-miterlimit="10" stroke-linecap="round" stroke-linejoin="round"/>
    <path d="M12 1.82007V4.07007" stroke="#1151B4" stroke-width="1.2" stroke-miterlimit="10" stroke-linecap="round" stroke-linejoin="round"/>
    <path d="M2.625 7.13745H15.375" stroke="#1151B4" stroke-width="1.2" stroke-miterlimit="10" stroke-linecap="round" stroke-linejoin="round"/>
    <path d="M16.5 14.5701C16.5 15.1326 16.3425 15.6651 16.065 16.1151C15.5475 16.9851 14.595 17.5701 13.5 17.5701C12.7425 17.5701 12.0525 17.2926 11.5275 16.8201C11.295 16.6251 11.0925 16.3851 10.935 16.1151C10.6575 15.6651 10.5 15.1326 10.5 14.5701C10.5 12.9126 11.8425 11.5701 13.5 11.5701C14.4 11.5701 15.2025 11.9676 15.75 12.5901C16.215 13.1226 16.5 13.8126 16.5 14.5701Z" stroke="#1151B4" stroke-width="1.2" stroke-miterlimit="10" stroke-linecap="round" stroke-linejoin="round"/>
    <path d="M12.33 14.57L13.0725 15.3125L14.67 13.835" stroke="#1151B4" stroke-width="1.2" stroke-linecap="round" stroke-linejoin="round"/>
    <path d="M15.75 6.69507V12.5901C15.2025 11.9676 14.4 11.5701 13.5 11.5701C11.8425 11.5701 10.5 12.9126 10.5 14.5701C10.5 15.1326 10.6575 15.6651 10.935 16.1151C11.0925 16.3851 11.295 16.6251 11.5275 16.8201H6C3.375 16.8201 2.25 15.3201 2.25 13.0701V6.69507C2.25 4.44507 3.375 2.94507 6 2.94507H12C14.625 2.94507 15.75 4.44507 15.75 6.69507Z" stroke="#1151B4" stroke-width="1.2" stroke-miterlimit="10" stroke-linecap="round" stroke-linejoin="round"/>
    <path d="M8.99661 10.595H9.00335" stroke="#1151B4" stroke-width="1.2" stroke-linecap="round" stroke-linejoin="round"/>
    <path d="M6.22073 10.595H6.22747" stroke="#1151B4" stroke-width="1.2" stroke-linecap="round" stroke-linejoin="round"/>
    <path d="M6.22073 12.845H6.22747" stroke="#1151B4" stroke-width="1.2" stroke-linecap="round" stroke-linejoin="round"/>
</svg>
