<svg width="22" height="22" viewBox="0 0 22 22" fill="none" xmlns="http://www.w3.org/2000/svg">
    <path d="M15.166 3C13.4452 3 11.9385 3.74 10.9993 4.99083C10.0602 3.74 8.55352 3 6.83268 3C5.46287 3.00154 4.14961 3.54638 3.181 4.51499C2.2124 5.48359 1.66756 6.79686 1.66602 8.16667C1.66602 14 10.3152 18.7217 10.6835 18.9167C10.7806 18.9689 10.8891 18.9962 10.9993 18.9962C11.1096 18.9962 11.2181 18.9689 11.3152 18.9167C11.6835 18.7217 20.3327 14 20.3327 8.16667C20.3311 6.79686 19.7863 5.48359 18.8177 4.51499C17.8491 3.54638 16.5358 3.00154 15.166 3ZM10.9993 17.5667C9.47768 16.68 2.99935 12.6408 2.99935 8.16667C3.00067 7.15041 3.40496 6.17615 4.12357 5.45755C4.84217 4.73895 5.81643 4.33466 6.83268 4.33333C8.45352 4.33333 9.81435 5.19667 10.3827 6.58333C10.4329 6.70561 10.5184 6.81019 10.6282 6.88379C10.738 6.95739 10.8672 6.99669 10.9993 6.99669C11.1315 6.99669 11.2607 6.95739 11.3705 6.88379C11.4803 6.81019 11.5658 6.70561 11.616 6.58333C12.1843 5.19417 13.5452 4.33333 15.166 4.33333C16.1823 4.33466 17.1565 4.73895 17.8751 5.45755C18.5937 6.17615 18.998 7.15041 18.9993 8.16667C18.9993 12.6342 12.5193 16.6792 10.9993 17.5667Z" fill="#1151B4"/>
</svg>
