<svg width="21" height="21" viewBox="0 0 21 21" fill="none" xmlns="http://www.w3.org/2000/svg">
    <path d="M7.49171 11.5917L13.1834 14.9083M13.175 5.75833L7.49171 9.075M17.8334 4.5C17.8334 5.88071 16.7141 7 15.3334 7C13.9526 7 12.8334 5.88071 12.8334 4.5C12.8334 3.11929 13.9526 2 15.3334 2C16.7141 2 17.8334 3.11929 17.8334 4.5ZM7.83337 10.3333C7.83337 11.7141 6.71408 12.8333 5.33337 12.8333C3.95267 12.8333 2.83337 11.7141 2.83337 10.3333C2.83337 8.95258 3.95267 7.83333 5.33337 7.83333C6.71408 7.83333 7.83337 8.95258 7.83337 10.3333ZM17.8334 16.1667C17.8334 17.5474 16.7141 18.6667 15.3334 18.6667C13.9526 18.6667 12.8334 17.5474 12.8334 16.1667C12.8334 14.7859 13.9526 13.6667 15.3334 13.6667C16.7141 13.6667 17.8334 14.7859 17.8334 16.1667Z" stroke="#222222" stroke-width="1.25" stroke-linecap="round" stroke-linejoin="round"/>
</svg>
