<svg width="33" height="33" viewBox="0 0 33 33" fill="none" xmlns="http://www.w3.org/2000/svg">
    <path d="M18.8065 5.52768L21.1532 10.221C21.4732 10.8743 22.3265 11.501 23.0465 11.621L27.2999 12.3277C30.0199 12.781 30.6599 14.7543 28.6999 16.701L25.3932 20.0077C24.8332 20.5677 24.5265 21.6477 24.6999 22.421L25.6465 26.5143C26.3932 29.7543 24.6732 31.0077 21.8065 29.3143L17.8199 26.9543C17.0999 26.5277 15.9132 26.5277 15.1799 26.9543L11.1932 29.3143C8.33988 31.0077 6.60655 29.741 7.35321 26.5143L8.29988 22.421C8.47321 21.6477 8.16655 20.5677 7.60655 20.0077L4.29988 16.701C2.35321 14.7543 2.97988 12.781 5.69988 12.3277L9.95321 11.621C10.6599 11.501 11.5132 10.8743 11.8332 10.221L14.1799 5.52768C15.4599 2.98101 17.5399 2.98101 18.8065 5.52768Z" stroke="#1151B4" stroke-width="1.5" stroke-linecap="round" stroke-linejoin="round"/>
</svg>
