<svg width="18" height="18" viewBox="0 0 18 18" fill="none" xmlns="http://www.w3.org/2000/svg">
    <path d="M6 1.50659V3.75659" stroke="#1151B4" stroke-miterlimit="10" stroke-linecap="round" stroke-linejoin="round"/>
    <path d="M12 1.50659V3.75659" stroke="#1151B4" stroke-miterlimit="10" stroke-linecap="round" stroke-linejoin="round"/>
    <path d="M2.625 6.82397H15.375" stroke="#1151B4" stroke-miterlimit="10" stroke-linecap="round" stroke-linejoin="round"/>
    <path d="M16.5 14.2566C16.5 14.8191 16.3425 15.3516 16.065 15.8016C15.5475 16.6716 14.595 17.2566 13.5 17.2566C12.7425 17.2566 12.0525 16.9791 11.5275 16.5066C11.295 16.3116 11.0925 16.0716 10.935 15.8016C10.6575 15.3516 10.5 14.8191 10.5 14.2566C10.5 12.5991 11.8425 11.2566 13.5 11.2566C14.4 11.2566 15.2025 11.6541 15.75 12.2766C16.215 12.8091 16.5 13.4991 16.5 14.2566Z" stroke="#1151B4" stroke-miterlimit="10" stroke-linecap="round" stroke-linejoin="round"/>
    <path d="M12.3301 14.2565L13.0726 14.999L14.6701 13.5215" stroke="#1151B4" stroke-linecap="round" stroke-linejoin="round"/>
    <path d="M15.75 6.38159V12.2766C15.2025 11.6541 14.4 11.2566 13.5 11.2566C11.8425 11.2566 10.5 12.5991 10.5 14.2566C10.5 14.8191 10.6575 15.3516 10.935 15.8016C11.0925 16.0716 11.295 16.3116 11.5275 16.5066H6C3.375 16.5066 2.25 15.0066 2.25 12.7566V6.38159C2.25 4.13159 3.375 2.63159 6 2.63159H12C14.625 2.63159 15.75 4.13159 15.75 6.38159Z" stroke="#1151B4" stroke-miterlimit="10" stroke-linecap="round" stroke-linejoin="round"/>
    <path d="M8.99686 10.2815H9.00359" stroke="#1151B4" stroke-width="1.2" stroke-linecap="round" stroke-linejoin="round"/>
    <path d="M6.22049 10.2815H6.22723" stroke="#1151B4" stroke-width="1.2" stroke-linecap="round" stroke-linejoin="round"/>
    <path d="M6.22049 12.5315H6.22723" stroke="#1151B4" stroke-width="1.2" stroke-linecap="round" stroke-linejoin="round"/>
</svg>
