<svg width="25" height="24" viewBox="0 0 25 24" fill="none" xmlns="http://www.w3.org/2000/svg">
    <path d="M23.7499 12C23.7546 13.7861 23.1752 15.5248 22.0999 16.9509C22.0407 17.0297 21.9665 17.0961 21.8817 17.1462C21.7968 17.1964 21.7029 17.2293 21.6053 17.2431C21.5077 17.257 21.4084 17.2514 21.3129 17.2269C21.2175 17.2023 21.1278 17.1592 21.049 17.1C20.9702 17.0408 20.9038 16.9666 20.8537 16.8818C20.8036 16.7969 20.7706 16.703 20.7568 16.6054C20.7429 16.5078 20.7485 16.4085 20.773 16.313C20.7976 16.2175 20.8407 16.1279 20.8999 16.0491C21.7801 14.883 22.2542 13.4609 22.2499 12C22.2499 10.2098 21.5388 8.4929 20.2729 7.22703C19.007 5.96115 17.2901 5.25 15.4999 5.25C13.7097 5.25 11.9928 5.96115 10.7269 7.22703C9.46107 8.4929 8.74991 10.2098 8.74991 12C8.74991 12.1989 8.6709 12.3897 8.53024 12.5303C8.38959 12.671 8.19883 12.75 7.99991 12.75C7.801 12.75 7.61024 12.671 7.46958 12.5303C7.32893 12.3897 7.24991 12.1989 7.24991 12C7.24955 11.2431 7.35333 10.4898 7.55835 9.76125C7.45616 9.75 7.35304 9.75 7.24991 9.75C6.05644 9.75 4.91185 10.2241 4.06793 11.068C3.22402 11.9119 2.74991 13.0565 2.74991 14.25C2.74991 15.4435 3.22402 16.5881 4.06793 17.432C4.91185 18.2759 6.05644 18.75 7.24991 18.75H9.49991C9.69883 18.75 9.88959 18.829 10.0302 18.9697C10.1709 19.1103 10.2499 19.3011 10.2499 19.5C10.2499 19.6989 10.1709 19.8897 10.0302 20.0303C9.88959 20.171 9.69883 20.25 9.49991 20.25H7.24991C6.42508 20.2502 5.60906 20.0803 4.85283 19.751C4.0966 19.4216 3.41639 18.9399 2.8547 18.3359C2.29301 17.7318 1.86189 17.0185 1.58827 16.2403C1.31466 15.4622 1.20442 14.636 1.26444 13.8134C1.32447 12.9907 1.55347 12.1893 1.93714 11.4591C2.32081 10.7289 2.85091 10.0857 3.49434 9.56961C4.13776 9.05351 4.88069 8.67562 5.67672 8.45954C6.47275 8.24346 7.30478 8.19383 8.12085 8.31375C8.95185 6.65171 10.3196 5.31888 12.0026 4.53115C13.6856 3.74342 15.5852 3.54693 17.3938 3.9735C19.2024 4.40007 20.814 5.42472 21.9676 6.88148C23.1212 8.33824 23.7492 10.1418 23.7499 12ZM17.2193 15.9694L15.4999 17.6897V12C15.4999 11.8011 15.4209 11.6103 15.2802 11.4697C15.1396 11.329 14.9488 11.25 14.7499 11.25C14.551 11.25 14.3602 11.329 14.2196 11.4697C14.0789 11.6103 13.9999 11.8011 13.9999 12V17.6897L12.2805 15.9694C12.1398 15.8286 11.9489 15.7496 11.7499 15.7496C11.5509 15.7496 11.36 15.8286 11.2193 15.9694C11.0786 16.1101 10.9995 16.301 10.9995 16.5C10.9995 16.699 11.0786 16.8899 11.2193 17.0306L14.2193 20.0306C14.2889 20.1004 14.3717 20.1557 14.4627 20.1934C14.5538 20.2312 14.6514 20.2506 14.7499 20.2506C14.8485 20.2506 14.9461 20.2312 15.0371 20.1934C15.1282 20.1557 15.2109 20.1004 15.2805 20.0306L18.2805 17.0306C18.4213 16.8899 18.5003 16.699 18.5003 16.5C18.5003 16.301 18.4213 16.1101 18.2805 15.9694C18.1398 15.8286 17.9489 15.7496 17.7499 15.7496C17.5509 15.7496 17.36 15.8286 17.2193 15.9694Z" fill="white"/>
</svg>
