<svg width="18" height="19" viewBox="0 0 18 19" fill="none" xmlns="http://www.w3.org/2000/svg">
    <path d="M11.5622 7.72679L8.18719 5.47679C8.10245 5.42025 8.00396 5.38779 7.90222 5.38286C7.80048 5.37793 7.69931 5.40072 7.60951 5.4488C7.51971 5.49688 7.44465 5.56843 7.39234 5.65584C7.34003 5.74324 7.31243 5.84321 7.3125 5.94507V10.4451C7.31243 10.5469 7.34003 10.6469 7.39234 10.7343C7.44465 10.8217 7.51971 10.8933 7.60951 10.9413C7.69931 10.9894 7.80048 11.0122 7.90222 11.0073C8.00396 11.0023 8.10245 10.9699 8.18719 10.9133L11.5622 8.66335C11.6393 8.612 11.7026 8.54239 11.7464 8.46069C11.7901 8.37899 11.813 8.28775 11.813 8.19507C11.813 8.10239 11.7901 8.01114 11.7464 7.92945C11.7026 7.84775 11.6393 7.77813 11.5622 7.72679ZM8.4375 9.3939V6.99976L10.2361 8.19507L8.4375 9.3939ZM15.1875 3.13257H2.8125C2.51413 3.13257 2.22798 3.25109 2.017 3.46207C1.80603 3.67305 1.6875 3.9592 1.6875 4.25757V12.1326C1.6875 12.4309 1.80603 12.7171 2.017 12.9281C2.22798 13.139 2.51413 13.2576 2.8125 13.2576H15.1875C15.4859 13.2576 15.772 13.139 15.983 12.9281C16.194 12.7171 16.3125 12.4309 16.3125 12.1326V4.25757C16.3125 3.9592 16.194 3.67305 15.983 3.46207C15.772 3.25109 15.4859 3.13257 15.1875 3.13257ZM15.1875 12.1326H2.8125V4.25757H15.1875V12.1326ZM16.3125 14.9451C16.3125 15.0943 16.2532 15.2373 16.1477 15.3428C16.0423 15.4483 15.8992 15.5076 15.75 15.5076H2.25C2.10082 15.5076 1.95774 15.4483 1.85225 15.3428C1.74676 15.2373 1.6875 15.0943 1.6875 14.9451C1.6875 14.7959 1.74676 14.6528 1.85225 14.5473C1.95774 14.4418 2.10082 14.3826 2.25 14.3826H15.75C15.8992 14.3826 16.0423 14.4418 16.1477 14.5473C16.2532 14.6528 16.3125 14.7959 16.3125 14.9451Z" fill="#1151B4"/>
</svg>
