<svg width="24" height="24" viewBox="0 0 24 24" fill="none" xmlns="http://www.w3.org/2000/svg">
    <path d="M22.95 14.0999C22.8712 14.159 22.7816 14.202 22.6862 14.2265C22.5908 14.2509 22.4915 14.2563 22.394 14.2424C22.2965 14.2285 22.2027 14.1955 22.1179 14.1453C22.0332 14.0951 21.9591 14.0287 21.9 13.9499C21.448 13.3423 20.8596 12.8493 20.1822 12.5106C19.5048 12.1719 18.7574 11.997 18 11.9999C17.8526 11.9999 17.7083 11.9564 17.5855 11.8749C17.4626 11.7933 17.3664 11.6774 17.3091 11.5415C17.2702 11.4492 17.2501 11.3501 17.2501 11.2499C17.2501 11.1498 17.2702 11.0506 17.3091 10.9584C17.3664 10.8225 17.4626 10.7065 17.5855 10.625C17.7083 10.5434 17.8526 10.4999 18 10.4999C18.4209 10.4999 18.8332 10.3818 19.1903 10.1592C19.5474 9.93653 19.8349 9.61819 20.0201 9.24034C20.2054 8.86248 20.2809 8.44025 20.2382 8.02161C20.1955 7.60296 20.0363 7.20468 19.7786 6.87201C19.5209 6.53933 19.175 6.2856 18.7803 6.13963C18.3856 5.99365 17.9579 5.96129 17.5458 6.04622C17.1336 6.13115 16.7535 6.32996 16.4487 6.62007C16.1439 6.91018 15.9265 7.27997 15.8213 7.68742C15.7967 7.78284 15.7535 7.87247 15.6942 7.95119C15.635 8.02992 15.5608 8.09621 15.4759 8.14626C15.391 8.19632 15.2971 8.22917 15.1995 8.24293C15.102 8.2567 15.0026 8.25111 14.9072 8.22649C14.8118 8.20186 14.7222 8.15869 14.6435 8.09943C14.5647 8.04016 14.4984 7.96598 14.4484 7.8811C14.3983 7.79622 14.3655 7.70231 14.3517 7.60474C14.338 7.50717 14.3435 7.40784 14.3682 7.31242C14.5142 6.74741 14.7901 6.22426 15.1738 5.78463C15.5576 5.34499 16.0387 5.00099 16.5788 4.78C17.119 4.55901 17.7032 4.46713 18.2851 4.51167C18.867 4.55621 19.4304 4.73594 19.9306 5.03656C20.4308 5.33718 20.8539 5.75039 21.1663 6.24332C21.4787 6.73624 21.6718 7.29527 21.7301 7.87593C21.7884 8.45659 21.7104 9.04285 21.5023 9.58806C21.2942 10.1333 20.9617 10.6224 20.5313 11.0165C21.5511 11.458 22.4377 12.1587 23.1028 13.049C23.1619 13.128 23.2049 13.2179 23.2292 13.3135C23.2535 13.4091 23.2587 13.5085 23.2445 13.6062C23.2303 13.7038 23.197 13.7976 23.1465 13.8824C23.0959 13.9671 23.0292 14.041 22.95 14.0999ZM17.8988 19.8749C17.9531 19.9603 17.9895 20.0557 18.0059 20.1556C18.0223 20.2554 18.0184 20.3575 17.9943 20.4557C17.9703 20.554 17.9266 20.6463 17.8659 20.7272C17.8052 20.8082 17.7288 20.876 17.6412 20.9266C17.5536 20.9772 17.4567 21.0096 17.3563 21.0218C17.2559 21.034 17.154 21.0258 17.0569 20.9976C16.9597 20.9694 16.8693 20.9219 16.791 20.8578C16.7127 20.7938 16.6482 20.7146 16.6013 20.6249C16.1288 19.8249 15.456 19.1619 14.6491 18.7014C13.8422 18.2408 12.9291 17.9986 12 17.9986C11.0709 17.9986 10.1579 18.2408 9.35102 18.7014C8.54412 19.1619 7.87125 19.8249 7.39879 20.6249C7.3519 20.7146 7.28737 20.7938 7.20908 20.8578C7.13078 20.9219 7.04034 20.9694 6.94319 20.9976C6.84605 21.0258 6.7442 21.034 6.64379 21.0218C6.54338 21.0096 6.44647 20.9772 6.35889 20.9266C6.27132 20.876 6.19489 20.8082 6.1342 20.7272C6.07352 20.6463 6.02983 20.554 6.00576 20.4557C5.9817 20.3575 5.97775 20.2554 5.99417 20.1556C6.01059 20.0557 6.04702 19.9603 6.10129 19.8749C6.82841 18.6256 7.9371 17.6424 9.26441 17.0699C8.51753 16.4981 7.96863 15.7066 7.69485 14.8066C7.42108 13.9067 7.4362 12.9436 7.73808 12.0527C8.03997 11.1618 8.61346 10.3879 9.37792 9.83981C10.1424 9.29169 11.0594 8.99692 12 8.99692C12.9407 8.99692 13.8577 9.29169 14.6222 9.83981C15.3866 10.3879 15.9601 11.1618 16.262 12.0527C16.5639 12.9436 16.579 13.9067 16.3052 14.8066C16.0315 15.7066 15.4825 16.4981 14.7357 17.0699C16.063 17.6424 17.1717 18.6256 17.8988 19.8749ZM12 16.4999C12.5934 16.4999 13.1734 16.324 13.6667 15.9943C14.1601 15.6647 14.5446 15.1962 14.7717 14.648C14.9987 14.0998 15.0582 13.4966 14.9424 12.9147C14.8266 12.3327 14.5409 11.7982 14.1214 11.3786C13.7018 10.959 13.1673 10.6733 12.5853 10.5576C12.0034 10.4418 11.4002 10.5012 10.852 10.7283C10.3038 10.9553 9.83528 11.3399 9.50563 11.8332C9.17599 12.3266 9.00004 12.9066 9.00004 13.4999C9.00004 14.2956 9.31611 15.0586 9.87872 15.6212C10.4413 16.1839 11.2044 16.4999 12 16.4999ZM6.75004 11.2499C6.75004 11.051 6.67102 10.8602 6.53037 10.7196C6.38972 10.5789 6.19895 10.4999 6.00004 10.4999C5.57922 10.4999 5.16685 10.3818 4.80976 10.1592C4.45267 9.93653 4.16518 9.61819 3.97994 9.24034C3.79471 8.86248 3.71915 8.44025 3.76185 8.02161C3.80455 7.60296 3.9638 7.20468 4.22152 6.87201C4.47923 6.53933 4.82507 6.2856 5.21976 6.13963C5.61445 5.99365 6.04216 5.96129 6.45432 6.04622C6.86648 6.13115 7.24656 6.32996 7.55139 6.62007C7.85622 6.91018 8.07359 7.27997 8.17879 7.68742C8.22852 7.88012 8.35276 8.04517 8.52418 8.14626C8.6956 8.24736 8.90016 8.27621 9.09285 8.22649C9.28555 8.17676 9.4506 8.05252 9.55169 7.8811C9.65279 7.70968 9.68164 7.50512 9.63192 7.31242C9.48589 6.74741 9.21002 6.22426 8.82624 5.78463C8.44246 5.34499 7.96137 5.00099 7.42125 4.78C6.88112 4.55901 6.29688 4.46713 5.715 4.51167C5.13312 4.55621 4.56967 4.73594 4.06947 5.03656C3.56928 5.33718 3.14614 5.75039 2.83375 6.24332C2.52135 6.73624 2.32831 7.29527 2.26998 7.87593C2.21165 8.45659 2.28965 9.04285 2.49777 9.58806C2.70589 10.1333 3.03838 10.6224 3.46879 11.0165C2.44999 11.4585 1.56446 12.1591 0.90004 13.049C0.780569 13.2081 0.729204 13.4082 0.757247 13.6052C0.785289 13.8022 0.890442 13.98 1.04957 14.0995C1.2087 14.2189 1.40877 14.2703 1.60577 14.2422C1.80278 14.2142 1.98057 14.1091 2.10004 13.9499C2.55209 13.3423 3.14049 12.8493 3.81788 12.5106C4.49526 12.1719 5.24271 11.997 6.00004 11.9999C6.19895 11.9999 6.38972 11.9209 6.53037 11.7803C6.67102 11.6396 6.75004 11.4488 6.75004 11.2499Z" fill="#1151B4"/>
</svg>
