<svg width="51" height="50" viewBox="0 0 51 50" fill="none" xmlns="http://www.w3.org/2000/svg">
    <path d="M47.6775 24.4381V26.3548C47.6749 30.8473 46.2202 35.2187 43.5302 38.8169C40.8403 42.4151 37.0593 45.0474 32.7511 46.3212C28.4429 47.595 23.8384 47.4421 19.6243 45.8852C15.4101 44.3283 11.8122 41.4508 9.36697 37.682C6.92177 33.9132 5.76037 29.4549 6.05596 24.9721C6.35156 20.4893 8.08832 16.2221 11.0072 12.807C13.9261 9.3919 17.8708 7.01183 22.2529 6.02175C26.635 5.03167 31.2197 5.48465 35.3233 7.31311M47.6775 9.68814L32.7367 24.6439C29.959 27.4243 28.5702 28.8145 26.8437 28.8149C25.1172 28.8154 23.7277 27.4259 20.9486 24.6468L20.5941 24.2923" stroke="#34C759" stroke-width="4.16667" stroke-linecap="round" stroke-linejoin="round"/>
</svg>
