<svg width="14" height="14" viewBox="0 0 14 14" fill="none" xmlns="http://www.w3.org/2000/svg">
    <path d="M5.66699 7.88867C5.66699 7.682 5.66699 7.57867 5.68966 7.494C5.71995 7.38098 5.77945 7.27793 5.86219 7.1952C5.94492 7.11246 6.04798 7.05296 6.16099 7.02267C6.24566 7 6.34899 7 6.55566 7H7.44499C7.65166 7 7.75499 7 7.83966 7.02267C7.95267 7.05296 8.05573 7.11246 8.13846 7.1952C8.2212 7.27793 8.2807 7.38098 8.31099 7.494C8.33366 7.57867 8.33366 7.682 8.33366 7.88867V8.33333C8.33366 8.68696 8.19318 9.02609 7.94313 9.27614C7.69309 9.52619 7.35395 9.66667 7.00033 9.66667C6.6467 9.66667 6.30757 9.52619 6.05752 9.27614C5.80747 9.02609 5.66699 8.68696 5.66699 8.33333V7.88867Z" fill="white" stroke="#9CA8BA" stroke-linecap="round" stroke-linejoin="round"/>
    <path d="M8.5 8L9.05577 8.00016C9.91177 8.00016 10.3398 8.00016 10.7044 7.92283C11.7591 7.6995 12.6198 7.01416 12.9964 6.0975C13.1264 5.78016 13.1798 5.3975 13.2858 4.63083C13.3258 4.34283 13.3458 4.19883 13.3264 4.0815C13.2704 3.73883 12.9958 3.4575 12.6264 3.3655C12.4984 3.3335 12.3378 3.3335 12.0164 3.3335H1.98444C1.6631 3.3335 1.50177 3.3335 1.3751 3.3655C1.0051 3.4575 0.730436 3.73883 0.674436 4.0815C0.655103 4.19883 0.675103 4.34283 0.715103 4.63083C0.821769 5.3975 0.874436 5.78016 1.00444 6.0975C1.3811 7.01416 2.24177 7.6995 3.29644 7.92283C3.6611 8.00016 4.08977 8.00016 4.9451 8.00016L5.5 8" stroke="#9CA8BA" stroke-linecap="round" stroke-linejoin="round"/>
    <path d="M1.33398 6.66675V8.00008C1.33398 10.5141 1.33398 11.7714 2.07132 12.5521C2.80865 13.3327 3.99665 13.3334 6.37132 13.3334H7.62998C10.0047 13.3334 11.192 13.3334 11.93 12.5521C12.6673 11.7714 12.6673 10.5141 12.6673 8.00008V6.66675M9.33398 3.33341L9.28265 3.09808C9.02598 1.92475 8.89732 1.33808 8.59198 1.00208C8.28665 0.666748 7.88065 0.666748 7.06865 0.666748H6.93265C6.12065 0.666748 5.71465 0.666748 5.40932 1.00208C5.10398 1.33808 4.97598 1.92475 4.71865 3.09808L4.66732 3.33341" stroke="#9CA8BA" stroke-linecap="round" stroke-linejoin="round"/>
</svg>
