<svg width="24" height="25" viewBox="0 0 24 25" fill="none" xmlns="http://www.w3.org/2000/svg">
    <path d="M22 8.0542V16.0542C22 20.0542 20 22.0542 16 22.0542H3C2.45 22.0542 2 21.6042 2 21.0542V8.0542C2 4.0542 4 2.0542 8 2.0542H16C20 2.0542 22 4.0542 22 8.0542Z" stroke="#1151B4" stroke-width="1.5" stroke-linecap="round" stroke-linejoin="round"/>
    <path d="M16.1598 11.1442L10.9698 16.3342C10.7698 16.5342 10.3798 16.7242 10.0998 16.7642L8.11985 17.0442C7.39985 17.1442 6.89985 16.6442 6.99985 15.9242L7.27985 13.9442C7.31985 13.6642 7.50985 13.2742 7.70985 13.0742L12.8998 7.88415C13.7898 6.99415 14.8298 6.56415 16.1498 7.88415C17.4798 9.20415 17.0598 10.2442 16.1598 11.1442Z" stroke="#1151B4" stroke-width="1.5" stroke-miterlimit="10" stroke-linecap="round" stroke-linejoin="round"/>
    <path d="M15.4199 11.8843C13.8499 11.4443 12.6099 10.2143 12.1699 8.63428" stroke="#1151B4" stroke-width="1.5" stroke-miterlimit="10" stroke-linecap="round" stroke-linejoin="round"/>
</svg>
