<svg width="18" height="19" viewBox="0 0 18 19" fill="none" xmlns="http://www.w3.org/2000/svg">
    <g clip-path="url(#clip0_569_3568)">
        <path d="M16.9844 9.29769V9.98769C16.9835 11.605 16.4598 13.1787 15.4914 14.4741C14.523 15.7694 13.1618 16.7171 11.6109 17.1756C10.0599 17.6342 8.40232 17.5791 6.88523 17.0186C5.36814 16.4581 4.07287 15.4223 3.1926 14.0655C2.31232 12.7087 1.89422 11.1037 2.00063 9.48993C2.10705 7.87612 2.73228 6.33994 3.78308 5.1105C4.83389 3.88106 6.25396 3.02423 7.83152 2.6678C9.40907 2.31137 11.0596 2.47444 12.5369 3.13269M16.9844 3.9877L11.6057 9.37176C10.6057 10.3727 10.1058 10.8732 9.48422 10.8734C8.86268 10.8735 8.36245 10.3733 7.36199 9.37282L7.23438 9.2452" stroke="#1151B4" stroke-width="1.5" stroke-linecap="round" stroke-linejoin="round"/>
    </g>
    <defs>
        <clipPath id="clip0_569_3568">
            <rect width="18" height="18" fill="white" transform="translate(0 0.5)"/>
        </clipPath>
    </defs>
</svg>
