<svg width="36" height="36" viewBox="0 0 36 36" fill="none" xmlns="http://www.w3.org/2000/svg">
    <path d="M18 3.375C15.1075 3.375 12.2799 4.23274 9.87479 5.83976C7.46972 7.44677 5.5952 9.73089 4.48827 12.4033C3.38134 15.0756 3.09171 18.0162 3.65602 20.8532C4.22033 23.6902 5.61323 26.2961 7.65857 28.3414C9.70391 30.3868 12.3098 31.7797 15.1468 32.344C17.9838 32.9083 20.9244 32.6187 23.5968 31.5117C26.2691 30.4048 28.5532 28.5303 30.1602 26.1252C31.7673 23.7201 32.625 20.8926 32.625 18C32.6209 14.1225 31.0788 10.4049 28.3369 7.66309C25.5951 4.92125 21.8775 3.37909 18 3.375ZM18 30.375C15.5525 30.375 13.1599 29.6492 11.1248 28.2894C9.08977 26.9297 7.50363 24.9969 6.567 22.7357C5.63036 20.4745 5.3853 17.9863 5.86279 15.5858C6.34028 13.1852 7.51889 10.9802 9.24956 9.24955C10.9802 7.51888 13.1852 6.34027 15.5858 5.86278C17.9863 5.38529 20.4745 5.63036 22.7357 6.56699C24.997 7.50363 26.9297 9.08976 28.2894 11.1248C29.6492 13.1599 30.375 15.5525 30.375 18C30.3713 21.2809 29.0663 24.4264 26.7463 26.7463C24.4264 29.0663 21.2809 30.3713 18 30.375ZM20.25 24.75C20.25 25.0484 20.1315 25.3345 19.9205 25.5455C19.7095 25.7565 19.4234 25.875 19.125 25.875C18.5283 25.875 17.956 25.6379 17.534 25.216C17.1121 24.794 16.875 24.2217 16.875 23.625V18C16.5766 18 16.2905 17.8815 16.0795 17.6705C15.8685 17.4595 15.75 17.1734 15.75 16.875C15.75 16.5766 15.8685 16.2905 16.0795 16.0795C16.2905 15.8685 16.5766 15.75 16.875 15.75C17.4717 15.75 18.044 15.9871 18.466 16.409C18.888 16.831 19.125 17.4033 19.125 18V23.625C19.4234 23.625 19.7095 23.7435 19.9205 23.9545C20.1315 24.1655 20.25 24.4516 20.25 24.75ZM15.75 11.8125C15.75 11.4787 15.849 11.1525 16.0344 10.875C16.2198 10.5975 16.4834 10.3812 16.7917 10.2535C17.1001 10.1257 17.4394 10.0923 17.7667 10.1574C18.0941 10.2225 18.3947 10.3833 18.6307 10.6193C18.8667 10.8553 19.0275 11.1559 19.0926 11.4833C19.1577 11.8106 19.1243 12.1499 18.9966 12.4583C18.8688 12.7666 18.6525 13.0302 18.375 13.2156C18.0975 13.401 17.7713 13.5 17.4375 13.5C16.99 13.5 16.5607 13.3222 16.2443 13.0057C15.9278 12.6893 15.75 12.2601 15.75 11.8125Z" fill="white"/>
</svg>
