<svg width="24" height="24" viewBox="0 0 24 24" fill="none" xmlns="http://www.w3.org/2000/svg">
    <path d="M12 10.875C11.7775 10.875 11.56 10.941 11.375 11.0646C11.19 11.1882 11.0458 11.3639 10.9606 11.5695C10.8755 11.775 10.8532 12.0012 10.8966 12.2195C10.94 12.4377 11.0472 12.6382 11.2045 12.7955C11.3618 12.9528 11.5623 13.06 11.7805 13.1034C11.9988 13.1468 12.225 13.1245 12.4305 13.0394C12.6361 12.9542 12.8118 12.81 12.9354 12.625C13.059 12.44 13.125 12.2225 13.125 12C13.125 11.7016 13.0065 11.4155 12.7955 11.2045C12.5845 10.9935 12.2984 10.875 12 10.875ZM17.25 12C17.25 11.7775 17.316 11.56 17.4396 11.375C17.5632 11.19 17.7389 11.0458 17.9445 10.9606C18.15 10.8755 18.3762 10.8532 18.5945 10.8966C18.8127 10.94 19.0132 11.0472 19.1705 11.2045C19.3278 11.3618 19.435 11.5623 19.4784 11.7805C19.5218 11.9988 19.4995 12.225 19.4144 12.4305C19.3292 12.6361 19.185 12.8118 19 12.9354C18.815 13.059 18.5975 13.125 18.375 13.125C18.0766 13.125 17.7905 13.0065 17.5795 12.7955C17.3685 12.5845 17.25 12.2984 17.25 12ZM6.75 12C6.75 12.2225 6.68402 12.44 6.5604 12.625C6.43679 12.81 6.26109 12.9542 6.05552 13.0394C5.84995 13.1245 5.62375 13.1468 5.40552 13.1034C5.1873 13.06 4.98684 12.9528 4.82951 12.7955C4.67217 12.6382 4.56502 12.4377 4.52162 12.2195C4.47821 12.0012 4.50049 11.775 4.58564 11.5695C4.67078 11.3639 4.81498 11.1882 4.99998 11.0646C5.18499 10.941 5.4025 10.875 5.625 10.875C5.92337 10.875 6.20952 10.9935 6.42049 11.2045C6.63147 11.4155 6.75 11.7016 6.75 12Z" fill="#343330"/>
</svg>
