<svg width="32" height="32" viewBox="0 0 32 32" fill="none" xmlns="http://www.w3.org/2000/svg">
    <path d="M10.6667 2.66675V6.66675" stroke="#1A9C59" stroke-width="1.5" stroke-miterlimit="10" stroke-linecap="round" stroke-linejoin="round"/>
    <path d="M21.3333 2.66675V6.66675" stroke="#1A9C59" stroke-width="1.5" stroke-miterlimit="10" stroke-linecap="round" stroke-linejoin="round"/>
    <path d="M28 11.3334V18.1734C26.8133 17.2268 25.3067 16.6667 23.6667 16.6667C22.0267 16.6667 20.4933 17.24 19.2933 18.2134C17.68 19.48 16.6667 21.4667 16.6667 23.6667C16.6667 24.9734 17.04 26.2268 17.68 27.2668C18.1733 28.0801 18.8133 28.7867 19.5733 29.3334H10.6667C6 29.3334 4 26.6667 4 22.6667V11.3334C4 7.33341 6 4.66675 10.6667 4.66675H21.3333C26 4.66675 28 7.33341 28 11.3334Z" stroke="#1A9C59" stroke-width="1.5" stroke-miterlimit="10" stroke-linecap="round" stroke-linejoin="round"/>
    <path d="M9.33325 14.6667H17.3333" stroke="#1A9C59" stroke-width="1.5" stroke-miterlimit="10" stroke-linecap="round" stroke-linejoin="round"/>
    <path d="M9.33325 21.3333H12.8266" stroke="#1A9C59" stroke-width="1.5" stroke-miterlimit="10" stroke-linecap="round" stroke-linejoin="round"/>
    <path d="M30.6667 23.6667C30.6667 24.9734 30.2934 26.2268 29.6534 27.2668C29.2801 27.9068 28.8134 28.4668 28.2668 28.9201C27.0401 30.0134 25.4401 30.6667 23.6667 30.6667C22.1334 30.6667 20.7201 30.1734 19.5734 29.3334C18.8134 28.7867 18.1734 28.0801 17.6801 27.2668C17.0401 26.2268 16.6667 24.9734 16.6667 23.6667C16.6667 21.4667 17.6801 19.48 19.2934 18.2134C20.4934 17.24 22.0267 16.6667 23.6667 16.6667C25.3067 16.6667 26.8134 17.2268 28.0001 18.1734C29.6267 19.4534 30.6667 21.4401 30.6667 23.6667Z" stroke="#1A9C59" stroke-width="1.5" stroke-miterlimit="10" stroke-linecap="round" stroke-linejoin="round"/>
    <path d="M23.6666 26.9999C23.6666 25.1599 25.1599 23.6666 26.9999 23.6666C25.1599 23.6666 23.6666 22.1733 23.6666 20.3333C23.6666 22.1733 22.1733 23.6666 20.3333 23.6666C22.1733 23.6666 23.6666 25.1599 23.6666 26.9999Z" stroke="#1A9C59" stroke-width="1.5" stroke-linecap="round" stroke-linejoin="round"/>
</svg>
