<svg width="33" height="32" viewBox="0 0 33 32" fill="none" xmlns="http://www.w3.org/2000/svg">
    <path d="M30.98 9.52371C30.7544 9.32702 30.4754 9.20181 30.1785 9.16397C29.8817 9.12614 29.5802 9.17739 29.3125 9.31121L23.0362 12.4362L17.7962 3.73246C17.6615 3.50912 17.4714 3.32437 17.2443 3.19612C17.0172 3.06788 16.7608 3.00049 16.5 3.00049C16.2392 3.00049 15.9828 3.06788 15.7557 3.19612C15.5286 3.32437 15.3384 3.50912 15.2037 3.73246L9.96375 12.44L3.69 9.31496C3.42292 9.18232 3.12262 9.13152 2.82678 9.16893C2.53094 9.20634 2.25274 9.33029 2.02709 9.52523C1.80143 9.72017 1.63839 9.97742 1.5584 10.2647C1.47842 10.552 1.48506 10.8565 1.57749 11.14L6.20249 25.31C6.249 25.4523 6.32688 25.5824 6.43039 25.6906C6.5339 25.7989 6.66039 25.8825 6.80054 25.9353C6.94068 25.988 7.09089 26.0087 7.24008 25.9957C7.38927 25.9826 7.53363 25.9363 7.66249 25.86C7.69374 25.8412 10.89 24 16.5 24C22.11 24 25.3062 25.8412 25.335 25.8587C25.4639 25.9357 25.6085 25.9827 25.7581 25.9962C25.9076 26.0097 26.0583 25.9893 26.1989 25.9366C26.3396 25.8839 26.4665 25.8002 26.5703 25.6917C26.6742 25.5832 26.7522 25.4528 26.7987 25.31L31.4237 11.1437C31.5188 10.8601 31.5274 10.5547 31.4484 10.2662C31.3694 9.9777 31.2063 9.71925 30.98 9.52371ZM25.25 23.6037C23.75 22.9675 20.76 22 16.5 22C12.24 22 9.24999 22.9675 7.74999 23.6037L3.83874 11.625L9.47249 14.4337C9.8135 14.6019 10.2051 14.6363 10.5702 14.5301C10.9353 14.4239 11.2474 14.1848 11.445 13.86L16.5 5.45746L21.555 13.8575C21.7526 14.182 22.0644 14.4208 22.4292 14.527C22.794 14.6332 23.1854 14.599 23.5262 14.4312L29.1612 11.625L25.25 23.6037Z" fill="#EFBF4D"/>
</svg>
