<svg width="24" height="25" viewBox="0 0 24 25" fill="none" xmlns="http://www.w3.org/2000/svg">
    <path d="M21.6489 20.5267C20.2211 18.0583 18.0208 16.2883 15.4529 15.4492C16.7231 14.6931 17.7099 13.5409 18.2619 12.1697C18.8139 10.7984 18.9004 9.28385 18.5083 7.85862C18.1162 6.43339 17.2671 5.17628 16.0914 4.28034C14.9156 3.3844 13.4783 2.89917 12.0001 2.89917C10.5219 2.89917 9.08463 3.3844 7.90891 4.28034C6.73318 5.17628 5.88406 6.43339 5.49195 7.85862C5.09984 9.28385 5.18641 10.7984 5.73837 12.1697C6.29033 13.5409 7.27716 14.6931 8.54732 15.4492C5.97951 16.2873 3.77919 18.0573 2.35138 20.5267C2.29902 20.6121 2.26429 20.7071 2.24924 20.8061C2.23419 20.9051 2.23912 21.0062 2.26375 21.1032C2.28837 21.2003 2.33219 21.2915 2.39262 21.3713C2.45305 21.4512 2.52887 21.5182 2.61559 21.5683C2.70232 21.6184 2.7982 21.6506 2.89758 21.663C2.99695 21.6755 3.09782 21.6679 3.19421 21.6407C3.29061 21.6135 3.38059 21.5673 3.45884 21.5048C3.53709 21.4423 3.60203 21.3647 3.64982 21.2767C5.41607 18.2242 8.53794 16.4017 12.0001 16.4017C15.4623 16.4017 18.5842 18.2242 20.3504 21.2767C20.3982 21.3647 20.4632 21.4423 20.5414 21.5048C20.6197 21.5673 20.7097 21.6135 20.806 21.6407C20.9024 21.6679 21.0033 21.6755 21.1027 21.663C21.2021 21.6506 21.2979 21.6184 21.3847 21.5683C21.4714 21.5182 21.5472 21.4512 21.6076 21.3713C21.6681 21.2915 21.7119 21.2003 21.7365 21.1032C21.7611 21.0062 21.7661 20.9051 21.751 20.8061C21.736 20.7071 21.7012 20.6121 21.6489 20.5267ZM6.75013 9.65172C6.75013 8.61337 7.05804 7.59834 7.63492 6.73498C8.21179 5.87162 9.03173 5.19871 9.99104 4.80135C10.9504 4.40399 12.006 4.30003 13.0244 4.5026C14.0428 4.70517 14.9782 5.20518 15.7124 5.93941C16.4467 6.67364 16.9467 7.6091 17.1493 8.6275C17.3518 9.6459 17.2479 10.7015 16.8505 11.6608C16.4531 12.6201 15.7802 13.4401 14.9169 14.0169C14.0535 14.5938 13.0385 14.9017 12.0001 14.9017C10.6082 14.9002 9.27371 14.3466 8.28947 13.3624C7.30522 12.3781 6.75162 11.0436 6.75013 9.65172Z" fill="#727272"/>
</svg>
