<svg width="19" height="19" viewBox="0 0 19 19" fill="none" xmlns="http://www.w3.org/2000/svg">
    <path d="M16.9896 15.5202C16.9402 15.6058 16.8692 15.6768 16.7837 15.7261C16.6981 15.7755 16.6011 15.8015 16.5024 15.8015H3.00235C2.90366 15.8014 2.80674 15.7753 2.72131 15.7259C2.63587 15.6765 2.56495 15.6055 2.51565 15.52C2.46634 15.4345 2.4404 15.3375 2.44043 15.2388C2.44046 15.1401 2.46645 15.0432 2.51579 14.9577C3.58665 13.1064 5.23688 11.7789 7.16274 11.1496C6.21013 10.5825 5.47 9.71837 5.05603 8.68992C4.64206 7.66147 4.57713 6.52557 4.87122 5.45665C5.1653 4.38772 5.80214 3.44489 6.68393 2.77294C7.56573 2.10098 8.64371 1.73706 9.75235 1.73706C10.861 1.73706 11.939 2.10098 12.8208 2.77294C13.7026 3.44489 14.3394 4.38772 14.6335 5.45665C14.9276 6.52557 14.8626 7.66147 14.4487 8.68992C14.0347 9.71837 13.2946 10.5825 12.342 11.1496C14.2678 11.7789 15.9181 13.1064 16.9889 14.9577C17.0384 15.0432 17.0645 15.1401 17.0646 15.2389C17.0648 15.3376 17.0389 15.4347 16.9896 15.5202Z" fill="#147543"/>
</svg>
