<svg width="18" height="18" viewBox="0 0 18 18" fill="none" xmlns="http://www.w3.org/2000/svg">
    <path d="M16.875 9.00011C16.8755 9.19109 16.8265 9.37895 16.7329 9.54541C16.6392 9.71187 16.5041 9.85126 16.3406 9.95003L6.21 16.1474C6.0392 16.252 5.84358 16.3091 5.64334 16.3128C5.44309 16.3165 5.24549 16.2667 5.07094 16.1685C4.89805 16.0718 4.75402 15.9308 4.65368 15.76C4.55333 15.5893 4.50029 15.3948 4.5 15.1967V2.80347C4.50029 2.60539 4.55333 2.41096 4.65368 2.24017C4.75402 2.06939 4.89805 1.92841 5.07094 1.83175C5.24549 1.73356 5.44309 1.68374 5.64334 1.68745C5.84358 1.69116 6.0392 1.74825 6.21 1.85284L16.3406 8.05018C16.5041 8.14895 16.6392 8.28835 16.7329 8.4548C16.8265 8.62126 16.8755 8.80912 16.875 9.00011Z" fill="white"/>
</svg>
