<svg width="32" height="32" viewBox="0 0 32 32" fill="none" xmlns="http://www.w3.org/2000/svg">
    <path d="M2.66675 12.0001V8.66675C2.66675 5.34675 5.34675 2.66675 8.66675 2.66675H12.0001" stroke="#1151B4" stroke-width="1.5" stroke-linecap="round" stroke-linejoin="round"/>
    <path d="M20 2.66675H23.3333C26.6533 2.66675 29.3333 5.34675 29.3333 8.66675V12.0001" stroke="#1151B4" stroke-width="1.5" stroke-linecap="round" stroke-linejoin="round"/>
    <path d="M29.3333 21.3333V23.3333C29.3333 26.6533 26.6533 29.3333 23.3333 29.3333H21.3333" stroke="#1151B4" stroke-width="1.5" stroke-linecap="round" stroke-linejoin="round"/>
    <path d="M12.0001 29.3333H8.66675C5.34675 29.3333 2.66675 26.6533 2.66675 23.3333V20" stroke="#1151B4" stroke-width="1.5" stroke-linecap="round" stroke-linejoin="round"/>
    <path d="M22.6666 12.6667V19.3334C22.6666 22.0001 21.3333 23.3334 18.6666 23.3334H13.3333C10.6666 23.3334 9.33325 22.0001 9.33325 19.3334V12.6667C9.33325 10.0001 10.6666 8.66675 13.3333 8.66675H18.6666C21.3333 8.66675 22.6666 10.0001 22.6666 12.6667Z" stroke="#1151B4" stroke-width="1.5" stroke-linecap="round" stroke-linejoin="round"/>
    <path d="M25.3334 16H6.66675" stroke="#1151B4" stroke-width="1.5" stroke-linecap="round" stroke-linejoin="round"/>
</svg>
