<svg width="14" height="13" viewBox="0 0 14 13" fill="none" xmlns="http://www.w3.org/2000/svg">
    <path d="M7.60902 0.824037C7.48083 0.561855 7.21218 0.396088 6.91819 0.39778C6.62421 0.399472 6.35987 0.568305 6.23232 0.831959L4.71368 4.0029L1.28442 4.52935C0.997853 4.57402 0.759998 4.77617 0.673146 5.05154C0.586294 5.32691 0.659744 5.63004 0.866461 5.83201L3.37112 8.28187L2.8032 11.7676C2.75705 12.0547 2.87823 12.3456 3.11582 12.514C3.35342 12.6823 3.66665 12.702 3.92399 12.5643L6.98107 10.9094L10.057 12.529C10.3159 12.6637 10.6289 12.6428 10.8645 12.4694C11.1002 12.2959 11.218 12.006 11.1685 11.7195L10.5581 8.24052L13.0345 5.762C13.2388 5.55766 13.3112 5.25369 13.2188 4.97935C13.1264 4.70501 12.8886 4.5056 12.6015 4.46423L9.16405 3.97729L7.60902 0.824037Z" fill="#FFD000"/>
</svg>
