<svg width="223" height="222" viewBox="0 0 223 222" fill="none" xmlns="http://www.w3.org/2000/svg">
    <path d="M222.789 221.387L194.97 221.514L167.145 221.561L111.5 221.652L55.8551 221.561L28.0354 221.514L0.210449 221.387L28.0354 221.254L55.8551 221.212L111.5 221.122L167.145 221.212L194.97 221.259L222.789 221.387Z" fill="#263238"/>
    <path d="M222.789 218.021H0.210449V221.249H222.789V218.021Z" fill="#C7C7C7"/>
    <path d="M15.8134 218.021C15.9991 218.539 16.0889 219.087 16.0784 219.638C16.0889 220.18 15.999 220.719 15.8134 221.228C15.46 220.181 15.46 219.047 15.8134 218V218.021Z" fill="#263238"/>
    <path d="M33.2135 218.021C33.5669 219.068 33.5669 220.202 33.2135 221.249C33.0279 220.74 32.938 220.201 32.9485 219.659C32.9354 219.101 33.0253 218.546 33.2135 218.021Z" fill="#263238"/>
    <path d="M50.6083 218.021C50.794 218.539 50.8838 219.087 50.8733 219.638C50.8838 220.18 50.794 220.719 50.6083 221.228C50.2549 220.181 50.2549 219.047 50.6083 218V218.021Z" fill="#263238"/>
    <path d="M68.0084 218.021C68.3618 219.068 68.3618 220.202 68.0084 221.249C67.8228 220.74 67.733 220.201 67.7434 219.659C67.7304 219.101 67.8202 218.546 68.0084 218.021Z" fill="#263238"/>
    <path d="M85.4028 218.021C85.5884 218.539 85.6782 219.087 85.6678 219.638C85.6782 220.18 85.5884 220.719 85.4028 221.228C85.0493 220.181 85.0493 219.047 85.4028 218V218.021Z" fill="#263238"/>
    <path d="M102.802 218.021C103.156 219.068 103.156 220.202 102.802 221.249C102.617 220.74 102.527 220.201 102.537 219.659C102.524 219.101 102.614 218.546 102.802 218.021Z" fill="#263238"/>
    <path d="M120.197 218.021C120.383 218.539 120.473 219.087 120.462 219.638C120.473 220.18 120.383 220.719 120.197 221.228C119.844 220.181 119.844 219.047 120.197 218V218.021Z" fill="#263238"/>
    <path d="M137.597 218.021C137.951 219.068 137.951 220.202 137.597 221.249C137.412 220.74 137.322 220.201 137.332 219.659C137.319 219.101 137.409 218.546 137.597 218.021Z" fill="#263238"/>
    <path d="M154.992 218.021C155.177 218.539 155.267 219.087 155.257 219.638C155.267 220.18 155.177 220.719 154.992 221.228C154.638 220.181 154.638 219.047 154.992 218V218.021Z" fill="#263238"/>
    <path d="M172.391 218.021C172.745 219.068 172.745 220.202 172.391 221.249C172.206 220.74 172.116 220.201 172.126 219.659C172.113 219.101 172.203 218.546 172.391 218.021Z" fill="#263238"/>
    <path d="M189.786 218.021C189.972 218.539 190.062 219.087 190.051 219.638C190.062 220.18 189.972 220.719 189.786 221.228C189.433 220.181 189.433 219.047 189.786 218V218.021Z" fill="#263238"/>
    <path d="M207.186 218.021C207.54 219.068 207.54 220.202 207.186 221.249C207.001 220.74 206.911 220.201 206.921 219.659C206.908 219.101 206.998 218.546 207.186 218.021Z" fill="#263238"/>
    <path d="M215.187 112.542H151.396C151.396 112.542 157.725 95.2637 167.461 95.2637C177.197 95.2637 180.244 107.189 180.244 107.189C180.244 107.189 186.816 100.712 192.212 100.712C197.607 100.712 202.282 109.272 202.282 109.272C202.282 109.272 209.924 104.65 215.187 112.542Z" fill="#EBEBEB"/>
    <path d="M139.424 22.6219H109.606C109.606 22.6219 116.268 12.96 121.52 12.96C126.773 12.96 128.32 19.4048 128.32 19.4048C128.32 19.4048 132.03 16.405 135.454 16.9403C138.878 17.4756 139.424 22.6219 139.424 22.6219Z" fill="#EBEBEB"/>
    <path d="M196.107 42.7831H166.284C166.284 42.7831 172.946 33.1265 178.193 33.1265C183.44 33.1265 184.977 39.566 184.977 39.566C184.977 39.566 188.687 36.5609 192.111 37.0962C195.535 37.6315 196.107 42.7831 196.107 42.7831Z" fill="#EBEBEB"/>
    <path d="M154.152 91.0238H124.334C124.334 91.0238 130.997 81.3672 136.244 81.3672C141.491 81.3672 143.043 87.8067 143.043 87.8067C143.043 87.8067 146.753 84.8016 150.183 85.3369C153.612 85.8722 154.152 91.0238 154.152 91.0238Z" fill="#EBEBEB"/>
    <path d="M31.9293 111.625H2.12744C2.12744 111.625 8.77364 102 14.0206 102C19.2676 102 20.8258 108.434 20.8258 108.434C20.8258 108.434 24.5358 105.429 27.9596 105.97C31.3834 106.51 31.9293 111.625 31.9293 111.625Z" fill="#EBEBEB"/>
    <path d="M71.5095 51.7932H13.4268C13.4268 51.7932 21.3768 34.0382 29.8886 32.9252C38.4004 31.8122 42.4655 46.1222 42.4655 46.1222C42.4655 46.1222 47.9563 41.066 52.2705 41.066C56.5847 41.066 59.8972 47.7228 59.8972 47.7228C59.8972 47.7228 68.5468 43.1701 71.5095 51.7932Z" fill="#EBEBEB"/>
    <path d="M172.909 125.638H155.334V217.778H172.909V125.638Z" fill="#DBDBDB"/>
    <path d="M161.478 128.633H158.059V132.152H161.478V128.633Z" fill="#EBEBEB"/>
    <path d="M165.85 128.633H162.431V132.152H165.85V128.633Z" fill="#EBEBEB"/>
    <path d="M161.478 134.6H158.059V138.119H161.478V134.6Z" fill="#EBEBEB"/>
    <path d="M165.85 134.6H162.431V138.119H165.85V134.6Z" fill="#EBEBEB"/>
    <path d="M161.478 140.573H158.059V144.093H161.478V140.573Z" fill="#EBEBEB"/>
    <path d="M165.85 140.573H162.431V144.093H165.85V140.573Z" fill="#EBEBEB"/>
    <path d="M161.478 146.546H158.059V150.066H161.478V146.546Z" fill="#EBEBEB"/>
    <path d="M165.85 146.546H162.431V150.066H165.85V146.546Z" fill="#EBEBEB"/>
    <path d="M161.478 152.52H158.059V156.039H161.478V152.52Z" fill="#EBEBEB"/>
    <path d="M165.85 152.52H162.431V156.039H165.85V152.52Z" fill="#EBEBEB"/>
    <path d="M161.478 158.493H158.059V162.012H161.478V158.493Z" fill="#EBEBEB"/>
    <path d="M165.85 158.493H162.431V162.012H165.85V158.493Z" fill="#EBEBEB"/>
    <path d="M161.478 164.466H158.059V167.985H161.478V164.466Z" fill="#EBEBEB"/>
    <path d="M165.85 164.466H162.431V167.985H165.85V164.466Z" fill="#EBEBEB"/>
    <path d="M161.478 170.439H158.059V173.958H161.478V170.439Z" fill="#EBEBEB"/>
    <path d="M165.85 170.439H162.431V173.958H165.85V170.439Z" fill="#EBEBEB"/>
    <path d="M161.478 176.412H158.059V179.931H161.478V176.412Z" fill="#EBEBEB"/>
    <path d="M165.85 176.412H162.431V179.931H165.85V176.412Z" fill="#EBEBEB"/>
    <path d="M161.478 182.385H158.059V185.904H161.478V182.385Z" fill="#EBEBEB"/>
    <path d="M165.85 182.385H162.431V185.904H165.85V182.385Z" fill="#EBEBEB"/>
    <path d="M161.478 188.358H158.059V191.878H161.478V188.358Z" fill="#EBEBEB"/>
    <path d="M165.85 188.358H162.431V191.878H165.85V188.358Z" fill="#EBEBEB"/>
    <path d="M161.478 194.331H158.059V197.851H161.478V194.331Z" fill="#EBEBEB"/>
    <path d="M165.85 194.331H162.431V197.851H165.85V194.331Z" fill="#EBEBEB"/>
    <path d="M161.478 200.305H158.059V203.824H161.478V200.305Z" fill="#EBEBEB"/>
    <path d="M165.85 200.305H162.431V203.824H165.85V200.305Z" fill="#EBEBEB"/>
    <path d="M161.478 206.277H158.059V209.797H161.478V206.277Z" fill="#EBEBEB"/>
    <path d="M166.761 209.796H170.18V206.277H166.761V209.796Z" fill="#EBEBEB"/>
    <path d="M166.761 203.824H170.18V200.305H166.761V203.824Z" fill="#EBEBEB"/>
    <path d="M166.761 197.85H170.18V194.331H166.761V197.85Z" fill="#EBEBEB"/>
    <path d="M166.761 191.877H170.18V188.358H166.761V191.877Z" fill="#EBEBEB"/>
    <path d="M166.761 185.904H170.18V182.385H166.761V185.904Z" fill="#EBEBEB"/>
    <path d="M166.761 179.936H170.18V176.417H166.761V179.936Z" fill="#EBEBEB"/>
    <path d="M166.761 173.964H170.18V170.444H166.761V173.964Z" fill="#EBEBEB"/>
    <path d="M166.761 167.99H170.18V164.471H166.761V167.99Z" fill="#EBEBEB"/>
    <path d="M166.761 162.017H170.18V158.498H166.761V162.017Z" fill="#EBEBEB"/>
    <path d="M166.761 156.044H170.18V152.525H166.761V156.044Z" fill="#EBEBEB"/>
    <path d="M166.761 150.071H170.18V146.552H166.761V150.071Z" fill="#EBEBEB"/>
    <path d="M166.761 144.098H170.18V140.578H166.761V144.098Z" fill="#EBEBEB"/>
    <path d="M166.761 138.125H170.18V134.606H166.761V138.125Z" fill="#EBEBEB"/>
    <path d="M166.761 132.146H170.18V128.627H166.761V132.146Z" fill="#EBEBEB"/>
    <path d="M165.85 206.277H162.431V209.797H165.85V206.277Z" fill="#EBEBEB"/>
    <path d="M186.769 125.638H172.909V217.778H186.769V125.638Z" fill="#A6A6A6"/>
    <path d="M182.518 209.796H185.338V206.277H182.518V209.796Z" fill="#C7C7C7"/>
    <path d="M178.908 209.796H181.728V206.277H178.908V209.796Z" fill="#C7C7C7"/>
    <path d="M182.518 203.824H185.338V200.305H182.518V203.824Z" fill="#C7C7C7"/>
    <path d="M178.908 203.824H181.728V200.305H178.908V203.824Z" fill="#C7C7C7"/>
    <path d="M182.518 197.85H185.338V194.331H182.518V197.85Z" fill="#C7C7C7"/>
    <path d="M178.908 197.85H181.728V194.331H178.908V197.85Z" fill="#C7C7C7"/>
    <path d="M182.518 191.877H185.338V188.358H182.518V191.877Z" fill="#C7C7C7"/>
    <path d="M178.908 191.877H181.728V188.358H178.908V191.877Z" fill="#C7C7C7"/>
    <path d="M182.518 185.904H185.338V182.385H182.518V185.904Z" fill="#C7C7C7"/>
    <path d="M178.908 185.904H181.728V182.385H178.908V185.904Z" fill="#C7C7C7"/>
    <path d="M182.518 179.936H185.338V176.417H182.518V179.936Z" fill="#C7C7C7"/>
    <path d="M178.908 179.936H181.728V176.417H178.908V179.936Z" fill="#C7C7C7"/>
    <path d="M182.518 173.964H185.338V170.444H182.518V173.964Z" fill="#C7C7C7"/>
    <path d="M178.908 173.964H181.728V170.444H178.908V173.964Z" fill="#C7C7C7"/>
    <path d="M182.518 167.99H185.338V164.471H182.518V167.99Z" fill="#C7C7C7"/>
    <path d="M178.908 167.99H181.728V164.471H178.908V167.99Z" fill="#C7C7C7"/>
    <path d="M182.518 162.017H185.338V158.498H182.518V162.017Z" fill="#C7C7C7"/>
    <path d="M178.908 162.017H181.728V158.498H178.908V162.017Z" fill="#C7C7C7"/>
    <path d="M182.518 156.044H185.338V152.525H182.518V156.044Z" fill="#C7C7C7"/>
    <path d="M178.908 156.044H181.728V152.525H178.908V156.044Z" fill="#C7C7C7"/>
    <path d="M182.518 150.071H185.338V146.552H182.518V150.071Z" fill="#C7C7C7"/>
    <path d="M178.908 150.071H181.728V146.552H178.908V150.071Z" fill="#C7C7C7"/>
    <path d="M182.518 144.098H185.338V140.578H182.518V144.098Z" fill="#C7C7C7"/>
    <path d="M178.908 144.098H181.728V140.578H178.908V144.098Z" fill="#C7C7C7"/>
    <path d="M182.518 138.125H185.338V134.606H182.518V138.125Z" fill="#C7C7C7"/>
    <path d="M178.908 138.125H181.728V134.606H178.908V138.125Z" fill="#C7C7C7"/>
    <path d="M182.518 132.146H185.338V128.627H182.518V132.146Z" fill="#C7C7C7"/>
    <path d="M178.151 128.633H175.332V132.152H178.151V128.633Z" fill="#C7C7C7"/>
    <path d="M178.151 134.6H175.332V138.119H178.151V134.6Z" fill="#C7C7C7"/>
    <path d="M178.151 140.573H175.332V144.093H178.151V140.573Z" fill="#C7C7C7"/>
    <path d="M178.151 146.546H175.332V150.066H178.151V146.546Z" fill="#C7C7C7"/>
    <path d="M178.151 152.52H175.332V156.039H178.151V152.52Z" fill="#C7C7C7"/>
    <path d="M178.151 158.493H175.332V162.012H178.151V158.493Z" fill="#C7C7C7"/>
    <path d="M178.151 164.466H175.332V167.985H178.151V164.466Z" fill="#C7C7C7"/>
    <path d="M178.151 170.439H175.332V173.958H178.151V170.439Z" fill="#C7C7C7"/>
    <path d="M178.151 176.412H175.332V179.931H178.151V176.412Z" fill="#C7C7C7"/>
    <path d="M178.151 182.385H175.332V185.904H178.151V182.385Z" fill="#C7C7C7"/>
    <path d="M178.151 188.358H175.332V191.878H178.151V188.358Z" fill="#C7C7C7"/>
    <path d="M178.151 194.331H175.332V197.851H178.151V194.331Z" fill="#C7C7C7"/>
    <path d="M178.151 200.305H175.332V203.824H178.151V200.305Z" fill="#C7C7C7"/>
    <path d="M178.151 206.277H175.332V209.797H178.151V206.277Z" fill="#C7C7C7"/>
    <path d="M178.908 132.146H181.728V128.627H178.908V132.146Z" fill="#C7C7C7"/>
    <path d="M48.1103 120.667H27.3184V217.773H48.1103V120.667Z" fill="#EBEBEB"/>
    <path d="M48.1098 118.541H26.8145V120.667H48.1098V118.541Z" fill="#C7C7C7"/>
    <path d="M31.2984 123.804H29.1943V217.778H31.2984V123.804Z" fill="white"/>
    <path d="M35.0348 123.804H32.9307V217.778H35.0348V123.804Z" fill="white"/>
    <path d="M38.7662 123.804H36.6621V217.778H38.7662V123.804Z" fill="white"/>
    <path d="M42.5025 123.804H40.3931V217.778H42.5025V123.804Z" fill="white"/>
    <path d="M46.2286 123.804H44.1245V217.778H46.2286V123.804Z" fill="white"/>
    <path d="M31.2984 126.491H29.1943V130.689H31.2984V126.491Z" fill="#EBEBEB"/>
    <path d="M35.0348 126.491H32.9307V130.689H35.0348V126.491Z" fill="#EBEBEB"/>
    <path d="M38.7662 126.491H36.6621V130.689H38.7662V126.491Z" fill="#EBEBEB"/>
    <path d="M42.5025 126.491H40.3931V130.689H42.5025V126.491Z" fill="#EBEBEB"/>
    <path d="M46.2286 126.491H44.1245V130.689H46.2286V126.491Z" fill="#EBEBEB"/>
    <path d="M31.2984 133.307H29.1943V137.505H31.2984V133.307Z" fill="#EBEBEB"/>
    <path d="M35.0348 133.307H32.9307V137.505H35.0348V133.307Z" fill="#EBEBEB"/>
    <path d="M38.7662 133.307H36.6621V137.505H38.7662V133.307Z" fill="#EBEBEB"/>
    <path d="M42.5025 133.307H40.3931V137.505H42.5025V133.307Z" fill="#EBEBEB"/>
    <path d="M46.2286 133.307H44.1245V137.505H46.2286V133.307Z" fill="#EBEBEB"/>
    <path d="M31.2984 140.128H29.1943V144.326H31.2984V140.128Z" fill="#EBEBEB"/>
    <path d="M35.0348 140.128H32.9307V144.326H35.0348V140.128Z" fill="#EBEBEB"/>
    <path d="M38.7662 140.128H36.6621V144.326H38.7662V140.128Z" fill="#EBEBEB"/>
    <path d="M42.5025 140.128H40.3931V144.326H42.5025V140.128Z" fill="#EBEBEB"/>
    <path d="M46.2286 140.128H44.1245V144.326H46.2286V140.128Z" fill="#EBEBEB"/>
    <path d="M31.2984 146.949H29.1943V151.147H31.2984V146.949Z" fill="#EBEBEB"/>
    <path d="M35.0348 146.949H32.9307V151.147H35.0348V146.949Z" fill="#EBEBEB"/>
    <path d="M38.7662 146.949H36.6621V151.147H38.7662V146.949Z" fill="#EBEBEB"/>
    <path d="M42.5025 146.949H40.3931V151.147H42.5025V146.949Z" fill="#EBEBEB"/>
    <path d="M46.2286 146.949H44.1245V151.147H46.2286V146.949Z" fill="#EBEBEB"/>
    <path d="M31.2984 153.77H29.1943V157.968H31.2984V153.77Z" fill="#EBEBEB"/>
    <path d="M35.0348 153.77H32.9307V157.968H35.0348V153.77Z" fill="#EBEBEB"/>
    <path d="M38.7662 153.77H36.6621V157.968H38.7662V153.77Z" fill="#EBEBEB"/>
    <path d="M42.5025 153.77H40.3931V157.968H42.5025V153.77Z" fill="#EBEBEB"/>
    <path d="M46.2286 153.77H44.1245V157.968H46.2286V153.77Z" fill="#EBEBEB"/>
    <path d="M31.2984 160.591H29.1943V164.789H31.2984V160.591Z" fill="#EBEBEB"/>
    <path d="M35.0348 160.591H32.9307V164.789H35.0348V160.591Z" fill="#EBEBEB"/>
    <path d="M38.7662 160.591H36.6621V164.789H38.7662V160.591Z" fill="#EBEBEB"/>
    <path d="M42.5025 160.591H40.3931V164.789H42.5025V160.591Z" fill="#EBEBEB"/>
    <path d="M46.2286 160.591H44.1245V164.789H46.2286V160.591Z" fill="#EBEBEB"/>
    <path d="M31.2984 167.413H29.1943V171.61H31.2984V167.413Z" fill="#EBEBEB"/>
    <path d="M35.0348 167.413H32.9307V171.61H35.0348V167.413Z" fill="#EBEBEB"/>
    <path d="M38.7662 167.413H36.6621V171.61H38.7662V167.413Z" fill="#EBEBEB"/>
    <path d="M42.5025 167.413H40.3931V171.61H42.5025V167.413Z" fill="#EBEBEB"/>
    <path d="M46.2286 167.413H44.1245V171.61H46.2286V167.413Z" fill="#EBEBEB"/>
    <path d="M31.2984 174.234H29.1943V178.431H31.2984V174.234Z" fill="#EBEBEB"/>
    <path d="M35.0348 174.234H32.9307V178.431H35.0348V174.234Z" fill="#EBEBEB"/>
    <path d="M38.7662 174.234H36.6621V178.431H38.7662V174.234Z" fill="#EBEBEB"/>
    <path d="M42.5025 174.234H40.3931V178.431H42.5025V174.234Z" fill="#EBEBEB"/>
    <path d="M46.2286 174.234H44.1245V178.431H46.2286V174.234Z" fill="#EBEBEB"/>
    <path d="M31.2984 181.055H29.1943V185.253H31.2984V181.055Z" fill="#EBEBEB"/>
    <path d="M35.0348 181.055H32.9307V185.253H35.0348V181.055Z" fill="#EBEBEB"/>
    <path d="M38.7662 181.055H36.6621V185.253H38.7662V181.055Z" fill="#EBEBEB"/>
    <path d="M42.5025 181.055H40.3931V185.253H42.5025V181.055Z" fill="#EBEBEB"/>
    <path d="M46.2286 181.055H44.1245V185.253H46.2286V181.055Z" fill="#EBEBEB"/>
    <path d="M31.2984 187.876H29.1943V192.074H31.2984V187.876Z" fill="#EBEBEB"/>
    <path d="M35.0348 187.876H32.9307V192.074H35.0348V187.876Z" fill="#EBEBEB"/>
    <path d="M38.7662 187.876H36.6621V192.074H38.7662V187.876Z" fill="#EBEBEB"/>
    <path d="M42.5025 187.876H40.3931V192.074H42.5025V187.876Z" fill="#EBEBEB"/>
    <path d="M46.2286 187.876H44.1245V192.074H46.2286V187.876Z" fill="#EBEBEB"/>
    <path d="M31.2984 194.697H29.1943V198.895H31.2984V194.697Z" fill="#EBEBEB"/>
    <path d="M35.0348 194.697H32.9307V198.895H35.0348V194.697Z" fill="#EBEBEB"/>
    <path d="M38.7662 194.697H36.6621V198.895H38.7662V194.697Z" fill="#EBEBEB"/>
    <path d="M42.5025 194.697H40.3931V198.895H42.5025V194.697Z" fill="#EBEBEB"/>
    <path d="M46.2286 194.697H44.1245V198.895H46.2286V194.697Z" fill="#EBEBEB"/>
    <path d="M31.2984 201.518H29.1943V205.715H31.2984V201.518Z" fill="#EBEBEB"/>
    <path d="M35.0348 201.518H32.9307V205.715H35.0348V201.518Z" fill="#EBEBEB"/>
    <path d="M38.7662 201.518H36.6621V205.715H38.7662V201.518Z" fill="#EBEBEB"/>
    <path d="M42.5025 201.518H40.3931V205.715H42.5025V201.518Z" fill="#EBEBEB"/>
    <path d="M46.2286 201.518H44.1245V205.715H46.2286V201.518Z" fill="#EBEBEB"/>
    <path d="M31.2984 208.339H29.1943V212.536H31.2984V208.339Z" fill="#EBEBEB"/>
    <path d="M35.0348 208.339H32.9307V212.536H35.0348V208.339Z" fill="#EBEBEB"/>
    <path d="M38.7662 208.339H36.6621V212.536H38.7662V208.339Z" fill="#EBEBEB"/>
    <path d="M42.5025 208.339H40.3931V212.536H42.5025V208.339Z" fill="#EBEBEB"/>
    <path d="M46.2286 208.339H44.1245V212.536H46.2286V208.339Z" fill="#EBEBEB"/>
    <path d="M31.2984 215.16H29.1943V217.778H31.2984V215.16Z" fill="#EBEBEB"/>
    <path d="M35.0348 215.16H32.9307V217.778H35.0348V215.16Z" fill="#EBEBEB"/>
    <path d="M38.7662 215.16H36.6621V217.778H38.7662V215.16Z" fill="#EBEBEB"/>
    <path d="M42.5025 215.16H40.3931V217.778H42.5025V215.16Z" fill="#EBEBEB"/>
    <path d="M46.2286 215.16H44.1245V217.778H46.2286V215.16Z" fill="#EBEBEB"/>
    <path d="M61.4611 120.667H48.1104V217.773H61.4611V120.667Z" fill="#DBDBDB"/>
    <path d="M62.0387 118.541H48.1104V120.667H62.0387V118.541Z" fill="#C7C7C7"/>
    <path d="M52.1011 123.804H49.9917V217.778H52.1011V123.804Z" fill="#C7C7C7"/>
    <path d="M55.8268 123.804H53.7227V217.778H55.8268V123.804Z" fill="#C7C7C7"/>
    <path d="M59.5582 123.804H57.4541V217.778H59.5582V123.804Z" fill="#C7C7C7"/>
    <path d="M52.1011 126.491H49.9917V130.689H52.1011V126.491Z" fill="#DBDBDB"/>
    <path d="M55.8268 126.491H53.7227V130.689H55.8268V126.491Z" fill="#DBDBDB"/>
    <path d="M59.5582 126.491H57.4541V130.689H59.5582V126.491Z" fill="#DBDBDB"/>
    <path d="M52.1011 133.307H49.9917V137.505H52.1011V133.307Z" fill="#DBDBDB"/>
    <path d="M55.8268 133.307H53.7227V137.505H55.8268V133.307Z" fill="#DBDBDB"/>
    <path d="M59.5582 133.307H57.4541V137.505H59.5582V133.307Z" fill="#DBDBDB"/>
    <path d="M52.1011 140.128H49.9917V144.326H52.1011V140.128Z" fill="#DBDBDB"/>
    <path d="M55.8268 140.128H53.7227V144.326H55.8268V140.128Z" fill="#DBDBDB"/>
    <path d="M59.5582 140.128H57.4541V144.326H59.5582V140.128Z" fill="#DBDBDB"/>
    <path d="M52.1011 146.949H49.9917V151.147H52.1011V146.949Z" fill="#DBDBDB"/>
    <path d="M55.8268 146.949H53.7227V151.147H55.8268V146.949Z" fill="#DBDBDB"/>
    <path d="M59.5582 146.949H57.4541V151.147H59.5582V146.949Z" fill="#DBDBDB"/>
    <path d="M52.1011 153.77H49.9917V157.968H52.1011V153.77Z" fill="#DBDBDB"/>
    <path d="M55.8268 153.77H53.7227V157.968H55.8268V153.77Z" fill="#DBDBDB"/>
    <path d="M59.5582 153.77H57.4541V157.968H59.5582V153.77Z" fill="#DBDBDB"/>
    <path d="M52.1011 160.591H49.9917V164.789H52.1011V160.591Z" fill="#DBDBDB"/>
    <path d="M55.8268 160.591H53.7227V164.789H55.8268V160.591Z" fill="#DBDBDB"/>
    <path d="M59.5582 160.591H57.4541V164.789H59.5582V160.591Z" fill="#DBDBDB"/>
    <path d="M52.1011 167.413H49.9917V171.61H52.1011V167.413Z" fill="#DBDBDB"/>
    <path d="M55.8268 167.413H53.7227V171.61H55.8268V167.413Z" fill="#DBDBDB"/>
    <path d="M59.5582 167.413H57.4541V171.61H59.5582V167.413Z" fill="#DBDBDB"/>
    <path d="M52.1011 174.234H49.9917V178.431H52.1011V174.234Z" fill="#DBDBDB"/>
    <path d="M55.8268 174.234H53.7227V178.431H55.8268V174.234Z" fill="#DBDBDB"/>
    <path d="M59.5582 174.234H57.4541V178.431H59.5582V174.234Z" fill="#DBDBDB"/>
    <path d="M52.1011 181.055H49.9917V185.253H52.1011V181.055Z" fill="#DBDBDB"/>
    <path d="M55.8268 181.055H53.7227V185.253H55.8268V181.055Z" fill="#DBDBDB"/>
    <path d="M59.5582 181.055H57.4541V185.253H59.5582V181.055Z" fill="#DBDBDB"/>
    <path d="M52.1011 187.876H49.9917V192.074H52.1011V187.876Z" fill="#DBDBDB"/>
    <path d="M55.8268 187.876H53.7227V192.074H55.8268V187.876Z" fill="#DBDBDB"/>
    <path d="M59.5582 187.876H57.4541V192.074H59.5582V187.876Z" fill="#DBDBDB"/>
    <path d="M52.1011 194.697H49.9917V198.895H52.1011V194.697Z" fill="#DBDBDB"/>
    <path d="M55.8268 194.697H53.7227V198.895H55.8268V194.697Z" fill="#DBDBDB"/>
    <path d="M59.5582 194.697H57.4541V198.895H59.5582V194.697Z" fill="#DBDBDB"/>
    <path d="M52.1011 201.518H49.9917V205.715H52.1011V201.518Z" fill="#DBDBDB"/>
    <path d="M55.8268 201.518H53.7227V205.715H55.8268V201.518Z" fill="#DBDBDB"/>
    <path d="M59.5582 201.518H57.4541V205.715H59.5582V201.518Z" fill="#DBDBDB"/>
    <path d="M52.1011 208.339H49.9917V212.536H52.1011V208.339Z" fill="#DBDBDB"/>
    <path d="M55.8268 208.339H53.7227V212.536H55.8268V208.339Z" fill="#DBDBDB"/>
    <path d="M59.5582 208.339H57.4541V212.536H59.5582V208.339Z" fill="#DBDBDB"/>
    <path d="M52.1011 215.16H49.9917V217.778H52.1011V215.16Z" fill="#DBDBDB"/>
    <path d="M55.8268 215.16H53.7227V217.778H55.8268V215.16Z" fill="#DBDBDB"/>
    <path d="M59.5582 215.16H57.4541V217.778H59.5582V215.16Z" fill="#DBDBDB"/>
    <path d="M21.9175 156.356H1.21045V217.778H21.9175V156.356Z" fill="#EBEBEB"/>
    <path d="M21.9175 151.147H4.15723V156.357H21.9175V151.147Z" fill="#C7C7C7"/>
    <path d="M19.6494 159.076H3.48438V217.779H19.6494V159.076Z" fill="#DBDBDB"/>
    <path d="M19.6494 164.678H3.48438V166.066H19.6494V164.678Z" fill="white"/>
    <path d="M19.6494 170.423H3.48438V171.811H19.6494V170.423Z" fill="white"/>
    <path d="M19.6494 176.168H3.48438V177.557H19.6494V176.168Z" fill="white"/>
    <path d="M19.6494 181.914H3.48438V183.302H19.6494V181.914Z" fill="white"/>
    <path d="M19.6494 187.659H3.48438V189.047H19.6494V187.659Z" fill="white"/>
    <path d="M19.6494 193.404H3.48438V194.792H19.6494V193.404Z" fill="white"/>
    <path d="M19.6494 199.149H3.48438V200.538H19.6494V199.149Z" fill="white"/>
    <path d="M19.6494 204.894H3.48438V206.283H19.6494V204.894Z" fill="white"/>
    <path d="M19.6494 210.645H3.48438V212.033H19.6494V210.645Z" fill="white"/>
    <path d="M19.6494 216.39H3.48438V217.779H19.6494V216.39Z" fill="white"/>
    <path d="M34.8866 156.356H21.9175V217.778H34.8866V156.356Z" fill="#DBDBDB"/>
    <path d="M32.9415 151.147H21.9175V156.357H32.9415V151.147Z" fill="#A6A6A6"/>
    <path d="M33.6734 159.076H23.7041V217.779H33.6734V159.076Z" fill="#C7C7C7"/>
    <path d="M33.6734 164.678H23.7041V166.066H33.6734V164.678Z" fill="white"/>
    <path d="M33.6734 170.423H23.7041V171.811H33.6734V170.423Z" fill="white"/>
    <path d="M33.6734 176.168H23.7041V177.557H33.6734V176.168Z" fill="white"/>
    <path d="M33.6734 181.914H23.7041V183.302H33.6734V181.914Z" fill="white"/>
    <path d="M33.6734 187.659H23.7041V189.047H33.6734V187.659Z" fill="white"/>
    <path d="M33.6734 193.404H23.7041V194.792H33.6734V193.404Z" fill="white"/>
    <path d="M33.6734 199.149H23.7041V200.538H33.6734V199.149Z" fill="white"/>
    <path d="M33.6734 204.894H23.7041V206.283H33.6734V204.894Z" fill="white"/>
    <path d="M33.6734 210.645H23.7041V212.033H33.6734V210.645Z" fill="white"/>
    <path d="M33.6734 216.39H23.7041V217.779H33.6734V216.39Z" fill="white"/>
    <path d="M79.9474 181.818H63.9414V217.773H79.9474V181.818Z" fill="#DBDBDB"/>
    <path d="M69.2892 184.929H66.459V187.134H69.2892V184.929Z" fill="#C7C7C7"/>
    <path d="M69.2892 189.635H66.459V191.84H69.2892V189.635Z" fill="#C7C7C7"/>
    <path d="M69.2892 194.342H66.459V196.547H69.2892V194.342Z" fill="#C7C7C7"/>
    <path d="M69.2892 199.048H66.459V201.253H69.2892V199.048Z" fill="#C7C7C7"/>
    <path d="M69.2892 203.755H66.459V205.96H69.2892V203.755Z" fill="#C7C7C7"/>
    <path d="M69.2892 208.456H66.459V210.661H69.2892V208.456Z" fill="#C7C7C7"/>
    <path d="M69.2892 213.162H66.459V215.367H69.2892V213.162Z" fill="#C7C7C7"/>
    <path d="M73.3644 184.929H70.5342V187.134H73.3644V184.929Z" fill="#C7C7C7"/>
    <path d="M73.3644 189.635H70.5342V191.84H73.3644V189.635Z" fill="#C7C7C7"/>
    <path d="M73.3644 194.342H70.5342V196.547H73.3644V194.342Z" fill="#C7C7C7"/>
    <path d="M73.3644 199.048H70.5342V201.253H73.3644V199.048Z" fill="#C7C7C7"/>
    <path d="M73.3644 203.755H70.5342V205.96H73.3644V203.755Z" fill="#C7C7C7"/>
    <path d="M73.3644 208.456H70.5342V210.661H73.3644V208.456Z" fill="#C7C7C7"/>
    <path d="M73.3644 213.162H70.5342V215.367H73.3644V213.162Z" fill="#C7C7C7"/>
    <path d="M77.4298 184.929H74.5996V187.134H77.4298V184.929Z" fill="#C7C7C7"/>
    <path d="M77.4298 189.635H74.5996V191.84H77.4298V189.635Z" fill="#C7C7C7"/>
    <path d="M77.4298 194.342H74.5996V196.547H77.4298V194.342Z" fill="#C7C7C7"/>
    <path d="M77.4298 199.048H74.5996V201.253H77.4298V199.048Z" fill="#C7C7C7"/>
    <path d="M77.4298 203.755H74.5996V205.96H77.4298V203.755Z" fill="#C7C7C7"/>
    <path d="M77.4298 208.456H74.5996V210.661H77.4298V208.456Z" fill="#C7C7C7"/>
    <path d="M77.4298 213.162H74.5996V215.367H77.4298V213.162Z" fill="#C7C7C7"/>
    <path d="M91.178 181.818H79.9473V217.773H91.178V181.818Z" fill="#A6A6A6"/>
    <path d="M87.7223 215.012H90.0278V212.807H87.7223V215.012Z" fill="#C7C7C7"/>
    <path d="M87.7223 210.311H90.0278V208.106H87.7223V210.311Z" fill="#C7C7C7"/>
    <path d="M87.7223 205.604H90.0278V203.4H87.7223V205.604Z" fill="#C7C7C7"/>
    <path d="M87.7223 200.904H90.0278V198.699H87.7223V200.904Z" fill="#C7C7C7"/>
    <path d="M87.7223 196.191H90.0278V193.987H87.7223V196.191Z" fill="#C7C7C7"/>
    <path d="M87.7223 191.485H90.0278V189.28H87.7223V191.485Z" fill="#C7C7C7"/>
    <path d="M87.7223 186.784H90.0278V184.579H87.7223V186.784Z" fill="#C7C7C7"/>
    <path d="M84.405 215.012H86.7104V212.807H84.405V215.012Z" fill="#C7C7C7"/>
    <path d="M84.405 210.311H86.7104V208.106H84.405V210.311Z" fill="#C7C7C7"/>
    <path d="M84.405 205.604H86.7104V203.4H84.405V205.604Z" fill="#C7C7C7"/>
    <path d="M84.405 200.904H86.7104V198.699H84.405V200.904Z" fill="#C7C7C7"/>
    <path d="M84.405 196.191H86.7104V193.987H84.405V196.191Z" fill="#C7C7C7"/>
    <path d="M84.405 191.485H86.7104V189.28H84.405V191.485Z" fill="#C7C7C7"/>
    <path d="M84.405 186.784H86.7104V184.579H84.405V186.784Z" fill="#C7C7C7"/>
    <path d="M81.0973 215.012H83.4028V212.807H81.0973V215.012Z" fill="#C7C7C7"/>
    <path d="M81.0973 210.311H83.4028V208.106H81.0973V210.311Z" fill="#C7C7C7"/>
    <path d="M81.0973 205.604H83.4028V203.4H81.0973V205.604Z" fill="#C7C7C7"/>
    <path d="M81.0973 200.904H83.4028V198.699H81.0973V200.904Z" fill="#C7C7C7"/>
    <path d="M81.0973 196.191H83.4028V193.987H81.0973V196.191Z" fill="#C7C7C7"/>
    <path d="M81.0973 191.485H83.4028V189.28H81.0973V191.485Z" fill="#C7C7C7"/>
    <path d="M81.0973 186.784H83.4028V184.579H81.0973V186.784Z" fill="#C7C7C7"/>
    <path d="M199.027 140.573H187.972V153.638H199.027V140.573Z" fill="#DBDBDB"/>
    <path d="M206.045 140.573H199.033V154.115H206.045V140.573Z" fill="#C7C7C7"/>
    <path d="M206.512 146.345H199.553V154.12H206.512V146.345Z" fill="#DBDBDB"/>
    <path d="M210.852 146.345H206.511V154.12H210.852V146.345Z" fill="#C7C7C7"/>
    <path d="M201.614 152.79H183.732V217.773H201.614V152.79Z" fill="#EBEBEB"/>
    <path d="M191.401 155.583H185.778V157.878H191.401V155.583Z" fill="white"/>
    <path d="M198.593 155.583H192.97V157.878H198.593V155.583Z" fill="white"/>
    <path d="M191.401 159.484H185.778V161.779H191.401V159.484Z" fill="white"/>
    <path d="M198.593 159.484H192.97V161.779H198.593V159.484Z" fill="white"/>
    <path d="M191.401 163.385H185.778V165.68H191.401V163.385Z" fill="white"/>
    <path d="M198.593 163.385H192.97V165.68H198.593V163.385Z" fill="white"/>
    <path d="M191.401 167.285H185.778V169.58H191.401V167.285Z" fill="white"/>
    <path d="M198.593 167.285H192.97V169.58H198.593V167.285Z" fill="white"/>
    <path d="M191.401 171.186H185.778V173.481H191.401V171.186Z" fill="white"/>
    <path d="M198.593 171.186H192.97V173.481H198.593V171.186Z" fill="white"/>
    <path d="M191.401 175.087H185.778V177.382H191.401V175.087Z" fill="white"/>
    <path d="M198.593 175.087H192.97V177.382H198.593V175.087Z" fill="white"/>
    <path d="M191.401 178.988H185.778V181.282H191.401V178.988Z" fill="white"/>
    <path d="M198.593 178.988H192.97V181.282H198.593V178.988Z" fill="white"/>
    <path d="M191.401 182.889H185.778V185.184H191.401V182.889Z" fill="white"/>
    <path d="M198.593 182.889H192.97V185.184H198.593V182.889Z" fill="white"/>
    <path d="M191.401 186.79H185.778V189.084H191.401V186.79Z" fill="white"/>
    <path d="M198.593 186.79H192.97V189.084H198.593V186.79Z" fill="white"/>
    <path d="M191.401 190.69H185.778V192.985H191.401V190.69Z" fill="white"/>
    <path d="M198.593 190.69H192.97V192.985H198.593V190.69Z" fill="white"/>
    <path d="M191.401 194.591H185.778V196.886H191.401V194.591Z" fill="white"/>
    <path d="M198.593 194.591H192.97V196.886H198.593V194.591Z" fill="white"/>
    <path d="M191.401 198.491H185.778V200.792H191.401V198.491Z" fill="white"/>
    <path d="M198.593 198.491H192.97V200.792H198.593V198.491Z" fill="white"/>
    <path d="M191.401 202.393H185.778V204.687H191.401V202.393Z" fill="white"/>
    <path d="M198.593 202.393H192.97V204.687H198.593V202.393Z" fill="white"/>
    <path d="M191.401 206.293H185.778V208.588H191.401V206.293Z" fill="white"/>
    <path d="M198.593 206.293H192.97V208.588H198.593V206.293Z" fill="white"/>
    <path d="M216.104 152.79H201.614V217.773H216.104V152.79Z" fill="#C7C7C7"/>
    <path d="M210.036 208.588H214.652V206.293H210.036V208.588Z" fill="#EBEBEB"/>
    <path d="M204.126 208.588H208.743V206.293H204.126V208.588Z" fill="#EBEBEB"/>
    <path d="M210.036 204.688H214.652V202.393H210.036V204.688Z" fill="#EBEBEB"/>
    <path d="M204.126 204.688H208.743V202.393H204.126V204.688Z" fill="#EBEBEB"/>
    <path d="M210.036 200.786H214.652V198.486H210.036V200.786Z" fill="#EBEBEB"/>
    <path d="M204.126 200.786H208.743V198.486H204.126V200.786Z" fill="#EBEBEB"/>
    <path d="M210.036 196.886H214.652V194.591H210.036V196.886Z" fill="#EBEBEB"/>
    <path d="M204.126 196.886H208.743V194.591H204.126V196.886Z" fill="#EBEBEB"/>
    <path d="M210.036 192.985H214.652V190.69H210.036V192.985Z" fill="#EBEBEB"/>
    <path d="M204.126 192.985H208.743V190.69H204.126V192.985Z" fill="#EBEBEB"/>
    <path d="M210.036 189.084H214.652V186.789H210.036V189.084Z" fill="#EBEBEB"/>
    <path d="M204.126 189.084H208.743V186.789H204.126V189.084Z" fill="#EBEBEB"/>
    <path d="M210.036 185.184H214.652V182.889H210.036V185.184Z" fill="#EBEBEB"/>
    <path d="M204.126 185.184H208.743V182.889H204.126V185.184Z" fill="#EBEBEB"/>
    <path d="M210.036 181.283H214.652V178.988H210.036V181.283Z" fill="#EBEBEB"/>
    <path d="M204.126 181.283H208.743V178.988H204.126V181.283Z" fill="#EBEBEB"/>
    <path d="M210.036 177.382H214.652V175.087H210.036V177.382Z" fill="#EBEBEB"/>
    <path d="M204.126 177.382H208.743V175.087H204.126V177.382Z" fill="#EBEBEB"/>
    <path d="M210.036 173.481H214.652V171.186H210.036V173.481Z" fill="#EBEBEB"/>
    <path d="M204.126 173.481H208.743V171.186H204.126V173.481Z" fill="#EBEBEB"/>
    <path d="M210.036 169.58H214.652V167.285H210.036V169.58Z" fill="#EBEBEB"/>
    <path d="M204.126 169.58H208.743V167.285H204.126V169.58Z" fill="#EBEBEB"/>
    <path d="M210.036 165.68H214.652V163.385H210.036V165.68Z" fill="#EBEBEB"/>
    <path d="M204.126 165.68H208.743V163.385H204.126V165.68Z" fill="#EBEBEB"/>
    <path d="M210.036 161.779H214.652V159.484H210.036V161.779Z" fill="#EBEBEB"/>
    <path d="M204.126 161.779H208.743V159.484H204.126V161.779Z" fill="#EBEBEB"/>
    <path d="M210.036 157.883H214.652V155.588H210.036V157.883Z" fill="#EBEBEB"/>
    <path d="M204.126 157.883H208.743V155.588H204.126V157.883Z" fill="#EBEBEB"/>
    <path d="M125.956 175.431H104.868V217.778H125.956V175.431Z" fill="#C7C7C7"/>
    <path d="M111.917 179.094H108.186V181.685H111.917V179.094Z" fill="#DBDBDB"/>
    <path d="M111.917 184.637H108.186V187.234H111.917V184.637Z" fill="#DBDBDB"/>
    <path d="M111.917 190.176H108.186V192.773H111.917V190.176Z" fill="#DBDBDB"/>
    <path d="M111.917 195.72H108.186V198.317H111.917V195.72Z" fill="#DBDBDB"/>
    <path d="M111.917 201.259H108.186V203.856H111.917V201.259Z" fill="#DBDBDB"/>
    <path d="M111.917 206.802H108.186V209.399H111.917V206.802Z" fill="#DBDBDB"/>
    <path d="M111.917 212.341H108.186V214.938H111.917V212.341Z" fill="#DBDBDB"/>
    <path d="M117.285 179.094H113.554V181.685H117.285V179.094Z" fill="#DBDBDB"/>
    <path d="M117.285 184.637H113.554V187.234H117.285V184.637Z" fill="#DBDBDB"/>
    <path d="M117.285 190.176H113.554V192.773H117.285V190.176Z" fill="#DBDBDB"/>
    <path d="M117.285 195.72H113.554V198.317H117.285V195.72Z" fill="#DBDBDB"/>
    <path d="M117.285 201.259H113.554V203.856H117.285V201.259Z" fill="#DBDBDB"/>
    <path d="M117.285 206.802H113.554V209.399H117.285V206.802Z" fill="#DBDBDB"/>
    <path d="M117.285 212.341H113.554V214.938H117.285V212.341Z" fill="#DBDBDB"/>
    <path d="M122.639 179.094H118.908V181.685H122.639V179.094Z" fill="#DBDBDB"/>
    <path d="M122.639 184.637H118.908V187.234H122.639V184.637Z" fill="#DBDBDB"/>
    <path d="M122.639 190.176H118.908V192.773H122.639V190.176Z" fill="#DBDBDB"/>
    <path d="M122.639 195.72H118.908V198.317H122.639V195.72Z" fill="#DBDBDB"/>
    <path d="M122.639 201.259H118.908V203.856H122.639V201.259Z" fill="#DBDBDB"/>
    <path d="M122.639 206.802H118.908V209.399H122.639V206.802Z" fill="#DBDBDB"/>
    <path d="M122.639 212.341H118.908V214.938H122.639V212.341Z" fill="#DBDBDB"/>
    <path d="M125.957 171.016H111.917V175.426H125.957V171.016Z" fill="#DBDBDB"/>
    <path d="M125.962 168.287H117.058V171.017H125.962V168.287Z" fill="#EBEBEB"/>
    <path d="M140.754 175.431H125.957V217.778H140.754V175.431Z" fill="#A6A6A6"/>
    <path d="M136.207 214.524H139.244V211.927H136.207V214.524Z" fill="#C7C7C7"/>
    <path d="M136.207 208.98H139.244V206.383H136.207V208.98Z" fill="#C7C7C7"/>
    <path d="M136.207 203.442H139.244V200.845H136.207V203.442Z" fill="#C7C7C7"/>
    <path d="M136.207 197.898H139.244V195.301H136.207V197.898Z" fill="#C7C7C7"/>
    <path d="M136.207 192.36H139.244V189.763H136.207V192.36Z" fill="#C7C7C7"/>
    <path d="M136.207 186.816H139.244V184.219H136.207V186.816Z" fill="#C7C7C7"/>
    <path d="M136.207 181.277H139.244V178.68H136.207V181.277Z" fill="#C7C7C7"/>
    <path d="M131.835 214.524H134.872V211.927H131.835V214.524Z" fill="#C7C7C7"/>
    <path d="M131.835 208.98H134.872V206.383H131.835V208.98Z" fill="#C7C7C7"/>
    <path d="M131.835 203.442H134.872V200.845H131.835V203.442Z" fill="#C7C7C7"/>
    <path d="M131.835 197.898H134.872V195.301H131.835V197.898Z" fill="#C7C7C7"/>
    <path d="M131.835 192.36H134.872V189.763H131.835V192.36Z" fill="#C7C7C7"/>
    <path d="M131.835 186.816H134.872V184.219H131.835V186.816Z" fill="#C7C7C7"/>
    <path d="M131.835 181.277H134.872V178.68H131.835V181.277Z" fill="#C7C7C7"/>
    <path d="M127.478 214.524H130.515V211.927H127.478V214.524Z" fill="#C7C7C7"/>
    <path d="M127.478 208.98H130.515V206.383H127.478V208.98Z" fill="#C7C7C7"/>
    <path d="M127.478 203.442H130.515V200.845H127.478V203.442Z" fill="#C7C7C7"/>
    <path d="M127.478 197.898H130.515V195.301H127.478V197.898Z" fill="#C7C7C7"/>
    <path d="M127.478 192.36H130.515V189.763H127.478V192.36Z" fill="#C7C7C7"/>
    <path d="M127.478 186.816H130.515V184.219H127.478V186.816Z" fill="#C7C7C7"/>
    <path d="M127.478 181.277H130.515V178.68H127.478V181.277Z" fill="#C7C7C7"/>
    <path d="M138.512 171.016H125.957V175.426H138.512V171.016Z" fill="#C7C7C7"/>
    <path d="M132.762 168.287H125.957V171.017H132.762V168.287Z" fill="#DBDBDB"/>
    <path d="M179.81 14.6387L179.683 14.2624C180.017 14.1458 180.356 14.0398 180.695 13.9338L180.812 14.3101L179.81 14.6387Z" fill="#263238"/>
    <path d="M129.566 57.4783L129.481 57.0861C130.181 56.943 130.875 56.7681 131.548 56.5561L131.654 56.9377C130.976 57.155 130.271 57.3299 129.566 57.4783ZM134.204 56.095L134.061 55.724C134.713 55.4696 135.37 55.194 136.006 54.876L136.175 55.2364C135.529 55.5491 134.866 55.8353 134.204 56.095ZM138.544 53.975L138.338 53.6358C138.937 53.2754 139.536 52.8832 140.119 52.4751L140.346 52.7984C139.753 53.1959 139.149 53.5881 138.544 53.9538V53.975ZM142.482 51.166L142.228 50.8586C142.758 50.4187 143.288 49.9417 143.818 49.4488L144.088 49.7403C143.564 50.2173 143.023 50.6943 142.482 51.1448V51.166ZM146.017 47.8482L145.726 47.5726C146.203 47.0797 146.685 46.5497 147.173 45.9826L147.47 46.2476C146.982 46.7935 146.494 47.3288 146.017 47.827V47.8482ZM149.197 44.2124L148.89 43.958C149.341 43.428 149.78 42.8503 150.22 42.2832L150.533 42.527C150.098 43.0782 149.655 43.633 149.203 44.1912L149.197 44.2124ZM152.155 40.3858L151.837 40.1526L153.109 38.4248L153.427 38.658L152.155 40.3858ZM155.001 36.485L154.678 36.2518L155.944 34.5134L156.262 34.7466L155.001 36.485ZM157.858 32.5683L157.54 32.3298C157.969 31.7574 158.404 31.185 158.843 30.6179L159.156 30.8617C158.716 31.4288 158.287 31.9959 157.858 32.5683ZM160.82 28.7682L160.513 28.5138C160.969 27.9838 161.43 27.4114 161.902 26.8708L162.198 27.1305C161.732 27.6711 161.271 28.217 160.82 28.7682ZM164 25.1483L163.709 24.878C164.212 24.348 164.721 23.818 165.219 23.341L165.5 23.6272C164.997 24.0883 164.488 24.6183 163.995 25.1483H164ZM167.461 21.8199L167.202 21.5178C167.732 21.0408 168.309 20.5797 168.86 20.1504L169.11 20.4631C168.548 20.9083 168.018 21.3429 167.456 21.8199H167.461ZM171.261 18.8943L171.039 18.5657C171.632 18.1629 172.242 17.7707 172.851 17.4103L173.058 17.7495C172.449 18.1099 171.844 18.4968 171.256 18.8943H171.261ZM175.39 16.4775L175.215 16.1224C175.851 15.8044 176.514 15.5023 177.171 15.2214L177.325 15.5871C176.667 15.8627 176.021 16.1648 175.385 16.4775H175.39Z" fill="#263238"/>
    <path d="M125.803 58.0403L125.766 57.6428C126.119 57.611 126.473 57.5739 126.826 57.5315L126.874 57.9237L125.803 58.0403Z" fill="#263238"/>
    <path d="M184.813 7.40433L180.753 14.1247L187.135 10.8917L209.792 7.38843L184.813 7.40433Z" fill="#1151B4"/>
    <path opacity="0.1" d="M184.813 7.40433L180.753 14.1247L187.135 10.8917L209.792 7.38843L184.813 7.40433Z" fill="black"/>
    <path d="M187.516 12.7199L180.753 14.1244L187.135 10.8914L187.516 12.7199Z" fill="#263238"/>
    <path d="M187.135 10.8917L209.792 7.38843L189.112 20.8981L187.135 10.8917Z" fill="#1151B4"/>
    <path d="M184.814 7.4041L177.145 0L209.793 7.3882L184.814 7.4041Z" fill="#1151B4"/>
    <path d="M58.4875 64.2637H51.6558V217.778H58.4875V64.2637Z" fill="#37474F"/>
    <path d="M58.4931 217.773H62.1978L62.1978 64.2582H58.4931L58.4931 217.773Z" fill="#455A64"/>
    <path d="M58.4878 62.3291H51.0254V64.2583H58.4878V62.3291Z" fill="#263238"/>
    <path d="M58.4881 64.2637H62.8394V62.3345H58.4881V64.2637Z" fill="#37474F"/>
    <path d="M58.4875 60.6226H52.5303V62.3345H58.4875V60.6226Z" fill="#37474F"/>
    <path d="M61.4664 60.6226H58.4878V62.3345H61.4664V60.6226Z" fill="#455A64"/>
    <path d="M60.8781 56.7695C60.877 57.5314 60.6501 58.2758 60.2261 58.9088C59.8021 59.5417 59.2 60.0347 58.4958 60.3256C57.7917 60.6164 57.0171 60.6919 56.27 60.5426C55.5229 60.3934 54.8369 60.026 54.2985 59.4869C53.7602 58.9478 53.3938 58.2613 53.2455 57.514C53.0973 56.7667 53.1739 55.9922 53.4657 55.2885C53.7575 54.5847 54.2513 53.9833 54.8849 53.5601C55.5184 53.137 56.2631 52.9111 57.025 52.9111C57.5314 52.9111 58.0329 53.011 58.5007 53.2049C58.9685 53.3989 59.3935 53.6832 59.7514 54.0415C60.1093 54.3999 60.393 54.8253 60.5863 55.2934C60.7796 55.7615 60.8788 56.2631 60.8781 56.7695Z" fill="#37474F"/>
    <path d="M29.115 77.5352V93.9652H11.4077V77.6889C11.407 76.5456 11.6316 75.4133 12.0686 74.3569C12.5057 73.3004 13.1466 72.3404 13.9548 71.5318C14.763 70.7231 15.7226 70.0816 16.7788 69.6439C17.8349 69.2062 18.967 68.981 20.1103 68.981H20.5608C22.8295 68.981 25.0053 69.8822 26.6095 71.4864C28.2138 73.0906 29.115 75.2664 29.115 77.5352Z" fill="#1151B4"/>
    <path d="M57.0245 76.1996V93.9811H29.1147V77.5511C29.1168 76.4264 28.8971 75.3123 28.4682 74.2726C28.0392 73.2329 27.4094 72.2881 26.6149 71.492C25.8204 70.696 24.8767 70.0645 23.8378 69.6336C22.7989 69.2027 21.6852 68.981 20.5605 68.981H49.8271C51.738 68.9866 53.5686 69.7496 54.9178 71.1027C56.2669 72.4559 57.0246 74.2887 57.0245 76.1996Z" fill="#1151B4"/>
    <path opacity="0.1" d="M57.0245 76.1996V93.9811H29.1147V77.5511C29.1168 76.4264 28.8971 75.3123 28.4682 74.2726C28.0392 73.2329 27.4094 72.2881 26.6149 71.492C25.8204 70.696 24.8767 70.0645 23.8378 69.6336C22.7989 69.2027 21.6852 68.981 20.5605 68.981H49.8271C51.738 68.9866 53.5686 69.7496 54.9178 71.1027C56.2669 72.4559 57.0246 74.2887 57.0245 76.1996Z" fill="#020100"/>
    <path opacity="0.1" d="M33.9589 77.2172V93.9811H32.8194V77.5511C32.8215 76.4268 32.602 75.3132 32.1733 74.2738C31.7447 73.2345 31.1154 72.2899 30.3214 71.4939C29.5275 70.698 28.5844 70.0663 27.5461 69.6352C26.5078 69.204 25.3948 68.9817 24.2705 68.981H25.7227C27.9071 68.981 30.002 69.8487 31.5466 71.3933C33.0912 72.9379 33.9589 75.0328 33.9589 77.2172Z" fill="#020100"/>
    <path opacity="0.1" d="M54.433 77.2166V93.9805H53.2935V77.5505C53.2935 75.2827 52.393 73.1078 50.7899 71.5037C49.1869 69.8996 47.0124 68.9977 44.7446 68.9963H46.1968C48.3784 68.9963 50.471 69.8619 52.0151 71.403C53.5592 72.9442 54.4288 75.035 54.433 77.2166Z" fill="#020100"/>
    <g opacity="0.1">
        <path d="M40.155 89.5709V86.9209L39.1957 88.8501H38.6657L37.7064 86.9209V89.5709H36.6782V85.1401H37.7912L38.9413 87.4509L40.0914 85.1401H41.1991V89.5709H40.155Z" fill="#020100"/>
        <path d="M43.2287 85.1401H44.1562L45.7462 89.5709H44.6862L44.3416 88.5745H42.9637L42.6245 89.5709H41.5645L43.2287 85.1401ZM44.2091 87.8696L43.6792 86.2796L43.1492 87.8696H44.2091Z" fill="#020100"/>
        <path d="M46.208 89.5709V85.1401H47.2309V89.5709H46.208Z" fill="#020100"/>
        <path d="M48.0781 89.5709V85.1401H49.101V88.6699H51.2475V89.5709H48.0781Z" fill="#020100"/>
    </g>
    <path opacity="0.3" d="M28.2091 77.9375V92.7033H12.3091V78.0753C12.3091 77.0469 12.512 76.0287 12.9062 75.0788C13.3004 74.129 13.8781 73.2662 14.6063 72.54C15.3344 71.8138 16.1987 71.2384 17.1496 70.8468C18.1006 70.4552 19.1194 70.2551 20.1478 70.2578H20.5506C22.5837 70.2635 24.5316 71.075 25.9672 72.5147C27.4029 73.9543 28.2091 75.9044 28.2091 77.9375Z" fill="#020100"/>
    <path d="M9.44151 95.6396L11.4078 93.9966H29.1151L27.3343 95.4859C21.605 100.293 13.7663 104.194 8.95921 104.194H7.80381C3.08151 104.178 2.39781 101.061 9.44151 95.6396Z" fill="#37474F"/>
    <path d="M29.1098 93.981L27.3343 95.4703C21.605 100.277 13.7663 104.178 8.95917 104.178H7.70307C3.07087 104.13 2.44547 100.998 9.44147 95.624L11.4025 93.981H29.1098Z" fill="#37474F"/>
    <path d="M27.8007 93.981L26.0252 95.4703C20.3171 100.24 12.5155 104.146 7.70307 104.178C3.07087 104.13 2.44547 100.998 9.44147 95.624L11.4025 93.981H27.8007Z" fill="#455A64"/>
    <path d="M54.2851 101.274V105.795L44.8882 93.981H48.4869L54.2851 101.274Z" fill="#455A64"/>
    <path d="M54.2849 105.795H52.9599L43.563 93.981H44.8933L54.2849 105.795Z" fill="#37474F"/>
    <path d="M39.7573 61.3329V65.5198H35.9254V81.2449C35.9254 81.5964 35.7858 81.9334 35.5373 82.1819C35.2888 82.4304 34.9518 82.5699 34.6004 82.5699C34.249 82.5699 33.912 82.4304 33.6635 82.1819C33.415 81.9334 33.2754 81.5964 33.2754 81.2449V60.2834L35.9254 60.7128L39.7573 61.3329Z" fill="#455A64"/>
    <path d="M39.7576 61.3329V65.5198H35.9257V81.2449C35.9246 81.5495 35.8186 81.8443 35.6255 82.0799C35.4324 82.3154 35.1641 82.4772 34.8657 82.5381C34.7754 82.5595 34.6829 82.5702 34.5901 82.5699C34.5162 82.5783 34.4415 82.5783 34.3675 82.5699C34.0959 82.5282 33.845 82.3999 33.652 82.2042C33.4047 81.9546 33.2657 81.6176 33.2651 81.2662V60.2834L35.9151 60.7128L39.7576 61.3329Z" fill="#455A64"/>
    <path d="M34.5846 82.5699H33.5511C33.2615 82.5732 32.9816 82.465 32.7695 82.2677C32.5574 82.0704 32.4293 81.7991 32.4116 81.5099V60.2834H33.2596V81.2449C33.2601 81.5964 33.3992 81.9334 33.6465 82.1831C33.9069 82.4138 34.2373 82.5501 34.5846 82.5699Z" fill="#37474F"/>
    <path d="M28.2089 77.9375V88.3202L25.5589 87.2125L24.0113 86.5606L23.3276 86.2744L22.8824 86.0836L22.4107 85.8875L22.2676 85.8292L22.0821 85.7497L18.1919 84.1067L19.0134 82.151L19.1724 81.78L19.8773 80.1158L20.1582 79.4374L20.2748 79.1724L20.7624 78.0064L21.2924 76.692L23.4124 71.6252L26.1896 72.7965C27.0116 73.7023 27.6026 74.7932 27.9121 75.9765C28.0954 76.6146 28.1952 77.2738 28.2089 77.9375Z" fill="#EBEBEB"/>
    <path d="M28.2085 80.6406V81.7961L28.1449 81.6636V81.6053L28.0972 81.5045C28.0775 81.4721 28.0598 81.4385 28.0442 81.4038L27.4135 80.1053C27.4135 80.0523 27.3605 79.9994 27.334 79.9411L26.7775 78.775C26.6609 78.5418 26.5496 78.3087 26.4383 78.0702L26.4065 77.996L25.5638 76.2204C25.3571 75.7699 25.1451 75.3194 24.9384 74.8636C24.4508 73.8036 23.9473 72.7118 23.4756 71.6147C24.048 72.627 24.5833 73.6552 25.1398 74.6781C25.4048 75.2081 25.6698 75.6798 25.9348 76.1833L26.7722 77.7733L26.8835 77.9906L27.2386 78.6796L27.6732 79.5329C27.6732 79.5753 27.7209 79.6178 27.7421 79.6602L28.2085 80.6406Z" fill="#DBDBDB"/>
    <path d="M28.2087 81.5945V81.6422H28.1451L27.9861 81.6899C27.313 81.8966 26.6399 82.0821 25.9615 82.257L25.7389 82.31L25.246 82.4319H25.1877L24.6047 82.5697L23.4652 82.8241C22.6596 82.9937 21.8752 83.1527 21.0431 83.2905H20.9477L20.4548 83.37C19.7711 83.4866 19.0874 83.582 18.3984 83.6562C18.992 83.4601 19.5856 83.2905 20.1845 83.1262L20.7145 82.9884L20.8788 82.9407C21.7056 82.7287 22.543 82.5432 23.3751 82.3577L24.1224 82.1987C24.345 82.1616 24.5623 82.1139 24.7849 82.0715C25.0075 82.0291 25.3149 81.9655 25.5905 81.9231L25.8979 81.8701L26.0675 81.8383C26.6823 81.7323 27.3024 81.6369 27.9331 81.5627H28.1239L28.2087 81.5945Z" fill="#DBDBDB"/>
    <path d="M28.2144 78.9661H14.498V92.5129H28.2144V78.9661Z" fill="white"/>
    <path d="M28.2086 85.2201V85.8826L28.0814 85.9939L27.8376 86.2112C27.808 86.2344 27.7797 86.2592 27.7528 86.2854L27.6786 86.3543L27.6256 86.402L25.5745 88.1828L25.2936 88.4213L25.1717 88.522L25.0498 88.4213L24.0216 87.5256L23.4916 87.0857C23.3856 86.9903 23.2743 86.9002 23.1683 86.7995C23.14 86.7828 23.1149 86.7613 23.0941 86.7359L22.7231 86.4179L22.6754 86.3755L22.5906 86.3013L22.5058 86.2324C21.7991 85.6353 21.1137 85.0311 20.4494 84.4198L20.1738 84.176L19.7339 83.7838L19.0025 83.1319C18.4725 82.6761 17.9796 82.215 17.4761 81.7486L17.2959 81.5896L17.0998 81.4147C16.2306 80.6038 15.3508 79.8247 14.4922 78.9873C15.4091 79.6922 16.3101 80.4395 17.2164 81.1603C17.2853 81.2186 17.3595 81.2716 17.4284 81.3352L17.6563 81.5207L19.1615 82.7556L19.9247 83.3863L20.7038 84.0382L21.0377 84.3191C21.6666 84.8456 22.2938 85.3756 22.9192 85.9091L23.057 86.0257L23.4227 86.3384L23.587 86.4762L23.8944 86.7412L25.1611 87.8012C25.9031 87.1652 26.6504 86.5239 27.3977 85.8932L27.6203 85.7024C27.7634 85.5805 27.9012 85.4586 28.0496 85.342L28.2086 85.2201Z" fill="#DBDBDB"/>
    <path d="M22.9618 86.1951L22.6226 86.4813C22.0926 86.9318 21.5626 87.3664 20.9796 87.7851C20.3012 88.3151 19.6069 88.8027 18.9073 89.2956C18.2077 89.7885 17.4975 90.2602 16.7873 90.7213C16.0771 91.1824 15.3351 91.6382 14.5825 92.0516C15.2291 91.4845 15.9075 90.9545 16.5859 90.4351C17.2643 89.9157 17.9639 89.4175 18.6582 88.9246C19.3525 88.4317 20.0733 87.9547 20.7782 87.4936C21.3506 87.1279 21.9336 86.7622 22.5325 86.4336L22.9512 86.2004L22.9618 86.1951Z" fill="#DBDBDB"/>
    <path d="M28.2091 86.6666V86.8892L27.7533 86.5076L27.6261 86.4016L27.4141 86.2214H27.4512L27.7056 86.3645L27.8646 86.4599L28.2091 86.6666Z" fill="#DBDBDB"/>
    <path d="M76.7987 160.829C76.7987 160.829 59.9977 175.07 59.9818 175.076C56.7541 177.784 53.9716 180.217 52.6519 181.605C52.3099 181.894 52.038 182.256 51.8569 182.665C51.8569 182.665 51.8569 182.692 51.8569 182.702C52.0106 184.208 72.8873 210.633 73.9261 211.322C74.9649 212.011 76.9736 209.096 76.9789 207.422C76.9842 205.747 73.518 192.052 73.518 192.052L90.1759 177.657L76.7987 160.829Z" fill="#EB9481"/>
    <path d="M63.4321 172.145C63.4321 172.145 59.9977 175.06 59.9818 175.065C56.7541 177.773 53.9716 180.206 52.6519 181.595C52.346 181.915 52.0791 182.271 51.8569 182.655C51.8569 182.655 51.8569 182.681 51.8569 182.692C52.0106 184.197 72.8873 210.623 73.9261 211.312C74.9649 212.001 76.9736 209.086 76.9789 207.411C76.9842 205.736 73.518 192.041 73.518 192.041L77.0584 189.121L63.4321 172.145Z" fill="#EBEBEB"/>
    <path d="M73.8997 211.333C72.8397 210.66 51.9842 184.234 51.8305 182.713C51.7616 182.135 55.4345 178.87 59.9819 175.054L60.1303 174.932L73.7831 191.829L73.4916 192.051C73.4916 192.051 76.9578 205.741 76.9525 207.421C76.9472 209.101 74.9332 212.016 73.8997 211.333Z" fill="#1151B4"/>
    <path d="M74.6838 210.225C71.2759 205.688 57.0984 187.695 53.3831 183.465C53.3513 183.434 53.3248 183.465 53.3566 183.465C56.6373 188.039 70.9579 205.916 74.6149 210.262C74.6891 210.373 74.7368 210.32 74.6838 210.225Z" fill="#263238"/>
    <path d="M74.5725 193.541C73.5125 191.532 71.5515 189.598 69.246 189.248C69.1559 189.248 69.1347 189.359 69.1983 189.402C71.0624 190.651 72.7876 192.095 74.3446 193.711C74.3687 193.736 74.4012 193.752 74.436 193.755C74.4709 193.757 74.5056 193.748 74.5336 193.727C74.5616 193.706 74.5811 193.675 74.5882 193.641C74.5954 193.607 74.5898 193.571 74.5725 193.541Z" fill="#263238"/>
    <path d="M74.8062 195.407C73.7462 193.398 71.7852 191.469 69.5062 191.114C69.4161 191.114 69.4002 191.225 69.4638 191.267C71.3262 192.516 73.0497 193.961 74.6048 195.576C74.6298 195.589 74.658 195.594 74.6859 195.591C74.7138 195.587 74.7401 195.576 74.7615 195.558C74.783 195.54 74.7987 195.516 74.8066 195.489C74.8146 195.462 74.8144 195.433 74.8062 195.407Z" fill="#263238"/>
    <path d="M75.0446 197.278C73.9846 195.264 72.0236 193.334 69.7181 192.979C69.628 192.979 69.6121 193.096 69.6757 193.138C71.538 194.385 73.2615 195.828 74.8167 197.442C74.8409 197.465 74.8723 197.478 74.9054 197.48C74.9386 197.483 74.9715 197.473 74.9984 197.454C75.0253 197.434 75.0447 197.406 75.0531 197.374C75.0616 197.342 75.0585 197.308 75.0446 197.278Z" fill="#263238"/>
    <path d="M85.6762 144.108C84.6162 150.128 60.2998 174.62 60.2998 174.62L78.0972 194.23C78.0972 194.23 112.547 158.19 110.427 144.982C108.556 133.502 90.2342 87.5938 90.2342 87.5938L70.3433 88.0601C70.3433 88.0601 86.7309 138.188 85.6762 144.108Z" fill="#37474F"/>
    <path d="M79.9576 189.418C77.5885 186.603 78.3093 187.377 75.9084 184.589C74.7318 183.227 67.0043 174.276 65.6846 173.194C65.6528 173.194 65.6051 173.194 65.6263 173.247C66.5273 174.694 74.4137 183.508 75.6115 184.849C78.0654 187.589 77.3923 186.778 79.8515 189.487C79.8561 189.494 79.8619 189.5 79.8688 189.504C79.8756 189.509 79.8833 189.512 79.8914 189.514C79.8996 189.516 79.9079 189.516 79.9161 189.514C79.9243 189.513 79.932 189.51 79.939 189.505C79.946 189.501 79.952 189.495 79.9567 189.488C79.9614 189.481 79.9647 189.473 79.9664 189.465C79.9681 189.457 79.9682 189.449 79.9667 189.441C79.9652 189.432 79.9621 189.425 79.9576 189.418Z" fill="#263238"/>
    <path d="M89.0473 142.057C88.7293 140.567 88.3689 139.083 88.0191 137.605C87.3124 134.58 86.558 131.563 85.756 128.552C84.1801 122.585 82.4823 116.654 80.6627 110.76C78.8289 104.851 76.8997 98.9466 74.7002 93.159C74.4246 92.4435 74.1437 91.7333 73.8681 91.039C73.8638 91.027 73.8551 91.0172 73.8436 91.0118C73.8322 91.0063 73.8191 91.0056 73.8071 91.0098C73.7952 91.014 73.7854 91.0228 73.7799 91.0342C73.7744 91.0457 73.7737 91.0588 73.778 91.0708C75.7019 96.8743 77.6841 102.662 79.4967 108.502C81.3093 114.343 82.9841 120.162 84.5794 126.051C85.3797 129.003 86.127 131.966 86.8637 134.934C87.217 136.393 87.5703 137.854 87.9237 139.317C88.3469 140.797 88.6604 142.306 88.8618 143.832C88.9496 145.282 88.5788 146.723 87.8018 147.95C87.0863 149.185 86.2118 150.357 85.4168 151.523C83.7685 153.87 68.001 172.288 67.4922 172.786C67.4498 172.829 67.4922 172.887 67.5558 172.844C69.6758 170.846 83.0742 155.657 84.7649 153.314C85.597 152.159 86.4132 150.982 87.2135 149.8C88.0131 148.722 88.6505 147.533 89.1056 146.27C89.4533 144.885 89.4332 143.432 89.0473 142.057Z" fill="#263238"/>
    <path d="M86.1426 87.6895L85.3953 140.44C83.1587 127.275 70.3433 88.0605 70.3433 88.0605L86.1426 87.6895Z" fill="#263238"/>
    <path d="M80.5356 185.437C80.5356 185.437 85.3056 206.245 85.3056 206.256C85.4593 210.496 85.6713 214.153 85.9628 216.05C85.9604 216.061 85.9604 216.071 85.9628 216.082C85.9805 216.533 86.102 216.974 86.3179 217.37L86.3444 217.396C87.627 218.202 121.324 217.926 122.475 217.534C123.625 217.142 122.586 213.755 121.271 212.727C119.957 211.699 107.014 206.028 107.014 206.028L102.022 185.236L80.5356 185.437Z" fill="#EB9481"/>
    <path d="M122.49 217.54C121.319 217.948 87.6424 218.213 86.3598 217.407L86.3333 217.381C86.1139 216.986 85.9921 216.544 85.9782 216.093C85.9759 216.088 85.9746 216.082 85.9746 216.077C85.9746 216.071 85.9759 216.066 85.9782 216.061C85.692 214.163 85.4853 210.48 85.3263 206.272L84.4995 202.647L106.102 202.143L107.035 206.033C107.035 206.033 119.972 211.704 121.297 212.738C122.622 213.771 123.667 217.131 122.49 217.54Z" fill="#EBEBEB"/>
    <path d="M122.49 217.54C121.319 217.942 87.6477 218.207 86.3598 217.402C85.8616 217.105 85.5383 212.203 85.2998 206.272C85.2998 206.214 85.2998 206.15 85.2998 206.086L107.03 205.678V206.044C107.03 206.044 119.962 211.71 121.287 212.743C122.612 213.777 123.661 217.132 122.49 217.54Z" fill="#1151B4"/>
    <path d="M122.098 216.231C116.422 216.135 93.5151 216.289 87.8971 216.623C87.8494 216.623 87.8494 216.66 87.8971 216.66C93.5204 216.877 116.427 216.538 122.098 216.326C122.22 216.321 122.22 216.231 122.098 216.231Z" fill="#263238"/>
    <path d="M108.854 206.081C106.617 205.678 103.888 206.044 102.197 207.671C102.128 207.734 102.197 207.824 102.292 207.803C104.42 207.094 106.618 206.618 108.848 206.383C108.868 206.383 108.888 206.379 108.906 206.372C108.925 206.365 108.942 206.354 108.956 206.34C108.97 206.327 108.982 206.31 108.99 206.292C108.997 206.274 109.002 206.254 109.002 206.234C109.002 206.214 108.999 206.195 108.992 206.176C108.984 206.158 108.973 206.141 108.96 206.127C108.946 206.112 108.929 206.101 108.911 206.093C108.893 206.085 108.873 206.081 108.854 206.081Z" fill="#263238"/>
    <path d="M110.475 207.04C108.238 206.637 105.509 207.003 103.813 208.63C103.749 208.694 103.813 208.784 103.908 208.763C106.038 208.054 108.238 207.578 110.47 207.342C110.489 207.343 110.509 207.339 110.528 207.332C110.546 207.324 110.563 207.314 110.577 207.3C110.591 207.286 110.603 207.27 110.611 207.251C110.619 207.233 110.623 207.214 110.623 207.194C110.624 207.174 110.62 207.154 110.613 207.136C110.605 207.117 110.595 207.1 110.581 207.086C110.567 207.072 110.551 207.06 110.532 207.053C110.514 207.045 110.495 207.04 110.475 207.04Z" fill="#263238"/>
    <path d="M112.091 207.999C109.855 207.597 107.125 207.962 105.435 209.589C105.366 209.653 105.435 209.743 105.53 209.722C107.658 209.013 109.856 208.537 112.086 208.301C112.126 208.302 112.165 208.287 112.194 208.259C112.223 208.231 112.239 208.193 112.24 208.153C112.241 208.113 112.225 208.074 112.197 208.045C112.17 208.017 112.132 208 112.091 207.999Z" fill="#263238"/>
    <path d="M88.3104 87.6311C88.3104 88.0498 86.6939 105.121 86.1533 105.603C85.6127 106.086 82.0935 108.556 81.0494 109.229C81.0494 109.229 91.2784 138.707 94.0344 148.549C98.0359 162.822 107.814 205.689 107.814 205.689L84.4149 206.219C84.4149 206.219 76.343 165.382 72.9139 151.788C69.9777 140.128 58.9431 105.217 58.9431 105.217C57.4705 99.6499 57.6195 93.7784 59.3724 88.2936C59.3724 88.2936 88.3157 87.6152 88.3104 87.6311Z" fill="#37474F"/>
    <path d="M106.871 201.157C103.193 201.221 104.248 201.157 100.569 201.258C98.7726 201.311 86.9483 201.666 85.2788 202.01C85.2417 202.01 85.247 202.079 85.2788 202.084C86.9695 202.296 98.7832 201.735 100.58 201.65C104.253 201.47 103.198 201.48 106.871 201.263C106.885 201.263 106.899 201.257 106.908 201.247C106.918 201.238 106.924 201.224 106.924 201.21C106.924 201.196 106.918 201.182 106.908 201.173C106.899 201.163 106.885 201.157 106.871 201.157Z" fill="#263238"/>
    <path d="M87.1709 104.718C84.9245 106.021 82.7964 107.518 80.8109 109.192C80.8022 109.198 80.7948 109.205 80.789 109.214C80.7832 109.223 80.7793 109.233 80.7773 109.243C80.7753 109.253 80.7754 109.264 80.7775 109.274C80.7797 109.284 80.7838 109.294 80.7897 109.303C80.7957 109.312 80.8032 109.319 80.812 109.325C80.8208 109.331 80.8307 109.335 80.841 109.337C80.8513 109.339 80.862 109.339 80.8723 109.336C80.8826 109.334 80.8923 109.33 80.901 109.324C83.0528 107.898 85.2629 106.515 87.3405 104.978C87.3657 104.952 87.3812 104.919 87.3847 104.883C87.3881 104.847 87.3792 104.811 87.3595 104.781C87.3398 104.75 87.3104 104.728 87.2761 104.716C87.2418 104.705 87.2048 104.706 87.1709 104.718Z" fill="#263238"/>
    <path d="M85.0034 88.5955C85.0034 88.516 84.8391 88.5266 84.855 88.5955C85.3249 91.2074 85.6628 93.8413 85.8673 96.4872C85.9733 97.7062 86.1959 104.527 84.0282 104.437C83.6625 104.437 83.424 104.109 83.2703 103.595C83.157 102.904 83.1286 102.203 83.1855 101.506C83.1855 100.07 83.1007 98.6443 82.9682 97.2133C82.744 94.5521 82.2431 91.9214 81.4736 89.364C81.4674 89.3487 81.4559 89.3362 81.4412 89.3286C81.4266 89.3211 81.4097 89.319 81.3936 89.3229C81.3776 89.3267 81.3635 89.3362 81.3538 89.3496C81.3442 89.363 81.3397 89.3794 81.3411 89.3958C82.0546 93.0144 82.4922 96.6819 82.6502 100.367C82.7032 102.142 82.2951 104.904 84.1554 104.845C86.0157 104.787 86.4556 100.213 86.4662 98.9782C86.4323 95.4684 85.9405 91.978 85.0034 88.5955Z" fill="#263238"/>
    <path d="M84.1079 104.586C84.0049 105.069 83.9306 105.557 83.8853 106.049C83.811 106.436 83.811 106.833 83.8853 107.22C83.8853 107.289 84.0019 107.278 84.0337 107.22C84.1909 106.842 84.2875 106.441 84.3199 106.033C84.4047 105.577 84.4948 105.127 84.5637 104.671C84.5608 104.617 84.5401 104.566 84.5048 104.526C84.4695 104.486 84.4218 104.459 84.3692 104.449C84.3166 104.439 84.2622 104.447 84.2148 104.472C84.1674 104.497 84.1298 104.537 84.1079 104.586Z" fill="#263238"/>
    <path d="M81.2984 188.856C81.2242 188.326 81.1394 187.796 81.0493 187.239C80.8797 186.206 80.6783 185.178 80.5193 184.144C80.1483 182.072 79.7455 180.005 79.3268 177.943C78.4947 173.83 77.5513 169.728 76.5655 165.652C76.0037 163.347 75.3624 161.068 74.6893 158.794C74.6416 158.635 74.419 158.72 74.4508 158.874C74.8748 160.957 75.2882 163.045 75.7652 165.122C76.2422 167.2 76.7139 169.262 77.1803 171.334C78.0919 175.431 78.9505 179.544 79.8568 183.641C80.1165 184.796 80.3497 185.957 80.6041 187.112C80.7313 187.692 80.8638 188.269 81.0016 188.845C81.1394 189.418 81.3302 189.979 81.4415 190.557C81.4415 190.61 81.5316 190.584 81.521 190.557C81.3991 189.979 81.3779 189.412 81.2984 188.856Z" fill="#263238"/>
    <path d="M96.7053 157.389C95.8361 153.526 94.6966 149.72 93.5518 145.931C91.2463 138.304 88.5645 130.794 85.8933 123.289L83.5825 116.802C83.1956 115.742 81.2929 109.886 81.065 109.334C81.0608 109.322 81.052 109.313 81.0406 109.307C81.0291 109.302 81.016 109.301 81.004 109.305C80.9921 109.309 80.9823 109.318 80.9768 109.33C80.9714 109.341 80.9707 109.354 80.9749 109.366C81.5049 111.354 82.2893 114.253 82.9147 116.224C83.5401 118.196 84.2132 120.093 84.8704 122.054C86.153 125.854 87.4568 129.649 88.7076 133.465C91.1774 141.002 93.6313 148.538 95.6771 156.208C96.2442 158.354 96.8166 160.501 97.3413 162.663C97.866 164.825 98.3271 166.988 98.8306 169.15C98.8306 169.208 98.9419 169.187 98.9366 169.15C98.3903 165.195 97.6455 161.27 96.7053 157.389Z" fill="#263238"/>
    <path d="M82.6341 178.038C81.1766 170.661 79.4541 163.331 77.5779 156.054C75.7017 148.777 73.6082 141.468 71.3292 134.266C69.0502 127.063 66.5592 119.929 63.8774 112.859C62.5387 109.535 61.3972 106.136 60.4589 102.678C59.6109 99.2328 59.1286 95.5016 59.8547 91.993C60.0355 91.1027 60.2835 90.2275 60.5967 89.3748C60.5967 89.3165 60.5278 89.2688 60.5066 89.3271C57.8566 95.9521 59.8388 103.081 62.1337 109.467C63.3898 112.981 64.7201 116.468 65.9603 119.988C67.2393 123.599 68.4636 127.227 69.6332 130.874C71.9652 138.103 74.1382 145.375 76.1045 152.71C78.0708 160.045 79.8463 167.423 81.4045 174.848C82.9627 182.273 84.3566 189.783 85.7346 197.272C85.9148 198.247 86.0632 199.228 86.2116 200.208C86.2116 200.261 86.307 200.261 86.3017 200.208C85.247 192.804 84.0916 185.405 82.6341 178.038Z" fill="#263238"/>
    <path d="M77.917 57.3256C80.3391 66.272 86.026 80.1156 90.7642 79.946C95.0837 79.7764 104.544 71.8847 108.535 69.2771C112.526 66.6695 103.235 56.9811 100.946 58.64C97.4104 61.2052 92.1422 65.7632 91.2253 65.4929C90.0858 65.1537 88.5753 62.4083 81.9397 54.3629C79.1943 51.0557 76.857 53.5149 77.917 57.3256Z" fill="#EB9481"/>
    <path d="M105.175 54.7235C107.062 54.0027 109.171 53.0275 111.291 53.0169C113.411 53.0063 115.229 55.7623 115.25 56.5626C115.272 57.3629 114.583 62.3926 112.468 62.4244C110.353 62.4562 111.54 58.6084 111.45 58.1844C111.36 57.7604 111.265 57.188 110.867 57.241C110.47 57.294 103.559 60.7655 103.559 60.7655L105.175 54.7235Z" fill="#EB9481"/>
    <path d="M105.313 55.0094C105.435 55.0094 111.053 52.6403 113.173 52.6297C115.293 52.6191 117.137 55.3592 117.137 56.1701C117.137 56.981 116.469 62.0001 114.355 62.0319C112.24 62.0637 113.427 58.2159 113.337 57.7919C113.247 57.3679 113.152 56.7902 112.754 56.8432C112.357 56.8962 105.445 60.373 105.445 60.373L105.313 55.0094Z" fill="#EB9481"/>
    <path d="M113.623 61.7828C113.392 61.407 113.26 60.9782 113.241 60.5373C113.188 60.087 113.204 59.6312 113.289 59.1858C113.397 58.8022 113.473 58.4104 113.517 58.0145C113.505 57.6228 113.396 57.2402 113.199 56.9015C113.029 56.61 112.717 56.716 112.452 56.8167C112.063 56.973 111.682 57.1499 111.312 57.3467L110.125 58.0092C109.706 58.2192 109.301 58.4546 108.911 58.7141C108.904 58.7176 108.898 58.724 108.895 58.732C108.892 58.74 108.892 58.7488 108.895 58.7565C108.899 58.7642 108.905 58.7702 108.913 58.7732C108.921 58.7762 108.93 58.7759 108.938 58.7724C109.3 58.6142 109.654 58.4373 109.998 58.2424L111.196 57.6594C111.572 57.4845 111.938 57.2831 112.319 57.1294C112.452 57.0711 112.717 56.9174 112.849 56.9492C112.982 56.981 113.098 57.3785 113.141 57.5057C113.236 57.8838 113.22 58.2816 113.093 58.6505C112.99 59.0317 112.926 59.4224 112.902 59.8165C112.873 60.1877 112.91 60.5611 113.014 60.9189C113.154 61.2375 113.332 61.5382 113.544 61.8146C113.586 61.8623 113.655 61.8146 113.623 61.7828Z" fill="#263238"/>
    <path d="M98.7305 60.7231C98.7305 60.7231 104.47 55.2376 105.668 54.1511C108.069 51.9622 118.287 47.5049 119.724 47.3194C121.16 47.1339 121.743 50.0701 114.811 53.2978C111.159 54.9938 110.571 57.1244 110.65 58.2957C110.73 59.467 111.917 61.6241 113.883 61.5234C115.849 61.4227 117.063 58.5183 118.87 58.1579C120.678 57.7975 119.554 61.1418 118.34 63.0869C117.042 64.9644 115.237 66.4347 113.136 67.3269C111.445 68.0053 106.246 70.4009 106.246 70.4009L98.7305 60.7231Z" fill="#EB9481"/>
    <path d="M116.3 60.0817C115.569 60.6753 114.747 61.4385 113.772 61.4968C112.797 61.5551 112.092 60.9191 111.604 60.1082C111.069 59.3118 110.861 58.3404 111.021 57.3946C111.232 56.5389 111.682 55.7611 112.32 55.1527C113.111 54.4164 114.003 53.7971 114.97 53.3136C115.012 53.3136 114.97 53.2288 114.927 53.25C114.032 53.6793 111.217 54.8983 110.735 57.3999C110.578 58.3661 110.796 59.3556 111.345 60.1665C111.8 60.9403 112.452 61.6823 113.412 61.7565C114.578 61.8254 115.558 60.8555 116.38 60.1294C116.39 60.0764 116.337 60.0499 116.3 60.0817Z" fill="#263238"/>
    <path d="M98.7142 59.9755L107.804 73.3792C107.804 73.3792 94.0661 81.5147 90.107 80.3487C86.1479 79.1827 79.9257 68.0315 77.2439 58.1841C74.5621 48.3367 80.7366 51.9831 83.1693 55.0041C85.602 58.0251 90.8861 64.9681 91.167 64.8674C91.4479 64.7667 98.7142 59.9755 98.7142 59.9755Z" fill="#1151B4"/>
    <path d="M103.855 75.5788C103.002 76.0346 102.064 76.5169 101.078 76.9992L93.1548 63.6008C93.9498 63.0708 94.872 62.4878 95.7359 61.926C98.2322 66.113 101.264 71.2063 103.855 75.5788Z" fill="#EBEBEB"/>
    <path d="M100.008 77.5185L99.096 77.9372L91.2944 64.7773C91.464 64.6819 91.7502 64.5017 92.1212 64.2473C94.5751 68.3813 97.4954 73.2891 100.008 77.5185Z" fill="#EBEBEB"/>
    <path d="M98.1051 78.3773C94.9622 79.7447 91.8723 80.7571 90.2399 80.3861L90.0968 80.3489C86.1324 79.1829 79.9208 68.0371 77.2337 58.1844C76.834 56.8664 76.6112 55.5012 76.5712 54.1245C76.5712 54.0715 76.5712 54.0291 76.5712 53.9761C76.5712 53.9231 76.5712 53.8224 76.5712 53.7429C76.5686 53.7112 76.5686 53.6793 76.5712 53.6476C76.5655 53.577 76.5655 53.5061 76.5712 53.4355L98.1051 78.3773Z" fill="#263238"/>
    <path d="M102.875 72.1658C102.589 71.6888 102.292 71.2118 102 70.7401C101.412 69.7914 97.8822 64.1681 96.4989 62.4668C96.4618 62.4191 96.3929 62.4668 96.4141 62.5251C97.3999 64.4967 101.052 70.014 101.661 70.9256C101.974 71.3867 102.281 71.8531 102.599 72.3142C102.917 72.7753 103.288 73.2046 103.606 73.671C103.638 73.7134 103.712 73.671 103.686 73.6286C103.394 73.1516 103.161 72.6428 102.875 72.1658Z" fill="#263238"/>
    <path d="M57.4062 96.9485C57.491 97.0386 92.5505 92.8569 92.8579 92.4806C93.2925 91.9506 84.3302 57.013 80.5407 52.402C79.7298 51.4162 77.1593 51.2201 74.9916 51.5646C74.4262 51.6478 73.8693 51.7808 73.3274 51.9621H73.2744C72.8357 52.104 72.4251 52.321 72.0607 52.6034C66.1671 57.6437 61.6356 74.715 60.618 79.8348C58.922 88.283 57.1041 96.6252 57.4062 96.9485Z" fill="#1151B4"/>
    <path d="M92.1371 88.6913C83.6571 89.7884 65.2608 92.1734 57.9468 93.0479C58.2012 91.7494 58.5086 90.2018 58.8584 88.4952L91.0983 84.4619C91.5064 86.0519 91.8615 87.4935 92.1371 88.6913Z" fill="#EBEBEB"/>
    <path d="M90.6636 82.7393C82.2896 83.8258 66.8136 85.8239 59.2134 86.7514L59.5102 85.2992L90.3191 81.4143C90.4357 81.8595 90.5523 82.3047 90.6636 82.7393Z" fill="#EBEBEB"/>
    <path d="M69.6761 61.7668C71.4516 70.9093 79.5553 87.8905 84.6115 89.3904C90.468 91.1235 110.486 84.207 114.376 81.2125C115.924 80.0253 107.29 70.0825 105.366 70.8245C97.2255 74.0363 89.9963 75.7588 88.9098 75.0645C87.2562 74.0045 80.4298 64.6606 75.9672 58.873C70.3651 51.6014 68.8758 57.6699 69.6761 61.7668Z" fill="#EB9481"/>
    <path d="M113.862 81.5039C114.752 81.1594 120.826 76.5325 122.596 74.386C124.521 72.1618 126.067 69.6374 127.176 66.913C128.909 62.5988 129.698 59.4559 129.227 58.0673C128.697 56.4508 128.522 56.1911 124.414 63.3673C122.093 67.4324 119.798 67.9359 117.8 67.9412C112.881 67.9641 108.039 69.1674 103.681 71.4498C103.681 71.4498 110.443 82.813 113.862 81.5039Z" fill="#EB9481"/>
    <path d="M132.168 52.7093L121.812 66.4204C121.663 66.6086 121.464 66.7509 121.238 66.8307C121.012 66.9104 120.768 66.9243 120.534 66.8709L113.035 64.5707C112.938 64.5509 112.849 64.5045 112.777 64.4369C112.706 64.3692 112.654 64.2829 112.629 64.1877C112.604 64.0924 112.606 63.992 112.634 63.8977C112.663 63.8034 112.717 63.7189 112.791 63.6538L123.147 49.9427C123.295 49.7534 123.494 49.6103 123.72 49.5305C123.946 49.4507 124.191 49.4374 124.425 49.4922L131.924 51.7924C132.021 51.8122 132.11 51.8585 132.181 51.9262C132.253 51.9938 132.304 52.0801 132.33 52.1754C132.355 52.2706 132.353 52.371 132.325 52.4653C132.296 52.5596 132.242 52.6441 132.168 52.7093Z" fill="#37474F"/>
    <path d="M131.251 51.5647L123.752 49.2645C123.517 49.2116 123.273 49.2264 123.047 49.3071C122.821 49.3878 122.622 49.5311 122.474 49.7203L112.123 63.4314C112.043 63.4952 111.983 63.581 111.95 63.6784C111.918 63.7758 111.914 63.8805 111.94 63.9798C111.966 64.0792 112.02 64.1689 112.096 64.2381C112.172 64.3072 112.266 64.3529 112.367 64.3695L119.867 66.6697C120.1 66.7219 120.344 66.7074 120.57 66.6277C120.796 66.548 120.995 66.4065 121.144 66.2192L131.495 52.5081C131.577 52.4447 131.639 52.3586 131.672 52.2605C131.706 52.1623 131.71 52.0565 131.684 51.956C131.658 51.8556 131.603 51.765 131.526 51.6954C131.449 51.6258 131.354 51.5804 131.251 51.5647ZM120.985 65.6256C120.851 65.8031 120.669 65.939 120.461 66.0178C120.253 66.0965 120.026 66.1149 119.808 66.0708L113.104 64.0144C112.728 63.8978 112.643 63.4844 112.918 63.1505L122.559 50.3828C123.089 49.6514 123.444 49.7044 123.82 49.821L125.161 50.2344C125.241 50.2344 125.246 50.3563 125.161 50.4517L125.129 50.4941C124.955 50.7273 125.098 50.7697 125.273 50.8227L128.378 51.7767C128.461 51.823 128.558 51.835 128.649 51.8102C128.741 51.7854 128.818 51.7258 128.866 51.6442L128.898 51.6018C128.927 51.5559 128.968 51.5191 129.016 51.4957C129.065 51.4722 129.12 51.4631 129.173 51.4693L130.52 51.8827C130.891 51.994 131.124 52.1848 130.615 52.8579L120.985 65.6256Z" fill="#263238"/>
    <path d="M127.473 51.1455L126.63 50.8805C126.625 50.8771 126.622 50.8726 126.619 50.8676C126.617 50.8625 126.616 50.857 126.616 50.8514C126.616 50.8458 126.617 50.8402 126.619 50.8352C126.622 50.8301 126.625 50.8257 126.63 50.8222C126.64 50.8085 126.654 50.7981 126.67 50.7924C126.686 50.7868 126.703 50.7861 126.72 50.7904L127.568 51.0501C127.573 51.0534 127.578 51.0581 127.581 51.0637C127.584 51.0692 127.586 51.0755 127.586 51.0819C127.586 51.0883 127.584 51.0946 127.581 51.1002C127.578 51.1058 127.573 51.1104 127.568 51.1137C127.557 51.1274 127.542 51.1376 127.525 51.1432C127.508 51.1488 127.49 51.1496 127.473 51.1455Z" fill="white"/>
    <path d="M130.626 52.8576L120.985 65.6253C120.851 65.8028 120.669 65.9387 120.461 66.0175C120.253 66.0963 120.027 66.1146 119.808 66.0705L113.104 64.0141C112.728 63.8975 112.643 63.4841 112.918 63.1502L122.559 50.3825C123.089 49.6511 123.444 49.7041 123.821 49.8207L125.161 50.2341C125.241 50.2341 125.246 50.356 125.161 50.4514L125.13 50.4938C124.955 50.727 125.098 50.7694 125.273 50.8224L128.379 51.7764C128.461 51.8227 128.558 51.8347 128.649 51.8099C128.741 51.7852 128.819 51.7256 128.866 51.6439L128.898 51.6015C128.927 51.5557 128.968 51.5189 129.017 51.4954C129.065 51.4719 129.12 51.4628 129.174 51.469L130.52 51.8824C130.917 51.9937 131.135 52.1792 130.626 52.8576Z" fill="white"/>
    <path d="M130.626 52.8576L129.905 53.8116L121.838 51.3365L122.559 50.3825C123.089 49.6511 123.444 49.7041 123.821 49.8207L125.161 50.2341C125.241 50.2341 125.246 50.356 125.161 50.4514L125.13 50.4938C124.955 50.727 125.098 50.7694 125.273 50.8224L128.379 51.7764C128.461 51.8227 128.558 51.8347 128.649 51.8099C128.741 51.7852 128.819 51.7256 128.866 51.6439L128.898 51.6015C128.927 51.5557 128.968 51.5189 129.017 51.4954C129.065 51.4719 129.12 51.4628 129.174 51.469L130.514 51.8824C130.917 51.9937 131.135 52.1792 130.626 52.8576Z" fill="#1151B4"/>
    <path d="M123.004 51.1192L122.919 50.8489L123.306 50.7271L123.317 50.7694L122.999 50.8755L123.068 51.098L123.004 51.1192Z" fill="white"/>
    <path d="M129.889 52.8896C129.878 52.8967 129.865 52.9004 129.852 52.9004C129.839 52.9004 129.826 52.8967 129.815 52.8896C129.811 52.8867 129.807 52.8827 129.805 52.8781C129.802 52.8735 129.801 52.8683 129.801 52.8631C129.801 52.8578 129.802 52.8527 129.805 52.848C129.807 52.8434 129.811 52.8395 129.815 52.8366C129.823 52.8247 129.834 52.8154 129.847 52.8097C129.861 52.8041 129.875 52.8024 129.889 52.8048C129.9 52.8419 129.91 52.8684 129.889 52.8896Z" fill="white"/>
    <path d="M129.777 53.0381C129.765 53.0457 129.752 53.0497 129.738 53.0497C129.723 53.0497 129.71 53.0457 129.698 53.0381C129.693 53.0352 129.69 53.0313 129.687 53.0267C129.685 53.022 129.684 53.0169 129.684 53.0116C129.684 53.0064 129.685 53.0012 129.687 52.9966C129.69 52.992 129.693 52.988 129.698 52.9851C129.705 52.9727 129.716 52.9629 129.73 52.9572C129.743 52.9515 129.758 52.9502 129.772 52.9533C129.783 52.9526 129.794 52.9564 129.803 52.9639C129.811 52.9713 129.816 52.9818 129.817 52.9931C129.818 53.0043 129.814 53.0154 129.807 53.0238C129.799 53.0323 129.789 53.0374 129.777 53.0381Z" fill="white"/>
    <path d="M129.666 53.1861C129.654 53.1936 129.641 53.1976 129.627 53.1976C129.613 53.1976 129.599 53.1936 129.587 53.1861C129.56 53.1861 129.555 53.1543 129.587 53.1278C129.597 53.1172 129.609 53.1093 129.623 53.1047C129.637 53.1001 129.652 53.0989 129.666 53.1013C129.678 53.1013 129.688 53.1057 129.696 53.1137C129.704 53.1216 129.709 53.1324 129.709 53.1437C129.709 53.1549 129.704 53.1657 129.696 53.1737C129.688 53.1816 129.678 53.1861 129.666 53.1861Z" fill="white"/>
    <path d="M124.716 50.4517H124.679C124.674 50.4306 124.662 50.4114 124.646 50.3964C124.63 50.3814 124.611 50.3712 124.589 50.3669C124.537 50.3513 124.482 50.3513 124.43 50.3669H124.457H124.51H124.6H124.637V50.3987L124.716 50.4517Z" fill="white"/>
    <path d="M124.446 50.4361C124.483 50.4256 124.521 50.4256 124.558 50.4361C124.579 50.4364 124.6 50.4439 124.618 50.4573C124.635 50.4706 124.647 50.4892 124.653 50.5103H124.621C124.615 50.4972 124.606 50.4857 124.595 50.4765C124.584 50.4673 124.571 50.4608 124.558 50.4573C124.525 50.4358 124.485 50.4281 124.446 50.4361Z" fill="white"/>
    <path d="M124.557 50.4993H124.526C124.523 50.4918 124.519 50.4849 124.514 50.4794C124.508 50.4738 124.501 50.4697 124.494 50.4675C124.475 50.4625 124.455 50.4625 124.436 50.4675C124.51 50.4357 124.557 50.4516 124.557 50.4993Z" fill="white"/>
    <path d="M124.51 50.5155C124.51 50.5155 124.51 50.5155 124.478 50.5155H124.504C124.504 50.5155 124.515 50.5102 124.51 50.5155Z" fill="white"/>
    <path d="M123.423 50.0965C123.431 50.0845 123.442 50.0748 123.455 50.0683C123.468 50.0618 123.483 50.0587 123.497 50.0594C123.503 50.0627 123.507 50.0674 123.511 50.073C123.514 50.0785 123.515 50.0848 123.515 50.0912C123.515 50.0976 123.514 50.1039 123.511 50.1095C123.507 50.1151 123.503 50.1197 123.497 50.123C123.487 50.1368 123.473 50.1471 123.457 50.1528C123.441 50.1585 123.424 50.1592 123.407 50.1548C123.404 50.1502 123.401 50.1448 123.4 50.1391C123.399 50.1333 123.399 50.1273 123.4 50.1216C123.402 50.1159 123.405 50.1106 123.409 50.1063C123.413 50.1019 123.418 50.0986 123.423 50.0965Z" fill="white"/>
    <path d="M123.593 50.1494C123.603 50.1356 123.617 50.1253 123.633 50.1196C123.649 50.1139 123.666 50.1132 123.683 50.1176C123.688 50.1209 123.693 50.1255 123.696 50.1311C123.699 50.1367 123.701 50.143 123.701 50.1494C123.701 50.1558 123.699 50.1621 123.696 50.1676C123.693 50.1732 123.688 50.1779 123.683 50.1812C123.672 50.1939 123.658 50.2036 123.642 50.2092C123.626 50.2148 123.609 50.2161 123.593 50.213C123.587 50.2097 123.583 50.205 123.58 50.1994C123.576 50.1939 123.575 50.1876 123.575 50.1812C123.575 50.1748 123.576 50.1685 123.58 50.1629C123.583 50.1573 123.587 50.1527 123.593 50.1494Z" fill="white"/>
    <path d="M123.762 50.1972C123.772 50.1843 123.785 50.1747 123.8 50.1699C123.815 50.1651 123.832 50.1654 123.847 50.1707C123.879 50.1707 123.884 50.2078 123.847 50.2343C123.833 50.2428 123.818 50.2473 123.802 50.2473C123.786 50.2473 123.77 50.2428 123.757 50.2343C123.746 50.2555 123.741 50.2237 123.762 50.1972Z" fill="white"/>
    <path d="M123.927 50.2503C123.938 50.2379 123.952 50.2286 123.968 50.223C123.983 50.2175 124 50.2159 124.017 50.2185C124.022 50.2218 124.027 50.2265 124.03 50.232C124.033 50.2376 124.035 50.2439 124.035 50.2503C124.035 50.2567 124.033 50.263 124.03 50.2686C124.027 50.2741 124.022 50.2788 124.017 50.2821C124.006 50.2953 123.992 50.3053 123.976 50.3109C123.96 50.3165 123.943 50.3176 123.927 50.3139C123.921 50.3106 123.917 50.3059 123.913 50.3004C123.91 50.2948 123.909 50.2885 123.909 50.2821C123.909 50.2757 123.91 50.2694 123.913 50.2638C123.917 50.2582 123.921 50.2536 123.927 50.2503Z" fill="white"/>
    <path d="M124.096 50.3032C124.106 50.2894 124.12 50.2791 124.136 50.2734C124.152 50.2677 124.169 50.267 124.186 50.2714C124.218 50.2714 124.223 50.3085 124.186 50.335C124.176 50.3487 124.162 50.3591 124.146 50.3648C124.129 50.3705 124.112 50.3712 124.096 50.3668C124.09 50.3635 124.086 50.3588 124.082 50.3533C124.079 50.3477 124.078 50.3414 124.078 50.335C124.078 50.3286 124.079 50.3223 124.082 50.3167C124.086 50.3111 124.09 50.3065 124.096 50.3032Z" fill="white"/>
    <path d="M130.329 52.4708L129.646 52.2588L129.937 51.8772L130.621 52.0839L130.329 52.4708Z" fill="white"/>
    <path d="M130.276 52.1422L129.995 52.0574L129.905 52.174L130.186 52.2641L130.276 52.1422Z" fill="white"/>
    <path d="M130.35 52.2957L130.313 52.2851L130.387 52.1897L130.424 52.2003L130.35 52.2957Z" fill="white"/>
    <path d="M114.238 63.3993L114.18 63.3781L113.989 63.6325L113.872 63.5954L113.968 63.4682L113.766 63.4046L113.671 63.5318L113.554 63.5L113.745 63.2456L113.681 63.2297L114.153 63.0601L114.238 63.3993Z" fill="#EBEBEB"/>
    <path d="M120.54 65.1219L119.867 64.9152L119.93 64.8357L120.603 65.0371L120.54 65.1219Z" fill="#EBEBEB"/>
    <path d="M120.381 65.3337L119.713 65.127L119.777 65.0422L120.444 65.2489L120.381 65.3337Z" fill="#EBEBEB"/>
    <path d="M120.222 65.5459L119.554 65.3392L119.618 65.2544L120.286 65.4611L120.222 65.5459Z" fill="#EBEBEB"/>
    <path d="M117.264 64.2848L116.936 64.4067L116.883 64.1682L116.936 64.147L116.984 64.3484L117.249 64.2424L117.264 64.2848Z" fill="#EBEBEB"/>
    <path d="M116.93 64.8517C116.865 64.8623 116.799 64.8623 116.734 64.8517C116.657 64.8279 116.586 64.7869 116.528 64.7318C116.469 64.6767 116.423 64.6089 116.395 64.5336C116.371 64.4511 116.368 64.3641 116.386 64.2801C116.403 64.1961 116.441 64.1176 116.496 64.0513C116.592 63.93 116.721 63.839 116.868 63.7892C117.014 63.7393 117.172 63.7328 117.322 63.7704C117.4 63.7922 117.471 63.8326 117.529 63.888C117.587 63.9434 117.631 64.0122 117.656 64.0884C117.68 64.1706 117.684 64.2573 117.668 64.3413C117.651 64.4253 117.614 64.504 117.561 64.5708C117.483 64.6611 117.386 64.7331 117.277 64.7817C117.168 64.8302 117.049 64.8541 116.93 64.8517ZM117.116 64.2475C117.051 64.2531 116.99 64.2791 116.941 64.3217C117.012 64.3194 117.081 64.2933 117.137 64.2475H117.116Z" fill="#EBEBEB"/>
    <path d="M125.617 51.7551C125.66 51.7032 125.716 51.6639 125.78 51.6415C125.843 51.6191 125.912 51.6144 125.978 51.6279C126.001 51.6333 126.022 51.6437 126.04 51.6584C126.059 51.6731 126.073 51.6916 126.084 51.7127C126.084 51.7127 126.084 51.7498 126.057 51.7551C126.031 51.7604 126.015 51.7551 126.01 51.7551C126.002 51.7403 125.992 51.7273 125.979 51.7172C125.966 51.7071 125.951 51.7001 125.935 51.6968C125.891 51.681 125.842 51.681 125.798 51.6968C125.755 51.712 125.717 51.7375 125.686 51.771C125.674 51.7854 125.665 51.8024 125.66 51.8209C125.656 51.8393 125.656 51.8585 125.66 51.877C125.666 51.8947 125.677 51.9106 125.691 51.9234C125.705 51.9363 125.721 51.9458 125.739 51.9512C125.777 51.9618 125.818 51.9618 125.856 51.9512H125.898C125.897 51.9606 125.893 51.9694 125.886 51.9762C125.879 51.9829 125.871 51.9872 125.861 51.9883C125.806 52.0042 125.747 52.0042 125.692 51.9883C125.669 51.9803 125.649 51.9673 125.633 51.9503C125.616 51.9333 125.604 51.9127 125.597 51.8901C125.589 51.8675 125.588 51.8436 125.591 51.8202C125.595 51.7967 125.604 51.7745 125.617 51.7551Z" fill="white"/>
    <path d="M125.946 52.0576L126.179 51.7502C126.188 51.7456 126.198 51.7432 126.208 51.7432C126.218 51.7432 126.228 51.7456 126.237 51.7502C126.24 51.7527 126.243 51.7559 126.245 51.7596C126.247 51.7633 126.248 51.7673 126.248 51.7714C126.248 51.7756 126.247 51.7796 126.245 51.7833C126.243 51.787 126.24 51.7902 126.237 51.7926L126.142 51.9145L126.295 51.9622L126.391 51.835C126.399 51.8304 126.408 51.8279 126.417 51.8279C126.427 51.8279 126.436 51.8304 126.444 51.835C126.444 51.835 126.47 51.835 126.444 51.8721L126.211 52.1848C126.203 52.1895 126.193 52.1919 126.184 52.1919C126.175 52.1919 126.166 52.1895 126.158 52.1848C126.158 52.1848 126.131 52.1848 126.158 52.1424L126.253 52.0152L126.099 51.9675L126.004 52.0947C125.995 52.0994 125.985 52.1018 125.975 52.1018C125.965 52.1018 125.955 52.0994 125.946 52.0947C125.946 52.0947 125.935 52.0788 125.946 52.0576Z" fill="white"/>
    <path d="M126.587 52.1794L126.439 52.137L126.359 52.1953C126.353 52.199 126.346 52.2009 126.338 52.2009C126.331 52.2009 126.323 52.199 126.317 52.1953C126.317 52.1953 126.317 52.1635 126.317 52.1476L126.683 51.8773C126.69 51.8735 126.698 51.8716 126.706 51.8716C126.715 51.8716 126.723 51.8735 126.73 51.8773C126.73 51.8773 126.73 51.8773 126.73 51.9038L126.63 52.2536C126.626 52.2629 126.619 52.2708 126.61 52.2765C126.602 52.2821 126.592 52.2852 126.582 52.2854C126.582 52.2854 126.582 52.2854 126.582 52.2589L126.587 52.1794ZM126.587 52.1158L126.624 51.9833L126.492 52.084L126.587 52.1158Z" fill="white"/>
    <path d="M127.117 52.0732L127.027 52.0414L126.815 52.3276C126.806 52.3327 126.796 52.3354 126.786 52.3354C126.776 52.3354 126.766 52.3327 126.757 52.3276V52.2905L126.969 52.0096L126.879 51.9778C126.879 51.9778 126.852 51.9778 126.879 51.9407C126.887 51.936 126.896 51.9336 126.905 51.9336C126.915 51.9336 126.924 51.936 126.932 51.9407L127.186 52.0202V52.0573C127.178 52.0671 127.167 52.074 127.154 52.0769C127.142 52.0798 127.129 52.0785 127.117 52.0732Z" fill="white"/>
    <path d="M118.695 56.9386L124.462 58.7088L125.681 57.0976L119.909 55.3274L118.695 56.9386Z" fill="#455A64"/>
    <path d="M124.997 58.8732L124.462 58.7089L124.838 58.2107L124.997 58.8732Z" fill="#455A64"/>
    <path d="M125.119 57.3045L120.01 55.7357L120.031 55.7092L125.14 57.2727L125.119 57.3045Z" fill="white"/>
    <path d="M123.932 57.1453L119.882 55.9051L119.904 55.8733L123.953 57.1135L123.932 57.1453Z" fill="white"/>
    <path d="M124.324 57.6703L119.633 56.2339L119.655 56.2021L124.345 57.6437L124.324 57.6703Z" fill="white"/>
    <path d="M124.616 57.9668L119.512 56.398L119.533 56.3662L124.642 57.935L124.616 57.9668Z" fill="white"/>
    <path d="M124.493 58.1314L119.384 56.5626L119.405 56.5308L124.515 58.0996L124.493 58.1314Z" fill="white"/>
    <path d="M122.951 57.8607L119.257 56.7265L119.283 56.7L122.977 57.8289L122.951 57.8607Z" fill="white"/>
    <path d="M115.823 60.7386L121.594 62.5088L122.808 60.8976L117.042 59.1274L115.823 60.7386Z" fill="#455A64"/>
    <path d="M122.13 62.6733L121.594 62.509L121.965 62.0161L122.13 62.6733Z" fill="#455A64"/>
    <path d="M122.246 61.1046L117.137 59.5358L117.158 59.5093L122.268 61.0728L122.246 61.1046Z" fill="white"/>
    <path d="M121.059 60.9453L117.01 59.7051L117.036 59.6733L121.085 60.9135L121.059 60.9453Z" fill="white"/>
    <path d="M121.451 61.4703L116.766 60.034L116.787 60.0022L121.473 61.4438L121.451 61.4703Z" fill="white"/>
    <path d="M121.748 61.7669L116.639 60.1981L116.66 60.1663L121.77 61.7351L121.748 61.7669Z" fill="white"/>
    <path d="M121.621 61.9314L116.512 60.3626L116.538 60.3308L121.647 61.8996L121.621 61.9314Z" fill="white"/>
    <path d="M120.084 61.6612L116.39 60.527L116.411 60.5005L120.105 61.6347L120.084 61.6612Z" fill="white"/>
    <path d="M127.419 55.6667L121.653 53.8965L122.676 52.5344L128.447 54.3046L127.419 55.6667Z" fill="#1151B4"/>
    <path d="M121.117 53.7323L121.652 53.8966L122.023 53.3984L121.117 53.7323Z" fill="#1151B4"/>
    <path d="M127.054 54.2253L122.803 52.9214L122.824 52.8896L127.08 54.1987L127.054 54.2253Z" fill="white"/>
    <path d="M127.785 54.6543L122.676 53.0855L122.702 53.0537L127.806 54.6225L127.785 54.6543Z" fill="white"/>
    <path d="M127.658 54.8187L122.554 53.2499L122.575 53.2234L127.684 54.7869L127.658 54.8187Z" fill="white"/>
    <path d="M127.133 54.8609L122.427 53.4192L122.448 53.3875L127.154 54.8291L127.133 54.8609Z" fill="white"/>
    <path d="M127.409 55.1473L122.305 53.5838L122.326 53.552L127.435 55.1208L127.409 55.1473Z" fill="white"/>
    <path d="M125.951 54.9033L122.177 53.7479L122.198 53.7161L125.977 54.8768L125.951 54.9033Z" fill="white"/>
    <path d="M126.492 56.8907L120.726 55.1205L121.483 54.1135L127.255 55.8837L126.492 56.8907Z" fill="#1151B4"/>
    <path d="M120.19 54.9568L120.725 55.1211L121.096 54.6282L120.19 54.9568Z" fill="#1151B4"/>
    <path d="M126.709 56.064L121.61 54.5005L121.632 54.4688L126.73 56.0322L126.709 56.064Z" fill="white"/>
    <path d="M125.681 55.953L121.483 54.6651L121.51 54.6333L125.707 55.9212L125.681 55.953Z" fill="white"/>
    <path d="M125.977 56.2443L121.361 54.8292L121.382 54.7974L126.004 56.2178L125.977 56.2443Z" fill="white"/>
    <path d="M124.796 56.0855L121.234 54.9937L121.261 54.9619L124.822 56.059L124.796 56.0855Z" fill="white"/>
    <path d="M123.63 60.6855L117.858 58.9153L118.934 57.4949L124.7 59.2651L123.63 60.6855Z" fill="#DBDBDB"/>
    <path d="M117.328 58.7511L117.858 58.9154L118.234 58.4172L117.328 58.7511Z" fill="#DBDBDB"/>
    <path d="M123.508 59.8486L118.685 58.3699L118.711 58.3381L123.534 59.8221L123.508 59.8486Z" fill="white"/>
    <path d="M122.994 59.8961L118.563 58.534L118.584 58.5022L123.015 59.8643L122.994 59.8961Z" fill="white"/>
    <path d="M123.481 59.4352L118.934 58.0413L118.961 58.0095L123.503 59.4034L123.481 59.4352Z" fill="white"/>
    <path d="M124.107 59.4241L119.061 57.8765L119.082 57.8447L124.128 59.3923L124.107 59.4241Z" fill="white"/>
    <path d="M123.025 60.1082L118.436 58.6984L118.462 58.6719L123.047 60.0764L123.025 60.1082Z" fill="white"/>
    <path d="M120.921 64.2741L115.149 62.5039L116.045 61.322L121.812 63.0922L120.921 64.2741Z" fill="#1151B4"/>
    <path d="M114.614 62.3395L115.15 62.5038L115.521 62.0056L114.614 62.3395Z" fill="#1151B4"/>
    <path d="M121.282 63.2613L116.178 61.6925L116.199 61.666L121.309 63.2295L121.282 63.2613Z" fill="white"/>
    <path d="M121.16 63.4261L116.051 61.8573L116.072 61.8308L121.181 63.3943L121.16 63.4261Z" fill="white"/>
    <path d="M120.63 63.4683L115.923 62.0267L115.95 61.9949L120.651 63.4365L120.63 63.4683Z" fill="white"/>
    <path d="M120.911 63.7547L115.802 62.1912L115.823 62.1594L120.932 63.7282L120.911 63.7547Z" fill="white"/>
    <path d="M119.453 63.5107L115.674 62.3553L115.701 62.3235L119.474 63.4842L119.453 63.5107Z" fill="white"/>
    <path d="M118.796 67.8993C116.734 67.9788 123.343 63.6593 123.391 61.2796C123.439 58.8999 121.165 59.7214 119.39 61.0888C113.236 65.8588 108.503 65.7263 105.429 70.1995C102.355 74.6727 118.796 67.8993 118.796 67.8993Z" fill="#EB9481"/>
    <path d="M112.489 65.1799C111.151 65.5458 109.866 66.0801 108.662 66.7699C107.593 67.4718 106.666 68.3712 105.933 69.4199C105.901 69.4676 105.965 69.5259 106.002 69.4782C107.645 67.3582 110.125 66.2611 112.505 65.2011C112.504 65.1967 112.502 65.1925 112.499 65.1888C112.497 65.1851 112.493 65.1821 112.489 65.1799Z" fill="#263238"/>
    <path d="M89.3121 74.4868C90.9286 74.8843 102.032 71.5612 102.032 71.5612L108.657 86.6291C108.657 86.6291 89.2909 91.6111 84.7117 90.143C80.1325 88.6749 72.7125 73.3791 70.2162 64.4592C67.8683 56.0746 70.6084 50.5043 76.8359 59.1009C76.8571 59.1009 88.4694 74.2801 89.3121 74.4868Z" fill="#1151B4"/>
    <path d="M105.138 87.4669C103.887 87.753 102.393 88.0923 100.776 88.4368L94.7075 73.5968C96.1597 73.2417 97.6808 72.8282 98.9475 72.4731C100.818 76.9781 103.087 82.4742 105.138 87.4669Z" fill="#EBEBEB"/>
    <path d="M99.0801 88.7808L97.6756 89.0617L91.623 74.2694C92.047 74.1899 92.5081 74.0945 92.9851 73.9885C94.8189 78.4193 97.0502 83.8253 99.0801 88.7808Z" fill="#EBEBEB"/>
    <path d="M84.4785 89.6609C80.6254 87.8006 75.6911 77.7041 74.7424 75.7219C74.1329 74.4552 73.5764 73.162 73.0252 71.8688C71.9281 69.2718 70.9052 66.6483 69.9353 64.0089C69.9376 64.0033 69.9384 63.9972 69.9378 63.9911C69.9371 63.9851 69.935 63.9793 69.9316 63.9743C69.9282 63.9693 69.9236 63.9652 69.9183 63.9623C69.9129 63.9595 69.9069 63.958 69.9009 63.958C69.8948 63.958 69.8888 63.9595 69.8835 63.9623C69.8781 63.9652 69.8736 63.9693 69.8702 63.9743C69.8668 63.9793 69.8646 63.9851 69.864 63.9911C69.8633 63.9972 69.8642 64.0033 69.8664 64.0089C70.4141 66.0547 71.0625 68.0722 71.8115 70.0615C71.3336 69.3247 70.9 68.5602 70.513 67.7719C70.513 67.7348 70.4282 67.7719 70.4441 67.8037C70.8395 68.7444 71.3466 69.6341 71.9546 70.4537C72.7178 72.4518 73.5711 74.4128 74.5145 76.3208C74.7848 76.8508 80.5088 89.2475 84.7912 90.3075C86.2805 90.6785 91.3367 90.1962 92.4073 89.9259C92.4497 89.9259 92.4603 89.857 92.4073 89.857C90.9498 89.8782 85.8671 90.3393 84.4785 89.6609Z" fill="#263238"/>
    <path d="M104.417 84.8645C104.216 84.3345 104.014 83.8045 103.808 83.3063C103.394 82.2728 100.903 76.1142 99.8432 74.1956C99.8432 74.1426 99.7372 74.1956 99.7531 74.238C100.373 76.358 103.002 82.4265 103.463 83.4282C103.686 83.9582 103.908 84.4511 104.141 84.9599C104.375 85.4687 104.671 85.9616 104.894 86.4757C104.894 86.5234 105 86.4757 104.979 86.4439C104.767 85.9298 104.629 85.3839 104.417 84.8645Z" fill="#263238"/>
    <path d="M102.043 71.5826C101.115 71.6462 92.7942 73.7874 90.9551 74.2326C90.5187 74.3905 90.0569 74.466 89.593 74.4552C89.1392 74.3311 88.7445 74.0492 88.4799 73.6602C87.8651 72.9871 81.1183 64.4912 80.6307 64.0778C80.4505 63.9188 80.3074 63.8923 80.4823 64.1626C80.7844 64.6237 87.3458 73.0136 87.9394 73.7026C88.533 74.3916 88.9994 74.9587 89.9163 74.9004C90.3085 74.8739 101.539 72.0808 102.106 71.837C102.202 71.7893 102.186 71.572 102.043 71.5826Z" fill="#263238"/>
    <path d="M80.0371 57.4368C78.3623 57.7442 74.0852 55.7779 73.0252 53.3558C72.951 53.1862 73.3432 51.5432 73.7248 49.5186C73.9474 48.289 74.17 46.911 74.2548 45.6443C74.2548 45.3846 82.0405 48.2943 82.0405 48.2943C81.4461 49.8417 81.0439 51.4561 80.8427 53.1014C80.8236 53.2776 80.8236 53.4553 80.8427 53.6314C80.8454 53.6596 80.8454 53.688 80.8427 53.7162C80.9646 54.702 81.8391 57.1029 80.0371 57.4368Z" fill="#EB9481"/>
    <path d="M80.8908 53.6103V53.6951C80.6185 53.7067 80.3457 53.6979 80.0746 53.6686C75.4 53.1386 74.6792 47.1761 74.5732 45.6709C75.9724 45.9995 82.078 48.2785 82.078 48.2785C81.4837 49.8258 81.0814 51.4403 80.8802 53.0856C80.8676 53.2605 80.8712 53.4361 80.8908 53.6103Z" fill="#263238"/>
    <path d="M71.0696 37.3393C70.7781 40.2861 73.8468 48.0135 76.1841 49.4074C79.5655 51.432 84.3037 50.7377 85.8142 46.8581C87.2823 43.0951 83.1059 33.0781 80.5725 31.9068C76.8572 30.1578 71.4989 32.9827 71.0696 37.3393Z" fill="#EB9481"/>
    <path d="M79.8569 40.5723C79.8569 40.5723 79.8251 40.6147 79.8569 40.6306C80.0742 41.1606 80.2438 41.7754 79.8569 42.1358C80.3763 41.8549 80.1484 41.0493 79.8569 40.5723Z" fill="#263238"/>
    <path d="M79.1785 40.2069C78.3146 40.4719 78.9082 42.1838 79.7085 41.9347C80.5088 41.6856 79.8993 39.9896 79.1785 40.2069Z" fill="#263238"/>
    <path d="M82.9468 39.592C82.9468 39.592 82.9998 39.592 83.0051 39.6238C83.1747 40.1538 83.4556 40.7474 83.9962 40.758C83.3867 40.9064 83.021 40.1273 82.9468 39.592Z" fill="#263238"/>
    <path d="M83.2173 38.8762C84.0494 38.5158 84.7066 40.2012 83.9381 40.5351C83.1696 40.869 82.5336 39.1783 83.2173 38.8762Z" fill="#263238"/>
    <path d="M78.2299 39.6609C78.4323 39.5177 78.6269 39.3638 78.8129 39.1998C79.0391 39.0647 79.2156 38.8602 79.3164 38.6168C79.3309 38.5335 79.3181 38.4477 79.2799 38.3722C79.2417 38.2968 79.1801 38.2357 79.1044 38.1981C78.9432 38.1484 78.7716 38.1429 78.6076 38.182C78.4435 38.2212 78.2929 38.3036 78.1716 38.4207C77.8863 38.6175 77.6857 38.9146 77.6098 39.2528C77.5953 39.3307 77.6042 39.4111 77.6353 39.484C77.6663 39.5569 77.7182 39.619 77.7844 39.6626C77.8506 39.7062 77.9281 39.7292 78.0074 39.7289C78.0866 39.7286 78.164 39.705 78.2299 39.6609Z" fill="#263238"/>
    <path d="M83.5934 37.79C83.339 37.8324 83.1058 37.8271 82.8514 37.8483C82.5928 37.9034 82.3233 37.8737 82.0829 37.7635C82.0149 37.7143 81.9651 37.6439 81.9411 37.5634C81.9172 37.4829 81.9205 37.3968 81.9504 37.3183C82.0349 37.171 82.1568 37.0488 82.304 36.964C82.4511 36.8793 82.6181 36.8351 82.7878 36.836C83.1298 36.7901 83.4768 36.8712 83.763 37.0639C83.8259 37.1116 83.8737 37.1764 83.9005 37.2506C83.9273 37.3248 83.932 37.4052 83.914 37.4821C83.8961 37.5589 83.8562 37.6289 83.7993 37.6835C83.7424 37.7382 83.6709 37.7752 83.5934 37.79Z" fill="#263238"/>
    <path d="M81.0972 43.8742C81.304 44.0365 81.542 44.1547 81.7964 44.2212C82.0508 44.2878 82.3161 44.3013 82.5759 44.2611C82.8032 44.2274 83.0246 44.1614 83.2331 44.065L83.355 44.0067L83.461 43.9484C83.4867 43.9328 83.5071 43.9097 83.5194 43.8822C83.5317 43.8548 83.5354 43.8243 83.5299 43.7947C83.5329 43.7771 83.5329 43.7592 83.5299 43.7417V43.6993C83.4027 43.2859 83.1483 42.6817 83.1483 42.6817C83.3232 42.6817 84.2083 42.7824 84.1129 42.5704C83.4263 40.751 82.558 39.0056 81.5212 37.3605C81.4894 37.3075 81.4046 37.3605 81.4258 37.4082C82.0512 39.0936 82.9681 40.6571 83.62 42.3425C83.3071 42.3111 82.9914 42.3236 82.6819 42.3796C82.6289 42.4167 83.2119 43.5403 83.2119 43.7311C82.8896 43.8805 82.5405 43.9636 82.1854 43.9755C81.8303 43.9873 81.4765 43.9276 81.1449 43.8C81.0601 43.7947 81.0336 43.8424 81.0972 43.8742Z" fill="#263238"/>
    <path d="M82.9043 43.9432C82.7815 44.3113 82.5662 44.6416 82.2789 44.9025C82.1176 45.0396 81.9175 45.123 81.7065 45.141C81.2454 45.1781 81.1023 44.7912 81.0652 44.4361C81.0434 44.2441 81.0434 44.0503 81.0652 43.8584C81.6532 44.0835 82.2981 44.1132 82.9043 43.9432Z" fill="#263238"/>
    <path d="M82.2791 44.9026C82.1178 45.0397 81.9177 45.123 81.7067 45.1411C81.2456 45.1782 81.1025 44.7913 81.0654 44.4362C81.2908 44.3681 81.5324 44.377 81.7522 44.4614C81.972 44.5459 82.1573 44.7011 82.2791 44.9026Z" fill="#FF9BBC"/>
    <path d="M73.7516 44.489C75.2674 43.8636 73.3541 39.666 73.3541 39.666C73.9756 39.3553 74.4963 38.8746 74.8556 38.2799C75.2149 37.6851 75.3981 37.0006 75.384 36.3058C75.384 36.3058 81.8871 35.7758 82.804 33.2424C83.7209 30.709 81.9242 27.4707 81.1239 27.5131C80.3236 27.5555 79.5339 28.9441 79.5339 28.9441C79.5339 28.9441 78.6912 27.9159 78.034 27.9901C77.0217 28.1014 76.8627 29.4476 76.444 29.8875C75.2992 31.0376 71.356 32.3096 70.5027 33.4385C70.2582 33.7166 70.0863 34.0509 70.0021 34.4115C69.918 34.7721 69.9242 35.1479 70.0204 35.5055C69.6632 35.7401 69.3694 36.0592 69.165 36.4346C68.9607 36.81 68.8522 37.23 68.8491 37.6573C68.7219 39.5706 72.2252 45.125 73.7516 44.489Z" fill="#263238"/>
    <path d="M73.8838 44.1235C74.9915 42.5335 73.9156 40.3658 72.8662 39.0037C72.8662 39.0037 72.8662 38.9613 72.9033 39.0037C73.9633 40.2492 75.2247 42.7137 73.9633 44.1977C73.9535 44.2083 73.9398 44.2145 73.9254 44.215C73.911 44.2154 73.897 44.2102 73.8865 44.2004C73.8759 44.1905 73.8697 44.1769 73.8692 44.1625C73.8687 44.1481 73.874 44.1341 73.8838 44.1235Z" fill="#263238"/>
    <path d="M74.3238 36.0724C75.8123 36.2687 77.3217 36.2419 78.8023 35.9929C79.4748 35.852 80.1292 35.6351 80.7527 35.3463C81.3728 35.0601 82.4752 34.5672 82.719 33.8623C82.472 34.4204 82.0315 34.8703 81.4788 35.129C80.7628 35.5688 79.9834 35.8959 79.168 36.0989C77.5693 36.5145 75.8951 36.5471 74.2814 36.1943C74.2072 36.1837 74.2443 36.0671 74.3238 36.0724Z" fill="#263238"/>
    <path d="M71.1388 32.4685C71.861 32.0474 72.6099 31.6738 73.3807 31.3502C74.3241 30.8891 75.4689 30.4386 76.2162 29.686H76.2427C75.7177 30.2232 75.1 30.6613 74.4195 30.9792C73.7517 31.3449 73.068 31.6841 72.379 32.0074C71.5946 32.3784 70.7307 32.8024 70.259 33.5974C69.7873 34.3924 69.9463 35.1874 70.047 35.9877C70.047 36.0037 70.0415 36.0191 70.0314 36.0314C70.0213 36.0437 70.0073 36.0522 69.9916 36.0553C69.976 36.0584 69.9598 36.056 69.9457 36.0486C69.9317 36.0411 69.9207 36.0289 69.9145 36.0142C69.6882 35.3718 69.686 34.6717 69.9083 34.0279C70.1306 33.384 70.5643 32.8344 71.1388 32.4685Z" fill="#263238"/>
    <path d="M69.6599 35.8872C67.9957 37.0956 68.8437 39.5548 69.697 41.0017C70.4432 42.4201 71.6221 43.5638 73.0625 44.2665C73.1314 44.293 73.0625 44.399 73.0095 44.3725C71.2817 43.6941 70.0097 42.0405 69.2147 40.4187C68.6211 39.1944 67.9533 36.6133 69.6599 35.8872Z" fill="#263238"/>
    <path d="M74.4242 43.5561C74.4242 43.5561 72.0445 41.3725 71.0163 42.2788C69.9881 43.1851 72.1717 46.6248 73.6663 46.8315C73.8556 46.8714 74.0509 46.8725 74.2407 46.835C74.4305 46.7975 74.6107 46.722 74.7705 46.6131C74.9304 46.5042 75.0666 46.3642 75.1711 46.2013C75.2755 46.0385 75.3459 45.8563 75.3782 45.6655L74.4242 43.5561Z" fill="#EB9481"/>
    <path d="M71.6685 43.2487V43.2858C72.7285 43.466 73.4281 44.2451 73.9846 45.0984C73.9079 45.0139 73.8137 44.9471 73.7085 44.9027C73.6034 44.8583 73.4899 44.8374 73.3758 44.8415C73.2618 44.8455 73.15 44.8744 73.0482 44.9261C72.9465 44.9778 72.8573 45.0511 72.7868 45.1408C72.7868 45.1408 72.7868 45.1991 72.8239 45.1885C72.9807 45.0954 73.1629 45.054 73.3445 45.0702C73.5262 45.0863 73.6982 45.1593 73.8362 45.2786C74.0668 45.4757 74.2748 45.6979 74.4563 45.9411C74.5252 46.0206 74.6683 45.9411 74.6153 45.8457C74.3556 44.5896 73.0147 43.0791 71.6685 43.2487Z" fill="#263238"/>
    <path d="M81.4577 53.4087H81.4312C81.9612 54.9351 83.0848 58.4967 80.6786 58.926C79.6757 59.011 78.6698 58.801 77.7848 58.3218C76.8737 57.9008 76.0102 57.3838 75.209 56.7795C74.2823 56.127 73.4103 55.4003 72.6014 54.6065C72.5643 54.5694 72.5219 54.6065 72.5537 54.6595C73.3752 55.4545 74.1437 56.3131 75.0129 57.0286C75.863 57.7274 76.8044 58.3069 77.8113 58.7511C78.7471 59.2353 79.809 59.4203 80.8535 59.2811C81.3006 59.1762 81.6968 58.9176 81.9728 58.5505C82.2488 58.1834 82.3873 57.7311 82.364 57.2724C82.3412 55.9346 82.0321 54.6171 81.4577 53.4087Z" fill="#263238"/>
    <path d="M129.571 217.873H215.77V181.69H129.571V217.873Z" fill="#263238"/>
    <path d="M131.203 181.69C131.203 181.69 132.39 176.364 134.759 175.548C137.129 174.731 138.575 177.138 138.575 177.138C138.575 177.138 139.132 172.05 142.492 170.528C145.852 169.007 148.38 172.118 148.38 172.118C148.38 172.118 150.962 165.663 155.567 165.663C160.173 165.663 162.5 175.108 162.5 175.108C162.5 175.108 165.224 172.293 168.012 173.883C170.799 175.473 170.799 181.706 170.799 181.706L131.203 181.69Z" fill="#37474F"/>
    <path d="M178.432 181.69H214.127C214.127 181.69 212.951 176.851 210.581 176.507C208.212 176.162 207.11 178.41 207.11 178.41C207.11 178.41 207.216 171.663 202.796 170.513C198.376 169.362 194.666 175.325 194.666 175.325C194.666 175.325 191.888 171.928 188.109 172.145C184.331 172.362 183.371 177.975 183.371 177.975C183.371 177.975 179.947 176.03 178.432 181.69Z" fill="#37474F"/>
    <path d="M168.24 181.69H190.182C190.182 181.69 190.129 178.552 187.972 177.72C187.388 177.472 186.741 177.415 186.124 177.557C185.506 177.699 184.949 178.032 184.532 178.51C184.532 178.51 183.652 172.738 179.635 172.738C175.617 172.738 173.688 177.72 173.688 177.72C173.339 177.238 172.859 176.866 172.304 176.649C171.75 176.432 171.145 176.379 170.561 176.496C168.33 176.772 168.24 181.69 168.24 181.69Z" fill="#455A64"/>
    <path d="M146.7 217.773H218.775V213.501H146.7V217.773Z" fill="#1151B4"/>
    <path d="M146.7 212.473H218.775V208.201H146.7V212.473Z" fill="#1151B4"/>
    <path d="M146.7 207.167H218.775V202.895H146.7V207.167Z" fill="#1151B4"/>
    <path d="M146.7 201.867H218.775V197.595H146.7V201.867Z" fill="#1151B4"/>
    <path d="M146.7 196.562H218.775V192.29H146.7V196.562Z" fill="#1151B4"/>
    <path d="M146.7 191.262H218.775V186.99H146.7V191.262Z" fill="#1151B4"/>
    <path d="M146.7 185.957H218.775V181.685H146.7V185.957Z" fill="#1151B4"/>
    <path d="M126.566 217.773H146.701V213.501H126.566V217.773Z" fill="#1151B4"/>
    <path opacity="0.2" d="M126.566 217.773H146.701V213.501H126.566V217.773Z" fill="#020100"/>
    <path d="M126.566 212.473H146.701V208.201H126.566V212.473Z" fill="#1151B4"/>
    <path opacity="0.2" d="M126.566 212.473H146.701V208.201H126.566V212.473Z" fill="#020100"/>
    <path d="M126.566 207.167H146.701V202.895H126.566V207.167Z" fill="#1151B4"/>
    <path opacity="0.2" d="M126.566 207.167H146.701V202.895H126.566V207.167Z" fill="#020100"/>
    <path d="M126.566 201.867H146.701V197.595H126.566V201.867Z" fill="#1151B4"/>
    <path opacity="0.2" d="M126.566 201.867H146.701V197.595H126.566V201.867Z" fill="#020100"/>
    <path d="M126.566 196.562H146.701V192.29H126.566V196.562Z" fill="#1151B4"/>
    <path opacity="0.2" d="M126.566 196.562H146.701V192.29H126.566V196.562Z" fill="#020100"/>
    <path d="M126.566 191.262H146.701V186.99H126.566V191.262Z" fill="#1151B4"/>
    <path opacity="0.2" d="M126.566 191.262H146.701V186.99H126.566V191.262Z" fill="#020100"/>
    <path d="M126.566 185.957H146.701V181.685H126.566V185.957Z" fill="#1151B4"/>
    <path opacity="0.2" d="M126.566 185.957H146.701V181.685H126.566V185.957Z" fill="#020100"/>
</svg>
