<svg width="20" height="20" viewBox="0 0 20 20" fill="none" xmlns="http://www.w3.org/2000/svg">
    <path d="M9.99986 16.3126H9.99993C11.6735 16.3107 13.278 15.6451 14.4614 14.4617C15.6448 13.2783 16.3105 11.6738 16.3124 10.0002V10.0001C16.3124 8.75161 15.9421 7.53115 15.2485 6.49307C14.5549 5.45498 13.569 4.64589 12.4155 4.16811C11.2621 3.69034 9.99286 3.56533 8.76835 3.8089C7.54385 4.05247 6.41907 4.65367 5.53625 5.53649C4.65343 6.41931 4.05222 7.54409 3.80865 8.7686C3.56508 9.9931 3.69009 11.2623 4.16787 12.4158C4.64565 13.5693 5.45474 14.5551 6.49282 15.2488C7.53091 15.9424 8.75136 16.3126 9.99986 16.3126ZM17.7269 4.77312L17.7269 4.7731L15.2269 2.2731C15.1213 2.16754 15.062 2.02438 15.062 1.8751C15.062 1.72583 15.1213 1.58266 15.2269 1.47711C15.3324 1.37156 15.4756 1.31226 15.6249 1.31226C15.7741 1.31226 15.9173 1.37156 16.0229 1.47711L18.5229 3.97711L18.5229 3.97713C18.5752 4.02938 18.6167 4.09141 18.645 4.1597C18.6733 4.22799 18.6879 4.30118 18.6879 4.3751C18.6879 4.44903 18.6733 4.52222 18.645 4.59051C18.6167 4.65879 18.5752 4.72083 18.5229 4.77307L18.5228 4.77312C18.4706 4.82542 18.4086 4.86691 18.3403 4.89522C18.272 4.92352 18.1988 4.9381 18.1249 4.9381C18.0509 4.9381 17.9777 4.92352 17.9095 4.89522C17.8412 4.86691 17.7791 4.82542 17.7269 4.77312ZM10.5624 9.3751V9.4376H10.6249H14.3749C14.524 9.4376 14.6671 9.49687 14.7726 9.60236C14.8781 9.70784 14.9374 9.85092 14.9374 10.0001C14.9374 10.1493 14.8781 10.2924 14.7726 10.3979C14.6671 10.5033 14.524 10.5626 14.3749 10.5626H9.99986C9.85067 10.5626 9.7076 10.5033 9.60211 10.3979C9.49662 10.2924 9.43736 10.1493 9.43736 10.0001V5.6251C9.43736 5.47592 9.49662 5.33285 9.60211 5.22736C9.7076 5.12187 9.85067 5.0626 9.99986 5.0626C10.149 5.0626 10.2921 5.12187 10.3976 5.22736C10.5031 5.33285 10.5624 5.47592 10.5624 5.6251V9.3751ZM5.86781 3.81605C7.09088 2.99882 8.52881 2.56262 9.99979 2.5626C11.9717 2.56486 13.8621 3.34918 15.2565 4.74351C16.6508 6.13782 17.4351 8.02825 17.4374 10.0001C17.4374 11.4711 17.0012 12.9091 16.1839 14.1322C15.3667 15.3552 14.2051 16.3085 12.8461 16.8715C11.487 17.4344 9.99161 17.5817 8.54888 17.2947C7.10614 17.0077 5.78091 16.2994 4.74075 15.2592C3.7006 14.2191 2.99225 12.8938 2.70527 11.4511C2.41829 10.0084 2.56558 8.51292 3.12851 7.1539C3.69143 5.79487 4.64472 4.63329 5.86781 3.81605ZM4.77285 2.2731L2.27285 4.7731C2.22059 4.82536 2.15854 4.86682 2.09025 4.89511C2.02196 4.92339 1.94877 4.93795 1.87486 4.93795C1.80095 4.93795 1.72775 4.92339 1.65947 4.89511C1.59118 4.86682 1.52913 4.82536 1.47687 4.7731C1.37131 4.66754 1.31201 4.52438 1.31201 4.3751C1.31201 4.22583 1.37131 4.08266 1.47687 3.97711L3.97687 1.47711C4.02913 1.42484 4.09118 1.38339 4.15947 1.3551C4.22775 1.32681 4.30095 1.31226 4.37486 1.31226C4.44877 1.31226 4.52196 1.32681 4.59025 1.3551C4.65854 1.38339 4.72059 1.42484 4.77285 1.47711C4.82512 1.52938 4.86658 1.59142 4.89486 1.65971C4.92315 1.728 4.93771 1.80119 4.93771 1.8751C4.93771 1.94902 4.92315 2.02221 4.89486 2.0905C4.86658 2.15878 4.82512 2.22083 4.77285 2.2731Z" fill="#1151B4" stroke="#1151B4" stroke-width="0.125"/>
</svg>
