<svg width="18" height="18" viewBox="0 0 18 18" fill="none" xmlns="http://www.w3.org/2000/svg">
    <path d="M3.75091 15.6496V10.6837C3.75091 10.2655 3.89092 9.91608 4.17095 9.63545C4.45097 9.35482 4.8004 9.2148 5.21923 9.21541H6.02384V7.32705H5.21923C4.80101 7.32705 4.45158 7.18674 4.17095 6.90611C3.89032 6.62548 3.75 6.27666 3.75 5.85965V3.72491C3.75 3.30669 3.89032 2.95756 4.17095 2.67754C4.45158 2.39751 4.80101 2.2572 5.21923 2.25659H12.4926C12.9108 2.25659 13.2603 2.39691 13.5409 2.67754C13.8215 2.95817 13.9618 3.30729 13.9618 3.72491V5.85965C13.9618 6.27787 13.8215 6.62699 13.5409 6.90702C13.2603 7.18704 12.9108 7.32705 12.4926 7.32705H11.688V9.21541H12.4926C12.9108 9.21541 13.2603 9.35542 13.5409 9.63545C13.8215 9.91547 13.9618 10.2649 13.9618 10.6837V15.6496C13.9618 15.7787 13.9182 15.8869 13.8309 15.9742C13.7442 16.0609 13.6361 16.1042 13.5063 16.1042C13.3772 16.1042 13.2694 16.0609 13.1827 15.9742C13.096 15.8875 13.0524 15.7793 13.0518 15.6496V13.3767H4.66008V15.6496C4.66008 15.7787 4.61644 15.8866 4.52916 15.9733C4.44188 16.06 4.33369 16.1036 4.20459 16.1042C4.07548 16.1048 3.9676 16.0612 3.88092 15.9733C3.79425 15.8854 3.75061 15.7775 3.75 15.6496M5.21923 6.41788H12.4926C12.632 6.41788 12.7602 6.35969 12.8772 6.24332C12.9942 6.12634 13.0527 5.99815 13.0527 5.85874V3.72491C13.0527 3.5855 12.9942 3.45731 12.8772 3.34033C12.7608 3.22395 12.6326 3.16577 12.4926 3.16577H5.21923C5.07982 3.16577 4.95163 3.22395 4.83464 3.34033C4.71766 3.4567 4.65948 3.58489 4.66008 3.72491V5.85783C4.66008 5.99784 4.71827 6.12604 4.83464 6.24241C4.95102 6.35939 5.07921 6.41788 5.21923 6.41788ZM6.93302 9.21541H10.7788V7.32705H6.93302V9.21541ZM4.66008 12.4675H13.0518V10.6837C13.0518 10.5443 12.9936 10.4161 12.8772 10.2991C12.7608 10.1822 12.6326 10.124 12.4926 10.1246H5.21923C5.07982 10.1246 4.95163 10.1828 4.83464 10.2991C4.71766 10.4155 4.65948 10.5437 4.66008 10.6837V12.4675Z" fill="#1151B4"/>
</svg>
