<svg width="16" height="16" viewBox="0 0 16 16" fill="none" xmlns="http://www.w3.org/2000/svg">
    <path d="M10.2775 6.58375L7.2775 4.58375C7.20218 4.5335 7.11463 4.50464 7.0242 4.50026C6.93376 4.49588 6.84383 4.51614 6.76401 4.55887C6.68418 4.60161 6.61746 4.66521 6.57097 4.74291C6.52447 4.8206 6.49994 4.90946 6.5 5V9C6.49994 9.09054 6.52447 9.1794 6.57097 9.25709C6.61746 9.33478 6.68418 9.39839 6.76401 9.44113C6.84383 9.48386 6.93376 9.50412 7.0242 9.49974C7.11463 9.49536 7.20218 9.4665 7.2775 9.41625L10.2775 7.41625C10.3461 7.37061 10.4023 7.30873 10.4412 7.23611C10.4801 7.16349 10.5005 7.08238 10.5005 7C10.5005 6.91762 10.4801 6.83651 10.4412 6.76389C10.4023 6.69127 10.3461 6.62939 10.2775 6.58375ZM7.5 8.06563V5.9375L9.09875 7L7.5 8.06563ZM13.5 2.5H2.5C2.23478 2.5 1.98043 2.60536 1.79289 2.79289C1.60536 2.98043 1.5 3.23478 1.5 3.5V10.5C1.5 10.7652 1.60536 11.0196 1.79289 11.2071C1.98043 11.3946 2.23478 11.5 2.5 11.5H13.5C13.7652 11.5 14.0196 11.3946 14.2071 11.2071C14.3946 11.0196 14.5 10.7652 14.5 10.5V3.5C14.5 3.23478 14.3946 2.98043 14.2071 2.79289C14.0196 2.60536 13.7652 2.5 13.5 2.5ZM13.5 10.5H2.5V3.5H13.5V10.5ZM14.5 13C14.5 13.1326 14.4473 13.2598 14.3536 13.3536C14.2598 13.4473 14.1326 13.5 14 13.5H2C1.86739 13.5 1.74021 13.4473 1.64645 13.3536C1.55268 13.2598 1.5 13.1326 1.5 13C1.5 12.8674 1.55268 12.7402 1.64645 12.6464C1.74021 12.5527 1.86739 12.5 2 12.5H14C14.1326 12.5 14.2598 12.5527 14.3536 12.6464C14.4473 12.7402 14.5 12.8674 14.5 13Z" fill="#9CA8BA"/>
</svg>
