<svg width="16" height="16" viewBox="0 0 16 16" fill="none" xmlns="http://www.w3.org/2000/svg">
    <path d="M11.0001 14.4999C11.0001 14.6325 10.9474 14.7597 10.8536 14.8534C10.7599 14.9472 10.6327 14.9999 10.5001 14.9999H5.50008C5.36747 14.9999 5.2403 14.9472 5.14653 14.8534C5.05276 14.7597 5.00008 14.6325 5.00008 14.4999C5.00008 14.3673 5.05276 14.2401 5.14653 14.1463C5.2403 14.0526 5.36747 13.9999 5.50008 13.9999H10.5001C10.6327 13.9999 10.7599 14.0526 10.8536 14.1463C10.9474 14.2401 11.0001 14.3673 11.0001 14.4999ZM13.5001 6.49989C13.5022 7.33341 13.3139 8.15642 12.9496 8.90608C12.5852 9.65575 12.0543 10.3123 11.3976 10.8255C11.2748 10.9196 11.1751 11.0406 11.1062 11.1792C11.0373 11.3177 11.001 11.4702 11.0001 11.6249V11.9999C11.0001 12.2651 10.8947 12.5195 10.7072 12.707C10.5197 12.8945 10.2653 12.9999 10.0001 12.9999H6.00008C5.73487 12.9999 5.48051 12.8945 5.29298 12.707C5.10544 12.5195 5.00008 12.2651 5.00008 11.9999V11.6249C4.99998 11.472 4.96483 11.3212 4.89733 11.184C4.82983 11.0469 4.73177 10.927 4.61071 10.8336C3.95567 10.3235 3.42524 9.67102 3.05958 8.92561C2.69392 8.18021 2.50259 7.3614 2.50008 6.53114C2.48383 3.55176 4.89133 1.07176 7.86758 0.999887C8.60092 0.982215 9.33039 1.11142 10.0131 1.3799C10.6957 1.64838 11.3178 2.0507 11.8426 2.56319C12.3674 3.07569 12.7845 3.68799 13.0691 4.36407C13.3538 5.04014 13.5003 5.76633 13.5001 6.49989ZM12.5001 6.49989C12.5003 5.89968 12.3804 5.30549 12.1474 4.75232C11.9145 4.19914 11.5733 3.69815 11.1438 3.27883C10.7144 2.85952 10.2054 2.53035 9.64682 2.3107C9.08824 2.09106 8.49137 1.98538 7.89133 1.99989C5.45383 2.05739 3.48696 4.08676 3.50008 6.52426C3.50232 7.20339 3.65901 7.87311 3.9583 8.48273C4.25759 9.09235 4.69163 9.62591 5.22758 10.043C5.46848 10.2303 5.66334 10.4702 5.79724 10.7444C5.93114 11.0186 6.00052 11.3198 6.00008 11.6249V11.9999H7.50008V9.20676L5.64633 7.35364C5.55251 7.25982 5.4998 7.13257 5.4998 6.99989C5.4998 6.86721 5.55251 6.73996 5.64633 6.64614C5.74015 6.55232 5.8674 6.49961 6.00008 6.49961C6.13276 6.49961 6.26001 6.55232 6.35383 6.64614L8.00008 8.29301L9.64633 6.64614C9.69279 6.59968 9.74794 6.56283 9.80863 6.53769C9.86933 6.51255 9.93438 6.49961 10.0001 6.49961C10.0658 6.49961 10.1308 6.51255 10.1915 6.53769C10.2522 6.56283 10.3074 6.59968 10.3538 6.64614C10.4003 6.69259 10.4371 6.74774 10.4623 6.80844C10.4874 6.86914 10.5004 6.93419 10.5004 6.99989C10.5004 7.06559 10.4874 7.13064 10.4623 7.19134C10.4371 7.25203 10.4003 7.30718 10.3538 7.35364L8.50008 9.20676V11.9999H10.0001V11.6249C10.0006 11.3189 10.0711 11.017 10.2062 10.7424C10.3413 10.4678 10.5374 10.2277 10.7795 10.0405C11.317 9.62041 11.7515 9.08303 12.0497 8.46941C12.3479 7.85578 12.5019 7.18213 12.5001 6.49989Z" fill="#9CA8BA"/>
</svg>
