
<svg width="92" height="108" viewBox="0 0 92 108" fill="none" xmlns="http://www.w3.org/2000/svg">
<g id="studiflats 1" clip-path="url(#clip0_2902_2961)">
<g id="Layer 2">
<g id="Layer 1">
<path id="Vector" d="M47.9999 69.87V77.5H55.6199V69.87H47.9999ZM37.9099 79.93V87.56H45.5299V79.93H37.9099ZM48.0199 79.93V87.56H55.6399V79.93H48.0199ZM37.9099 69.87V77.5H45.5299V69.87H37.9099Z" fill="#1151B4"/>
<path id="Vector_2" d="M84.1099 46.8H87.8299V35C86.6399 35.66 85.4999 36.27 84.3999 36.92C84.3121 36.9933 84.2415 37.0851 84.1931 37.1888C84.1447 37.2925 84.1197 37.4056 84.1199 37.52C84.0999 40.59 84.1099 43.7 84.1099 46.8Z" fill="#1151B4"/>
<path id="Vector_3" d="M81 55.7301C80.9908 56.3949 81.1129 57.0551 81.3594 57.6726C81.6059 58.2901 81.972 58.8529 82.4365 59.3286C82.9011 59.8043 83.455 60.1836 84.0665 60.4447C84.6781 60.7058 85.3351 60.8436 86 60.8501C87.307 60.792 88.5412 60.232 89.4456 59.2866C90.3499 58.3412 90.8547 57.0834 90.8547 55.7751C90.8547 54.4668 90.3499 53.2089 89.4456 52.2635C88.5412 51.3181 87.307 50.7581 86 50.7001C84.6736 50.7158 83.4064 51.2517 82.4713 52.1925C81.5361 53.1332 81.0078 54.4036 81 55.7301Z" fill="#1151B4"/>
<path id="Vector_4" d="M19.3001 36.8001C19.3001 41.8701 19.3001 46.9401 19.3001 52.0101V53.1601C37.4901 43.1601 55.5501 43.1601 73.6901 53.1601C73.6901 52.7601 73.7401 52.4401 73.7401 52.1601C73.7401 47.0601 73.7401 41.9501 73.7401 36.8501C73.7989 36.548 73.7587 36.2349 73.6253 35.9574C73.492 35.68 73.2727 35.453 73.0001 35.3101C64.9793 30.6586 55.8737 28.2047 46.6018 28.1959C37.3299 28.1872 28.2196 30.6238 20.1901 35.2601C19.8949 35.3857 19.6484 35.6037 19.4879 35.8815C19.3274 36.1592 19.2615 36.4816 19.3001 36.8001Z" fill="#1151B4"/>
<path id="Vector_5" d="M15.86 39.37C15.86 37.51 15.86 35.84 15.86 34.18C15.8738 33.9867 15.9271 33.7982 16.0165 33.6262C16.106 33.4543 16.2297 33.3024 16.38 33.18C25.349 27.4531 35.7685 24.4102 46.41 24.4102C57.0515 24.4102 67.471 27.4531 76.44 33.18C76.5912 33.3016 76.7156 33.4533 76.8051 33.6254C76.8946 33.7976 76.9473 33.9864 76.96 34.18C77.02 35.5 76.96 36.82 76.96 38.33L91.39 29.1V28.95C91.06 28.75 90.82 28.63 90.6 28.49C75.9867 19.1167 61.3533 9.73671 46.7 0.350047C46.4155 0.124543 46.0631 0.00183105 45.7 0.00183105C45.3369 0.00183105 44.9845 0.124543 44.7 0.350047C30.9 9.21005 17.1067 18.04 3.32 26.84C2.25 27.53 1.17 28.2 0 28.93V29.11L15.86 39.37Z" fill="#1151B4"/>
<path id="Vector_6" d="M69.9201 55V88C69.9201 101.65 57.5401 107.7 46.1601 107.77C34.6001 107.77 22.5801 101.43 22.5801 88V55H25.5201V88C25.5201 100.16 36.3401 105.46 46.1601 105.46C55.9801 105.46 67.0001 100.28 67.0001 88V55H69.9201Z" fill="#1151B4"/>
</g>
</g>
</g>
<defs>
<clipPath id="clip0_2902_2961">
<rect width="91.44" height="107.81" fill="white"/>
</clipPath>
</defs>
</svg>
