<svg width="255" height="274" viewBox="0 0 255 274" fill="none" xmlns="http://www.w3.org/2000/svg">
<g filter="url(#filter0_f_949_5027)">
<ellipse cx="124" cy="230.5" rx="92.5" ry="21.5" fill="#FFEBE7"/>
</g>
<path d="M125.201 247.402C188.549 247.402 239.902 196.049 239.902 132.701C239.902 69.3534 188.549 18 125.201 18C61.8534 18 10.5 69.3534 10.5 132.701C10.5 196.049 61.8534 247.402 125.201 247.402Z" fill="url(#paint0_linear_949_5027)"/>
<path d="M182.077 33H66.5796C62.282 33 58.1605 34.7072 55.1217 37.746C52.0829 40.7848 50.3757 44.9063 50.3757 49.2038V180.815H50.5738V227.032C50.5736 228.816 51.0308 230.571 51.9017 232.129C52.7725 233.686 54.0281 234.995 55.5484 235.929C57.0687 236.864 58.8032 237.393 60.5862 237.466C62.3692 237.54 64.1413 237.155 65.7334 236.349L119.008 209.343C120.459 208.615 122.061 208.236 123.685 208.236C125.308 208.236 126.91 208.615 128.361 209.343L183.274 236.547C184.867 237.336 186.636 237.706 188.412 237.621C190.187 237.535 191.912 236.998 193.422 236.059C194.932 235.121 196.178 233.812 197.041 232.258C197.904 230.703 198.355 228.954 198.353 227.176L198.209 180.815V49.1588C198.197 44.8815 196.494 40.7824 193.472 37.7554C190.45 34.7284 186.354 33.019 182.077 33Z" fill="url(#paint1_linear_949_5027)"/>
<path d="M254.5 75.6249C254.504 79.1277 253.234 82.5123 250.926 85.1476C248.618 87.783 245.431 89.4891 241.959 89.948C241.324 90.0289 240.685 90.0705 240.045 90.0725H191.987C190.945 90.0702 189.904 89.9843 188.875 89.8157C184.458 89.0535 180.478 86.6842 177.703 83.1639C174.928 79.6437 173.552 75.2212 173.842 70.7479C174.132 66.2745 176.066 62.0664 179.272 58.9335C182.479 55.8007 186.73 53.9645 191.209 53.7784C193.531 48.738 197.428 44.5891 202.314 41.9575C207.199 39.326 212.808 38.3545 218.294 39.1897C223.78 40.0248 228.846 42.6213 232.727 46.5875C236.609 50.5537 239.095 55.6744 239.811 61.1773H240.029C241.928 61.1742 243.81 61.5457 245.565 62.2703C247.321 62.995 248.916 64.0587 250.26 65.4006C251.604 66.7425 252.671 68.3362 253.398 70.0906C254.126 71.845 254.5 73.7256 254.5 75.6249Z" fill="url(#paint2_linear_949_5027)"/>
<path d="M10.125 47.3281C10.125 50.2169 11.2726 52.9873 13.3152 55.03C15.3579 57.0726 18.1283 58.2202 21.0171 58.2202H57.1789C60.7418 58.2013 64.1566 56.7921 66.6959 54.2926C69.2351 51.7931 70.698 48.401 70.7731 44.8388C70.8482 41.2765 69.5294 37.8258 67.0977 35.2216C64.666 32.6174 61.3136 31.0655 57.7546 30.8966C55.9993 27.1158 53.065 24.0063 49.3921 22.0351C45.7193 20.0638 41.5061 19.3371 37.3851 19.964C33.2642 20.5909 29.4577 22.5377 26.5372 25.5119C23.6167 28.4862 21.7398 32.3276 21.1883 36.4593H21.0249C18.1388 36.4573 15.3699 37.6007 13.3262 39.6386C11.2825 41.6764 10.1312 44.442 10.125 47.3281Z" fill="url(#paint3_linear_949_5027)"/>
<g filter="url(#filter1_f_949_5027)">
<ellipse cx="129.112" cy="155.179" rx="52.1402" ry="11.1729" fill="#FF7C86" fill-opacity="0.39"/>
</g>
<path d="M128.613 58.8001L141.432 84.7712C141.812 85.5412 142.374 86.2073 143.069 86.7122C143.763 87.2172 144.57 87.5458 145.42 87.6699L174.074 91.8019C175.044 91.9505 175.954 92.3655 176.702 93.0007C177.451 93.6359 178.008 94.4664 178.312 95.3996C178.616 96.3328 178.656 97.3322 178.425 98.2864C178.195 99.2406 177.705 100.112 177.009 100.804L156.304 121.014C155.688 121.613 155.228 122.353 154.962 123.171C154.697 123.988 154.635 124.857 154.782 125.704L159.679 154.241C159.847 155.216 159.739 156.219 159.366 157.137C158.993 158.054 158.371 158.848 157.57 159.43C156.769 160.012 155.821 160.358 154.834 160.429C153.846 160.499 152.859 160.292 151.983 159.831L126.354 146.328C125.593 145.929 124.746 145.72 123.887 145.72C123.028 145.72 122.181 145.929 121.42 146.328L95.7914 159.831C94.9157 160.29 93.9293 160.495 92.9433 160.423C91.9573 160.351 91.0111 160.004 90.2116 159.423C89.412 158.842 88.7909 158.048 88.4184 157.132C88.0459 156.217 87.9369 155.215 88.1036 154.241L92.9917 125.704C93.1385 124.857 93.0767 123.988 92.8116 123.171C92.5465 122.353 92.0861 121.613 91.4703 121.014L70.7655 100.804C70.0692 100.112 69.5787 99.2406 69.3485 98.2864C69.1184 97.3322 69.1576 96.3328 69.4618 95.3996C69.766 94.4664 70.3233 93.6359 71.0716 93.0007C71.82 92.3655 72.7299 91.9505 73.7002 91.8019L102.354 87.6429C103.204 87.5188 104.011 87.1902 104.705 86.6852C105.4 86.1803 105.962 85.5142 106.342 84.7442L119.161 58.7731C119.607 57.9021 120.285 57.1716 121.121 56.6624C121.957 56.1532 122.917 55.8852 123.895 55.888C124.874 55.8908 125.832 56.1643 126.665 56.6783C127.498 57.1923 128.172 57.9266 128.613 58.8001Z" fill="url(#paint4_linear_949_5027)"/>
<path d="M0.500019 186.589C0.498294 190.077 1.76481 193.447 4.06358 196.071C6.36235 198.694 9.53657 200.393 12.9948 200.85C13.6238 200.937 14.2581 200.981 14.8931 200.982H62.7406C63.7831 200.98 64.8239 200.895 65.8526 200.725C70.2763 199.989 74.2687 197.635 77.0552 194.122C79.8417 190.608 81.2236 186.184 80.9328 181.709C80.6421 177.234 78.6993 173.027 75.4815 169.903C72.2637 166.779 68.0003 164.962 63.5186 164.805C61.2041 159.789 57.3222 155.661 52.4577 153.043C47.5932 150.425 42.0097 149.459 36.5484 150.29C31.0871 151.122 26.044 153.705 22.1788 157.652C18.3136 161.599 15.8358 166.695 15.1188 172.172H14.8931C13.001 172.172 11.1275 172.545 9.37974 173.27C7.63196 173.995 6.04424 175.057 4.70741 176.396C3.37058 177.735 2.31087 179.325 1.58892 181.074C0.866976 182.823 0.496951 184.697 0.500019 186.589Z" fill="url(#paint5_linear_949_5027)"/>
<path d="M216.023 107.046C215.708 105.811 216.848 104.699 218.075 105.043L226.355 107.37C227.582 107.715 227.975 109.258 227.063 110.148L220.908 116.156C219.996 117.046 218.463 116.615 218.148 115.38L216.023 107.046Z" fill="#FFBEBD"/>
<path d="M24.8421 107.046C24.5273 105.811 25.6672 104.699 26.8938 105.043L35.174 107.37C36.4007 107.715 36.7942 109.258 35.8823 110.148L29.7271 116.156C28.8153 117.046 27.2819 116.615 26.9671 115.38L24.8421 107.046Z" fill="#FFBEBD"/>
<path d="M89.1108 7.99867C89.6001 5.97173 92.4832 5.97173 92.9725 7.99866L94.6193 14.8206C94.7941 15.5449 95.3597 16.1105 96.084 16.2853L102.906 17.9321C104.933 18.4214 104.933 21.3045 102.906 21.7938L96.084 23.4406C95.3597 23.6154 94.7941 24.181 94.6193 24.9053L92.9725 31.7272C92.4832 33.7542 89.6001 33.7542 89.1108 31.7272L87.464 24.9053C87.2892 24.181 86.7236 23.6154 85.9993 23.4406L79.1774 21.7938C77.1504 21.3045 77.1504 18.4214 79.1774 17.9321L85.9993 16.2853C86.7236 16.1105 87.2892 15.5449 87.464 14.8206L89.1108 7.99867Z" fill="#FFBEBD"/>
<path d="M133.664 226.768C133.664 229.282 131.626 231.32 129.112 231.32C126.598 231.32 124.561 229.282 124.561 226.768C124.561 224.254 126.598 222.217 129.112 222.217C131.626 222.217 133.664 224.254 133.664 226.768Z" stroke="#FFBEBD" stroke-width="2.48287"/>
<path d="M214.91 189.248C215.399 187.221 218.282 187.221 218.771 189.248L220.418 196.07C220.593 196.794 221.158 197.36 221.883 197.535L228.705 199.182C230.732 199.671 230.732 202.554 228.705 203.043L221.883 204.69C221.158 204.865 220.593 205.43 220.418 206.155L218.771 212.977C218.282 215.004 215.399 215.004 214.91 212.977L213.263 206.155C213.088 205.43 212.522 204.865 211.798 204.69L204.976 203.043C202.949 202.554 202.949 199.671 204.976 199.182L211.798 197.535C212.522 197.36 213.088 196.794 213.263 196.07L214.91 189.248Z" fill="#FFBEBD"/>
<circle cx="222.634" cy="160.559" r="4.55192" stroke="#FC9999" stroke-width="2.48287"/>
<defs>
<filter id="filter0_f_949_5027" x="9.72701" y="187.227" width="228.546" height="86.546" filterUnits="userSpaceOnUse" color-interpolation-filters="sRGB">
<feFlood flood-opacity="0" result="BackgroundImageFix"/>
<feBlend mode="normal" in="SourceGraphic" in2="BackgroundImageFix" result="shape"/>
<feGaussianBlur stdDeviation="10.8865" result="effect1_foregroundBlur_949_5027"/>
</filter>
<filter id="filter1_f_949_5027" x="56.2816" y="123.316" width="145.662" height="63.7269" filterUnits="userSpaceOnUse" color-interpolation-filters="sRGB">
<feFlood flood-opacity="0" result="BackgroundImageFix"/>
<feBlend mode="normal" in="SourceGraphic" in2="BackgroundImageFix" result="shape"/>
<feGaussianBlur stdDeviation="10.3453" result="effect1_foregroundBlur_949_5027"/>
</filter>
<linearGradient id="paint0_linear_949_5027" x1="124.317" y1="-19.3495" x2="126.667" y2="383.463" gradientUnits="userSpaceOnUse">
<stop stop-color="#FFE1E1" stop-opacity="0"/>
<stop offset="1" stop-color="#FFE1E0"/>
</linearGradient>
<linearGradient id="paint1_linear_949_5027" x1="234.354" y1="248.172" x2="56.9472" y2="88.769" gradientUnits="userSpaceOnUse">
<stop stop-color="#FF9999"/>
<stop offset="1" stop-color="#FFE7DA"/>
</linearGradient>
<linearGradient id="paint2_linear_949_5027" x1="239.186" y1="112.143" x2="199.047" y2="38.8983" gradientUnits="userSpaceOnUse">
<stop stop-color="#FFBEBD"/>
<stop offset="1" stop-color="#FFF6F5"/>
</linearGradient>
<linearGradient id="paint3_linear_949_5027" x1="59.2663" y1="74.8138" x2="29.0819" y2="19.7533" gradientUnits="userSpaceOnUse">
<stop stop-color="#FFBEBD"/>
<stop offset="1" stop-color="#FFF6F5"/>
</linearGradient>
<linearGradient id="paint4_linear_949_5027" x1="78.0251" y1="83.9386" x2="273.875" y2="160.346" gradientUnits="userSpaceOnUse">
<stop stop-color="#FFDEAC"/>
<stop offset="0.70369" stop-color="#FF426F"/>
</linearGradient>
<linearGradient id="paint5_linear_949_5027" x1="65.6999" y1="222.969" x2="25.7319" y2="149.967" gradientUnits="userSpaceOnUse">
<stop stop-color="#FFBEBD"/>
<stop offset="1" stop-color="#FFF6F5"/>
</linearGradient>
</defs>
</svg>
