<svg width="101" height="101" viewBox="0 0 101 101" fill="none" xmlns="http://www.w3.org/2000/svg">
<g clip-path="url(#clip0_3589_10981)">
<path d="M5.67578 0.890434C4.26953 1.43731 3.35156 2.27715 2.66797 3.66387L2.0625 4.85528V34.5037V64.1521L2.57031 64.5428C3.25391 65.0896 3.91797 65.0506 4.50391 64.4646L4.99219 63.9959V38.9764V13.9764H37.5898H70.207L70.5977 13.4686C71.1445 12.785 71.1055 12.1209 70.5195 11.535L70.0508 11.0467H37.5117H4.99219V8.35137C4.99219 5.40215 5.1875 4.69903 6.22266 3.93731L6.76953 3.52715H47.8633H88.957L89.5039 3.93731C90.5391 4.69903 90.7344 5.40215 90.7344 8.35137V11.0467H83.3516C76.1836 11.0467 75.9492 11.0662 75.5391 11.4373C74.9727 11.9647 74.9727 13.0584 75.5 13.5857C75.8711 13.9568 76.1445 13.9764 83.3125 13.9764H90.7344V47.1209V80.2654L87.8438 77.4139C85.4414 75.0311 84.8359 74.5232 84.1133 74.3279C83.1562 74.074 82.082 74.2107 81.3789 74.66C80.9297 74.9529 80.8711 74.9139 79.4453 73.4881L77.9805 72.0037L78.5273 70.7732C78.957 69.7967 79.0742 69.2498 79.0742 68.1756C79.0742 66.2615 78.4883 65.0311 76.5938 63.0584L75.1289 61.4959L75.8125 59.5623C79.0742 50.4803 77.8047 40.7732 72.3164 32.6287C70.7148 30.2654 66.9453 26.535 64.582 24.9529C61.3203 22.7654 57.7461 21.242 53.8594 20.3631C52.2383 20.0115 51.3594 19.9529 47.8633 19.9529C44.0352 19.9529 43.6055 19.992 41.418 20.4998C37.082 21.5154 33.4492 23.1951 30.0117 25.7928C20.5977 32.8826 16.2227 44.992 18.957 56.3201C20.3047 61.8865 22.8047 66.3592 26.8672 70.4217C32.2383 75.8123 39.0547 78.8201 46.5938 79.1522C50.5391 79.3279 54.8359 78.6443 58.3906 77.2772L59.9336 76.6717L61.5156 78.1951C63.2344 79.8553 63.9766 80.285 65.6367 80.617C66.9258 80.8709 68.3516 80.617 69.6992 79.8943L70.5586 79.4451L71.9844 80.8709L73.4102 82.2967L73.0781 83.0975C72.9023 83.5467 72.7656 84.1717 72.7656 84.4842V85.0701H40.0117C9.19141 85.0701 7.19922 85.0506 6.55469 84.7186C6.18359 84.5428 5.67578 84.0936 5.44141 83.7225C4.99219 83.0584 4.99219 82.9803 4.99219 76.6522C4.99219 73.1365 4.93359 70.1092 4.875 69.9334C4.67969 69.4647 3.70312 69.035 3.13672 69.1717C2.08203 69.4256 2.0625 69.5623 2.0625 76.7693C2.0625 84.1912 2.12109 84.5623 3.35156 86.0076C3.72266 86.4373 4.5625 87.0623 5.22656 87.3943L6.41797 87.9998H40.5195H74.6211L76.6719 90.0506C79.0352 92.3943 79.6211 92.6873 80.4609 91.8475C80.793 91.5154 80.9688 91.1248 80.9688 90.7147C80.9688 90.1678 80.6172 89.7381 78.332 87.4139C76.8867 85.949 75.6953 84.6795 75.6953 84.5623C75.6953 84.2498 82.8047 77.2576 83.1172 77.2576C83.6055 77.2576 94.9141 88.742 95.4414 89.7576C96.0859 90.9686 96.0859 93.2147 95.4805 94.367C94.3867 96.4178 92.7266 97.4725 90.5586 97.4334C88.8789 97.4139 88.0586 97.0428 86.418 95.4998C85.4023 94.5428 84.9531 94.2498 84.5234 94.2498C83.625 94.2498 83.0391 94.8357 83.0391 95.7147C83.0391 96.3787 83.1953 96.5936 84.4062 97.7654C86.75 99.992 89.1719 100.812 91.9453 100.344C96.0078 99.6404 98.9375 96.2029 98.9375 92.1014C98.9375 89.367 97.9414 87.4334 95.0508 84.5818L93.6641 83.2342V44.035V4.85528L93.0586 3.66387C92.375 2.25762 91.4375 1.43731 89.9922 0.890434C88.9766 0.499809 88.3516 0.499809 47.8047 0.519341C7.64844 0.519341 6.63281 0.538872 5.67578 0.890434ZM50.8906 22.9607C62.8633 24.4451 72.2578 33.41 74.2305 45.2068C74.7188 48.1365 74.5625 52.9412 73.8594 55.7147C72.5703 60.8709 70.1094 65.1287 66.2422 68.8201C61.1836 73.6443 54.8945 76.1639 47.8633 76.1443C40.5781 76.1443 34.3672 73.5662 29.0938 68.3709C25.1875 64.5428 22.8047 60.1678 21.6523 54.7967C21.3789 53.5076 21.3008 52.2967 21.3008 49.3279C21.3203 45.8709 21.3594 45.324 21.8281 43.4686C22.707 39.9529 23.7422 37.6092 25.5977 34.7772C31.1055 26.4568 41.125 21.7693 50.8906 22.9607ZM75.793 66.8279C76.1641 67.6092 76.1641 68.9178 75.8125 69.6014C75.4609 70.2264 68.5469 77.1209 67.9414 77.4334C67.3945 77.7068 65.832 77.7068 65.2852 77.4334C65.0508 77.3162 64.4062 76.7693 63.8398 76.2225L62.8242 75.2459L64.6211 74.0154C67.7656 71.8865 70.8125 68.7615 72.8438 65.5779L73.625 64.367L74.5625 65.285C75.0703 65.7928 75.6172 66.4764 75.793 66.8279ZM77.4141 75.5584L78.8203 76.9647L77.1992 78.5857L75.5977 80.1873L74.1328 78.7225L72.668 77.2576L74.2305 75.6951C75.0898 74.8357 75.832 74.1326 75.8906 74.1326C75.9492 74.1326 76.6328 74.7772 77.4141 75.5584Z" fill="#0E4190"/>
<path d="M44.9336 27.2773C43.3125 27.4922 40.2461 28.332 39.6016 28.7422C38.6055 29.4062 38.7031 30.793 39.7773 31.3008C40.2266 31.5156 40.4805 31.4961 41.5352 31.1445C45.5781 29.8359 50.3438 29.8555 54.2109 31.1641C59.9727 33.1562 64.5234 37.8633 66.3789 43.7812C69.2695 52.9023 64.8555 62.8633 56.1445 66.9844C53.1367 68.4102 51.5352 68.7617 47.8633 68.7617C45.207 68.7617 44.4844 68.6836 43.0781 68.3125C39.7773 67.4141 36.9453 65.8125 34.4258 63.4102C26.4961 55.8516 26.4961 43.332 34.4258 35.5195C35.4609 34.4844 35.6562 34.1914 35.6562 33.625C35.6562 33.1367 35.5195 32.8438 35.1484 32.5508C34.25 31.8477 33.8008 32.0039 32.1016 33.6445C29.3086 36.3594 27.2188 40.0117 26.125 44.0156C25.6758 45.7344 25.6172 46.2422 25.6172 49.5234C25.6172 52.8242 25.6758 53.293 26.1445 55.0898C27.1992 59.0156 29.6797 63.1562 32.5703 65.832C36.8477 69.7969 42.043 71.8477 47.8633 71.8477C55.2266 71.8477 61.9062 68.3906 66.2031 62.3555C67.4727 60.5781 68.9766 57.3359 69.582 55.0508C70.0508 53.3125 70.1094 52.8242 70.1094 49.5234C70.1094 46.2422 70.0508 45.7344 69.6016 44.0156C68.5664 40.207 66.7695 36.9453 64.1328 34.1719C59.1719 28.918 52.1016 26.3789 44.9336 27.2773Z" fill="#0E4190"/>
<path d="M38.6838 36.3593C37.9221 36.7499 35.1291 39.4843 34.7385 40.2265C34.5432 40.6171 34.465 41.1249 34.5432 41.7694C34.6213 42.7069 34.6603 42.7655 37.9807 46.0858L41.3205 49.4257L38.4689 52.2577C36.9064 53.8202 35.3635 55.4413 35.051 55.8515C34.3869 56.7304 34.3088 57.7851 34.7971 58.8007C35.2853 59.8359 38.215 62.5507 39.0939 62.7851C40.5002 63.1757 40.9494 62.9023 44.4455 59.3866C46.2228 57.6093 47.7463 56.164 47.8635 56.164C47.9807 56.164 49.5041 57.6093 51.2814 59.3866C54.7775 62.8827 55.2267 63.1757 56.6135 62.7851C57.0822 62.6679 57.8635 62.1015 58.7424 61.2812C60.7541 59.4062 61.2424 58.6444 61.2424 57.5312C61.2424 56.3398 60.8713 55.8515 57.258 52.2577L54.4064 49.4257L57.7463 46.0858C61.0666 42.7655 61.1057 42.7069 61.1838 41.7694C61.3205 40.4804 61.0471 39.9921 59.0549 38.0585C56.926 35.9882 56.1057 35.6757 54.7385 36.3593C54.3869 36.5351 52.7072 38.078 50.9885 39.7773L47.8439 42.8827L44.8361 39.8358C41.0666 36.0468 40.2072 35.5585 38.6838 36.3593ZM47.8635 46.5937C48.3322 46.5937 49.0353 45.9882 52.1603 42.8827L55.8908 39.1718L57.0432 40.3437L58.215 41.5155L54.5432 45.1874C51.2228 48.5077 50.8908 48.8984 50.8908 49.5038C50.8908 50.1288 51.2228 50.5194 54.5432 53.8593L58.1955 57.5312L57.0432 58.703L55.8908 59.8749L52.1603 56.164C49.0353 53.0585 48.3322 52.453 47.8635 52.453C47.3947 52.453 46.6916 53.0585 43.5666 56.164L39.8361 59.8749L38.6838 58.703L37.5119 57.5312L41.1838 53.8593C44.5236 50.5194 44.8361 50.1484 44.8361 49.5234C44.8361 48.8984 44.5236 48.5273 41.1838 45.1874L37.5119 41.5155L38.6838 40.3437L39.8361 39.1718L43.5666 42.8827C46.6916 45.9882 47.3947 46.5937 47.8635 46.5937Z" fill="#0E4190"/>
<path d="M8.91804 6.10548C8.70319 6.3008 8.44929 6.73048 8.39069 7.08204C8.29304 7.58986 8.37116 7.8047 8.76179 8.19533C9.93366 9.3672 11.7501 8.31251 11.2227 6.76954C10.8712 5.77345 9.73835 5.44142 8.91804 6.10548Z" fill="#0E4190"/>
<path d="M15.3828 5.90975C14.9727 6.066 14.543 7.10116 14.6797 7.6285C15.0899 9.26913 17.5703 8.9371 17.5703 7.23788C17.5703 6.1246 16.4961 5.46053 15.3828 5.90975Z" fill="#0E4190"/>
<path d="M21.4377 6.16406C20.5002 7.04297 21.1252 8.70312 22.3752 8.70312C23.1174 8.70312 23.9377 7.94141 23.9377 7.23828C23.9377 6.55469 23.1174 5.77344 22.4143 5.77344C22.1213 5.77344 21.6721 5.94922 21.4377 6.16406Z" fill="#0E4190"/>
</g>
<defs>
<clipPath id="clip0_3589_10981">
<rect width="100" height="100" fill="white" transform="translate(0.5 0.5)"/>
</clipPath>
</defs>
</svg>
