<svg width="24" height="24" viewBox="0 0 24 24" fill="none" xmlns="http://www.w3.org/2000/svg">
<g id="fluent-mdl2:video-360-generic" clip-path="url(#clip0_2253_2202)">
<path id="Vector" d="M12 0C13.2031 0 14.3672 0.171875 15.4922 0.515625C16.6172 0.859375 17.6602 1.35156 18.6211 1.99219C19.582 2.63281 20.4453 3.40234 21.2109 4.30078C21.9766 5.19922 22.5938 6.20703 23.0625 7.32422C23.3281 7.95703 23.5469 8.63672 23.7188 9.36328C23.8906 10.0898 23.9805 10.7969 23.9883 11.4844C23.9883 11.9531 23.9766 12.4062 23.9531 12.8438C23.9297 13.2812 23.8789 13.7109 23.8008 14.1328C23.7227 14.5547 23.6289 14.9727 23.5195 15.3867C23.4102 15.8008 23.2578 16.2305 23.0625 16.6758C22.5938 17.7852 21.9805 18.7891 21.2227 19.6875C20.4648 20.5859 19.6055 21.3555 18.6445 21.9961C17.6836 22.6367 16.6367 23.1289 15.5039 23.4727C14.3711 23.8164 13.2031 23.9922 12 24C10.7969 24 9.63281 23.8281 8.50781 23.4844C7.38281 23.1406 6.33594 22.6484 5.36719 22.0078C4.39844 21.3672 3.53516 20.5977 2.77734 19.6992C2.01953 18.8008 1.40625 17.793 0.9375 16.6758C0.75 16.2383 0.597656 15.8125 0.480469 15.3984C0.363281 14.9844 0.269531 14.5625 0.199219 14.1328C0.128906 13.7031 0.0820312 13.2734 0.0585938 12.8438C0.0351562 12.4141 0.0195312 11.9609 0.0117188 11.4844C0.0117188 10.7969 0.0976562 10.0898 0.269531 9.36328C0.441406 8.63672 0.664062 7.95703 0.9375 7.32422C1.40625 6.21484 2.01953 5.21094 2.77734 4.3125C3.53516 3.41406 4.39844 2.64453 5.36719 2.00391C6.33594 1.36328 7.38281 0.871094 8.50781 0.527344C9.63281 0.183594 10.7969 0.0078125 12 0ZM17.6016 8.10938C17.7109 8.75 17.7891 9.39453 17.8359 10.043C17.8828 10.6914 17.9062 11.3438 17.9062 12C17.9062 12.7812 17.8711 13.5586 17.8008 14.332C18.3867 14.1914 18.9648 14.0117 19.5352 13.793C20.1055 13.5742 20.6523 13.3008 21.1758 12.9727C21.2852 12.9023 21.4141 12.8086 21.5625 12.6914C21.7109 12.5742 21.8516 12.4453 21.9844 12.3047C22.1172 12.1641 22.2344 12.0195 22.3359 11.8711C22.4375 11.7227 22.4883 11.5742 22.4883 11.4258C22.4883 11.3398 22.4844 11.25 22.4766 11.1562C22.4688 11.0625 22.457 10.9766 22.4414 10.8984C22.3945 10.6641 22.2617 10.4375 22.043 10.2188C21.8242 10 21.5703 9.79297 21.2812 9.59766C20.9922 9.40234 20.7031 9.23828 20.4141 9.10547C20.125 8.97266 19.8789 8.85938 19.6758 8.76562C19.3398 8.63281 19 8.51172 18.6562 8.40234C18.3125 8.29297 17.9609 8.19531 17.6016 8.10938ZM21.7617 8.10938C21.4727 7.39062 21.1094 6.71484 20.6719 6.08203C20.2344 5.44922 19.7383 4.875 19.1836 4.35938C18.6289 3.84375 18.0234 3.38281 17.3672 2.97656C16.7109 2.57031 16.0117 2.25 15.2695 2.01562C15.7539 2.67188 16.1602 3.38672 16.4883 4.16016C16.8164 4.93359 17.0742 5.71484 17.2617 6.50391C18.0508 6.66797 18.8203 6.875 19.5703 7.125C20.3203 7.375 21.0508 7.70312 21.7617 8.10938ZM11.7539 1.5H11.5664C11.5039 1.5 11.4414 1.50781 11.3789 1.52344C11.332 1.53125 11.2539 1.5625 11.1445 1.61719C11.0352 1.67188 10.9609 1.71484 10.9219 1.74609C10.6953 1.87891 10.4844 2.04297 10.2891 2.23828C10.0938 2.43359 9.91406 2.64062 9.75 2.85938C9.58594 3.07812 9.42969 3.3125 9.28125 3.5625C9.13281 3.8125 9.00781 4.05078 8.90625 4.27734C8.75 4.59766 8.61328 4.92188 8.49609 5.25C8.37891 5.57812 8.26953 5.91406 8.16797 6.25781C8.80078 6.17188 9.4375 6.10938 10.0781 6.07031C10.7188 6.03125 11.3594 6.00781 12 6C12.6406 6 13.2812 6.01953 13.9219 6.05859C14.5625 6.09766 15.1992 6.16406 15.832 6.25781C15.7305 5.91406 15.6211 5.57812 15.5039 5.25C15.3867 4.92188 15.25 4.59766 15.0938 4.27734C14.9844 4.04297 14.8594 3.80469 14.7188 3.5625C14.5781 3.32031 14.4258 3.08984 14.2617 2.87109C14.0977 2.65234 13.9141 2.44141 13.7109 2.23828C13.5078 2.03516 13.2969 1.87109 13.0781 1.74609C13.0391 1.71484 12.9648 1.67188 12.8555 1.61719C12.7461 1.5625 12.668 1.53125 12.6211 1.52344C12.5586 1.50781 12.4961 1.5 12.4336 1.5C12.3711 1.5 12.3086 1.5 12.2461 1.5H11.7539ZM8.73047 2.01562C7.99609 2.25781 7.30078 2.57812 6.64453 2.97656C5.98828 3.375 5.37891 3.83203 4.81641 4.34766C4.25391 4.86328 3.75781 5.44141 3.32812 6.08203C2.89844 6.72266 2.53516 7.39844 2.23828 8.10938C2.94922 7.71094 3.67969 7.38672 4.42969 7.13672C5.17969 6.88672 5.94922 6.67578 6.73828 6.50391C6.92578 5.71484 7.18359 4.93359 7.51172 4.16016C7.83984 3.38672 8.24609 2.67188 8.73047 2.01562ZM1.69922 14.0273C1.87891 14.957 2.17969 15.8359 2.60156 16.6641C3.02344 17.4922 3.53906 18.2539 4.14844 18.9492C4.75781 19.6445 5.44922 20.25 6.22266 20.7656C6.99609 21.2812 7.83594 21.6875 8.74219 21.9844C8.28906 21.3906 7.91406 20.7461 7.61719 20.0508C7.32031 19.3555 7.06641 18.6484 6.85547 17.9297C7.08984 17.9766 7.32422 18.0156 7.55859 18.0469C7.79297 18.0781 8.03516 18.1133 8.28516 18.1523C8.39453 18.4961 8.52734 18.8555 8.68359 19.2305C8.83984 19.6055 9.01953 19.9766 9.22266 20.3438C9.42578 20.7109 9.65625 21.0508 9.91406 21.3633C10.1719 21.6758 10.4531 21.9414 10.7578 22.1602C10.7891 22.1836 10.832 22.2109 10.8867 22.2422C10.9414 22.2734 11 22.3047 11.0625 22.3359C11.125 22.3672 11.1836 22.3984 11.2383 22.4297C11.293 22.4609 11.3398 22.4805 11.3789 22.4883C11.4258 22.4961 11.4727 22.5 11.5195 22.5C11.5664 22.5 11.6211 22.5 11.6836 22.5H12.4336C12.4961 22.5 12.5586 22.4922 12.6211 22.4766C12.6836 22.4609 12.7695 22.4258 12.8789 22.3711C12.9883 22.3164 13.0742 22.2695 13.1367 22.2305C13.457 22.0273 13.75 21.7695 14.0156 21.457C14.2812 21.1445 14.5195 20.8008 14.7305 20.4258C14.9414 20.0508 15.1289 19.6758 15.293 19.3008C15.457 18.9258 15.5938 18.5586 15.7031 18.1992C16.0234 17.2148 16.25 16.1953 16.3828 15.1406C16.5156 14.0859 16.5859 13.0391 16.5938 12C16.5938 11.2969 16.5664 10.5977 16.5117 9.90234C16.457 9.20703 16.3594 8.51562 16.2188 7.82812C15.5156 7.71875 14.8164 7.63672 14.1211 7.58203C13.4258 7.52734 12.7188 7.5 12 7.5C11.2891 7.5 10.5859 7.52734 9.89062 7.58203C9.19531 7.63672 8.49219 7.71875 7.78125 7.82812C7.64844 8.51562 7.55469 9.20703 7.5 9.90234C7.44531 10.5977 7.41406 11.2969 7.40625 12V12.3398C7.40625 12.4492 7.41406 12.5664 7.42969 12.6914C7.20312 12.6523 6.98047 12.6055 6.76172 12.5508C6.54297 12.4961 6.32422 12.4336 6.10547 12.3633C6.09766 12.3008 6.09375 12.2422 6.09375 12.1875C6.09375 12.1328 6.09375 12.0703 6.09375 12C6.09375 11.3438 6.11719 10.6914 6.16406 10.043C6.21094 9.39453 6.28906 8.75 6.39844 8.10938C6.04688 8.19531 5.69922 8.29297 5.35547 8.40234C5.01172 8.51172 4.66797 8.63281 4.32422 8.76562C4.12109 8.85156 3.875 8.96484 3.58594 9.10547C3.29688 9.24609 3.00781 9.41016 2.71875 9.59766C2.42969 9.78516 2.17969 9.98828 1.96875 10.207C1.75781 10.4258 1.62109 10.6562 1.55859 10.8984C1.54297 10.9766 1.53125 11.0625 1.52344 11.1562C1.51562 11.25 1.51172 11.3398 1.51172 11.4258C1.51172 11.4648 1.52734 11.5273 1.55859 11.6133C1.58984 11.6992 1.61719 11.7617 1.64062 11.8008C1.75781 12.0273 1.92188 12.2383 2.13281 12.4336C2.34375 12.6289 2.57422 12.8086 2.82422 12.9727C3.07422 13.1367 3.32812 13.2812 3.58594 13.4062C3.84375 13.5312 4.08984 13.6406 4.32422 13.7344C4.90234 13.9688 5.51172 14.1641 6.15234 14.3203C6.79297 14.4766 7.44141 14.6094 8.09766 14.7188C8.75391 14.8281 9.41406 14.8984 10.0781 14.9297C10.7422 14.9609 11.3828 14.9844 12 15H12.4336L10.7227 13.2773L11.7773 12.2227L15.3047 15.75L11.7773 19.2773L10.7227 18.2227L12.4453 16.5C11.875 16.5 11.2812 16.4883 10.6641 16.4648C10.0469 16.4414 9.42188 16.3906 8.78906 16.3125C8.15625 16.2344 7.51562 16.1406 6.86719 16.0312C6.21875 15.9219 5.59766 15.7695 5.00391 15.5742C4.41016 15.3789 3.82812 15.1602 3.25781 14.918C2.6875 14.6758 2.16797 14.3789 1.69922 14.0273ZM15.2695 21.9844C16.168 21.6875 17.0039 21.2812 17.7773 20.7656C18.5508 20.25 19.2461 19.6445 19.8633 18.9492C20.4805 18.2539 20.9922 17.4922 21.3984 16.6641C21.8047 15.8359 22.1055 14.9531 22.3008 14.0156C21.9648 14.2656 21.6055 14.4883 21.2227 14.6836C20.8398 14.8789 20.4492 15.0547 20.0508 15.2109C19.6523 15.3672 19.2422 15.5039 18.8203 15.6211C18.3984 15.7383 17.9883 15.8398 17.5898 15.9258C17.5039 16.4414 17.3945 16.9688 17.2617 17.5078C17.1289 18.0469 16.9688 18.5742 16.7812 19.0898C16.5938 19.6055 16.375 20.1133 16.125 20.6133C15.875 21.1133 15.5898 21.5703 15.2695 21.9844Z" fill="#0A316C"/>
</g>
<defs>
<clipPath id="clip0_2253_2202">
<rect width="24" height="24" fill="white"/>
</clipPath>
</defs>
</svg>
