<svg width="24" height="25" viewBox="0 0 24 25" fill="none" xmlns="http://www.w3.org/2000/svg">
<g id="ion:bus-outline">
<path id="Vector" d="M18.75 6.02045H5.25C4.42157 6.02045 3.75 6.69202 3.75 7.52045V13.5204C3.75 14.3489 4.42157 15.0204 5.25 15.0204H18.75C19.5784 15.0204 20.25 14.3489 20.25 13.5204V7.52045C20.25 6.69202 19.5784 6.02045 18.75 6.02045Z" stroke="#344054" stroke-width="1.5" stroke-linecap="round" stroke-linejoin="round"/>
<path id="Vector_2" d="M18.75 15.0204H5.25C4.42157 15.0204 3.75 15.692 3.75 16.5204V19.5204C3.75 20.3489 4.42157 21.0204 5.25 21.0204H18.75C19.5784 21.0204 20.25 20.3489 20.25 19.5204V16.5204C20.25 15.692 19.5784 15.0204 18.75 15.0204Z" stroke="#344054" stroke-width="1.5" stroke-linecap="round" stroke-linejoin="round"/>
<path id="Vector_3" d="M18.75 6.02045H5.25C4.85252 6.01933 4.47163 5.86094 4.19057 5.57988C3.90951 5.29881 3.75111 4.91793 3.75 4.52045C3.75111 4.12296 3.90951 3.74208 4.19057 3.46102C4.47163 3.17995 4.85252 3.02156 5.25 3.02045H18.75C19.1475 3.02156 19.5284 3.17995 19.8094 3.46102C20.0905 3.74208 20.2489 4.12296 20.25 4.52045C20.2489 4.91793 20.0905 5.29881 19.8094 5.57988C19.5284 5.86094 19.1475 6.01933 18.75 6.02045ZM6.75 21.0204V22.0517C6.75 22.176 6.70061 22.2952 6.61271 22.3832C6.5248 22.4711 6.40557 22.5204 6.28125 22.5204H4.96875C4.84443 22.5204 4.7252 22.4711 4.63729 22.3832C4.54939 22.2952 4.5 22.176 4.5 22.0517V21.0204H6.75ZM19.5 21.0204V22.0517C19.5 22.176 19.4506 22.2952 19.3627 22.3832C19.2748 22.4711 19.1556 22.5204 19.0312 22.5204H17.7188C17.5944 22.5204 17.4752 22.4711 17.3873 22.3832C17.2994 22.2952 17.25 22.176 17.25 22.0517V21.0204H19.5Z" stroke="#344054" stroke-width="1.5" stroke-linecap="round" stroke-linejoin="round"/>
<path id="Vector_4" d="M17.25 18.7704C17.6642 18.7704 18 18.4347 18 18.0204C18 17.6062 17.6642 17.2704 17.25 17.2704C16.8358 17.2704 16.5 17.6062 16.5 18.0204C16.5 18.4347 16.8358 18.7704 17.25 18.7704Z" stroke="#344054" stroke-width="1.5" stroke-linejoin="round"/>
<path id="Vector_5" d="M6.75 18.7704C7.16421 18.7704 7.5 18.4347 7.5 18.0204C7.5 17.6062 7.16421 17.2704 6.75 17.2704C6.33579 17.2704 6 17.6062 6 18.0204C6 18.4347 6.33579 18.7704 6.75 18.7704Z" stroke="#344054" stroke-width="1.5" stroke-linejoin="round"/>
<path id="Vector_6" d="M12 6.02045V15.0204M3.75 4.52045V18.0204M20.25 4.52045V18.0204" stroke="#344054" stroke-width="1.5" stroke-linecap="round" stroke-linejoin="round"/>
</g>
</svg>
