<svg width="25" height="24" viewBox="0 0 25 24" fill="none" xmlns="http://www.w3.org/2000/svg">
<path d="M15.8719 10L20.4249 7.724C20.5774 7.64784 20.7467 7.61188 20.9169 7.61955C21.0872 7.62721 21.2526 7.67825 21.3976 7.76781C21.5425 7.85736 21.6622 7.98248 21.7452 8.13127C21.8282 8.28007 21.8719 8.44761 21.8719 8.618V15.382C21.8719 15.5524 21.8282 15.7199 21.7452 15.8687C21.6622 16.0175 21.5425 16.1426 21.3976 16.2322C21.2526 16.3218 21.0872 16.3728 20.9169 16.3805C20.7467 16.3881 20.5774 16.3522 20.4249 16.276L15.8719 14V10ZM3.87195 8C3.87195 7.46957 4.08266 6.96086 4.45773 6.58579C4.83281 6.21071 5.34152 6 5.87195 6H13.8719C14.4024 6 14.9111 6.21071 15.2862 6.58579C15.6612 6.96086 15.8719 7.46957 15.8719 8V16C15.8719 16.5304 15.6612 17.0391 15.2862 17.4142C14.9111 17.7893 14.4024 18 13.8719 18H5.87195C5.34152 18 4.83281 17.7893 4.45773 17.4142C4.08266 17.0391 3.87195 16.5304 3.87195 16V8Z" stroke="#0A316C" stroke-width="2" stroke-linecap="round" stroke-linejoin="round"/>
</svg>
