<svg width="19" height="19" viewBox="0 0 19 19" fill="none" xmlns="http://www.w3.org/2000/svg">
<g id="mdi:bedroom-outline">
<path id="Vector" d="M5.46226 2.93771C5.01226 2.93771 4.56226 3.12671 4.21126 3.47771C3.86026 3.82871 3.66226 4.24271 3.66226 4.73771V7.43771C3.18526 7.43771 2.76226 7.60871 2.39326 7.96871C2.02426 8.32871 1.86226 8.76071 1.86226 9.23771V13.7377H3.06826L3.66226 15.5377H4.56226L5.18326 13.7377H12.9863L13.5623 15.5377H14.4623L15.0563 13.7377H16.2623V9.23771C16.2623 8.76071 16.0913 8.33771 15.7313 7.96871C15.3713 7.59971 14.9393 7.43771 14.4623 7.43771V4.73771C14.4623 4.24271 14.2823 3.83771 13.9133 3.47771C13.5443 3.11771 13.1123 2.93771 12.6623 2.93771M5.46226 4.73771H8.16226V7.43771H5.46226M9.96226 4.73771H12.6623V7.43771H9.96226M3.66226 9.23771H14.4623V11.9377H3.66226V9.23771Z" fill="#344054"/>
</g>
</svg>
