<svg width="25" height="25" viewBox="0 0 25 25" fill="none" xmlns="http://www.w3.org/2000/svg">
<g id="streamline:travel-wafinder-sink-wash-clean-toilet-bathroom-water" clip-path="url(#clip0_1146_3265)">
<path id="Vector" d="M13.7291 5.05616C13.7291 4.14684 13.3678 3.27477 12.7249 2.63179C12.0819 1.98881 11.2098 1.62759 10.3005 1.62759C9.39118 1.62759 8.51911 1.98881 7.87613 2.63179C7.23315 3.27477 6.87192 4.14684 6.87192 5.05616V15.3419M13.7291 8.48473V10.199M1.72906 15.3419H24.0148V18.7704C24.0148 20.1344 23.4729 21.4425 22.5085 22.407C21.544 23.3715 20.2359 23.9133 18.8719 23.9133H6.87192C5.50795 23.9133 4.19985 23.3715 3.23537 22.407C2.2709 21.4425 1.72906 20.1344 1.72906 18.7704V15.3419Z" stroke="#344054" stroke-width="1.5" stroke-linecap="round" stroke-linejoin="round"/>
</g>
<defs>
<clipPath id="clip0_1146_3265">
<rect width="24" height="24" fill="white" transform="translate(0.871948 0.770447)"/>
</clipPath>
</defs>
</svg>
