<svg width="25" height="25" viewBox="0 0 25 25" fill="none" xmlns="http://www.w3.org/2000/svg">
<g id="ph:elevator">
<path id="Vector" d="M20.3719 3.77045H5.37195C4.97412 3.77045 4.59259 3.92848 4.31129 4.20979C4.02998 4.49109 3.87195 4.87262 3.87195 5.27045V20.2704C3.87195 20.6683 4.02998 21.0498 4.31129 21.3311C4.59259 21.6124 4.97412 21.7704 5.37195 21.7704H20.3719C20.7698 21.7704 21.1513 21.6124 21.4326 21.3311C21.7139 21.0498 21.8719 20.6683 21.8719 20.2704V5.27045C21.8719 4.87262 21.7139 4.49109 21.4326 4.20979C21.1513 3.92848 20.7698 3.77045 20.3719 3.77045ZM17.3719 11.2704V20.2704H13.6219V11.2704H17.3719ZM12.1219 20.2704H8.37195V11.2704H12.1219V20.2704ZM20.3719 20.2704H18.8719V10.5204C18.8719 10.3215 18.7929 10.1308 18.6523 9.99012C18.5116 9.84946 18.3209 9.77045 18.1219 9.77045H7.62195C7.42304 9.77045 7.23227 9.84946 7.09162 9.99012C6.95097 10.1308 6.87195 10.3215 6.87195 10.5204V20.2704H5.37195V5.27045H20.3719V20.2704ZM15.1219 7.52045C15.1219 7.71936 15.0429 7.91012 14.9023 8.05078C14.7616 8.19143 14.5709 8.27045 14.3719 8.27045H11.3719C11.173 8.27045 10.9823 8.19143 10.8416 8.05078C10.701 7.91012 10.6219 7.71936 10.6219 7.52045C10.6219 7.32153 10.701 7.13077 10.8416 6.99012C10.9823 6.84946 11.173 6.77045 11.3719 6.77045H14.3719C14.5709 6.77045 14.7616 6.84946 14.9023 6.99012C15.0429 7.13077 15.1219 7.32153 15.1219 7.52045Z" fill="#344054"/>
</g>
</svg>
