<svg width="25" height="25" viewBox="0 0 25 25" fill="none" xmlns="http://www.w3.org/2000/svg">
<g id="streamline:food-kitchenware-serving-dome-cook-tool-dome-kitchen-serving-paltter-dish-tools-food" clip-path="url(#clip0_1146_3278)">
<path id="Vector" d="M12.8719 5.9133C15.8272 5.9133 18.6614 7.08728 20.7511 9.17697C22.8408 11.2667 24.0148 14.1009 24.0148 17.0562C24.0148 17.5108 23.8342 17.9469 23.5127 18.2683C23.1912 18.5898 22.7551 18.7704 22.3005 18.7704H3.44335C2.98869 18.7704 2.55266 18.5898 2.23117 18.2683C1.90968 17.9469 1.72906 17.5108 1.72906 17.0562C1.72906 14.1009 2.90304 11.2667 4.99273 9.17697C7.08242 7.08728 9.91665 5.9133 12.8719 5.9133ZM12.8719 5.9133V3.34188M1.72906 22.199H24.0148" stroke="#344054" stroke-width="1.5" stroke-linecap="round" stroke-linejoin="round"/>
</g>
<defs>
<clipPath id="clip0_1146_3278">
<rect width="24" height="24" fill="white" transform="translate(0.871948 0.770447)"/>
</clipPath>
</defs>
</svg>
