<svg width="20" height="20" viewBox="0 0 20 20" fill="none" xmlns="http://www.w3.org/2000/svg">
<path d="M19.4271 10.0105C19.4427 15.1927 15.2188 19.4532 10.0625 19.4636C4.78648 19.474 0.557311 15.2813 0.546894 10.0261C0.536478 4.83858 4.75523 0.583373 9.91148 0.572956C15.1875 0.56254 19.4115 4.75525 19.4271 10.0105ZM9.96877 18.9219C14.9063 18.9219 18.875 14.9532 18.8802 10.0105C18.8854 5.099 14.9011 1.11983 9.97398 1.11462C5.04689 1.10942 1.07814 5.10421 1.07814 10.0625C1.08335 14.9375 5.07814 18.9219 9.96877 18.9219Z" fill="black" stroke="#344054" stroke-width="0.5"/>
<path d="M9.96879 18.9219C5.07816 18.9219 1.08337 14.9375 1.08337 10.0625C1.08337 5.099 5.05212 1.10942 9.97921 1.11463C14.9063 1.11984 18.8907 5.099 18.8855 10.0105C18.8802 14.9532 14.9063 18.9219 9.96879 18.9219ZM9.98442 17.5782C14.1823 17.5573 17.5625 14.1563 17.5417 9.97921C17.5157 5.81255 14.1094 2.43234 9.95317 2.45317C5.78129 2.474 2.40629 5.88025 2.42712 10.0573C2.44275 14.2032 5.85942 17.599 9.98442 17.5782Z" stroke="#344054" stroke-width="0.5"/>
<path d="M9.98435 17.5781C5.85935 17.5989 2.44268 14.1979 2.42706 10.0625C2.41143 5.88016 5.78122 2.47391 9.9531 2.45829C14.1093 2.43745 17.5156 5.81766 17.5416 9.98433C17.5677 14.1562 14.1823 17.5625 9.98435 17.5781ZM17 10.0364C17.0052 6.151 13.8698 3.00516 9.97914 2.99995C6.13018 2.99474 2.96872 6.14579 2.96872 10.0104C2.96351 13.8854 6.10935 17.0364 9.97914 17.0416C13.8385 17.0416 16.9948 13.8958 17 10.0364Z" fill="black" stroke="#344054" stroke-width="0.5"/>
<path d="M17 10.0365C16.9948 13.8907 13.8385 17.0417 9.97917 17.0365C6.10417 17.0313 2.96355 13.8802 2.96876 10.0052C2.97396 6.14586 6.13021 2.98961 9.97917 2.99482C13.8698 3.00524 17.0052 6.15107 17 10.0365ZM6.70834 14.599C6.69271 14.875 6.90105 14.9948 7.15626 14.8594C8.04167 14.3959 8.92709 13.9323 9.8073 13.4636C9.9375 13.3907 10.0365 13.4011 10.1615 13.4688C11.0417 13.9375 11.9271 14.4063 12.8177 14.8646C12.9063 14.9115 13.0625 14.9219 13.1354 14.8698C13.2083 14.8177 13.25 14.6667 13.2344 14.5677C13.0781 13.5677 12.9115 12.5677 12.7344 11.5729C12.7083 11.4323 12.75 11.3594 12.8385 11.2709C13.5573 10.5782 14.276 9.88024 14.9948 9.18232C15.0938 9.08336 15.1875 8.96878 15.1094 8.84378C15.0521 8.75524 14.9271 8.6719 14.8229 8.65628C13.8542 8.50524 12.8854 8.36461 11.9115 8.22919C11.7344 8.20315 11.6302 8.14065 11.5521 7.97398C11.1302 7.08857 10.6875 6.21357 10.2552 5.33336C10.1615 5.14065 10.026 5.05732 9.89584 5.13544C9.8073 5.18753 9.72917 5.28128 9.68751 5.37503C9.25001 6.26565 8.81771 7.16148 8.375 8.0469C8.33855 8.11982 8.25001 8.20315 8.17188 8.21878C7.16667 8.37503 6.15626 8.51565 5.14584 8.66149C5.01042 8.68232 4.88542 8.71357 4.83855 8.8594C4.79167 9.00523 4.8698 9.10419 4.96876 9.20315C5.67709 9.89065 6.38021 10.5834 7.09376 11.2657C7.20313 11.375 7.23959 11.474 7.20834 11.6198C7.13021 12.0365 7.06251 12.4532 6.9948 12.8698C6.90105 13.4479 6.8073 14.0313 6.70834 14.599Z" stroke="#344054" stroke-width="0.5"/>
<path d="M6.70826 14.599C6.80201 14.0261 6.90097 13.4428 6.99993 12.8646C7.06764 12.448 7.13534 12.0313 7.21347 11.6146C7.23951 11.4636 7.20826 11.3646 7.09889 11.2605C6.38534 10.5782 5.68222 9.88548 4.97389 9.19798C4.87493 9.10423 4.7968 9.00006 4.84368 8.85423C4.89055 8.7084 5.01555 8.67715 5.15097 8.65631C6.16139 8.51048 7.16659 8.36986 8.17701 8.21361C8.25514 8.20319 8.34368 8.11985 8.38014 8.04173C8.82284 7.1511 9.24993 6.25527 9.69264 5.36985C9.73951 5.27611 9.81764 5.18235 9.90097 5.13027C10.0364 5.05215 10.1666 5.13548 10.2603 5.32819C10.6926 6.2084 11.1353 7.0834 11.5572 7.96881C11.6353 8.13548 11.7395 8.20319 11.9166 8.22402C12.8853 8.35944 13.8593 8.50006 14.8281 8.6511C14.9322 8.66673 15.0572 8.75006 15.1145 8.8386C15.1926 8.9636 15.0989 9.0834 14.9999 9.17715C14.2812 9.87506 13.5624 10.573 12.8437 11.2657C12.7551 11.3542 12.7135 11.4271 12.7395 11.5678C12.9166 12.5626 13.0833 13.5626 13.2395 14.5626C13.2551 14.6615 13.2083 14.8126 13.1406 14.8646C13.0676 14.9167 12.9114 14.9063 12.8228 14.8594C11.9322 14.4011 11.052 13.9376 10.1666 13.4636C10.0416 13.3959 9.94264 13.3855 9.81243 13.4584C8.93222 13.9324 8.0468 14.3959 7.16139 14.8542C6.90618 14.9949 6.69264 14.8751 6.70826 14.599ZM12.6197 14.1563C12.6197 14.1199 12.6249 14.099 12.6249 14.0782C12.4791 13.2188 12.3333 12.3646 12.177 11.5053C12.1406 11.3021 12.177 11.1511 12.3333 11.0001C12.9322 10.4324 13.5208 9.84902 14.1093 9.2761C14.1562 9.23444 14.1978 9.18756 14.2499 9.12506C14.1978 9.10944 14.1718 9.09381 14.1406 9.0886C13.2968 8.96881 12.4583 8.84381 11.6145 8.72923C11.401 8.69798 11.2708 8.60944 11.1718 8.41152C10.8228 7.67194 10.4531 6.94277 10.0885 6.2084C10.0572 6.1459 10.0208 6.0886 9.97909 6.01048C9.93222 6.09902 9.89576 6.15631 9.86972 6.21881C9.50514 6.95319 9.14055 7.68236 8.78639 8.42194C8.69264 8.61465 8.56764 8.70319 8.3593 8.72923C7.69784 8.81777 7.03639 8.91673 6.37493 9.01048C6.16139 9.04173 5.94784 9.07819 5.7343 9.10944C5.72389 9.13027 5.71347 9.1511 5.70826 9.17194C5.76555 9.2136 5.82805 9.25006 5.88014 9.29694C6.47389 9.86985 7.06243 10.448 7.66139 11.0209C7.78639 11.1407 7.83326 11.2709 7.80201 11.4376C7.72909 11.8438 7.66139 12.2553 7.58847 12.6667C7.50514 13.1563 7.4218 13.6459 7.33326 14.1615C7.4218 14.1199 7.4843 14.0886 7.5468 14.0574C8.27597 13.6719 9.01034 13.2969 9.7343 12.9011C9.91659 12.8021 10.0624 12.8021 10.2395 12.9011C10.5364 13.073 10.8489 13.224 11.151 13.3855C11.6406 13.6407 12.1249 13.8959 12.6197 14.1563Z" fill="black" stroke="#344054" stroke-width="0.5"/>
<path d="M12.6198 14.1563C12.125 13.8959 11.6355 13.6406 11.1511 13.3854C10.849 13.224 10.5365 13.0729 10.2396 12.9011C10.0625 12.7969 9.91671 12.8021 9.73441 12.9011C9.01046 13.2917 8.27608 13.6719 7.54691 14.0573C7.48441 14.0886 7.42192 14.1198 7.33337 14.1615C7.42192 13.6511 7.50525 13.1615 7.58858 12.6667C7.65629 12.2552 7.72921 11.849 7.80212 11.4375C7.83337 11.2709 7.7865 11.1406 7.6615 11.0209C7.06254 10.4479 6.474 9.86981 5.88025 9.2969C5.82817 9.25002 5.76567 9.21356 5.70837 9.1719C5.71879 9.15106 5.72921 9.13023 5.73442 9.1094C5.94796 9.07815 6.1615 9.04169 6.37504 9.01044C7.0365 8.91669 7.69796 8.81773 8.35942 8.72919C8.56775 8.70315 8.69275 8.6146 8.7865 8.4219C9.13546 7.68231 9.50525 6.95315 9.86983 6.21877C9.90108 6.15627 9.93754 6.09377 9.97921 6.01044C10.0261 6.09377 10.0625 6.15106 10.0886 6.20835C10.4532 6.94273 10.8177 7.6719 11.1719 8.41148C11.2657 8.6146 11.3959 8.70315 11.6146 8.72919C12.4584 8.84377 13.2969 8.96877 14.1407 9.08856C14.1719 9.09377 14.198 9.1094 14.25 9.12502C14.1927 9.18231 14.1511 9.22919 14.1094 9.27606C13.5209 9.85419 12.9323 10.4323 12.3334 11C12.1771 11.1511 12.1407 11.3021 12.1771 11.5052C12.3334 12.3594 12.474 13.2188 12.625 14.0781C12.6302 14.0938 12.625 14.1146 12.6198 14.1563Z" stroke="#344054" stroke-width="0.5"/>
</svg>
