<svg width="19" height="19" viewBox="0 0 19 19" fill="none" xmlns="http://www.w3.org/2000/svg">
<g id="vuesax/bold/location">
<path id="Vector" d="M15.5273 6.36863C14.7398 2.90363 11.7173 1.34363 9.06225 1.34363C9.06225 1.34363 9.06225 1.34363 9.05475 1.34363C6.40725 1.34363 3.37725 2.89613 2.58975 6.36113C1.71225 10.2311 4.08225 13.5086 6.22725 15.5711C7.02225 16.3361 8.04225 16.7186 9.06225 16.7186C10.0823 16.7186 11.1023 16.3361 11.8898 15.5711C14.0348 13.5086 16.4048 10.2386 15.5273 6.36863ZM9.06225 10.1261C7.75725 10.1261 6.69975 9.06863 6.69975 7.76363C6.69975 6.45863 7.75725 5.40113 9.06225 5.40113C10.3673 5.40113 11.4248 6.45863 11.4248 7.76363C11.4248 9.06863 10.3673 10.1261 9.06225 10.1261Z" fill="#4C4DDC"/>
</g>
</svg>
