<svg width="25" height="25" viewBox="0 0 25 25" fill="none" xmlns="http://www.w3.org/2000/svg">
<g id="mdi:living-room-outline" clip-path="url(#clip0_1146_3261)">
<path id="Vector" d="M21.8719 9.77045V7.77045C21.8719 6.12045 20.5219 4.77045 18.8719 4.77045H14.8719C14.1019 4.77045 13.4019 5.07045 12.8719 5.55045C12.3419 5.07045 11.6419 4.77045 10.8719 4.77045H6.87195C5.22195 4.77045 3.87195 6.12045 3.87195 7.77045V9.77045C2.22195 9.77045 0.871948 11.1204 0.871948 12.7704V17.7704C0.871948 19.4204 2.22195 20.7704 3.87195 20.7704V22.7704H5.87195V20.7704H19.8719V22.7704H21.8719V20.7704C23.5219 20.7704 24.8719 19.4204 24.8719 17.7704V12.7704C24.8719 11.1204 23.5219 9.77045 21.8719 9.77045ZM14.8719 6.77045H18.8719C19.4219 6.77045 19.8719 7.22045 19.8719 7.77045V10.5504C19.2619 11.1004 18.8719 11.8904 18.8719 12.7704V14.7704H13.8719V7.77045C13.8719 7.22045 14.3219 6.77045 14.8719 6.77045ZM5.87195 7.77045C5.87195 7.22045 6.32195 6.77045 6.87195 6.77045H10.8719C11.4219 6.77045 11.8719 7.22045 11.8719 7.77045V14.7704H6.87195V12.7704C6.87195 11.8904 6.48195 11.1004 5.87195 10.5504V7.77045ZM22.8719 17.7704C22.8719 18.3204 22.4219 18.7704 21.8719 18.7704H3.87195C3.32195 18.7704 2.87195 18.3204 2.87195 17.7704V12.7704C2.87195 12.2204 3.32195 11.7704 3.87195 11.7704C4.42195 11.7704 4.87195 12.2204 4.87195 12.7704V16.7704H20.8719V12.7704C20.8719 12.2204 21.3219 11.7704 21.8719 11.7704C22.4219 11.7704 22.8719 12.2204 22.8719 12.7704V17.7704Z" fill="#344054"/>
</g>
<defs>
<clipPath id="clip0_1146_3261">
<rect width="24" height="24" fill="white" transform="translate(0.871948 0.770447)"/>
</clipPath>
</defs>
</svg>
