<svg width="48" height="48" viewBox="0 0 48 48" fill="none" xmlns="http://www.w3.org/2000/svg">
<g id="add-image 1">
<path id="Vector" fill-rule="evenodd" clip-rule="evenodd" d="M12.0001 5.5C8.41026 5.5 5.50012 8.41014 5.50012 12V27.2316L10.7546 31.0148C13.2363 32.8016 16.6278 32.617 18.9008 30.5714L27.0924 23.1988C30.4146 20.209 35.3714 19.939 38.9986 22.5506L42.5002 25.0716V20C42.5002 19.1716 43.1716 18.5 44.0002 18.5C44.8286 18.5 45.5002 19.1716 45.5002 20V27.983V28.0196V36C45.5002 41.2468 41.2468 45.5 36.0002 45.5H12.0001C6.7534 45.5 2.50012 41.2468 2.50012 36V28.017C2.49996 28.0048 2.49996 27.9926 2.50012 27.9804V12C2.50012 6.7533 6.7534 2.5 12.0001 2.5H28.0002C28.8286 2.5 29.5002 3.17158 29.5002 4C29.5002 4.82842 28.8286 5.5 28.0002 5.5H12.0001ZM5.50012 30.9284V36C5.50012 39.5898 8.41026 42.5 12.0001 42.5H36.0002C39.59 42.5 42.5002 39.5898 42.5002 36V28.7684L37.2456 24.9852C34.764 23.1984 31.3724 23.383 29.0994 25.4286L20.9078 32.8012C17.5857 35.791 12.6287 36.061 9.00166 33.4494L5.50012 30.9284ZM38.0002 2.5C38.8286 2.5 39.5002 3.17158 39.5002 4V8.5H44.0002C44.8286 8.5 45.5002 9.17158 45.5002 10C45.5002 10.8284 44.8286 11.5 44.0002 11.5H39.5002V16C39.5002 16.8284 38.8286 17.5 38.0002 17.5C37.1716 17.5 36.5002 16.8284 36.5002 16V11.5H32.0002C31.1716 11.5 30.5002 10.8284 30.5002 10C30.5002 9.17158 31.1716 8.5 32.0002 8.5H36.5002V4C36.5002 3.17158 37.1716 2.5 38.0002 2.5ZM17.0001 13.5C15.0671 13.5 13.5001 15.067 13.5001 17C13.5001 18.933 15.0671 20.5 17.0001 20.5C18.9331 20.5 20.5002 18.933 20.5002 17C20.5002 15.067 18.9331 13.5 17.0001 13.5ZM10.5001 17C10.5001 13.4101 13.4103 10.5 17.0001 10.5C20.59 10.5 23.5002 13.4101 23.5002 17C23.5002 20.5898 20.59 23.5 17.0001 23.5C13.4103 23.5 10.5001 20.5898 10.5001 17Z" fill="#1151B4"/>
</g>
</svg>
