<svg width="16" height="18" viewBox="0 0 16 18" fill="none" xmlns="http://www.w3.org/2000/svg">
    <path d="M3 17.3307C2.30556 17.3307 1.71528 17.0877 1.22917 16.6016C0.743056 16.1155 0.5 15.5252 0.5 14.8307V12.3307H3V0.664062L4.25 1.91406L5.5 0.664062L6.75 1.91406L8 0.664062L9.25 1.91406L10.5 0.664062L11.75 1.91406L13 0.664062L14.25 1.91406L15.5 0.664062V14.8307C15.5 15.5252 15.2569 16.1155 14.7708 16.6016C14.2847 17.0877 13.6944 17.3307 13 17.3307H3ZM13 15.6641C13.2361 15.6641 13.434 15.5842 13.5938 15.4245C13.7535 15.2648 13.8333 15.0668 13.8333 14.8307V3.16406H4.66667V12.3307H12.1667V14.8307C12.1667 15.0668 12.2465 15.2648 12.4062 15.4245C12.566 15.5842 12.7639 15.6641 13 15.6641ZM5.5 6.4974V4.83073H10.5V6.4974H5.5ZM5.5 8.9974V7.33073H10.5V8.9974H5.5ZM12.1667 6.4974C11.9306 6.4974 11.7326 6.41753 11.5729 6.25781C11.4132 6.09809 11.3333 5.90017 11.3333 5.66406C11.3333 5.42795 11.4132 5.23003 11.5729 5.07031C11.7326 4.91059 11.9306 4.83073 12.1667 4.83073C12.4028 4.83073 12.6007 4.91059 12.7604 5.07031C12.9201 5.23003 13 5.42795 13 5.66406C13 5.90017 12.9201 6.09809 12.7604 6.25781C12.6007 6.41753 12.4028 6.4974 12.1667 6.4974ZM12.1667 8.9974C11.9306 8.9974 11.7326 8.91753 11.5729 8.75781C11.4132 8.59809 11.3333 8.40017 11.3333 8.16406C11.3333 7.92795 11.4132 7.73003 11.5729 7.57031C11.7326 7.41059 11.9306 7.33073 12.1667 7.33073C12.4028 7.33073 12.6007 7.41059 12.7604 7.57031C12.9201 7.73003 13 7.92795 13 8.16406C13 8.40017 12.9201 8.59809 12.7604 8.75781C12.6007 8.91753 12.4028 8.9974 12.1667 8.9974Z" fill="#1151B3"/>
</svg>
