<svg width="16" height="16" viewBox="0 0 16 16" fill="none" xmlns="http://www.w3.org/2000/svg">
<g id="mdi:camera-outline">
<path id="Vector" d="M13.3334 2.66659H11.22L10 1.33325H6.00004L4.78004 2.66659H2.66671C2.31309 2.66659 1.97395 2.80706 1.7239 3.05711C1.47385 3.30716 1.33337 3.6463 1.33337 3.99992V11.9999C1.33337 12.3535 1.47385 12.6927 1.7239 12.9427C1.97395 13.1928 2.31309 13.3333 2.66671 13.3333H13.3334C13.687 13.3333 14.0261 13.1928 14.2762 12.9427C14.5262 12.6927 14.6667 12.3535 14.6667 11.9999V3.99992C14.6667 3.6463 14.5262 3.30716 14.2762 3.05711C14.0261 2.80706 13.687 2.66659 13.3334 2.66659ZM13.3334 11.9999H2.66671V3.99992H5.36671L6.58671 2.66659H9.41337L10.6334 3.99992H13.3334V11.9999ZM8.00004 4.66659C7.11599 4.66659 6.26814 5.01777 5.64302 5.6429C5.0179 6.26802 4.66671 7.11586 4.66671 7.99992C4.66671 8.88397 5.0179 9.73182 5.64302 10.3569C6.26814 10.9821 7.11599 11.3333 8.00004 11.3333C8.8841 11.3333 9.73194 10.9821 10.3571 10.3569C10.9822 9.73182 11.3334 8.88397 11.3334 7.99992C11.3334 7.11586 10.9822 6.26802 10.3571 5.6429C9.73194 5.01777 8.8841 4.66659 8.00004 4.66659ZM8.00004 9.99992C7.46961 9.99992 6.9609 9.78921 6.58583 9.41413C6.21075 9.03906 6.00004 8.53035 6.00004 7.99992C6.00004 7.46949 6.21075 6.96078 6.58583 6.5857C6.9609 6.21063 7.46961 5.99992 8.00004 5.99992C8.53047 5.99992 9.03918 6.21063 9.41425 6.5857C9.78933 6.96078 10 7.46949 10 7.99992C10 8.53035 9.78933 9.03906 9.41425 9.41413C9.03918 9.78921 8.53047 9.99992 8.00004 9.99992Z" fill="black"/>
</g>
</svg>
