<svg width="24" height="24" viewBox="0 0 24 24" fill="none" xmlns="http://www.w3.org/2000/svg">
<path d="M11.9999 21C13.9968 20.9997 15.9369 20.3353 17.5148 19.1114C19.0926 17.8874 20.2186 16.1735 20.7155 14.2394C21.2124 12.3053 21.0519 10.2608 20.2593 8.42795C19.4668 6.59506 18.0871 5.0778 16.3376 4.11506C14.5881 3.15231 12.5681 2.79875 10.5956 3.11004C8.62308 3.42132 6.81012 4.37978 5.44213 5.83452C4.07413 7.28925 3.22879 9.15764 3.0392 11.1455C2.84961 13.1334 3.32653 15.1279 4.39488 16.815L2.99988 21L7.18488 19.605C8.62441 20.5188 10.2948 21.0027 11.9999 21Z" stroke="#1151B4" stroke-width="2" stroke-linecap="round" stroke-linejoin="round"/>
</svg>
