<svg width="134" height="134" viewBox="0 0 134 134" fill="none" xmlns="http://www.w3.org/2000/svg">
    <circle cx="67" cy="67" r="66.5" fill="white" stroke="#F7F7F7"/>
    <path d="M67.1077 34.0587C58.3456 34.0686 49.9452 37.5537 43.7495 43.7495C37.5537 49.9452 34.0686 58.3456 34.0587 67.1077C35.8742 110.952 98.3479 110.939 100.157 67.1074C100.147 58.3454 96.6616 49.9451 90.4658 43.7494C84.2701 37.5537 75.8697 34.0686 67.1077 34.0587V34.0587ZM67.1077 96.6779C59.2679 96.6689 51.7518 93.5507 46.2083 88.0071C40.6647 82.4636 37.5464 74.9475 37.5375 67.1077C39.1621 27.8789 95.0592 27.8903 96.678 67.1079C96.6689 74.9476 93.5506 82.4637 88.0071 88.0072C82.4635 93.5507 74.9474 96.6689 67.1077 96.6779V96.6779Z" fill="#049C6B"/>
    <path d="M79.7932 55.0547L64.0156 70.8323L56.7413 63.5586C56.4135 63.2403 55.9736 63.0637 55.5167 63.067C55.0598 63.0704 54.6225 63.2534 54.2995 63.5765C53.9764 63.8996 53.7934 64.3369 53.7901 64.7938C53.7867 65.2507 53.9633 65.6906 54.2817 66.0183L62.7858 74.5223C63.1132 74.846 63.5552 75.0276 64.0156 75.0276C64.4761 75.0276 64.918 74.846 65.2455 74.5223L82.2529 57.5142C82.5705 57.1863 82.7465 56.7466 82.7428 56.2901C82.7392 55.8336 82.5562 55.3969 82.2334 55.0741C81.9106 54.7513 81.4738 54.5683 81.0173 54.5647C80.5608 54.5611 80.1212 54.737 79.7932 55.0547Z" fill="#049C6B"/>
</svg>
