<svg width="80" height="80" viewBox="0 0 80 80" fill="none" xmlns="http://www.w3.org/2000/svg">
    <circle cx="40" cy="40" r="40" fill="#E4EFFF"/>
    <path d="M38.5 50.5833L32.5833 44.6666L35 42.25L38.5 45.75L45.5 38.75L47.9167 41.1666L38.5 50.5833ZM28.5833 56.6666C27.6667 56.6666 26.8819 56.3403 26.2292 55.6875C25.5764 55.0347 25.25 54.25 25.25 53.3333V30C25.25 29.0833 25.5764 28.2986 26.2292 27.6458C26.8819 26.993 27.6667 26.6666 28.5833 26.6666H30.25V23.3333H33.5833V26.6666H46.9167V23.3333H50.25V26.6666H51.9167C52.8333 26.6666 53.6181 26.993 54.2708 27.6458C54.9236 28.2986 55.25 29.0833 55.25 30V53.3333C55.25 54.25 54.9236 55.0347 54.2708 55.6875C53.6181 56.3403 52.8333 56.6666 51.9167 56.6666H28.5833ZM28.5833 53.3333H51.9167V36.6666H28.5833V53.3333Z" fill="#1151B3"/>
</svg>
