<svg width="32" height="32" viewBox="0 0 32 32" fill="none" xmlns="http://www.w3.org/2000/svg">
    <rect width="32" height="32" rx="16" fill="#E4EFFF"/>
    <path d="M18.8 22H12.6209C12.217 22 12.0151 22 11.9216 21.9201C11.8405 21.8508 11.7974 21.7469 11.8058 21.6405C11.8154 21.5179 11.9582 21.3751 12.2438 21.0895L17.9124 15.4209C18.1764 15.1569 18.3084 15.0249 18.4607 14.9754C18.5946 14.9319 18.7388 14.9319 18.8727 14.9754C19.0249 15.0249 19.1569 15.1569 19.4209 15.4209L22 18V18.8M18.8 22C19.9201 22 20.4802 22 20.908 21.782C21.2843 21.5903 21.5903 21.2843 21.782 20.908C22 20.4802 22 19.9201 22 18.8M18.8 22H13.2C12.0799 22 11.5198 22 11.092 21.782C10.7157 21.5903 10.4097 21.2843 10.218 20.908C10 20.4802 10 19.9201 10 18.8V13.2C10 12.0799 10 11.5198 10.218 11.092C10.4097 10.7157 10.7157 10.4097 11.092 10.218C11.5198 10 12.0799 10 13.2 10H18.8C19.9201 10 20.4802 10 20.908 10.218C21.2843 10.4097 21.5903 10.7157 21.782 11.092C22 11.5198 22 12.0799 22 13.2V18.8M15 13.6667C15 14.403 14.403 15 13.6667 15C12.9303 15 12.3333 14.403 12.3333 13.6667C12.3333 12.9303 12.9303 12.3333 13.6667 12.3333C14.403 12.3333 15 12.9303 15 13.6667Z" stroke="#1151B3" stroke-width="1.33333" stroke-linecap="round" stroke-linejoin="round"/>
</svg>
