<svg width="14" height="14" viewBox="0 0 14 14" fill="none" xmlns="http://www.w3.org/2000/svg">
    <path d="M8.28516 14H3.0625C1.85629 14 0.875 13.0187 0.875 11.8125V4.40234C0.875 3.19613 1.85629 2.21484 3.0625 2.21484H8.28516C9.49137 2.21484 10.4727 3.19613 10.4727 4.40234V11.8125C10.4727 13.0187 9.49137 14 8.28516 14ZM3.0625 3.30859C2.45943 3.30859 1.96875 3.79928 1.96875 4.40234V11.8125C1.96875 12.4156 2.45943 12.9062 3.0625 12.9062H8.28516C8.88822 12.9062 9.37891 12.4156 9.37891 11.8125V4.40234C9.37891 3.79928 8.88822 3.30859 8.28516 3.30859H3.0625ZM12.6602 10.4453V2.1875C12.6602 0.981285 11.6789 0 10.4727 0H4.40234C4.10028 0 3.85547 0.244809 3.85547 0.546875C3.85547 0.848941 4.10028 1.09375 4.40234 1.09375H10.4727C11.0757 1.09375 11.5664 1.58443 11.5664 2.1875V10.4453C11.5664 10.7474 11.8112 10.9922 12.1133 10.9922C12.4153 10.9922 12.6602 10.7474 12.6602 10.4453Z" fill="#1151B3"/>
</svg>
