<svg width="20" height="20" viewBox="0 0 20 20" fill="none" xmlns="http://www.w3.org/2000/svg">
<g id="solar:documents-outline">
<path id="Vector" fill-rule="evenodd" clip-rule="evenodd" d="M9.12079 1.04175H10.8791C12.0183 1.04175 12.9375 1.04175 13.66 1.13925C14.41 1.23925 15.0416 1.45591 15.5433 1.95675C15.7916 2.20591 15.97 2.48675 16.0991 2.79841C16.8758 2.89508 17.5283 3.10841 18.0433 3.62341C18.545 4.12508 18.76 4.75675 18.8616 5.50675C18.9583 6.22925 18.9583 7.14841 18.9583 8.28758V11.7126C18.9583 12.8517 18.9583 13.7709 18.8616 14.4934C18.76 15.2434 18.545 15.8751 18.0433 16.3767C17.5283 16.8917 16.8766 17.1051 16.0991 17.2026C15.97 17.5134 15.7916 17.7942 15.5433 18.0434C15.0416 18.5451 14.41 18.7601 13.66 18.8617C12.9375 18.9584 12.0183 18.9584 10.8791 18.9584H9.12079C7.98163 18.9584 7.06246 18.9584 6.33996 18.8617C5.58996 18.7601 4.95829 18.5451 4.45663 18.0434C4.21718 17.803 4.0282 17.5171 3.90079 17.2026C3.12413 17.1051 2.47163 16.8917 1.95663 16.3767C1.45496 15.8751 1.23996 15.2434 1.13913 14.4934C1.04163 13.7709 1.04163 12.8517 1.04163 11.7126V8.28758C1.04163 7.14841 1.04163 6.22925 1.13913 5.50675C1.23913 4.75675 1.45579 4.12508 1.95663 3.62341C2.47163 3.10841 3.12329 2.89508 3.90079 2.79841C4.02838 2.48375 4.21733 2.19764 4.45663 1.95675C4.95829 1.45508 5.58996 1.24008 6.33996 1.13925C7.06246 1.04175 7.98163 1.04175 9.12079 1.04175ZM3.60663 4.11675C3.24246 4.20508 3.01496 4.33341 2.84079 4.50841C2.60996 4.73841 2.45996 5.06175 2.37746 5.67341C2.29329 6.30341 2.29163 7.13758 2.29163 8.33341V11.6667C2.29163 12.8626 2.29329 13.6976 2.37746 14.3267C2.45996 14.9384 2.61079 15.2617 2.84079 15.4926C3.01496 15.6667 3.24246 15.7951 3.60746 15.8834C3.54163 15.2067 3.54163 14.3784 3.54163 13.3792V6.62091C3.54163 5.62258 3.54163 4.79341 3.60663 4.11675ZM16.3933 15.8834C16.7575 15.7951 16.985 15.6667 17.1591 15.4926C17.39 15.2617 17.54 14.9384 17.6225 14.3259C17.7066 13.6976 17.7083 12.8634 17.7083 11.6676V8.33425C17.7083 7.13758 17.7066 6.30341 17.6225 5.67341C17.54 5.06175 17.3891 4.73841 17.1591 4.50758C16.985 4.33341 16.7575 4.20508 16.3925 4.11675C16.4583 4.79341 16.4583 5.62258 16.4583 6.62091V13.3792C16.4583 14.3776 16.4583 15.2067 16.3933 15.8834ZM6.50663 2.37758C5.89496 2.46008 5.57163 2.61091 5.34079 2.84091C5.10996 3.07175 4.95996 3.39508 4.87746 4.00758C4.79329 4.63508 4.79163 5.47008 4.79163 6.66675V13.3334C4.79163 14.5292 4.79329 15.3634 4.87746 15.9934C4.95996 16.6051 5.11079 16.9284 5.34079 17.1592C5.57163 17.3901 5.89496 17.5401 6.50746 17.6226C7.13579 17.7067 7.97079 17.7084 9.16663 17.7084H10.8333C12.0291 17.7084 12.8641 17.7067 13.4933 17.6226C14.105 17.5401 14.4283 17.3892 14.6591 17.1592C14.89 16.9284 15.04 16.6051 15.1225 15.9926C15.2066 15.3634 15.2083 14.5292 15.2083 13.3334V6.66675C15.2083 5.47091 15.2066 4.63591 15.1225 4.00675C15.04 3.39508 14.8891 3.07175 14.6591 2.84091C14.4283 2.61008 14.105 2.46008 13.4925 2.37758C12.8641 2.29341 12.0291 2.29175 10.8333 2.29175H9.16663C7.97079 2.29175 7.13579 2.29341 6.50663 2.37758ZM6.87496 7.50008C6.87496 7.33432 6.94081 7.17535 7.05802 7.05814C7.17523 6.94093 7.3342 6.87508 7.49996 6.87508H12.5C12.6657 6.87508 12.8247 6.94093 12.9419 7.05814C13.0591 7.17535 13.125 7.33432 13.125 7.50008C13.125 7.66584 13.0591 7.82481 12.9419 7.94202C12.8247 8.05923 12.6657 8.12508 12.5 8.12508H7.49996C7.3342 8.12508 7.17523 8.05923 7.05802 7.94202C6.94081 7.82481 6.87496 7.66584 6.87496 7.50008ZM6.87496 10.8334C6.87496 10.6677 6.94081 10.5087 7.05802 10.3915C7.17523 10.2743 7.3342 10.2084 7.49996 10.2084H12.5C12.6657 10.2084 12.8247 10.2743 12.9419 10.3915C13.0591 10.5087 13.125 10.6677 13.125 10.8334C13.125 10.9992 13.0591 11.1581 12.9419 11.2754C12.8247 11.3926 12.6657 11.4584 12.5 11.4584H7.49996C7.3342 11.4584 7.17523 11.3926 7.05802 11.2754C6.94081 11.1581 6.87496 10.9992 6.87496 10.8334ZM6.87496 14.1667C6.87496 14.001 6.94081 13.842 7.05802 13.7248C7.17523 13.6076 7.3342 13.5417 7.49996 13.5417H9.99996C10.1657 13.5417 10.3247 13.6076 10.4419 13.7248C10.5591 13.842 10.625 14.001 10.625 14.1667C10.625 14.3325 10.5591 14.4915 10.4419 14.6087C10.3247 14.7259 10.1657 14.7917 9.99996 14.7917H7.49996C7.3342 14.7917 7.17523 14.7259 7.05802 14.6087C6.94081 14.4915 6.87496 14.3325 6.87496 14.1667Z" fill="#1D2939"/>
</g>
</svg>
