<svg width="16" height="16" viewBox="0 0 16 16" fill="none" xmlns="http://www.w3.org/2000/svg">
<g id="tabler:edit">
<g id="Group">
<path id="Vector" d="M4.66663 4.66663H3.99996C3.64634 4.66663 3.3072 4.8071 3.05715 5.05715C2.8071 5.3072 2.66663 5.64634 2.66663 5.99996V12C2.66663 12.3536 2.8071 12.6927 3.05715 12.9428C3.3072 13.1928 3.64634 13.3333 3.99996 13.3333H9.99996C10.3536 13.3333 10.6927 13.1928 10.9428 12.9428C11.1928 12.6927 11.3333 12.3536 11.3333 12V11.3333" stroke="#1151B4" stroke-width="1.33333" stroke-linecap="round" stroke-linejoin="round"/>
<path id="Vector_2" d="M10.6667 3.33328L12.6667 5.33328M13.59 4.38995C13.8526 4.12739 14.0001 3.77127 14.0001 3.39995C14.0001 3.02863 13.8526 2.67251 13.59 2.40995C13.3274 2.14738 12.9713 1.99988 12.6 1.99988C12.2287 1.99988 11.8726 2.14738 11.61 2.40995L6 7.99995V9.99995H8L13.59 4.38995Z" stroke="#1151B4" stroke-width="1.33333" stroke-linecap="round" stroke-linejoin="round"/>
</g>
</g>
</svg>
