<svg width="23" height="23" viewBox="0 0 23 23" fill="none" xmlns="http://www.w3.org/2000/svg">
<g id="Iconly">
<g id="Heart">
<path id="Heart_2" d="M17.1388 2.75003L16.9615 3.27844L16.9665 3.28006L17.1388 2.75003ZM15.411 2.48065L15.407 3.03799H15.411V2.48065ZM20.7708 10.9151L21.2971 11.0984L21.3 11.0902L21.3026 11.082L20.7708 10.9151ZM17.9757 15.3822L18.3635 15.7826L18.3698 15.7763L17.9757 15.3822ZM12.0949 19.9895L12.383 20.4667L12.3909 20.4618L12.0949 19.9895ZM11.8626 20.1298L11.5692 20.6037L11.859 20.7831L12.1508 20.6069L11.8626 20.1298ZM11.6211 19.9802L11.3273 20.4539L11.3277 20.4541L11.6211 19.9802ZM5.70493 15.3729L5.30942 15.7658L5.31799 15.774L5.70493 15.3729ZM2.908 10.9151L2.37706 11.0846L2.37969 11.0928L2.38257 11.101L2.908 10.9151ZM6.55952 2.73052L6.73289 3.26029L6.74121 3.25742L6.55952 2.73052ZM7.38532 2.53638V1.97904H7.34924L7.31347 1.98369L7.38532 2.53638ZM7.49678 2.53638V3.09372H7.53723L7.57725 3.08788L7.49678 2.53638ZM8.37924 2.48065L8.39604 1.92356L8.38764 1.92331H8.37924V2.48065ZM10.0801 2.78719L9.9006 3.31485L9.98788 3.34453H10.0801V2.78719ZM10.1349 2.78719L10.374 2.28375L10.2605 2.22984H10.1349V2.78719ZM10.2185 2.84199L9.8346 3.24606L9.92685 3.3337L10.048 3.37262L10.2185 2.84199ZM10.8037 3.08443L10.5351 3.57279L10.5552 3.58383L10.5761 3.59319L10.8037 3.08443ZM11.1567 3.24235L11.4189 2.75058L11.4019 2.74149L11.3843 2.7336L11.1567 3.24235ZM11.4204 3.41742L11.7479 2.96641L11.7479 2.96641L11.4204 3.41742ZM11.5561 3.51173L11.2658 3.98759L11.2729 3.99175L11.5561 3.51173ZM11.6022 3.53874L11.8832 3.0574L11.8832 3.0574L11.6022 3.53874ZM11.8348 3.68729L11.4957 4.1296L11.8342 4.38916L12.1732 4.13013L11.8348 3.68729ZM18.6157 8.46186L19.1717 8.50147L19.1731 8.48169V8.46186H18.6157ZM17.8819 9.16875L17.8289 9.72357L17.8628 9.72681L17.8969 9.7259L17.8819 9.16875ZM18.6157 8.35132L18.0584 8.33938V8.35132H18.6157ZM16.6558 5.41599L16.8535 4.89491L16.8453 4.8918L16.837 4.88894L16.6558 5.41599ZM15.7176 5.88044L15.1926 5.69294L15.1888 5.70419L15.7176 5.88044ZM16.182 6.83628L16.3775 6.31424L16.3684 6.31101L16.182 6.83628ZM17.1759 8.32345L17.7314 8.36953L17.7333 8.34653V8.32345H17.1759ZM17.3524 8.89937L17.7827 8.54507V8.54506L17.3524 8.89937ZM17.3161 2.22164C16.6951 2.01325 16.049 1.92331 15.411 1.92331V3.03799C15.9453 3.03799 16.4697 3.11339 16.9615 3.27842L17.3161 2.22164ZM21.3026 11.082C22.3971 7.59444 21.1145 3.45652 17.3111 2.22L16.9665 3.28006C20.0203 4.27291 21.2085 7.6591 20.239 10.7482L21.3026 11.082ZM18.3698 15.7763C19.6831 14.463 20.6847 12.857 21.2971 11.0984L20.2445 10.7318C19.6865 12.3339 18.7745 13.7952 17.5816 14.9881L18.3698 15.7763ZM12.3909 20.4618C14.5426 19.1128 16.5417 17.5467 18.3635 15.7826L17.588 14.9818C15.8223 16.6917 13.8847 18.2096 11.7988 19.5173L12.3909 20.4618ZM12.1508 20.6069L12.383 20.4666L11.8067 19.5125L11.5745 19.6527L12.1508 20.6069ZM11.3277 20.4541L11.5692 20.6037L12.1561 19.656L11.9145 19.5064L11.3277 20.4541ZM5.31799 15.774C7.15661 17.5476 9.16729 19.1139 11.3273 20.4539L11.9149 19.5066C9.82242 18.2085 7.87411 16.6909 6.09187 14.9718L5.31799 15.774ZM2.38257 11.101C3.00443 12.8587 4.00638 14.4538 5.30951 15.7657L6.10035 14.9801C4.91402 13.7858 4.00057 12.3322 3.43343 10.7292L2.38257 11.101ZM6.38617 2.20082C2.54901 3.45657 1.26228 7.59228 2.37706 11.0846L3.43895 10.7456C2.4544 7.66127 3.63856 4.27286 6.73287 3.26022L6.38617 2.20082ZM7.31347 1.98369C6.9974 2.02478 6.68286 2.09844 6.37783 2.20363L6.74121 3.25742C6.97495 3.17682 7.21589 3.12044 7.45717 3.08907L7.31347 1.98369ZM7.49678 1.97904H7.38532V3.09372H7.49678V1.97904ZM8.27706 1.92331C7.99152 1.92331 7.70541 1.9427 7.41632 1.98488L7.57725 3.08788C7.8102 3.05389 8.04242 3.03799 8.27706 3.03799V1.92331ZM8.37924 1.92331H8.27706V3.03799H8.37924V1.92331ZM10.2595 2.25953C9.65762 2.05482 9.03614 1.94286 8.39604 1.92356L8.36244 3.03774C8.89276 3.05373 9.40454 3.14613 9.9006 3.31485L10.2595 2.25953ZM10.1349 2.22984H10.0801V3.34453H10.1349V2.22984ZM10.6023 2.43792C10.534 2.37296 10.4547 2.32209 10.374 2.28375L9.89574 3.29062C9.8914 3.28856 9.88411 3.28475 9.87448 3.27833C9.86522 3.27215 9.85122 3.26185 9.8346 3.24606L10.6023 2.43792ZM11.0723 2.59608C10.8431 2.47002 10.6118 2.38297 10.3889 2.31136L10.048 3.37262C10.2357 3.43292 10.3927 3.49449 10.5351 3.57279L11.0723 2.59608ZM11.3843 2.7336L11.0313 2.57568L10.5761 3.59319L10.9291 3.7511L11.3843 2.7336ZM11.7479 2.96641C11.674 2.91275 11.5451 2.81786 11.4189 2.75058L10.8944 3.73412C10.9388 3.75782 11.0014 3.80194 11.093 3.86843L11.7479 2.96641ZM11.8463 3.03592C11.834 3.02838 11.808 3.01003 11.7479 2.96641L11.093 3.86843C11.1378 3.90093 11.2062 3.95113 11.2659 3.98753L11.8463 3.03592ZM11.8832 3.0574C11.8674 3.04822 11.8532 3.03988 11.8393 3.03171L11.2729 3.99175C11.2893 4.00147 11.3059 4.01112 11.3212 4.02007L11.8832 3.0574ZM12.1739 3.24498C12.0709 3.16608 11.9561 3.09996 11.8832 3.0574L11.3212 4.02007C11.4076 4.0705 11.4587 4.10124 11.4957 4.1296L12.1739 3.24498ZM15.415 1.92332C13.9974 1.91312 12.6244 2.38243 11.4964 3.24445L12.1732 4.13013C13.1092 3.41488 14.2423 3.0296 15.407 3.03797L15.415 1.92332ZM18.0598 8.42224C18.0523 8.52708 17.9615 8.60908 17.867 8.61161L17.8969 9.7259C18.564 9.70799 19.1234 9.17878 19.1717 8.50147L18.0598 8.42224ZM18.0584 8.35132V8.46186H19.1731V8.35132H18.0584ZM16.458 5.93706C17.433 6.30712 18.0814 7.26988 18.0585 8.33939L19.173 8.36325C19.2058 6.82997 18.2769 5.43517 16.8535 4.89491L16.458 5.93706ZM16.2424 6.06789C16.2828 5.9549 16.3926 5.91485 16.4745 5.94303L16.837 4.88894C16.1572 4.65517 15.431 5.0257 15.1927 5.69298L16.2424 6.06789ZM16.3684 6.31101C16.268 6.2754 16.2111 6.16239 16.2463 6.05668L15.1888 5.70419C14.964 6.37877 15.3158 7.12034 15.9957 7.36155L16.3684 6.31101ZM17.7333 8.29466C17.7333 7.42054 17.1976 6.6214 16.3774 6.31432L15.9866 7.35823C16.3573 7.49703 16.6186 7.87017 16.6186 8.29466H17.7333ZM17.7333 8.32345V8.29466H16.6186V8.32345H17.7333ZM17.7827 8.54506C17.7471 8.50188 17.7254 8.44105 17.7314 8.36953L16.6205 8.27737C16.5911 8.63129 16.6977 8.98104 16.9222 9.25368L17.7827 8.54506ZM17.9349 8.61393C17.8565 8.60646 17.8058 8.5731 17.7827 8.54507L16.9222 9.25368C17.1592 9.54147 17.4986 9.69204 17.8289 9.72357L17.9349 8.61393Z" fill="#535353"/>
</g>
</g>
</svg>
