<svg width="26" height="26" viewBox="0 0 26 26" fill="none" xmlns="http://www.w3.org/2000/svg">
<g id="Iconly">
<g id="Heart">
<path id="Heart_2" fill-rule="evenodd" clip-rule="evenodd" d="M17.2907 3.1049C17.948 3.1049 18.6043 3.19761 19.2282 3.40699C23.073 4.65699 24.4585 8.87574 23.3012 12.5632C22.6449 14.4476 21.572 16.1674 20.1668 17.5726C18.1553 19.5205 15.948 21.2497 13.572 22.7393L13.3116 22.8966L13.0407 22.7289C10.6564 21.2497 8.43658 19.5205 6.40637 17.5622C5.01054 16.157 3.93658 14.4476 3.26991 12.5632C2.09283 8.87574 3.47825 4.65699 7.36471 3.38511C7.66679 3.28094 7.97825 3.20803 8.29075 3.1674H8.41575C8.70846 3.12469 8.99908 3.1049 9.29075 3.1049H9.40533C10.0616 3.12469 10.697 3.23928 11.3126 3.44865H11.3741C11.4157 3.46844 11.447 3.49032 11.4678 3.51011C11.698 3.58407 11.9157 3.6674 12.1241 3.78199L12.5199 3.95907C12.6156 4.01008 12.7229 4.08803 12.8157 4.15539C12.8745 4.19807 12.9274 4.23651 12.9678 4.26115C12.9848 4.27118 13.0021 4.28127 13.0195 4.29144C13.1088 4.34357 13.2019 4.39788 13.2803 4.45803C14.4376 3.57365 15.8428 3.09449 17.2907 3.1049ZM20.0616 10.6049C20.4887 10.5934 20.8532 10.2507 20.8845 9.81219V9.68824C20.9157 8.22886 20.0314 6.90699 18.6866 6.39657C18.2595 6.24969 17.7907 6.4799 17.6345 6.9174C17.4887 7.3549 17.7178 7.83407 18.1553 7.98928C18.823 8.23928 19.2699 8.89657 19.2699 9.62469V9.65699C19.2501 9.89553 19.322 10.1257 19.4678 10.3028C19.6137 10.4799 19.8324 10.583 20.0616 10.6049Z" fill="#E74C3C"/>
</g>
</g>
</svg>
