<svg width="20" height="21" viewBox="0 0 20 21" fill="none" xmlns="http://www.w3.org/2000/svg">
    <path d="M9.95 16.5C10.3 16.5 10.5958 16.3792 10.8375 16.1375C11.0792 15.8958 11.2 15.6 11.2 15.25C11.2 14.9 11.0792 14.6042 10.8375 14.3625C10.5958 14.1208 10.3 14 9.95 14C9.6 14 9.30417 14.1208 9.0625 14.3625C8.82083 14.6042 8.7 14.9 8.7 15.25C8.7 15.6 8.82083 15.8958 9.0625 16.1375C9.30417 16.3792 9.6 16.5 9.95 16.5ZM9.05 12.65H10.9C10.9 12.1 10.9625 11.6667 11.0875 11.35C11.2125 11.0333 11.5667 10.6 12.15 10.05C12.5833 9.61667 12.925 9.20417 13.175 8.8125C13.425 8.42083 13.55 7.95 13.55 7.4C13.55 6.46667 13.2083 5.75 12.525 5.25C11.8417 4.75 11.0333 4.5 10.1 4.5C9.15 4.5 8.37917 4.75 7.7875 5.25C7.19583 5.75 6.78333 6.35 6.55 7.05L8.2 7.7C8.28333 7.4 8.47083 7.075 8.7625 6.725C9.05417 6.375 9.5 6.2 10.1 6.2C10.6333 6.2 11.0333 6.34583 11.3 6.6375C11.5667 6.92917 11.7 7.25 11.7 7.6C11.7 7.93333 11.6 8.24583 11.4 8.5375C11.2 8.82917 10.95 9.1 10.65 9.35C9.91667 10 9.46667 10.4917 9.3 10.825C9.13333 11.1583 9.05 11.7667 9.05 12.65ZM10 20.5C8.61667 20.5 7.31667 20.2375 6.1 19.7125C4.88333 19.1875 3.825 18.475 2.925 17.575C2.025 16.675 1.3125 15.6167 0.7875 14.4C0.2625 13.1833 0 11.8833 0 10.5C0 9.11667 0.2625 7.81667 0.7875 6.6C1.3125 5.38333 2.025 4.325 2.925 3.425C3.825 2.525 4.88333 1.8125 6.1 1.2875C7.31667 0.7625 8.61667 0.5 10 0.5C11.3833 0.5 12.6833 0.7625 13.9 1.2875C15.1167 1.8125 16.175 2.525 17.075 3.425C17.975 4.325 18.6875 5.38333 19.2125 6.6C19.7375 7.81667 20 9.11667 20 10.5C20 11.8833 19.7375 13.1833 19.2125 14.4C18.6875 15.6167 17.975 16.675 17.075 17.575C16.175 18.475 15.1167 19.1875 13.9 19.7125C12.6833 20.2375 11.3833 20.5 10 20.5ZM10 18.5C12.2333 18.5 14.125 17.725 15.675 16.175C17.225 14.625 18 12.7333 18 10.5C18 8.26667 17.225 6.375 15.675 4.825C14.125 3.275 12.2333 2.5 10 2.5C7.76667 2.5 5.875 3.275 4.325 4.825C2.775 6.375 2 8.26667 2 10.5C2 12.7333 2.775 14.625 4.325 16.175C5.875 17.725 7.76667 18.5 10 18.5Z" fill="#1151B3"/>
</svg>
