<svg width="17" height="20" viewBox="0 0 17 20" fill="none" xmlns="http://www.w3.org/2000/svg">
<g id="logos:paypal" clip-path="url(#clip0_1583_4036)">
<path id="Vector" d="M14.382 1.55679C13.4592 0.505004 11.7911 0.0540771 9.65716 0.0540771H3.46378C3.25264 0.054085 3.04843 0.129411 2.88787 0.266512C2.7273 0.403614 2.62091 0.593497 2.58782 0.802024L0.00901138 17.1575C-0.0422469 17.48 0.207488 17.772 0.534376 17.772H4.35795L5.31822 11.6812L5.28842 11.872C5.35683 11.4414 5.72504 11.1239 6.16106 11.1239H7.97802C11.5474 11.1239 14.3423 9.67408 15.1587 5.4801C15.183 5.35606 15.204 5.23534 15.2221 5.11739C15.1191 5.06282 15.1191 5.06282 15.2221 5.11739C15.4652 3.56726 15.2205 2.51209 14.382 1.55679Z" fill="#27346A"/>
<path id="Vector_2" d="M6.78126 4.55898C6.88579 4.5092 7.00012 4.48341 7.1159 4.48348H11.9714C12.5464 4.48348 13.0827 4.5209 13.5727 4.59977C13.7099 4.62164 13.8463 4.64774 13.9818 4.67805C14.1739 4.72043 14.3637 4.77231 14.5507 4.83348C14.7916 4.91394 15.016 5.00765 15.2222 5.11739C15.4652 3.56666 15.2205 2.51209 14.382 1.55679C13.4587 0.505004 11.7911 0.0540771 9.65716 0.0540771H3.46325C3.02716 0.0540771 2.65616 0.371561 2.58782 0.802024L0.00901175 17.1569C-0.0422465 17.4799 0.207489 17.7716 0.533846 17.7716H4.35795L6.3502 5.13779C6.36979 5.01361 6.41926 4.89605 6.49435 4.79522C6.56944 4.69439 6.6679 4.61332 6.78126 4.55898Z" fill="#27346A"/>
<path id="Vector_3" d="M15.1588 5.48002C14.3423 9.6734 11.5475 11.1238 7.97802 11.1238H6.16054C5.72451 11.1238 5.35624 11.4413 5.28849 11.8719L4.09385 19.4451C4.04922 19.7273 4.26749 19.9831 4.55306 19.9831H7.77624C7.96087 19.983 8.13943 19.9171 8.2798 19.7972C8.42017 19.6772 8.51314 19.5111 8.542 19.3288L8.57339 19.1645L9.18087 15.3145L9.22001 15.1017C9.24886 14.9193 9.34183 14.7532 9.48218 14.6333C9.62254 14.5134 9.80108 14.4474 9.98571 14.4474H10.4681C13.5904 14.4474 16.0352 13.1789 16.7497 9.51029C17.0479 7.97718 16.8936 6.69718 16.1047 5.7981C15.8654 5.52579 15.5683 5.30089 15.2221 5.11731C15.2034 5.23585 15.1831 5.35598 15.1588 5.48002Z" fill="#2790C3"/>
<path id="Vector_4" d="M14.3677 4.77671C14.2404 4.73954 14.1119 4.70663 13.9824 4.67804C13.8468 4.64822 13.7104 4.6223 13.5733 4.60029C13.0827 4.52088 12.5468 4.4834 11.9713 4.4834H7.11642C7.00056 4.48314 6.88615 4.50915 6.78179 4.55949C6.6683 4.61367 6.56972 4.69469 6.4946 4.79555C6.41948 4.8964 6.37007 5.01405 6.35066 5.1383L5.31874 11.6812L5.28894 11.8719C5.35682 11.4414 5.72503 11.1239 6.16113 11.1239H7.97861C11.548 11.1239 14.3428 9.67406 15.1593 5.48009C15.1836 5.35605 15.204 5.23585 15.2227 5.11737C15.016 5.00824 14.7922 4.91393 14.5512 4.834C14.4904 4.81384 14.4292 4.79474 14.3677 4.77671" fill="#1F264F"/>
</g>
<defs>
<clipPath id="clip0_1583_4036">
<rect width="16.9536" height="20" fill="white"/>
</clipPath>
</defs>
</svg>
