<svg width="264" height="228" viewBox="0 0 264 228" fill="none" xmlns="http://www.w3.org/2000/svg">
    <g clip-path="url(#clip0_127_17522)">
        <path d="M109.817 198.076L112.7 188.659C109.231 184.83 104.882 181.908 100.031 180.147C104.771 188.021 100.178 198.292 102.092 207.287C102.71 210.088 103.949 212.713 105.717 214.968C107.484 217.224 109.735 219.051 112.303 220.315L116.679 225.752C118.973 221.733 120.37 217.263 120.776 212.65C121.181 208.038 120.584 203.391 119.027 199.032C118.129 196.595 116.928 194.281 115.454 192.145C112.854 195.211 109.817 198.076 109.817 198.076Z" fill="#F2F2F2"/>
        <path d="M93.9627 199.28L92.3555 189.562C87.5474 187.686 82.3555 187.016 77.2305 187.609C84.9741 192.537 85.4317 203.784 91.1448 210.979C92.9438 213.209 95.2202 215.005 97.8053 216.233C100.39 217.461 103.218 218.09 106.078 218.073L112.413 220.982C112.678 216.359 111.942 211.733 110.253 207.423C108.564 203.113 105.964 199.222 102.631 196.017C100.743 194.237 98.64 192.703 96.3703 191.451C95.4063 195.357 93.9627 199.28 93.9627 199.28Z" fill="#F2F2F2"/>
        <path d="M188.336 223.336L183.894 223.336L181.781 206.156L188.337 206.157L188.336 223.336Z" fill="#FFB6B6"/>
        <path d="M189.465 227.653L175.145 227.653V227.471C175.145 225.989 175.732 224.567 176.777 223.519C177.823 222.47 179.24 221.881 180.719 221.881H180.719L183.335 219.891L188.216 221.882L189.466 221.882L189.465 227.653Z" fill="#2F2E41"/>
        <path d="M260.079 207.09L257.051 210.348L243.078 200.185L247.548 195.376L260.079 207.09Z" fill="#FFB6B6"/>
        <path d="M264.002 209.203L254.238 219.708L254.106 219.584C253.024 218.574 252.387 217.173 252.335 215.692C252.284 214.21 252.82 212.769 253.828 211.684L254.16 208.408L258.94 206.185L259.792 205.268L264.002 209.203Z" fill="#2F2E41"/>
        <path d="M253.507 197.435L248.812 207.281L219.985 188.141L215.791 182.411L202.041 163.623L196.451 172.517L192.562 181.814C191.294 182.644 190.226 183.745 189.435 185.038C188.643 186.332 188.148 187.785 187.985 189.294L187.807 190.94L190.265 213.096L180.923 215.972L175.559 186.209L177.312 179.759L179.118 170.706L188.208 142.098H212.534L226.487 171.88L227.507 177.949L231.463 182.502L253.507 197.435Z" fill="#2F2E41"/>
        <path d="M202.954 95.293L207.049 98.4199L211.987 99.9418C211.987 99.9418 214.029 128.741 215.869 130.586C217.708 132.431 216.049 132.48 216.419 134.877C216.789 137.273 217.687 142.186 217.687 142.186C205.269 148.778 194.564 148.954 185.965 141.241C185.855 140.764 185.911 140.263 186.124 139.822C186.336 139.382 186.693 139.027 187.134 138.817C188.734 137.965 185.658 133.99 186.966 133.326C188.274 132.661 186.435 126.896 186.435 126.896L187.641 114.868L186.688 112.945L189.015 101.18L193.052 99.7018L194.665 95.8053L202.954 95.293Z" fill="#3F3D56"/>
        <path d="M205.518 146.479C205.499 145.959 205.595 145.441 205.798 144.962C206.001 144.483 206.306 144.054 206.692 143.706C207.077 143.358 207.535 143.099 208.031 142.948C208.528 142.796 209.051 142.755 209.565 142.829L215.336 131.58L218.551 137.308L212.578 147.112C212.398 147.97 211.911 148.731 211.209 149.252C210.506 149.774 209.638 150.018 208.767 149.94C207.897 149.862 207.086 149.467 206.487 148.829C205.888 148.191 205.543 147.355 205.518 146.479Z" fill="#FFB6B6"/>
        <path d="M215.241 143.727L227.62 124.489L227.579 124.4C227.532 124.299 224.729 118.228 222.013 112.667C221.595 111.811 221.178 110.967 220.775 110.158C220.6 109.809 220.429 109.468 220.26 109.133C219.119 106.878 218.122 105.014 217.527 104.129C216.211 102.127 214.252 100.636 211.975 99.9049L211.918 99.8901L211.863 99.913C210.749 100.384 209.829 101.222 209.254 102.288C208.679 103.355 208.483 104.586 208.699 105.779C209.773 111.532 212.165 116.956 215.687 121.623L217.694 124.276L210.721 139.48L215.241 143.727Z" fill="#3F3D56"/>
        <path d="M172.674 69.9818C173.015 70.3743 173.266 70.8369 173.409 71.3371C173.552 71.8373 173.585 72.3629 173.503 72.8769C173.422 73.3909 173.229 73.8808 172.939 74.3121C172.649 74.7434 172.267 75.1056 171.822 75.3732L174.403 87.7561L168.308 85.3361L166.792 73.9481C166.393 73.1684 166.293 72.2692 166.512 71.4208C166.73 70.5723 167.251 69.8337 167.976 69.3448C168.701 68.8559 169.58 68.6507 170.446 68.7681C171.312 68.8855 172.104 69.3174 172.674 69.9818Z" fill="#FFB6B6"/>
        <path d="M166.852 78.2568L169.316 101.019L169.404 101.062C169.476 101.097 172.598 102.633 176.431 104.462C177.078 104.771 176.985 106.108 177.661 106.427C178.127 106.647 179.356 105.849 179.826 106.069C184.016 108.034 188.253 109.945 189.941 110.462C192.22 111.187 194.678 111.107 196.906 110.237L196.96 110.213L196.988 110.16C197.558 109.091 197.746 107.859 197.524 106.667C197.301 105.476 196.68 104.396 195.763 103.606C191.316 99.8143 186.052 97.1112 180.385 95.7098L177.16 94.9165L173.031 78.7018L166.852 78.2568Z" fill="#3F3D56"/>
        <path d="M198.588 94.0034C203.062 94.0034 206.688 90.3667 206.688 85.8806C206.688 81.3945 203.062 77.7578 198.588 77.7578C194.115 77.7578 190.488 81.3945 190.488 85.8806C190.488 90.3667 194.115 94.0034 198.588 94.0034Z" fill="#FFB6B6"/>
        <path d="M190.546 80.4379C191.212 78.4945 194.528 77.1466 199.904 76.9591C205.279 76.7717 206.643 83.1246 206.643 83.1246C210.232 86.044 202.811 93.8599 202.452 93.5784L202.613 92.1099C202.881 89.6776 204.016 87.7798 202.572 85.2449L201.185 85.2609C199.394 85.6063 197.602 85.9517 195.811 86.2972L197.932 84.4246L197.872 84.3319C196.97 84.803 195.988 85.1019 194.977 85.2133C193.837 85.2805 192.591 84.8256 192.045 83.8199C191.899 83.5435 191.81 83.2406 191.783 82.9291C190.246 83.5449 189.543 85.4452 189.543 85.4452C189.543 85.4452 189.88 82.3812 190.546 80.4379Z" fill="#2F2E41"/>
        <path d="M32.6356 80.9252C32.5257 80.7854 32.4074 80.6525 32.2812 80.5273C32.3121 80.4848 32.3429 80.4385 32.3737 80.396L32.6356 80.9252Z" fill="#2F2E41"/>
        <path d="M34.2093 113.594C32.8843 115.954 30.2382 117.272 27.6152 117.917C24.6689 118.69 21.5664 118.63 18.6522 117.743C18.2824 117.623 17.9127 117.484 17.5544 117.33C17.7267 116.871 17.8632 116.399 17.9627 115.92C18.0968 115.27 18.1639 114.609 18.163 113.946C17.8712 114.517 17.4931 115.039 17.0422 115.495C16.6943 115.861 16.2992 116.18 15.8674 116.441C14.5279 115.626 13.3681 114.546 12.4586 113.266C12.5164 113.123 12.5742 112.98 12.6281 112.837C12.9078 112.091 13.1293 111.324 13.2906 110.543C13.5094 109.487 13.6192 108.412 13.618 107.333C13.1431 108.262 12.5272 109.112 11.7923 109.852C11.5719 110.088 11.3379 110.311 11.0913 110.52C10.7094 109.357 10.5618 108.129 10.657 106.909C10.7522 105.688 11.0883 104.498 11.6459 103.409C13.1712 100.581 16.1293 98.9012 18.7639 97.0743C21.4023 95.2473 24.0408 92.7752 24.2642 89.5655C24.4144 87.3986 23.4129 85.2278 23.8135 83.0957C23.982 82.1965 24.3933 81.361 25.0026 80.6802C25.6119 79.9993 26.3958 79.4991 27.269 79.2342C28.1422 78.9693 29.0712 78.9497 29.9547 79.1777C30.8382 79.4057 31.6423 79.8724 32.2796 80.5271C30.7851 82.6515 29.2984 84.8493 28.6936 87.3754C28.0774 89.9478 28.5819 92.9645 30.6041 94.6679C31.2974 95.255 32.1486 95.6721 32.684 96.406C33.3966 97.3794 33.4005 98.6772 33.516 99.8746C33.7471 102.204 34.5059 104.444 34.9142 106.75C35.3263 109.052 35.3494 111.551 34.2093 113.594Z" fill="#2F2E41"/>
        <path d="M7.05078 209.38L10.5662 212.103L22.7154 199.802L17.527 195.782L7.05078 209.38Z" fill="#A0616A"/>
        <path d="M7.19807 206.719L13.0112 210.692L11.1716 213.08L13.6353 220.832C13.7571 221.215 13.7536 221.627 13.6254 222.008C13.4971 222.388 13.2509 222.718 12.9226 222.949C12.5943 223.179 12.2011 223.298 11.8005 223.289C11.3998 223.279 11.0127 223.142 10.6956 222.896L4.07992 217.77L4.75929 214.524L2.49437 216.541L0 214.608L7.19807 206.719Z" fill="#2F2E41"/>
        <path d="M24.8828 87.787C24.8823 89.1643 25.219 90.5207 25.8632 91.7371C26.5075 92.9535 27.4397 93.9927 28.578 94.7635C29.7162 95.5343 31.0258 96.0131 32.3916 96.1579C33.7575 96.3027 35.1379 96.109 36.4117 95.5939C37.6855 95.0788 38.8138 94.258 39.6974 93.2035C40.581 92.1491 41.193 90.8932 41.4797 89.5462C41.7663 88.1992 41.7188 86.8022 41.3414 85.4779C40.964 84.1536 40.2682 82.9424 39.315 81.9507L39.2747 81.9104C39.2076 81.8397 39.1405 81.769 39.07 81.7017L39.0687 81.7014L39.0676 81.7007L39.0669 81.6996L39.0666 81.6983C38.9794 81.6175 38.8921 81.5367 38.8015 81.4593C37.3247 80.1602 35.2491 78.75 33.1313 78.75C28.4962 78.75 24.8828 83.1388 24.8828 87.787Z" fill="#2F2E41"/>
        <path d="M72.7091 83.4659C72.7493 83.9147 72.6908 84.3668 72.5379 84.7905C72.3849 85.2142 72.1412 85.5991 71.8239 85.9181C71.5065 86.2371 71.1233 86.4825 70.7012 86.6369C70.2791 86.7913 69.8284 86.8511 69.3807 86.8119L48.6029 105.625L45.0273 99.9617L66.5755 83.25C66.691 82.5002 67.0767 81.819 67.6595 81.3354C68.2424 80.8517 68.9819 80.5993 69.7379 80.6259C70.494 80.6525 71.214 80.9563 71.7616 81.4797C72.3092 82.0032 72.6463 82.7098 72.7091 83.4659Z" fill="#A0616A"/>
        <path d="M39.724 111.303C39.724 111.303 40.4971 112.735 43.1378 110.524C45.252 108.754 55.3805 101.07 57.5626 97.9212C58.0608 98.1192 58.6106 98.1453 59.1253 97.9955C59.64 97.8456 60.0903 97.5283 60.4053 97.0935L54.4267 91.8428C52.6379 92.0493 52.6762 93.2543 52.8625 93.9385L48.3527 95.9875L36.707 103.451L39.1469 110.278L39.724 111.303Z" fill="#1151B3"/>
        <path d="M28.4459 124.495L28.0104 126.575L27.6406 134.246L43.921 135.144L43.4154 123.345L41.8373 120.745L28.4459 124.495Z" fill="#A0616A"/>
        <path d="M35.3446 96.7899C39.2306 96.7899 42.3807 93.6309 42.3807 89.7341C42.3807 85.8372 39.2306 82.6782 35.3446 82.6782C31.4587 82.6782 28.3086 85.8372 28.3086 89.7341C28.3086 93.6309 31.4587 96.7899 35.3446 96.7899Z" fill="#A0616A"/>
        <path d="M22.8519 115.759L22.8086 109.894C22.8076 107.784 23.5198 105.735 24.8289 104.083C26.138 102.431 27.9668 101.272 30.017 100.796L30.0435 100.79L31.4348 98.9097L37.0874 99.4767L38.1235 101.6L42.2194 104.046L43.7964 109.13C44.4804 109.587 45.0634 110.18 45.509 110.873C45.9547 111.565 46.2536 112.343 46.3871 113.156C46.9225 116.586 44.528 120.017 44.2431 120.411L43.5093 124.555L27.5445 127.38L27.4149 127.397L22.8519 115.759Z" fill="#1151B3"/>
        <path d="M43.9545 88.4761C43.1338 88.9974 42.2823 89.4682 41.4047 89.886C40.5139 90.3151 39.5822 90.6528 38.6237 90.8941C38.3495 90.2907 38.0139 89.7173 37.6223 89.183C37.723 89.8161 37.7256 90.4611 37.63 91.095C36.0413 91.352 34.4141 91.2181 32.8885 90.7049L31.5635 88.4762L31.4634 90.9637C30.3656 91.1645 29.2717 91.3538 28.174 91.5508C28.1085 91.5585 28.043 91.5739 27.9814 91.5855C27.2996 88.5032 28.2664 85.108 30.4157 83.0531C31.4828 82.0436 32.8139 81.3587 34.2541 81.0784C35.6943 80.798 37.1843 80.9336 38.5505 81.4695C38.7239 81.539 38.901 81.6163 39.0705 81.6974L39.0708 81.6989L39.0716 81.7001L39.0729 81.701L39.0744 81.7013C39.1745 81.7514 39.2593 81.8712 39.371 81.8596C44.1779 81.3227 44.332 85.0616 43.9545 88.4761Z" fill="#2F2E41"/>
        <path d="M32.2461 200.282L35.7669 202.998L47.8916 190.673L42.6952 186.664L32.2461 200.282Z" fill="#A0616A"/>
        <path d="M32.7134 197.866L38.5346 201.828L36.6997 204.219L39.1791 211.967C39.3016 212.349 39.2989 212.761 39.1715 213.142C39.044 213.523 38.7984 213.853 38.4706 214.084C38.1428 214.316 37.7498 214.436 37.3492 214.427C36.9485 214.418 36.5611 214.281 36.2435 214.036L29.6175 208.923L30.2904 205.677L28.0295 207.698L25.5312 205.77L32.7134 197.866Z" fill="#2F2E41"/>
        <path d="M20.8224 185.239L20.8222 185.193L22.4909 182.309L20.787 178.555L20.7358 168.912L21.0121 167.464C21.3835 165.517 21.2755 163.508 20.6972 161.613L20.666 155.742C20.6062 154.272 22.8778 152.979 22.3481 151.753C17.3408 140.165 27.4613 131.325 27.5296 131.254L27.7365 131.039L28.8586 131.891L29.9266 131.892L44.3392 134.526L44.4432 134.72C45.0101 135.787 46.1041 139.462 46.169 141.125C46.8873 141.959 55.0693 151.453 55.7967 152.113C60.7117 156.573 63.5257 163.954 64.7656 167.957C65.0736 168.946 65.1357 169.996 64.9465 171.015C64.7573 172.034 64.3225 172.991 63.6801 173.803L45.0732 194.241L40.066 189.606L50.134 171.208L49.408 169.341C48.1053 169.1 46.9265 168.413 46.0725 167.398L44.0338 164.971C43.4693 164.301 43.1106 163.482 43.0011 162.611L41.7648 162.462L37.3362 157.799L34.2637 185.702L33.4284 187.906L18.8815 205.056L12.7188 201.193L20.8224 185.239Z" fill="#2F2E41"/>
        <path d="M18.6001 65.4279C18.3207 65.7807 18.1217 66.1907 18.0173 66.629C17.913 67.0672 17.9057 67.5231 17.996 67.9645C18.0863 68.4059 18.272 68.8221 18.5401 69.1837C18.8082 69.5454 19.152 69.8436 19.5475 70.0576L14.9219 83.7902L18.6989 98.3431L24.7895 95.5819L21.0311 84.605L23.843 68.6274C24.1573 67.9373 24.2084 67.1556 23.9864 66.4304C23.7645 65.7052 23.2849 65.0868 22.6387 64.6924C21.9924 64.298 21.2244 64.155 20.4801 64.2906C19.7357 64.4262 19.0668 64.8308 18.6001 65.4279Z" fill="#A0616A"/>
        <path d="M24.1769 110.334C24.1769 110.334 22.7464 111.104 21.7515 107.802C20.9551 105.158 15.5348 90.8034 15.4371 86.9702C14.9124 86.861 14.4388 86.5799 14.0909 86.1711C13.743 85.7622 13.5406 85.249 13.5156 84.7121L21.3879 83.6196C22.7693 84.7779 22.077 85.7636 21.5464 86.2325L24.2277 90.787L29.8319 103.082L25.2208 109.795L24.1769 110.334Z" fill="#1151B3"/>
        <path d="M28.1719 91.5501C28.9803 89.1052 30.4299 86.9236 32.3687 85.2341C34.3074 83.5445 36.6638 82.4093 39.1907 81.9475C39.2008 81.9442 39.2343 81.9307 39.278 81.9106C39.3048 81.8937 39.3384 81.8769 39.3719 81.8601C39.2713 81.8028 39.1739 81.7524 39.0732 81.7018L39.0719 81.7016L39.0708 81.7009L39.0701 81.6998L39.0699 81.6985C38.9826 81.6177 38.8953 81.5369 38.8047 81.4595L38.5496 81.4696C38.5496 81.4696 29.5849 80.0459 28.1719 91.5501Z" fill="#FD6584"/>
        <path d="M143.851 170.177C144.829 168.702 144.25 166.591 142.557 165.462C140.865 164.332 138.699 164.612 137.721 166.087C136.742 167.562 137.321 169.673 139.014 170.802C140.707 171.932 142.872 171.652 143.851 170.177Z" fill="#F2F2F2"/>
        <path d="M123.988 115.133C124.966 113.659 124.387 111.548 122.694 110.418C121.001 109.289 118.836 109.569 117.858 111.044C116.879 112.518 117.458 114.629 119.151 115.759C120.844 116.888 123.009 116.608 123.988 115.133Z" fill="#F2F2F2"/>
        <path d="M207.042 199.871C208.021 198.396 207.442 196.285 205.749 195.156C204.056 194.026 201.891 194.306 200.912 195.781C199.934 197.256 200.513 199.367 202.206 200.496C203.898 201.625 206.064 201.345 207.042 199.871Z" fill="#F2F2F2"/>
        <path d="M39.1282 22.7912C40.1066 21.3164 39.5275 19.2053 37.8347 18.076C36.142 16.9466 33.9765 17.2266 32.9981 18.7013C32.0197 20.1761 32.5988 22.2871 34.2916 23.4165C35.9844 24.5459 38.1498 24.2659 39.1282 22.7912Z" fill="#F2F2F2"/>
        <path d="M117.488 5.40882C118.466 3.93407 117.887 1.82301 116.194 0.693632C114.501 -0.435746 112.336 -0.155774 111.358 1.31897C110.379 2.79372 110.958 4.9048 112.651 6.03418C114.344 7.16356 116.509 6.88357 117.488 5.40882Z" fill="#F2F2F2"/>
        <path d="M80.3977 151.243C81.3761 149.768 80.797 147.657 79.1043 146.528C77.4115 145.398 75.2461 145.678 74.2677 147.153C73.2892 148.628 73.8684 150.739 75.5611 151.868C77.2539 152.998 79.4193 152.718 80.3977 151.243Z" fill="#E6E6E6"/>
        <path d="M242.042 228H7.21388C7.10006 228 6.99102 227.954 6.91065 227.873C6.83028 227.792 6.78516 227.683 6.78516 227.569C6.78516 227.455 6.83028 227.345 6.91065 227.264C6.99102 227.184 7.10006 227.138 7.21388 227.138H242.042C242.156 227.138 242.266 227.183 242.346 227.264C242.427 227.345 242.472 227.455 242.472 227.569C242.472 227.683 242.427 227.793 242.346 227.874C242.266 227.955 242.156 228 242.042 228Z" fill="#CCCCCC"/>
        <path d="M50.9223 84.7964C48.947 84.7906 47.0431 84.0551 45.5745 82.7303C44.1059 81.4055 43.1757 79.5844 42.9617 77.6152L38.3772 34.918C38.152 32.7981 38.7745 30.6751 40.1082 29.0149C41.4419 27.3547 43.3779 26.2928 45.4914 26.0622L181.614 11.3642C183.728 11.1382 185.845 11.7624 187.5 13.0999C189.156 14.4373 190.215 16.3787 190.445 18.4982L195.029 61.1952C195.255 63.3152 194.632 65.4382 193.298 67.0985C191.965 68.7588 190.029 69.8208 187.915 70.0514L51.7928 84.7493C51.5037 84.7806 51.2131 84.7963 50.9223 84.7964Z" fill="#E6E6E6"/>
        <path d="M180.11 13.3462C179.855 13.3463 179.599 13.3601 179.345 13.3876L48.1301 27.5556C47.2126 27.6547 46.3236 27.934 45.5138 28.3776C44.7039 28.8212 43.9891 29.4205 43.4102 30.1411C42.8313 30.8618 42.3996 31.6897 42.1398 32.5776C41.8799 33.4656 41.7971 34.3962 41.8959 35.3162L44.2138 56.9043C44.5885 60.3943 45.645 63.7761 47.323 66.8566C49.0009 69.9372 51.2676 72.6561 53.9934 74.8582C56.7192 77.0603 59.8509 78.7024 63.2096 79.6908C66.5682 80.6792 70.0882 80.9944 73.5684 80.6186L165.834 70.6561C169.304 70.2815 172.666 69.2252 175.728 67.5476C178.791 65.87 181.494 63.6039 183.683 60.8788C185.872 58.1536 187.505 55.0227 188.487 51.6648C189.47 48.3069 189.784 44.7878 189.41 41.3085L187.083 19.6394C186.898 17.9134 186.084 16.3167 184.797 15.1554C183.51 13.9941 181.841 13.3499 180.11 13.3462Z" fill="white"/>
        <path d="M152.484 35.8133L79.146 43.732C78.9363 43.755 78.7242 43.7362 78.5217 43.6768C78.3193 43.6175 78.1304 43.5187 77.9661 43.3861C77.8017 43.2535 77.6651 43.0897 77.5639 42.9041C77.4627 42.7185 77.399 42.5147 77.3764 42.3044C77.3538 42.0941 77.3728 41.8814 77.4323 41.6784C77.4917 41.4755 77.5905 41.2863 77.723 41.1216C77.8554 40.957 78.0189 40.8201 78.2041 40.7189C78.3893 40.6177 78.5926 40.5541 78.8024 40.5317L152.14 32.613C152.35 32.5901 152.562 32.6088 152.764 32.6682C152.967 32.7275 153.155 32.8263 153.32 32.9589C153.484 33.0915 153.621 33.2553 153.722 33.4409C153.823 33.6265 153.887 33.8303 153.91 34.0406C153.932 34.2509 153.913 34.4637 153.854 34.6666C153.794 34.8696 153.695 35.0588 153.563 35.2234C153.431 35.388 153.267 35.5249 153.082 35.6261C152.897 35.7273 152.693 35.7909 152.484 35.8133Z" fill="#1151B3"/>
        <path d="M153.536 45.6353L80.1986 53.5541C79.7754 53.5998 79.3514 53.475 79.0199 53.2072C78.6885 52.9395 78.4767 52.5506 78.4311 52.1262C78.3855 51.7018 78.5099 51.2767 78.777 50.9443C79.044 50.6119 79.4318 50.3995 79.855 50.3538L153.192 42.435C153.616 42.3893 154.04 42.5141 154.371 42.7819C154.703 43.0497 154.914 43.4385 154.96 43.8629C155.005 44.2873 154.881 44.7124 154.614 45.0448C154.347 45.3772 153.959 45.5896 153.536 45.6353Z" fill="#1151B3"/>
        <path d="M89.7997 62.4529L81.2533 63.3758C80.8301 63.4215 80.4061 63.2967 80.0746 63.0289C79.7432 62.7611 79.5314 62.3723 79.4858 61.9479C79.4402 61.5235 79.5646 61.0984 79.8317 60.766C80.0987 60.4336 80.4864 60.2212 80.9096 60.1755L89.4561 59.2526C89.6657 59.2297 89.8779 59.2485 90.0804 59.3078C90.2828 59.3672 90.4716 59.466 90.636 59.5986C90.8003 59.7312 90.937 59.895 91.0382 60.0806C91.1394 60.2662 91.2031 60.47 91.2257 60.6803C91.2483 60.8906 91.2293 61.1033 91.1698 61.3063C91.1103 61.5092 91.0116 61.6984 90.8791 61.863C90.7467 62.0277 90.5832 62.1645 90.398 62.2657C90.2127 62.367 90.0094 62.4306 89.7997 62.4529Z" fill="#1151B3"/>
        <path d="M48.0373 36.7198C49.6328 36.7198 50.9262 35.4228 50.9262 33.8228C50.9262 32.2228 49.6328 30.9258 48.0373 30.9258C46.4418 30.9258 45.1484 32.2228 45.1484 33.8228C45.1484 35.4228 46.4418 36.7198 48.0373 36.7198Z" fill="#3F3D56"/>
        <path d="M177.315 22.2345C178.91 22.2345 180.204 20.9374 180.204 19.3374C180.204 17.7375 178.91 16.4404 177.315 16.4404C175.719 16.4404 174.426 17.7375 174.426 19.3374C174.426 20.9374 175.719 22.2345 177.315 22.2345Z" fill="#3F3D56"/>
        <path d="M138.259 81.7091C137.993 81.4753 137.783 81.1851 137.643 80.8597C137.504 80.5342 137.438 80.1817 137.451 79.8276C137.596 75.6197 136.905 71.425 135.418 67.4875C135.292 67.1565 135.241 66.8015 135.269 66.4483C135.297 66.0951 135.403 65.7525 135.579 65.4455C135.748 65.1505 135.98 64.8962 136.257 64.7004C136.535 64.5046 136.852 64.3721 137.186 64.3122C140.544 62.2802 143.986 61.7097 147.419 62.617C147.973 62.5352 148.537 62.6541 149.011 62.9521C149.485 63.2502 149.838 63.708 150.006 64.2433C151.396 68.7684 152.169 73.4613 152.304 78.1943C152.317 78.7621 152.125 79.3155 151.764 79.7529C151.403 80.1903 150.896 80.4823 150.338 80.5753L140.178 82.2585C139.838 82.3156 139.489 82.296 139.157 82.2009C138.825 82.1059 138.518 81.9379 138.259 81.7091Z" fill="#1151B3"/>
        <path d="M139.16 69.4491L147.711 68.0324C147.781 68.021 147.848 67.9957 147.909 67.9581C147.97 67.9204 148.022 67.8712 148.064 67.8132C148.105 67.7551 148.135 67.6895 148.151 67.6199C148.167 67.5503 148.17 67.4783 148.158 67.4078C148.146 67.3373 148.121 67.2698 148.083 67.2092C148.046 67.1485 147.997 67.0959 147.939 67.0544C147.881 67.0128 147.815 66.9832 147.746 66.9671C147.676 66.951 147.604 66.9488 147.534 66.9606L138.983 68.3772C138.842 68.401 138.716 68.4801 138.632 68.5971C138.549 68.7141 138.515 68.8596 138.538 69.0015C138.562 69.1434 138.64 69.2702 138.757 69.3542C138.873 69.4381 139.018 69.4722 139.16 69.4491Z" fill="white"/>
        <path d="M139.866 73.7365L148.416 72.3198C148.558 72.2964 148.685 72.2174 148.768 72.1003C148.852 71.9832 148.886 71.8375 148.862 71.6954C148.839 71.5532 148.76 71.4263 148.643 71.3424C148.527 71.2585 148.381 71.2245 148.24 71.248L139.689 72.6646C139.619 72.6761 139.551 72.7014 139.491 72.739C139.43 72.7766 139.378 72.8259 139.336 72.8839C139.295 72.9419 139.265 73.0076 139.249 73.0772C139.232 73.1467 139.23 73.2188 139.242 73.2893C139.253 73.3598 139.279 73.4273 139.316 73.4879C139.354 73.5486 139.403 73.6012 139.461 73.6427C139.519 73.6842 139.585 73.7139 139.654 73.73C139.723 73.7461 139.795 73.7483 139.866 73.7365Z" fill="white"/>
        <path d="M140.571 78.0236L149.122 76.6069C149.264 76.5835 149.39 76.5045 149.474 76.3874C149.558 76.2703 149.592 76.1246 149.568 75.9825C149.545 75.8403 149.466 75.7134 149.349 75.6295C149.233 75.5456 149.087 75.5116 148.946 75.5351L140.395 76.9517C140.325 76.9634 140.257 76.9887 140.197 77.0264C140.137 77.0641 140.084 77.1133 140.043 77.1713C140.001 77.2293 139.972 77.2949 139.956 77.3644C139.939 77.4338 139.937 77.5058 139.949 77.5762C139.96 77.6466 139.986 77.714 140.023 77.7746C140.061 77.8351 140.11 77.8877 140.168 77.9292C140.225 77.9708 140.291 78.0005 140.36 78.0167C140.429 78.0329 140.501 78.0352 140.571 78.0236Z" fill="white"/>
    </g>
    <defs>
        <clipPath id="clip0_127_17522">
            <rect width="264" height="228" fill="white"/>
        </clipPath>
    </defs>
</svg>
