<svg width="36" height="36" viewBox="0 0 36 36" fill="none" xmlns="http://www.w3.org/2000/svg">
    <circle cx="18" cy="18" r="18" fill="#FEEDE8"/>
    <path d="M11.3795 20.6612C10.9991 20.6612 10.6908 20.3427 10.6908 19.9497C10.6908 19.5568 10.9991 19.2383 11.3795 19.2383C11.7598 19.2383 12.0681 19.5568 12.0681 19.9497C12.0681 20.3427 11.7598 20.6612 11.3795 20.6612Z" fill="#F24E1E"/>
    <path d="M12.8818 22.9537C12.5014 22.9537 12.1931 22.6352 12.1931 22.2422C12.1931 21.8493 12.5014 21.5308 12.8818 21.5308C13.2621 21.5308 13.5704 21.8493 13.5704 22.2422C13.5704 22.6352 13.2621 22.9537 12.8818 22.9537Z" fill="#F24E1E"/>
    <path d="M10.8624 17.9317C10.482 17.9317 10.1737 17.6132 10.1737 17.2203C10.1737 16.8273 10.482 16.5088 10.8624 16.5088C11.2427 16.5088 11.551 16.8273 11.551 17.2203C11.551 17.6132 11.2427 17.9317 10.8624 17.9317Z" fill="#F24E1E"/>
    <path d="M15.1126 24.5074C14.7323 24.5074 14.424 24.1889 14.424 23.7959C14.424 23.403 14.7323 23.0845 15.1126 23.0845C15.4929 23.0845 15.8013 23.403 15.8013 23.7959C15.8013 24.1889 15.4929 24.5074 15.1126 24.5074Z" fill="#F24E1E"/>
    <path d="M17.7466 23.6204C18.7385 23.6216 19.7161 23.3769 20.5974 22.9068C21.4788 22.4367 22.238 21.7549 22.8114 20.9188C23.3848 20.0827 23.7556 19.1166 23.8926 18.1017C24.0296 17.0868 23.9288 16.0528 23.5988 15.0865C23.2687 14.1201 22.719 13.2498 21.9958 12.5485C21.2726 11.8472 20.3971 11.3355 19.4427 11.0563C18.4884 10.7771 17.4831 10.7386 16.5114 10.9441C15.5397 11.1495 14.6299 11.5929 13.8584 12.237H14.992C15.1746 12.237 15.3498 12.3119 15.4789 12.4453C15.6081 12.5788 15.6806 12.7597 15.6806 12.9484C15.6806 13.1371 15.6081 13.3181 15.4789 13.4515C15.3498 13.5849 15.1746 13.6599 14.992 13.6599H12.2373C12.0547 13.6599 11.8795 13.5849 11.7504 13.4515C11.6212 13.3181 11.5487 13.1371 11.5487 12.9484V10.1026C11.5487 9.91388 11.6212 9.73292 11.7504 9.5995C11.8795 9.46607 12.0547 9.39111 12.2373 9.39111C12.42 9.39111 12.5951 9.46607 12.7243 9.5995C12.8534 9.73292 12.926 9.91388 12.926 10.1026V11.1918C13.8625 10.392 14.9715 9.83668 16.1595 9.57289C17.3474 9.3091 18.5794 9.34455 19.7513 9.67624C20.9232 10.0079 22.0006 10.6261 22.8925 11.4786C23.7845 12.3311 24.4647 13.3928 24.8758 14.5741C25.2869 15.7554 25.4168 17.0215 25.2545 18.2656C25.0922 19.5096 24.6425 20.6951 23.9434 21.7218C23.2442 22.7485 22.3162 23.5863 21.2376 24.1644C20.1591 24.7425 18.9617 25.0439 17.7466 25.0433C17.564 25.0433 17.3888 24.9683 17.2596 24.8349C17.1305 24.7015 17.0579 24.5205 17.0579 24.3318C17.0579 24.1431 17.1305 23.9622 17.2596 23.8287C17.3888 23.6953 17.564 23.6204 17.7466 23.6204Z" fill="#F24E1E"/>
    <path d="M15.1937 19.8544C15.0646 19.721 14.992 19.5401 14.992 19.3514C14.992 19.1628 15.0646 18.9819 15.1937 18.8484L17.0579 16.9225V12.9483C17.0579 12.7596 17.1304 12.5786 17.2596 12.4452C17.3887 12.3118 17.5639 12.2368 17.7465 12.2368C17.9292 12.2368 18.1043 12.3118 18.2335 12.4452C18.3626 12.5786 18.4352 12.7596 18.4352 12.9483V17.2171C18.4351 17.4057 18.3626 17.5867 18.2334 17.7201L16.1674 19.8544C16.0383 19.9878 15.8632 20.0628 15.6805 20.0628C15.4979 20.0628 15.3228 19.9878 15.1937 19.8544Z" fill="#F24E1E"/>
    </svg>
    