<svg width="20" height="20" viewBox="0 0 20 20" fill="none" xmlns="http://www.w3.org/2000/svg">
<g id="material-symbols:notifications-outline">
<path id="Vector" d="M3.33337 15.8334V14.1667H5.00004V8.33342C5.00004 7.18064 5.34726 6.15619 6.04171 5.26008C6.73615 4.36397 7.63893 3.77731 8.75004 3.50008V2.91675C8.75004 2.56953 8.87171 2.27425 9.11504 2.03092C9.35837 1.78758 9.65337 1.66619 10 1.66675C10.3473 1.66675 10.6425 1.78842 10.8859 2.03175C11.1292 2.27508 11.2506 2.57008 11.25 2.91675V3.50008C12.3612 3.77786 13.2639 4.36481 13.9584 5.26092C14.6528 6.15703 15 7.18119 15 8.33342V14.1667H16.6667V15.8334H3.33337ZM10 18.3334C9.54171 18.3334 9.14921 18.1701 8.82254 17.8434C8.49587 17.5167 8.33282 17.1245 8.33337 16.6667H11.6667C11.6667 17.1251 11.5034 17.5176 11.1767 17.8442C10.85 18.1709 10.4578 18.334 10 18.3334ZM6.66671 14.1667H13.3334V8.33342C13.3334 7.41675 13.007 6.63203 12.3542 5.97925C11.7014 5.32647 10.9167 5.00008 10 5.00008C9.08337 5.00008 8.29865 5.32647 7.64587 5.97925C6.9931 6.63203 6.66671 7.41675 6.66671 8.33342V14.1667Z" fill="#101828"/>
</g>
</svg>
