<svg width="20" height="20" viewBox="0 0 20 20" fill="none" xmlns="http://www.w3.org/2000/svg">
<g clip-path="url(#clip0_1541_6153)">
<path fill-rule="evenodd" clip-rule="evenodd" d="M9.99997 1.66675C14.6025 1.66675 18.3333 5.39758 18.3333 10.0001C18.3362 11.9233 17.6711 13.7879 16.4516 15.2751L16.4683 15.2934L16.3583 15.3867C15.5768 16.3111 14.603 17.0537 13.5047 17.5627C12.4065 18.0716 11.2104 18.3347 9.99997 18.3334C7.54163 18.3334 5.3333 17.2692 3.8083 15.5776L3.64163 15.3859L3.53163 15.2942L3.5483 15.2742C2.32893 13.7873 1.66382 11.9231 1.66663 10.0001C1.66663 5.39758 5.39747 1.66675 9.99997 1.66675ZM9.99997 14.1667C8.44997 14.1667 7.04913 14.6601 6.0058 15.3376C7.15771 16.2023 8.55963 16.6688 9.99997 16.6667C11.4403 16.6688 12.8422 16.2023 13.9941 15.3376C12.8019 14.5739 11.4158 14.1676 9.99997 14.1667ZM9.99997 3.33341C8.7454 3.33338 7.51629 3.68734 6.4539 4.35462C5.39152 5.0219 4.53897 5.97541 3.99427 7.10556C3.44956 8.2357 3.2348 9.49661 3.37468 10.7434C3.51455 11.9901 4.00338 13.1721 4.78497 14.1534C6.1358 13.1842 7.97913 12.5001 9.99997 12.5001C12.0208 12.5001 13.8641 13.1842 15.215 14.1534C15.9966 13.1721 16.4854 11.9901 16.6253 10.7434C16.7651 9.49661 16.5504 8.2357 16.0057 7.10556C15.461 5.97541 14.6084 5.0219 13.546 4.35462C12.4836 3.68734 11.2545 3.33338 9.99997 3.33341ZM9.99997 5.00008C10.884 5.00008 11.7319 5.35127 12.357 5.97639C12.9821 6.60151 13.3333 7.44936 13.3333 8.33342C13.3333 9.21747 12.9821 10.0653 12.357 10.6904C11.7319 11.3156 10.884 11.6667 9.99997 11.6667C9.11591 11.6667 8.26807 11.3156 7.64295 10.6904C7.01782 10.0653 6.66663 9.21747 6.66663 8.33342C6.66663 7.44936 7.01782 6.60151 7.64295 5.97639C8.26807 5.35127 9.11591 5.00008 9.99997 5.00008ZM9.99997 6.66675C9.55794 6.66675 9.13402 6.84234 8.82146 7.1549C8.5089 7.46746 8.3333 7.89139 8.3333 8.33342C8.3333 8.77544 8.5089 9.19937 8.82146 9.51193C9.13402 9.82449 9.55794 10.0001 9.99997 10.0001C10.442 10.0001 10.8659 9.82449 11.1785 9.51193C11.491 9.19937 11.6666 8.77544 11.6666 8.33342C11.6666 7.89139 11.491 7.46746 11.1785 7.1549C10.8659 6.84234 10.442 6.66675 9.99997 6.66675Z" fill="#101828"/>
</g>
<defs>
<clipPath id="clip0_1541_6153">
<rect width="20" height="20" fill="white"/>
</clipPath>
</defs>
</svg>
