<svg width="20" height="20" viewBox="0 0 20 20" fill="none" xmlns="http://www.w3.org/2000/svg">
<g id="mingcute:report-line" clip-path="url(#clip0_1607_3659)">
<g id="Group">
<path id="Vector" d="M10 5.83341C11.2937 5.83337 12.537 6.33472 13.4687 7.23214C14.4005 8.12955 14.9482 9.35317 14.9967 10.6459L15 10.8334V16.6667H15.8333C16.0457 16.667 16.25 16.7483 16.4045 16.8941C16.5589 17.0399 16.6519 17.2392 16.6643 17.4512C16.6768 17.6633 16.6078 17.8721 16.4715 18.0349C16.3351 18.1978 16.1418 18.3025 15.9308 18.3276L15.8333 18.3334H4.16668C3.95428 18.3332 3.74998 18.2518 3.59554 18.106C3.44109 17.9602 3.34815 17.761 3.3357 17.5489C3.32325 17.3369 3.39224 17.1281 3.52856 16.9652C3.66489 16.8023 3.85826 16.6977 4.06918 16.6726L4.16668 16.6667H5.00001V10.8334C5.00001 9.50733 5.52679 8.23556 6.46448 7.29788C7.40216 6.3602 8.67393 5.83341 10 5.83341ZM10 7.50008C9.11595 7.50008 8.26811 7.85127 7.64299 8.47639C7.01787 9.10151 6.66668 9.94936 6.66668 10.8334V16.6667H13.3333V10.8334C13.3333 9.94936 12.9822 9.10151 12.357 8.47639C11.7319 7.85127 10.8841 7.50008 10 7.50008ZM10.4283 9.70258C10.6178 9.81615 10.7544 10.0003 10.8081 10.2145C10.8619 10.4287 10.8284 10.6555 10.715 10.8451L10.2217 11.6667H11.235C11.8892 11.6667 12.2933 12.3809 11.9567 12.9417L10.715 15.0126C10.6012 15.2022 10.4167 15.3389 10.2021 15.3925C9.98755 15.4461 9.76047 15.4122 9.57084 15.2984C9.38121 15.1846 9.24457 15.0001 9.19096 14.7855C9.13736 14.571 9.17119 14.3439 9.28501 14.1542L9.77834 13.3334H8.76501C8.61603 13.3334 8.46971 13.2939 8.341 13.2189C8.21229 13.1438 8.1058 13.036 8.03241 12.9063C7.95903 12.7767 7.92137 12.6299 7.92329 12.4809C7.92521 12.3319 7.96664 12.1861 8.04334 12.0584L9.28501 9.98758C9.34138 9.8937 9.41571 9.81185 9.50373 9.7467C9.59176 9.68156 9.69176 9.63441 9.79802 9.60794C9.90429 9.58147 10.0147 9.57621 10.123 9.59245C10.2313 9.60869 10.3354 9.64611 10.4292 9.70258H10.4283ZM4.69668 4.35091L5.28584 4.94008C5.43776 5.09714 5.5219 5.30759 5.52016 5.52609C5.51842 5.74459 5.43093 5.95366 5.27653 6.10828C5.12213 6.2629 4.91318 6.35069 4.69468 6.35274C4.47618 6.35479 4.26562 6.27094 4.10834 6.11925L3.51918 5.53008C3.43959 5.45321 3.3761 5.36126 3.33243 5.25959C3.28875 5.15792 3.26576 5.04856 3.2648 4.93792C3.26384 4.82727 3.28493 4.71753 3.32683 4.61512C3.36873 4.51271 3.4306 4.41966 3.50885 4.34142C3.58709 4.26318 3.68014 4.2013 3.78255 4.1594C3.88496 4.1175 3.9947 4.09641 4.10534 4.09737C4.21599 4.09833 4.32534 4.12132 4.42701 4.165C4.52868 4.20867 4.62064 4.27216 4.69751 4.35175L4.69668 4.35091ZM16.4817 4.35091C16.6252 4.49441 16.7114 4.68533 16.7241 4.88785C16.7368 5.09037 16.6752 5.29058 16.5508 5.45091L16.4817 5.52925L15.8925 6.11841C15.7425 6.26787 15.5413 6.35464 15.3297 6.3611C15.1181 6.36757 14.9119 6.29324 14.7531 6.15321C14.5943 6.01318 14.4948 5.81796 14.4747 5.60719C14.4546 5.39642 14.5155 5.18591 14.645 5.01841L14.7142 4.94008L15.3033 4.35091C15.4596 4.19469 15.6715 4.10693 15.8925 4.10693C16.1135 4.10693 16.3254 4.19469 16.4817 4.35091ZM10 1.66675C10.2041 1.66677 10.4011 1.74171 10.5537 1.87734C10.7062 2.01298 10.8036 2.19987 10.8275 2.40258L10.8333 2.50008V3.33341C10.8331 3.54581 10.7518 3.75011 10.606 3.90456C10.4602 4.059 10.2609 4.15194 10.0488 4.16439C9.83681 4.17684 9.62803 4.10785 9.46515 3.97153C9.30227 3.8352 9.1976 3.64183 9.17251 3.43091L9.16668 3.33341V2.50008C9.16668 2.27907 9.25447 2.06711 9.41076 1.91083C9.56704 1.75455 9.779 1.66675 10 1.66675Z" fill="#072048"/>
</g>
</g>
<defs>
<clipPath id="clip0_1607_3659">
<rect width="20" height="20" fill="white"/>
</clipPath>
</defs>
</svg>
