<svg width="20" height="20" viewBox="0 0 20 20" fill="none" xmlns="http://www.w3.org/2000/svg">
<g id="vuesax/bold/setting-4">
<g id="setting-4">
<path id="Vector" d="M17.75 6.31669H13.1C12.775 6.31669 12.5167 6.05836 12.5167 5.73336C12.5167 5.40836 12.775 5.15002 13.1 5.15002H17.75C18.075 5.15002 18.3333 5.40836 18.3333 5.73336C18.3333 6.05836 18.075 6.31669 17.75 6.31669Z" fill="white"/>
<path id="Vector_2" d="M5.34999 6.31669H2.24999C1.92499 6.31669 1.66666 6.05836 1.66666 5.73336C1.66666 5.40836 1.92499 5.15002 2.24999 5.15002H5.34999C5.67499 5.15002 5.93332 5.40836 5.93332 5.73336C5.93332 6.05836 5.66666 6.31669 5.34999 6.31669Z" fill="white"/>
<path id="Vector_3" d="M8.44999 9.02498C10.2679 9.02498 11.7417 7.55125 11.7417 5.73332C11.7417 3.91538 10.2679 2.44165 8.44999 2.44165C6.63205 2.44165 5.15833 3.91538 5.15833 5.73332C5.15833 7.55125 6.63205 9.02498 8.44999 9.02498Z" fill="white"/>
<path id="Vector_4" d="M17.75 14.8417H14.65C14.325 14.8417 14.0667 14.5833 14.0667 14.2583C14.0667 13.9333 14.325 13.675 14.65 13.675H17.75C18.075 13.675 18.3333 13.9333 18.3333 14.2583C18.3333 14.5833 18.075 14.8417 17.75 14.8417Z" fill="white"/>
<path id="Vector_5" d="M6.89999 14.8417H2.24999C1.92499 14.8417 1.66666 14.5833 1.66666 14.2583C1.66666 13.9333 1.92499 13.675 2.24999 13.675H6.89999C7.22499 13.675 7.48332 13.9333 7.48332 14.2583C7.48332 14.5833 7.21666 14.8417 6.89999 14.8417Z" fill="white"/>
<path id="Vector_6" d="M11.55 17.5583C13.3679 17.5583 14.8417 16.0846 14.8417 14.2666C14.8417 12.4487 13.3679 10.975 11.55 10.975C9.73206 10.975 8.25833 12.4487 8.25833 14.2666C8.25833 16.0846 9.73206 17.5583 11.55 17.5583Z" fill="white"/>
</g>
</g>
</svg>
