<svg width="25" height="24" viewBox="0 0 25 24" fill="none" xmlns="http://www.w3.org/2000/svg">
<g id="solar:share-linear">
<g id="Group">
<path id="Vector" d="M9.28052 12C9.28052 12.663 9.01713 13.2989 8.54828 13.7678C8.07944 14.2366 7.44356 14.5 6.78052 14.5C6.11748 14.5 5.48159 14.2366 5.01275 13.7678C4.54391 13.2989 4.28052 12.663 4.28052 12C4.28052 11.337 4.54391 10.7011 5.01275 10.2322C5.48159 9.76339 6.11748 9.5 6.78052 9.5C7.44356 9.5 8.07944 9.76339 8.54828 10.2322C9.01713 10.7011 9.28052 11.337 9.28052 12Z" stroke="black" stroke-width="1.5"/>
<path id="Vector_2" d="M14.2805 6.5L9.28052 10M14.2805 17.5L9.28052 14" stroke="black" stroke-width="1.5" stroke-linecap="round"/>
<path id="Vector_3" d="M19.2805 18.5C19.2805 19.163 19.0171 19.7989 18.5483 20.2678C18.0794 20.7366 17.4436 21 16.7805 21C16.1175 21 15.4816 20.7366 15.0128 20.2678C14.5439 19.7989 14.2805 19.163 14.2805 18.5C14.2805 17.837 14.5439 17.2011 15.0128 16.7322C15.4816 16.2634 16.1175 16 16.7805 16C17.4436 16 18.0794 16.2634 18.5483 16.7322C19.0171 17.2011 19.2805 17.837 19.2805 18.5ZM19.2805 5.5C19.2805 6.16304 19.0171 6.79893 18.5483 7.26777C18.0794 7.73661 17.4436 8 16.7805 8C16.1175 8 15.4816 7.73661 15.0128 7.26777C14.5439 6.79893 14.2805 6.16304 14.2805 5.5C14.2805 4.83696 14.5439 4.20107 15.0128 3.73223C15.4816 3.26339 16.1175 3 16.7805 3C17.4436 3 18.0794 3.26339 18.5483 3.73223C19.0171 4.20107 19.2805 4.83696 19.2805 5.5Z" stroke="black" stroke-width="1.5"/>
</g>
</g>
</svg>
