<svg width="40" height="40" viewBox="0 0 40 40" fill="none" xmlns="http://www.w3.org/2000/svg">
    <g clip-path="url(#clip0_44_24381)">
        <path d="M24.135 17.7404L27.1481 18.8472L24.6423 25.6699C24.4078 26.3116 23.1361 28.3196 22.2505 28.7292L22.0356 29.3154C22.0018 29.4067 21.9333 29.4809 21.845 29.5219C21.7567 29.5629 21.6558 29.5673 21.5643 29.5342C21.5189 29.5176 21.4773 29.4922 21.4418 29.4594C21.4063 29.4267 21.3776 29.3873 21.3573 29.3434C21.3371 29.2996 21.3257 29.2521 21.3238 29.2039C21.3218 29.1556 21.3295 29.1074 21.3462 29.0621L21.5494 28.508C21.1 27.6349 21.4353 25.0993 21.6323 24.5631L24.135 17.7404ZM28.4957 10.5214C27.6671 10.2181 26.6972 10.845 26.4197 11.6024L24.6048 16.5469L27.6171 17.6521L29.4297 12.7084C29.6579 12.0893 29.3257 10.8255 28.4957 10.5214ZM23.0439 17.4848C23.2267 17.5523 23.4289 17.5446 23.606 17.4633C23.7832 17.3819 23.9208 17.2337 23.9889 17.051L25.9038 11.8861C25.959 11.7063 25.9433 11.5122 25.86 11.3437C25.7766 11.1751 25.6319 11.0448 25.4556 10.9795C25.2792 10.9142 25.0845 10.9189 24.9115 10.9925C24.7385 11.0662 24.6002 11.2033 24.525 11.3757L22.6101 16.5406C22.5766 16.6311 22.5612 16.7273 22.5649 16.8237C22.5685 16.9202 22.5911 17.0149 22.6314 17.1026C22.6717 17.1903 22.7289 17.2691 22.7996 17.3347C22.8704 17.4003 22.9534 17.4513 23.0439 17.4848ZM19.9612 27.1698C19.7634 26.983 19.5172 26.7501 19.1186 26.5727C18.7903 26.4265 18.4706 26.4195 18.2369 26.414L18.1564 26.4125C18.0103 26.0123 17.714 25.7606 17.2693 25.6621C16.6807 25.5378 16.211 25.8153 15.8851 26.0295C15.914 25.8653 15.9617 25.6699 15.9968 25.5292C16.1094 25.0759 16.2251 24.6069 16.1391 24.1677C16.1057 23.9988 16.0176 23.8456 15.8885 23.7317C15.7594 23.6179 15.5964 23.5497 15.4247 23.5377C14.5141 23.4869 13.77 23.9769 13.1142 24.4201C12.4256 24.8852 11.984 25.1626 11.5447 25.0055C11.0085 24.8148 10.9546 23.3634 11.2125 22.0706C11.4431 20.906 11.8722 18.7378 12.972 17.7529C13.3425 17.4215 13.8786 17.0628 14.3195 17.2371C14.8377 17.4403 15.266 18.2938 15.3614 19.3107C15.3706 19.413 15.4 19.5125 15.4478 19.6034C15.4956 19.6944 15.561 19.7749 15.6401 19.8405C15.7193 19.906 15.8106 19.9552 15.9088 19.9853C16.0071 20.0154 16.1103 20.0257 16.2125 20.0157C16.3148 20.0062 16.4141 19.9766 16.5049 19.9287C16.5957 19.8807 16.6761 19.8154 16.7416 19.7363C16.807 19.6573 16.8563 19.5661 16.8865 19.4679C16.9167 19.3698 16.9273 19.2667 16.9176 19.1645C16.7628 17.5075 15.9859 16.2116 14.8908 15.7809C14.2351 15.5261 13.1924 15.4573 11.9285 16.5883C10.5536 17.8194 10.0456 19.9071 9.67745 21.7665C9.49299 22.6951 9.04356 25.7762 11.0195 26.4789C12.2232 26.908 13.201 26.246 13.9865 25.716C14.1303 25.6191 14.2718 25.5238 14.4094 25.4386C14.2788 26.0052 14.1975 26.6118 14.5399 27.1229C15.0503 27.8905 15.7717 27.9741 16.6831 27.3738C16.7183 27.3512 16.7589 27.3246 16.7972 27.298C16.8816 27.4747 17.0309 27.6693 17.3021 27.8022C17.6304 27.9632 17.9587 27.971 18.1979 27.9772C18.3002 27.9796 18.4402 27.9827 18.4824 28.0015C18.6293 28.0664 18.7161 28.1461 18.8849 28.3055C19.0115 28.4251 19.1452 28.5494 19.3148 28.6776C19.481 28.7969 19.6874 28.8462 19.8896 28.815C20.0918 28.7839 20.2737 28.6746 20.3963 28.5108C20.5189 28.347 20.5723 28.1417 20.5452 27.9389C20.5181 27.7361 20.4125 27.552 20.2512 27.4262C20.1378 27.3387 20.0479 27.2519 19.9612 27.1698Z" fill="#1F4068"/>
    </g>
    <defs>
        <clipPath id="clip0_44_24381">
            <rect width="20" height="20" fill="white" transform="translate(9.5 10)"/>
        </clipPath>
    </defs>
</svg>
