<svg width="28" height="28" viewBox="0 0 28 28" fill="none" xmlns="http://www.w3.org/2000/svg">
<g id="ant-design:star-filled">
<path id="Vector" d="M24.7288 9.87705L18.0911 8.91238L15.1239 2.89687C15.0428 2.73217 14.9095 2.59884 14.7448 2.5178C14.3317 2.31388 13.8298 2.48381 13.6232 2.89687L10.656 8.91238L4.01831 9.87705C3.8353 9.9032 3.66799 9.98947 3.53989 10.1202C3.38502 10.2794 3.29968 10.4935 3.30262 10.7156C3.30557 10.9376 3.39655 11.1494 3.55557 11.3045L8.35804 15.9867L7.22344 22.5982C7.19683 22.752 7.21385 22.9102 7.27257 23.0548C7.33128 23.1995 7.42934 23.3247 7.55563 23.4164C7.68192 23.5082 7.83138 23.5627 7.98707 23.5738C8.14276 23.5849 8.29845 23.5521 8.43647 23.4793L14.3735 20.3578L20.3106 23.4793C20.4727 23.5655 20.6609 23.5943 20.8413 23.5629C21.2962 23.4845 21.6021 23.0531 21.5237 22.5982L20.3891 15.9867L25.1915 11.3045C25.3222 11.1764 25.4085 11.009 25.4346 10.826C25.5052 10.3685 25.1863 9.94503 24.7288 9.87705Z" fill="#FFD33C"/>
</g>
</svg>
