<svg width="101" height="100" viewBox="0 0 101 100" fill="none" xmlns="http://www.w3.org/2000/svg">
<g id="ep:success-filled">
<path id="Vector" d="M45.269 58.2233L35.8482 48.7966L35.8481 48.7964C35.4513 48.3996 34.9802 48.0848 34.4617 47.8701C33.9432 47.6553 33.3875 47.5448 32.8263 47.5448C32.2651 47.5448 31.7094 47.6553 31.1909 47.8701C30.6724 48.0848 30.2013 48.3996 29.8044 48.7964C29.003 49.5979 28.5528 50.6849 28.5528 51.8183C28.5528 52.9517 29.003 54.0387 29.8044 54.8401L42.2488 67.2845C42.2491 67.2848 42.2495 67.2851 42.2498 67.2855C42.6455 67.684 43.1161 68.0003 43.6345 68.2163C44.1534 68.4324 44.7099 68.5436 45.272 68.5436C45.8341 68.5436 46.3906 68.4324 46.9095 68.2163C47.4282 68.0002 47.8989 67.6837 48.2948 67.2849C48.2949 67.2848 48.2951 67.2846 48.2952 67.2845L74.0622 41.5112C74.0628 41.5106 74.0634 41.51 74.064 41.5094C74.4653 41.1145 74.7846 40.6443 75.0035 40.1256C75.2228 39.6061 75.337 39.0483 75.3396 38.4845C75.3422 37.9207 75.2332 37.3619 75.0188 36.8404C74.8044 36.3189 74.4889 35.845 74.0904 35.4461C73.6919 35.0471 73.2184 34.731 72.6972 34.516C72.1759 34.301 71.6173 34.1913 71.0534 34.1932C70.4896 34.1952 69.9317 34.3088 69.4119 34.5274C68.8928 34.7458 68.422 35.0647 68.0266 35.4657C68.0262 35.4662 68.0257 35.4666 68.0252 35.4671L45.269 58.2233ZM50.75 6.75C62.2869 6.75 73.3513 11.333 81.5091 19.4909C89.667 27.6487 94.25 38.7131 94.25 50.25C94.25 61.7869 89.667 72.8513 81.5091 81.0091C73.3513 89.167 62.2869 93.75 50.75 93.75C39.2131 93.75 28.1487 89.167 19.9909 81.0091C11.833 72.8513 7.25 61.7869 7.25 50.25C7.25 38.7131 11.833 27.6487 19.9909 19.4909C28.1487 11.333 39.2131 6.75 50.75 6.75Z" fill="#1151B4" stroke="#1151B4"/>
</g>
</svg>
