<svg width="20" height="20" viewBox="0 0 20 20" fill="none" xmlns="http://www.w3.org/2000/svg">
<g id="bx:support">
<path id="Vector" d="M9.99996 1.66675C5.40496 1.66675 1.66663 5.40508 1.66663 10.0001V13.4526C1.66663 14.3059 2.41413 15.0001 3.33329 15.0001H4.16663C4.38764 15.0001 4.5996 14.9123 4.75588 14.756C4.91216 14.5997 4.99996 14.3878 4.99996 14.1667V9.88091C4.99996 9.6599 4.91216 9.44794 4.75588 9.29166C4.5996 9.13538 4.38764 9.04758 4.16663 9.04758H3.40996C3.87329 5.82258 6.64829 3.33341 9.99996 3.33341C13.3516 3.33341 16.1266 5.82258 16.59 9.04758H15.8333C15.6123 9.04758 15.4003 9.13538 15.244 9.29166C15.0878 9.44794 15 9.6599 15 9.88091V15.0001C15 15.9192 14.2525 16.6667 13.3333 16.6667H11.6666V15.8334H8.33329V18.3334H13.3333C15.1716 18.3334 16.6666 16.8384 16.6666 15.0001C17.5858 15.0001 18.3333 14.3059 18.3333 13.4526V10.0001C18.3333 5.40508 14.595 1.66675 9.99996 1.66675Z" fill="#1D2939"/>
</g>
</svg>
