<svg width="25" height="24" viewBox="0 0 25 24" fill="none" xmlns="http://www.w3.org/2000/svg">
<g id="ph:clock-bold">
<path id="Vector" d="M12.8159 1.875C10.8134 1.875 8.85582 2.46882 7.19077 3.58137C5.52573 4.69392 4.22798 6.27523 3.46164 8.12533C2.6953 9.97543 2.4948 12.0112 2.88547 13.9753C3.27615 15.9393 4.24046 17.7435 5.65647 19.1595C7.07247 20.5755 8.87657 21.5398 10.8406 21.9305C12.8047 22.3211 14.8405 22.1206 16.6906 21.3543C18.5407 20.5879 20.122 19.2902 21.2346 17.6251C22.3471 15.9601 22.9409 14.0025 22.9409 12C22.9379 9.3156 21.8703 6.74199 19.9721 4.84383C18.0739 2.94567 15.5003 1.87798 12.8159 1.875ZM12.8159 19.875C11.2584 19.875 9.73584 19.4131 8.44081 18.5478C7.14577 17.6825 6.13641 16.4526 5.54037 15.0136C4.94433 13.5747 4.78838 11.9913 5.09224 10.4637C5.3961 8.93606 6.14612 7.53287 7.24746 6.43153C8.34879 5.3302 9.75199 4.58017 11.2796 4.27632C12.8072 3.97246 14.3906 4.12841 15.8296 4.72445C17.2685 5.32049 18.4984 6.32985 19.3637 7.62488C20.2291 8.91992 20.6909 10.4425 20.6909 12C20.6887 14.0879 19.8583 16.0896 18.3819 17.566C16.9056 19.0424 14.9038 19.8728 12.8159 19.875ZM19.1909 12C19.1909 12.2984 19.0724 12.5845 18.8614 12.7955C18.6504 13.0065 18.3643 13.125 18.0659 13.125H12.8159C12.5176 13.125 12.2314 13.0065 12.0204 12.7955C11.8094 12.5845 11.6909 12.2984 11.6909 12V6.75C11.6909 6.45163 11.8094 6.16548 12.0204 5.9545C12.2314 5.74353 12.5176 5.625 12.8159 5.625C13.1143 5.625 13.4004 5.74353 13.6114 5.9545C13.8224 6.16548 13.9409 6.45163 13.9409 6.75V10.875H18.0659C18.3643 10.875 18.6504 10.9935 18.8614 11.2045C19.0724 11.4155 19.1909 11.7016 19.1909 12Z" fill="#667085"/>
</g>
</svg>
