<svg width="21" height="20" viewBox="0 0 21 20" fill="none" xmlns="http://www.w3.org/2000/svg">
<g id="vuesax/linear/wallet-3">
<path id="Vector" d="M11.3333 9.29175H6.33334" stroke="#1151B4" stroke-width="1.25" stroke-linecap="round" stroke-linejoin="round"/>
<path id="Vector_2" d="M2.16666 9.2917V5.4417C2.16666 3.7417 3.54166 2.3667 5.24166 2.3667H9.92499C11.625 2.3667 13 3.42503 13 5.12503" stroke="#1151B4" stroke-width="1.25" stroke-linecap="round" stroke-linejoin="round"/>
<path id="Vector_3" d="M15.0666 10.1667C14.65 10.5667 14.45 11.1833 14.6167 11.8166C14.825 12.5916 15.5917 13.0833 16.3917 13.0833H17.1667V14.2917C17.1667 16.1333 15.675 17.625 13.8333 17.625H5.49999C3.65832 17.625 2.16666 16.1333 2.16666 14.2917V8.45833C2.16666 6.61667 3.65832 5.125 5.49999 5.125H13.8333C15.6667 5.125 17.1667 6.625 17.1667 8.45833V9.66663H16.2666C15.8 9.66663 15.375 9.84999 15.0666 10.1667Z" stroke="#1151B4" stroke-width="1.25" stroke-linecap="round" stroke-linejoin="round"/>
<path id="Vector_4" d="M18.8335 10.5166V12.2333C18.8335 12.7 18.4501 13.0833 17.9751 13.0833H16.3668C15.4668 13.0833 14.6418 12.425 14.5668 11.525C14.5168 11 14.7168 10.5083 15.0668 10.1667C15.3752 9.84999 15.8002 9.66663 16.2668 9.66663H17.9751C18.4501 9.66663 18.8335 10.05 18.8335 10.5166Z" stroke="#1151B4" stroke-width="1.25" stroke-linecap="round" stroke-linejoin="round"/>
</g>
</svg>
