<svg width="57" height="56" viewBox="0 0 57 56" fill="none" xmlns="http://www.w3.org/2000/svg">
<rect x="4.5" y="4" width="48" height="48" rx="24" fill="#FCF2DB"/>
<rect x="4.5" y="4" width="48" height="48" rx="24" stroke="#FDF9ED" stroke-width="8"/>
<path d="M29 17.5C26.9233 17.5 24.8932 18.1158 23.1665 19.2696C21.4398 20.4233 20.094 22.0632 19.2993 23.9818C18.5045 25.9004 18.2966 28.0116 18.7018 30.0484C19.1069 32.0852 20.1069 33.9562 21.5754 35.4246C23.0438 36.8931 24.9148 37.8931 26.9516 38.2982C28.9884 38.7034 31.0996 38.4955 33.0182 37.7007C34.9368 36.906 36.5767 35.5602 37.7304 33.8335C38.8842 32.1068 39.5 30.0767 39.5 28C39.5 25.2152 38.3938 22.5445 36.4246 20.5754C34.4555 18.6062 31.7848 17.5 29 17.5ZM29 37C27.22 37 25.4799 36.4722 23.9999 35.4832C22.5198 34.4943 21.3663 33.0887 20.6851 31.4442C20.0039 29.7996 19.8257 27.99 20.1729 26.2442C20.5202 24.4984 21.3774 22.8947 22.636 21.636C23.8947 20.3774 25.4984 19.5202 27.2442 19.1729C28.99 18.8257 30.7996 19.0039 32.4442 19.6851C34.0887 20.3663 35.4943 21.5198 36.4832 22.9999C37.4722 24.4799 38 26.22 38 28C38 30.3869 37.0518 32.6761 35.364 34.364C33.6761 36.0518 31.387 37 29 37Z" fill="#EFBF4D"/>
<path d="M28.25 22H29.75V30.25H28.25V22ZM29 32.5C28.7775 32.5 28.56 32.566 28.375 32.6896C28.19 32.8132 28.0458 32.9889 27.9606 33.1945C27.8755 33.4 27.8532 33.6262 27.8966 33.8445C27.94 34.0627 28.0472 34.2632 28.2045 34.4205C28.3618 34.5778 28.5623 34.685 28.7805 34.7284C28.9988 34.7718 29.225 34.7495 29.4305 34.6644C29.6361 34.5792 29.8118 34.435 29.9354 34.25C30.059 34.065 30.125 33.8475 30.125 33.625C30.125 33.3266 30.0065 33.0405 29.7955 32.8295C29.5845 32.6185 29.2984 32.5 29 32.5Z" fill="#EFBF4D"/>
</svg>
