<svg width="25" height="24" viewBox="0 0 25 24" fill="none" xmlns="http://www.w3.org/2000/svg">
<g id="Iconly">
<g id="Heart">
<path id="Heart_2" d="M18.2098 2.79071L18.0325 3.31912L18.0375 3.32074L18.2098 2.79071ZM16.3498 2.50071L16.3458 3.05805H16.3498V2.50071ZM22.1198 11.5807L22.6461 11.764L22.649 11.7558L22.6515 11.7476L22.1198 11.5807ZM19.1108 16.3897L19.4986 16.7901L19.5049 16.7838L19.1108 16.3897ZM12.7798 21.3497L13.068 21.8268L13.0758 21.8219L12.7798 21.3497ZM12.5298 21.5007L12.2364 21.9746L12.5262 22.154L12.8179 21.9778L12.5298 21.5007ZM12.2698 21.3397L11.976 21.8133L11.9763 21.8136L12.2698 21.3397ZM5.90077 16.3797L5.50527 16.7726L5.51384 16.7808L5.90077 16.3797ZM2.88977 11.5807L2.35882 11.7502L2.36146 11.7584L2.36434 11.7666L2.88977 11.5807ZM6.82077 2.76971L6.99414 3.29947L7.00246 3.2966L6.82077 2.76971ZM7.70977 2.56071V2.00337H7.6737L7.63792 2.00802L7.70977 2.56071ZM7.82977 2.56071V3.11805H7.87022L7.91024 3.11221L7.82977 2.56071ZM8.77977 2.50071L8.79657 1.94362L8.78818 1.94337H8.77977V2.50071ZM10.6108 2.83071L10.4313 3.35837L10.5186 3.38805H10.6108V2.83071ZM10.6698 2.83071L10.9089 2.32727L10.7954 2.27337H10.6698V2.83071ZM10.7598 2.88971L10.3759 3.29379L10.4682 3.38142L10.5893 3.42034L10.7598 2.88971ZM11.3898 3.15071L11.1212 3.63906L11.1413 3.6501L11.1622 3.65946L11.3898 3.15071ZM11.7698 3.32071L12.0321 2.82894L12.015 2.81985L11.9974 2.81196L11.7698 3.32071ZM12.0537 3.50918L11.7263 3.96019L11.7263 3.96019L12.0537 3.50918ZM12.1998 3.61071L11.9095 4.08656L11.9166 4.09073L12.1998 3.61071ZM12.2494 3.63978L11.9684 4.12111L11.9684 4.12111L12.2494 3.63978ZM12.4998 3.79971L12.1607 4.24202L12.4992 4.50158L12.8382 4.24255L12.4998 3.79971ZM19.7998 8.93971L20.3557 8.97933L20.3571 8.95955V8.93971H19.7998ZM19.0098 9.70071L18.9568 10.2555L18.9907 10.2588L19.0247 10.2579L19.0098 9.70071ZM19.7998 8.82071L19.2424 8.80878V8.82071H19.7998ZM17.6898 5.66071L17.8875 5.13964L17.8793 5.13653L17.871 5.13367L17.6898 5.66071ZM16.6798 6.16071L16.1548 5.97322L16.151 5.98447L16.6798 6.16071ZM17.1798 7.18971L17.3752 6.66768L17.3661 6.66445L17.1798 7.18971ZM18.2498 8.79071L18.8052 8.8368L18.8071 8.8138V8.79071H18.2498ZM18.3871 2.26232C17.7235 2.03964 17.0326 1.94337 16.3498 1.94337V3.05805C16.9289 3.05805 17.4981 3.13978 18.0325 3.3191L18.3871 2.26232ZM22.6515 11.7476C23.8251 8.00838 22.4479 3.58251 18.3821 2.26068L18.0375 3.32074C21.3537 4.3989 22.6365 8.07304 21.588 11.4138L22.6515 11.7476ZM19.5049 16.7838C20.9141 15.3746 21.9889 13.6513 22.6461 11.764L21.5934 11.3974C20.9907 13.1282 20.0055 14.7068 18.7167 15.9956L19.5049 16.7838ZM13.0758 21.8219C15.3897 20.3713 17.5395 18.6872 19.4985 16.7901L18.723 15.9893C16.8201 17.8322 14.7318 19.4681 12.4837 20.8775L13.0758 21.8219ZM12.8179 21.9778L13.0679 21.8268L12.4916 20.8726L12.2416 21.0236L12.8179 21.9778ZM11.9763 21.8136L12.2364 21.9746L12.8232 21.0269L12.5632 20.8659L11.9763 21.8136ZM5.51384 16.7808C7.49102 18.688 9.65321 20.3724 11.976 21.8133L12.5636 20.8661C10.3083 19.467 8.20852 17.8314 6.28771 15.9786L5.51384 16.7808ZM2.36434 11.7666C3.0317 13.6529 4.10695 15.3647 5.50536 16.7725L6.29619 15.9869C5.01459 14.6967 4.02784 13.1265 3.4152 11.3948L2.36434 11.7666ZM6.64743 2.24001C2.545 3.58256 1.16371 8.00621 2.35882 11.7502L3.42072 11.4112C2.35583 8.0752 3.63455 4.39885 6.99412 3.29941L6.64743 2.24001ZM7.63792 2.00802C7.30053 2.05188 6.96473 2.13052 6.63908 2.24281L7.00246 3.2966C7.25682 3.2089 7.51902 3.14754 7.78162 3.1134L7.63792 2.00802ZM7.82977 2.00337H7.70977V3.11805H7.82977V2.00337ZM8.66977 1.94337C8.36433 1.94337 8.05838 1.96411 7.7493 2.00921L7.91024 3.11221C8.16317 3.07531 8.41522 3.05805 8.66977 3.05805V1.94337ZM8.77977 1.94337H8.66977V3.05805H8.77977V1.94337ZM10.7902 2.30305C10.1463 2.08405 9.48146 1.96428 8.79657 1.94362L8.76297 3.0578C9.33808 3.07514 9.89323 3.17537 10.4313 3.35837L10.7902 2.30305ZM10.6698 2.27337H10.6108V3.38805H10.6698V2.27337ZM11.1436 2.48563C11.0738 2.41933 10.9925 2.36696 10.9089 2.32727L10.4306 3.33414C10.4277 3.33276 10.4217 3.32966 10.4131 3.32395C10.4049 3.31848 10.3918 3.3089 10.3759 3.29379L11.1436 2.48563ZM11.6584 2.66236C11.415 2.52848 11.1688 2.43573 10.9302 2.35908L10.5893 3.42034C10.7927 3.48568 10.9646 3.55294 11.1212 3.63906L11.6584 2.66236ZM11.9974 2.81196L11.6174 2.64196L11.1622 3.65946L11.5422 3.82946L11.9974 2.81196ZM12.3812 3.05817C12.3009 2.99991 12.1647 2.8997 12.0321 2.82894L11.5075 3.81248C11.5585 3.83966 11.6284 3.88911 11.7263 3.96019L12.3812 3.05817ZM12.49 3.13491C12.4749 3.12568 12.4453 3.1047 12.3812 3.05817L11.7263 3.96019C11.7751 3.99561 11.8471 4.04842 11.9095 4.08651L12.49 3.13491ZM12.5304 3.15845C12.5134 3.14856 12.498 3.13954 12.483 3.13068L11.9166 4.09073C11.9342 4.10113 11.9519 4.11147 11.9684 4.12111L12.5304 3.15845ZM12.8389 3.3574C12.7306 3.27439 12.6094 3.20456 12.5304 3.15844L11.9684 4.12111C12.0609 4.1751 12.1183 4.20955 12.1607 4.24202L12.8389 3.3574ZM16.3538 1.94338C14.8373 1.93247 13.3684 2.43449 12.1614 3.35687L12.8382 4.24255C13.8532 3.46693 15.0822 3.04895 16.3458 3.05804L16.3538 1.94338ZM19.2438 8.9001C19.2342 9.03487 19.1185 9.14026 18.9948 9.14357L19.0247 10.2579C19.721 10.2392 20.3053 9.68656 20.3557 8.97933L19.2438 8.9001ZM19.2424 8.82071V8.93971H20.3571V8.82071H19.2424ZM17.492 6.18179C18.5588 6.58669 19.2676 7.63967 19.2425 8.80878L20.357 8.83265C20.3919 7.19976 19.4027 5.71474 17.8875 5.13964L17.492 6.18179ZM17.2046 6.34817C17.2557 6.20531 17.3974 6.14956 17.5085 6.18776L17.871 5.13367C17.1621 4.88987 16.4039 5.27611 16.1549 5.97326L17.2046 6.34817ZM17.3661 6.66445C17.2359 6.61825 17.1633 6.47252 17.2085 6.33696L16.151 5.98447C15.9162 6.6889 16.2836 7.46318 16.9934 7.71498L17.3661 6.66445ZM18.8071 8.75971C18.8071 7.8359 18.2409 6.9919 17.3752 6.66776L16.9843 7.71167C17.4006 7.86753 17.6924 8.28553 17.6924 8.75971H18.8071ZM18.8071 8.79071V8.75971H17.6924V8.79071H18.8071ZM18.87 9.05641C18.8245 9.00113 18.7979 8.9246 18.8052 8.8368L17.6943 8.74463C17.6636 9.11483 17.7751 9.48029 18.0095 9.76502L18.87 9.05641ZM19.0627 9.14589C18.9687 9.13692 18.903 9.09653 18.87 9.05641L18.0095 9.76502C18.2565 10.0649 18.6108 10.2225 18.9568 10.2555L19.0627 9.14589Z" fill="#667085"/>
</g>
</g>
</svg>
